<?xml version="1.0" encoding="UTF-8" standalone="no"?>
<svg width="250px" height="250px" viewBox="0 0 250 250" version="1.1" xmlns="http://www.w3.org/2000/svg" xmlns:xlink="http://www.w3.org/1999/xlink" xmlns:sketch="http://www.bohemiancoding.com/sketch/ns">
    <!-- Generator: Sketch 3.4.3 (16618) - http://www.bohemiancoding.com/sketch -->
    <title>v</title>
    <desc>Created with Sketch.</desc>
    <defs></defs>
    <g id="Page-1" stroke="none" stroke-width="1" fill="none" fill-rule="evenodd" sketch:type="MSPage">
        <g id="v" sketch:type="MSArtboardGroup">
            <circle id="Oval-1" fill="#EA122C" sketch:type="MSShapeGroup" cx="125" cy="125" r="125"></circle>
            <path d="M194.999994,31.0777202 C176.020822,17.7940036 152.916973,10 127.992737,10 C63.3794325,10 11,62.3794325 11,126.992737 C11,173.285338 37.8868578,213.298177 76.8964924,232.267173 C46.6742781,211.114337 26.9110122,176.041225 26.9110122,136.352156 C26.9110122,71.7388515 79.2904448,19.359419 143.903749,19.359419 C162.224455,19.359419 179.561593,23.5705746 195,31.0777231 Z" id="Oval-1" opacity="0.505188899" fill="#FFB5BF" sketch:type="MSShapeGroup"></path>
            <path d="M142.980323,124.795075 L179.300986,88.4559455 C182.349171,85.4075174 182.349171,80.4444061 179.300986,77.358802 L171.902971,69.9607873 C168.8543,66.9123591 163.891675,66.9123591 160.806071,69.9607873 L124.485164,106.300403 L88.3686044,70.183843 C85.3201762,67.1354148 80.357065,67.1354148 77.2717038,70.183843 L69.8734461,77.5818577 C66.825018,80.6302859 66.825018,85.5933971 69.8734461,88.6790013 L105.990006,124.795318 L69.9108651,160.856236 C66.8624369,163.904664 66.8624369,168.867533 69.9108651,171.953137 L77.3088798,179.351151 C80.3573079,182.399579 85.3204192,182.399579 88.4057803,179.351151 L124.485164,143.290477 L160.638658,179.444213 C163.687329,182.492641 168.65044,182.492641 171.735558,179.444213 L179.133573,172.046198 C182.182244,168.99777 182.182244,164.034659 179.133573,160.949054 L142.980323,124.795075 L142.980323,124.795075 Z" id="Shape" fill="#FFFFFF" sketch:type="MSShapeGroup"></path>
        </g>
    </g>
</svg>