<svg id="Layer_1" data-name="Layer 1" xmlns="http://www.w3.org/2000/svg" viewBox="0 0 102.45 137.2"><title>fly</title><circle cx="86.65" cy="55.15" r="15.8" style="fill:#4f4f4f"/><circle cx="86.65" cy="39.35" r="11" style="fill:#ed2d64"/><circle cx="86.65" cy="71.96" r="11" style="fill:#ed2d64"/><circle cx="91.79" cy="71.96" r="3.41" style="fill:#fff"/><path d="M11.14,58.86l-1.9-1.55c1.18-1.44,2-2.27,2-2.3L13,56.74S12.23,57.52,11.14,58.86Z" style="fill:#4f4f4f"/><path d="M76.12,136.55l-0.47-2.41a32.43,32.43,0,0,0,5.29-1.52l0.88,2.29A34.94,34.94,0,0,1,76.12,136.55Zm11-4.22-1.26-2.1A27.46,27.46,0,0,0,90.27,127l1.66,1.81A29.89,29.89,0,0,1,87.14,132.33Zm8.69-8.11-2.06-1.34a14.71,14.71,0,0,0,2.08-4.82l2.4,0.53A17.15,17.15,0,0,1,95.84,124.22Zm0-11.24a12,12,0,0,0-2.38-4.56l1.9-1.55a14.43,14.43,0,0,1,2.86,5.5Zm-6.36-8.14c-0.52-.36-1.08-0.71-1.67-1.05a23.06,23.06,0,0,0-3.12-1.51l0.9-2.28A25.5,25.5,0,0,1,89,101.67c0.64,0.37,1.25.76,1.82,1.15ZM30.1,102.9l-1.8,0,0.06-2.45,1.76,0c1.21,0,2.51,0,3.87-.09l0.11,2.45c-1.39.06-2.73,0.09-4,.09h0Zm-7.63-.46a36.24,36.24,0,0,1-5.78-1.23l0.72-2.35A33.82,33.82,0,0,0,22.8,100Zm17.39,0L39.65,100c1.65-.14,3.45-0.32,5.66-0.55l0.26,2.44C43.35,102.11,41.53,102.29,39.86,102.43Zm11.41-1.18L51,98.81c1.81-.2,3.75-0.41,5.7-0.6l0.24,2.44C55,100.84,53.06,101,51.26,101.25Zm28.11-.48a44.75,44.75,0,0,0-5.52-.7L74,97.62a47.21,47.21,0,0,1,5.82.74Zm-16.78-.6-0.16-2.45c2.1-.14,4-0.22,5.78-0.25l0,2.45C66.5,100,64.65,100,62.6,100.17Zm-51.4-1.34A21.16,21.16,0,0,1,7,95.58l-0.5-.51,1.78-1.69,0.46,0.47a18.72,18.72,0,0,0,3.72,2.88ZM2.86,90.28A21.4,21.4,0,0,1,.6,84.68L3,84.1a18.94,18.94,0,0,0,2,5ZM2.45,78.76L0,78.67a26.55,26.55,0,0,1,.92-5.91L3.29,73.4A24.08,24.08,0,0,0,2.45,78.76ZM5.19,68.24L3,67.21A44.42,44.42,0,0,1,5.8,62.06l2.07,1.32A42,42,0,0,0,5.19,68.24Z" style="fill:#4f4f4f"/><path d="M69.51,137.2c-0.8,0-1.59,0-2.38-.08l0.17-2.45c0.94,0.07,1.89.09,2.83,0.07l0,2.45H69.51Z" style="fill:#4f4f4f"/><circle cx="91.79" cy="39.35" r="3.41" style="fill:#fff"/><path d="M61.31,61S75.64,75.82,75.64,89.72s-3.06,21.59-14.33,21.59-14.06-8.7-14.06-20.86S61.31,61,61.31,61Z" style="fill:#ccc"/><path d="M61.58,50.36S47.25,35.5,47.25,21.59,50.31,0,61.58,0,75.64,8.7,75.64,20.86,61.58,50.36,61.58,50.36Z" style="fill:#ccc"/><circle cx="50.29" cy="55.88" r="25.35" style="fill:#4f4f4f"/><circle cx="50.29" cy="55.88" r="20.55" style="fill:#fff"/></svg>