<?xml version="1.0" encoding="UTF-8" standalone="no"?>
<svg width="630px" height="400px" viewBox="0 0 630 400" version="1.1" xmlns="http://www.w3.org/2000/svg" xmlns:xlink="http://www.w3.org/1999/xlink" xmlns:sketch="http://www.bohemiancoding.com/sketch/ns">
    <!-- Generator: Sketch 3.4.3 (16618) - http://www.bohemiancoding.com/sketch -->
    <title>Artboard 2</title>
    <desc>Created with Sketch.</desc>
    <defs></defs>
    <g id="Page-1-Copy" stroke="none" stroke-width="1" fill="none" fill-rule="evenodd" sketch:type="MSPage">
        <g id="Artboard-2" sketch:type="MSArtboardGroup">
            <rect id="Rectangle-1" fill="#E2E2E2" sketch:type="MSShapeGroup" x="0" y="0" width="630" height="400"></rect>
            <g id="google-logo" sketch:type="MSLayerGroup" transform="translate(87.000000, 124.000000)">
                <path d="M195.917593,79.6817778 C195.917593,101.248889 179.008593,117.141333 158.257407,117.141333 C137.506222,117.141333 120.597222,101.248889 120.597222,79.6817778 C120.597222,57.9626667 137.506222,42.2222222 158.257407,42.2222222 C179.008593,42.2222222 195.917593,57.9626667 195.917593,79.6817778 L195.917593,79.6817778 Z M179.431741,79.6817778 C179.431741,66.2044444 169.63163,56.9831111 158.257407,56.9831111 C146.883185,56.9831111 137.083074,66.2044444 137.083074,79.6817778 C137.083074,93.024 146.883185,102.380444 158.257407,102.380444 C169.63163,102.380444 179.431741,93.0071111 179.431741,79.6817778 L179.431741,79.6817778 Z" id="Shape" fill="#EA4335" sketch:type="MSShapeGroup"></path>
                <path d="M277.162037,79.6817778 C277.162037,101.248889 260.253037,117.141333 239.501852,117.141333 C218.750667,117.141333 201.841667,101.248889 201.841667,79.6817778 C201.841667,57.9795556 218.750667,42.2222222 239.501852,42.2222222 C260.253037,42.2222222 277.162037,57.9626667 277.162037,79.6817778 L277.162037,79.6817778 Z M260.676185,79.6817778 C260.676185,66.2044444 250.876074,56.9831111 239.501852,56.9831111 C228.12763,56.9831111 218.327519,66.2044444 218.327519,79.6817778 C218.327519,93.024 228.12763,102.380444 239.501852,102.380444 C250.876074,102.380444 260.676185,93.0071111 260.676185,79.6817778 L260.676185,79.6817778 Z" id="Shape" fill="#FBBC05" sketch:type="MSShapeGroup"></path>
                <path d="M355.021296,44.4853333 L355.021296,111.736889 C355.021296,139.400889 338.670852,150.699556 319.341444,150.699556 C301.146074,150.699556 290.195,138.556444 286.065074,128.625778 L300.418259,122.664 C302.974074,128.760889 309.236667,135.955556 319.324519,135.955556 C331.69737,135.955556 339.364815,128.338667 339.364815,114 L339.364815,108.612444 L338.789333,108.612444 C335.099481,113.155556 327.990593,117.124444 319.019852,117.124444 C300.249,117.124444 283.052259,100.809778 283.052259,79.8168889 C283.052259,58.672 300.249,42.2222222 319.019852,42.2222222 C327.973667,42.2222222 335.082556,46.1911111 338.789333,50.5991111 L339.364815,50.5991111 L339.364815,44.5022222 L355.021296,44.5022222 L355.021296,44.4853333 Z M340.532704,79.8168889 C340.532704,66.6266667 331.714296,56.9831111 320.492407,56.9831111 C309.118185,56.9831111 299.588889,66.6266667 299.588889,79.8168889 C299.588889,92.872 309.118185,102.380444 320.492407,102.380444 C331.714296,102.380444 340.532704,92.872 340.532704,79.8168889 L340.532704,79.8168889 Z" id="Shape" fill="#4285F4" sketch:type="MSShapeGroup"></path>
                <path d="M380.833333,5.06666667 L380.833333,114.844444 L364.753704,114.844444 L364.753704,5.06666667 L380.833333,5.06666667 L380.833333,5.06666667 Z" id="Shape" fill="#34A853" sketch:type="MSShapeGroup"></path>
                <path d="M443.493111,92.0106667 L456.289111,100.522667 C452.159185,106.619556 442.206741,117.124444 425.01,117.124444 C403.683333,117.124444 387.756037,100.674667 387.756037,79.6648889 C387.756037,57.3884444 403.818741,42.2053333 423.165074,42.2053333 C442.646815,42.2053333 452.176111,57.6755556 455.290481,66.0355556 L457,70.2915556 L406.81463,91.0311111 C410.656815,98.5466667 416.631667,102.380444 425.01,102.380444 C433.405259,102.380444 439.227778,98.2595556 443.493111,92.0106667 L443.493111,92.0106667 Z M404.106481,78.5333333 L437.653667,64.6337778 C435.808741,59.9555556 430.257037,56.696 423.72363,56.696 C415.345296,56.696 403.683333,64.0764444 404.106481,78.5333333 L404.106481,78.5333333 Z" id="Shape" fill="#EA4335" sketch:type="MSShapeGroup"></path>
                <path d="M59.7315926,69.9368889 L59.7315926,54.0444444 L113.403704,54.0444444 C113.928407,56.8142222 114.199222,60.0906667 114.199222,63.6373333 C114.199222,75.5608889 110.932519,90.3048889 100.404593,100.809778 C90.1644074,111.449778 77.0806667,117.124444 59.7485185,117.124444 C27.6231111,117.124444 0.609333333,91.0142222 0.609333333,58.9591111 C0.609333333,26.904 27.6231111,0.793777778 59.7485185,0.793777778 C77.5207407,0.793777778 90.1813333,7.752 99.6937037,16.8213333 L88.4548889,28.0355556 C81.6337407,21.6515556 72.3921852,16.6862222 59.7315926,16.6862222 C36.2722593,16.6862222 17.9245556,35.5511111 17.9245556,58.9591111 C17.9245556,82.3671111 36.2722593,101.232 59.7315926,101.232 C74.948,101.232 83.6140741,95.1351111 89.1657778,89.5955556 C93.6680741,85.1031111 96.6301111,78.6853333 97.798,69.92 L59.7315926,69.9368889 L59.7315926,69.9368889 Z" id="Shape" fill="#4285F4" sketch:type="MSShapeGroup"></path>
            </g>
        </g>
    </g>
</svg>