<?xml version="1.0" encoding="utf-8"?>
<!-- Generator: Adobe Illustrator 19.2.0, SVG Export Plug-In . SVG Version: 6.00 Build 0)  -->
<svg version="1.1" id="Layer_1" xmlns="http://www.w3.org/2000/svg" xmlns:xlink="http://www.w3.org/1999/xlink" x="0px" y="0px"
	 viewBox="0 0 518.3 598" style="enable-background:new 0 0 518.3 598;" xml:space="preserve">
<style type="text/css">
	.st0{fill:#896E37;}
	.st1{fill:#BC9F5E;}
	.st2{fill:#8D572B;}
	.st3{fill:#E8AF7C;}
	.st4{fill:#CB9162;}
	.st5{fill:#49C3D8;}
	.st6{fill:#502F15;}
	.st7{opacity:0.52;fill:#339DA8;enable-background:new    ;}
	.st8{fill:url(#SVGID_1_);}
	.st9{fill:#D5D5D5;}
	.st10{opacity:0.64;fill:#AEAEAF;enable-background:new    ;}
	.st11{fill:#989898;}
	.st12{fill:#75461C;}
	.st13{opacity:0.64;fill:#99999A;enable-background:new    ;}
	.st14{fill:#2E7C83;}
	.st15{fill:#C3BCB7;}
	.st16{fill:#BFE5EB;}
	.st17{fill:url(#SVGID_2_);}
	.st18{opacity:0.37;fill:#FFFFFF;enable-background:new    ;}
	.st19{opacity:0.73;fill:#F9F9F9;enable-background:new    ;}
	.st20{fill:#ECC09C;}
	.st21{opacity:0.52;}
	.st22{fill:#339DA8;}
	.st23{opacity:0.49;fill:#B98360;enable-background:new    ;}
	.st24{fill:#B4B2B0;}
	.st25{fill:#FFFFFF;}
	.st26{fill:#586167;}
	.st27{fill:#D8D6D3;}
	.st28{fill:#231F20;}
	.st29{fill:#DFC075;}
	.st30{fill:#61DB78;}
	.st31{opacity:0.23;fill:#414042;enable-background:new    ;}
	.st32{fill:#30893D;}
	.st33{fill:#4F4F4F;}
	.st34{fill:#ED2D64;}
	.st35{fill:#CCCCCC;}
	.st36{fill:url(#SVGID_3_);}
	.st37{fill:url(#SVGID_4_);}
	.st38{fill:url(#SVGID_5_);}
	.st39{fill:url(#SVGID_6_);}
</style>
<g>
	<polygon class="st0" points="336.4,98.6 296.3,127.2 297.4,129.3 109.7,280.7 113.1,287.1 300.8,135.8 301.7,137.7 339.1,103.9 
		376.4,70.1 	"/>
	<polygon class="st0" points="337.9,306.9 299.1,302.8 299.2,305.1 111.1,299.2 111.2,306.3 299.3,312.2 299.2,314.2 338,312.6 
		376.7,310.9 	"/>
	<polygon class="st0" points="339.4,475.7 301.6,446.6 300.3,448.8 109.5,321.1 105.7,327.9 296.5,455.6 295.4,457.6 336.3,481.2 
		377.2,504.7 	"/>
</g>
<g>
	<polygon class="st1" points="378.3,539.6 337.4,537.8 296.5,536 296.9,537.6 101.2,540.2 102.4,546 298.2,543.4 298.6,545.3 
		338.4,542.5 	"/>
	<polygon class="st1" points="375.7,366.7 333.7,386.1 291.7,405.5 292.7,407.4 96.1,514.8 99.7,521.6 296.3,414.2 297.5,416.5 
		336.6,391.6 	"/>
	<polygon class="st1" points="374,123.5 330.2,176.5 286.5,229.6 288.1,231.1 86.7,499 92.2,504.5 293.6,236.6 295.4,238.4 
		334.7,181 	"/>
</g>
<title>many_penguins</title>
<g>
	<path class="st2" d="M417.3,325.1c0,0-3.8,15-2.5,17.4s9.5,6.7,9.5,6.7s-6.3,0.8-6.3,4.8s11.5-3.4,11.5-3.4l-1.1-4.6l14-5.1
		c0,0,15.6,0.3,22.5,5.1s6.1,4.6,6.1,4.6s0.9,6.4,5.1,6.4s-4.1-7.7-4.1-7.7c-0.3-4.9-0.1-9.8,0.8-14.7c1.5-7.3,1.7-8.4,1.7-8.4
		L417.3,325.1z"/>
	<path class="st3" d="M476.1,318.1l-2.2,11.3c0,0-0.2,3.7-13.2,5s-33.5-2.1-33.5-2.1s-6.3-3.2-7.9-4.8c-0.8-0.7-1.5-1.5-2-2.4l2-7.9
		l51.7-5.6c0,0,1.8,4.2,2.9,5C474.5,317.2,475.3,317.6,476.1,318.1z"/>
	<path class="st4" d="M475.5,320.6l-0.5,3.2l-2.4-1c0,0-0.7,6.2-2.4,7.2c-1.5,1-2.9,2.3-4,3.7l4-19.7l3.4-0.9L475.5,320.6z"/>
	<path class="st5" d="M474.6,295.7c0,0,11.6,3.7,16.9,7l5.3,3.4l-5.3,4.6c0,0-5.5-1.8-10.7,0s-3.4,1-3.4,1l-2,8.9
		c0,0-5.4-8.5-5.3-12.4s0-7.6,0-7.6L474.6,295.7z"/>
	<path class="st5" d="M414.5,291.5c0,0-4.1,2.5-5.9,1.4l-1.9-1.1c0,0,2.7-4.1,2.7-6.6s-1.9,0.2-2.7,1.2l-0.9,1c0,0-1.2-5.9-2.7-7.3
		s-2.2,1.7-2.2,3.2c0.1,1.1,0.4,2.2,1,3.2l-6.1-5.6c-1,0.9-1.3,2.2-1,3.5c0.5,1.6,1.5,3,2.9,4c0,0-4.2-2.8-5.2-1.9s2,5.1,2,5.1h2.5
		c0,0-0.3,2.9,0.7,4.2s4.2,0,4.2,0s11.2,10.4,14.6,12.4l3.4,2v-13.8L414.5,291.5z"/>
	<path class="st6" d="M473.9,329.4l-1.2,6.1c0,0-5.1,1.8-6.4,2s-2.7,3.1-4.7,4.1s-3.2,1.7-3.2,1.7l-5.2-1.4l-16.9,1.4l-3.3,1.2
		l-6.7,2.3c0,0,4.7-3.1,4.7-4.9s-4.7-10-4.7-10l15.5,2.9L473.9,329.4z"/>
	<path class="st7" d="M420,296.4l-5.5-4.9c-1.3,0.8-2.6,1.3-4.1,1.7c-0.5,1.6-1.2,4.8,0.3,6.9c2.1,2.9,1.6,4.8,1.6,4.8
		c1.3,1.2,2.8,2.2,4.2,3.2l0.5,0.3l2.9-1.3L420,296.4L420,296.4z"/>
	<path class="st7" d="M483.1,305.9c-5.3,0.4-8.3-0.1-8.3-1.7s2.2-1.5,2.7-2.5c0.5-1.5,1-3,1.3-4.5c-2.4-0.9-4.1-1.4-4.1-1.4
		l-4.5,4.8c0,0,0.1,3.7,0,7.6s5.3,12.4,5.3,12.4l2-8.8c0.4-0.1,1.3-0.4,3.4-1.1c5.1-1.8,10.7,0,10.7,0l1.8-1.6l0,0
		c0,0,3.1-4.3,1.5-5c-0.6-0.3-5.5,2.9-6.2,2.7C486.9,306.1,485,305.8,483.1,305.9z"/>
	
		<linearGradient id="SVGID_1_" gradientUnits="userSpaceOnUse" x1="470.87" y1="284.865" x2="477.46" y2="284.865" gradientTransform="matrix(1 0 0 -1 0 600)">
		<stop  offset="0" style="stop-color:#257B82"/>
		<stop  offset="1" style="stop-color:#339DA8"/>
	</linearGradient>
	<path class="st8" d="M477.5,311.8c0,0-2.6,0.1-3.9,1.3s-2.7-3.3-2.7-3.3l0.9,4l3.8,6.8L477.5,311.8z"/>
	<path class="st9" d="M448.6,283.7l22.5,18.3c0,0,3.1,20.9-2.6,28.9s-17.9,15.6-22.2,17.2s-9,2.6-9,2.6s2.9-1.1,2.2-3.5
		s-25.6-28.6-25.8-33.5S418,302,418,302l24.8-16.3L448.6,283.7z"/>
	<path class="st10" d="M468.5,330.9c5.7-7.9,2.6-28.9,2.6-28.9l-3-2.4l-13.5,1.3c0,0,8.1,16.7,4.8,30.7s-22.2,19.2-22.2,19.2
		s4.6-1.1,9-2.6S462.8,338.8,468.5,330.9z"/>
	<path class="st3" d="M425,284.9c0,0-7.9-5.1-8.4-9.1s23.3-18,28.5-19.4s4.6-1.2,4.6-1.2l-2.3-11.1c0,0,3.3-1.8,12.1-1.2
		s10.3,4.3,10.3,4.3l-5.7,9.8c0,0,12.7,7.9,17.3,14.5s6.7,11.6,5.9,12.9s-9.1,3.2-13.8,4c-2.6,0.5-5.2,0.8-7.8,0.8L425,284.9z"/>
	<path class="st11" d="M471.1,302l0.3,2.9c-2.1,0.7-4.4,1.1-6.6,1c-2.9,0-5.7-0.4-8.5-1l-1-3.6L471.1,302z"/>
	<path class="st4" d="M465.8,289.2h0.9c2.3-0.1,4.6-0.4,6.8-0.8c4.6-0.8,12.9-2.7,13.8-4s-1.3-6.4-5.9-12.9S464.2,257,464.2,257
		l5.7-9.8c0,0-0.8-2-4.6-3.3l-3.3,12.1c0,0,8.6,6.5,12,12.2s-2,11.9-2,11.9L465.8,289.2z"/>
	<path class="st12" d="M425.6,283.2c0,0-8.5-4.6-5.8-6s7.2-5.6,30.7-4.9s32.6,9.6,32.6,10.9s-14.4,3.2-14.4,3.2l-36.5-2.1
		L425.6,283.2z"/>
	<path class="st6" d="M483.1,283.2c0-1.2-9-10.1-32.6-10.9s-28,3.5-30.7,4.9c-1.5,0.8,0.4,2.4,2.4,3.8c4.9-1,15.9-3.2,20.9-3.1
		c6.5,0.1,22,1.9,28.9,5.2c1.7,0.8,3.1,1.5,4.2,2C479.7,284.6,483.1,283.9,483.1,283.2z"/>
	<path class="st9" d="M446.8,284.5c5-3.8,11.6-4.5,17.3-1.9c9.9,4.4,4.6,6.7,9.7,7.6s3-4.6,3-4.6s6.7,10.9-1.9,15s-8.2,4.8-11.9,4
		s-9.8-1.9-13.2-5.1c-2.1-1.9-3.8-4.1-5.3-6.5L446.8,284.5z"/>
	<path class="st13" d="M435.1,305.9c0,0,0.8,5.5,2.9,5.7s7.9-2.7,8.9-5.1s2-5.2,2-5.2l7.3,3.6l-0.9-2.2c0,0-3.7-1.3-5.6-3.2
		c-1.2-1.3-2.3-2.7-3.2-4.2L435.1,305.9z"/>
	<path class="st9" d="M437.7,283.1c0,0-2.1-2.9-8-2.1s-6.5,7.8-11.4,8.2s-4.2-1-4.2-2.5s-3.9,13.3,0,14.3s7.5,2.1,13.4,0
		c3.2-1.1,6.3-2.5,9.1-4.4L437.7,283.1z"/>
	<path class="st5" d="M437.7,298.7c0,0-6.7,5.3-2.1,10.1s11.8-4.8,11.6-7.2s-0.6-6.3-0.6-6.3L437.7,298.7z"/>
	<polygon class="st7" points="446.9,299 447.2,300.8 443.7,302.7 437.5,302.7 435.1,301.6 436.2,300 	"/>
	<path class="st14" d="M439.1,300.6c0,0-3.4,2.7-1.1,5.2s5.6-2.5,6-3.7c0.4-1.4,0.9-2.7,1.5-4L439.1,300.6z"/>
	<path class="st10" d="M449.9,299.5c3.4,3.2,9.5,4.4,13.2,5.1s3.3,0.2,11.9-4c2.9-1.2,4.6-4.2,4.4-7.3c0,0.7-0.4,2.4-3,4.3
		c-3.5,2.5-8.9-1.7-14.4-4.6c-3.4-1.7-7.3-2.2-11.1-1.4l-3.9,4.8C447.9,297.5,448.8,298.5,449.9,299.5z"/>
	<path class="st11" d="M453.6,291.1c0.8,0.3,1.4,1,1.7,1.9c0.2,1.3,0.2,3.3-1.4,3.4c-0.9,0.1-1.8,0.1-2.8,0
		c-0.2,0.6-0.5,1.2-0.9,1.8c-0.6,0.6-0.9,0.8-0.9,0.8l-1.3-1.4l1-4.1L453.6,291.1z"/>
	<path class="st15" d="M432.5,291.1c-0.9-1.3-2.4-2-3.9-1.9c-2.5,0.3-3.7,3.6-7,4.4s-7.7,0.5-8.2-0.6c-0.3-0.5-0.4-1.2-0.4-1.8
		c-0.7,4-1.1,9.3,1.1,9.8c3.9,1,7.5,2.1,13.4,0c3.1-1.1,6.1-2.5,8.9-4.2L432.5,291.1z"/>
	<ellipse class="st16" cx="436.4" cy="276.6" rx="4.2" ry="3.5"/>
	<path class="st9" d="M442.4,276.4c0,0-1.4-10.1-8.4-10.2s-10.2,3.4-10.5,5.1s-2,8.2-1.3,8.8s7.4-5.4,11.8-4.6s6.2,2.7,6.2,2.7
		L442.4,276.4z"/>
	<path class="st9" d="M448,277.5c0,0,10.2-7.3,13.9-7.8s8.6-0.7,8.6-0.7s5.7,5,4.9,9.2s-0.3,6.1-1.4,6.1s-9-7.1-16.2-7.1
		S447,281,447,281L448,277.5z"/>
	<ellipse class="st16" cx="458.9" cy="278" rx="6" ry="3"/>
	<path class="st9" d="M448,277.5c0,0,10.2-7.3,13.9-7.8s8.6-0.7,8.6-0.7s5.7,5,4.9,9.2s-0.3,6.1-1.4,6.1s-9-7.1-16.2-7.1
		S447,281,447,281L448,277.5z"/>
	<path class="st10" d="M475.4,278.2c0.1-0.4,0.1-0.8,0-1.2c-2.8-1-9.5-3.2-14-3.2c-5.7,0.1-13.5,4.9-13.5,4.9l1.3,0.6
		c2.6-1.4,5.5-2.2,8.5-2.1c7.2,0,15.1,7.1,16.2,7.1S474.7,282.4,475.4,278.2z"/>
	<path class="st11" d="M434,298.1l-1.9,1c-0.7-1.3-1.3-2.7-1.7-4.1c-0.3-1.5,2.4-5.2,2.4-5.2L434,298.1z"/>
	<path class="st10" d="M441.1,276.6c0,0-4.9-4.6-7.6-5.1s-11.2,5.5-11.2,5.5c-0.3,1.5-0.4,2.8-0.1,3.1c0.7,0.6,7.4-5.4,11.8-4.6
		c2.1,0.3,4.2,1.1,5.9,2.4L441.1,276.6z"/>
	<path class="st5" d="M451.4,289.2c0,0,0.8-12.8-6.3-14.1s-12.9,14.6-13.5,17.1s1.5,8.8,7.6,9.3c3.8,0.3,7.6-1.3,9.9-4.4
		c0.3-0.7,0.5-1.4,0.6-2.1c0,0,4.6,1.7,5-1.7S451.4,289.2,451.4,289.2z"/>
	<path class="st7" d="M451.4,289.2c-1.4-0.4-2.8-0.6-4.2-0.5c-1.9,0.2,1.7-1.4,1.7-7.9c0-4-0.2-3.6-0.2-3.6c1.4,1.7,2.2,3.8,2.4,6
		C451.4,287.2,451.4,289.2,451.4,289.2z"/>
	
		<linearGradient id="SVGID_2_" gradientUnits="userSpaceOnUse" x1="448.1476" y1="306.6805" x2="445.9576" y2="296.6305" gradientTransform="matrix(1 0 0 -1 0 600)">
		<stop  offset="0" style="stop-color:#257B82"/>
		<stop  offset="1" style="stop-color:#339DA8"/>
	</linearGradient>
	<path class="st17" d="M449.7,295.1c0,0-3.2-1.2-3.9,0.2s-0.7,5.2-0.7,5.2c1.3-0.6,2.4-1.4,3.3-2.5
		C450.1,296.2,449.7,295.1,449.7,295.1z"/>
	<path class="st18" d="M437.7,281.6c0,0-5,7.7-4.6,12.2s5,6.6,5,6.6s-3.3-4.2-2.5-8.5S437.7,281.6,437.7,281.6z"/>
	<path class="st19" d="M419.4,304.9c0,0-4.4,6.5-3,9.3s18.7,23.3,18.7,23.3S419.7,317.4,419,314s6-10.3,6-10.3h-5.4L419.4,304.9z"/>
	<path class="st12" d="M457.3,250.7c-6.2-0.8-8,0.9-8.3,1.3l0.6,2.9c1.8-0.1,4.4-0.2,6.6-0.2c2.8,0.1,5.4,0.9,7.9,2.2l1.7-2.9
		C463.4,252.2,460.4,251.1,457.3,250.7z"/>
	<path class="st2" d="M494.8,310.7c0,0-3.4,9.1-4.6,13.4s-5.5,20.5-5.6,24.2s-1,5.9,0.6,5.8s6.8-26.5,7.5-28.9s3.2-8.7,3.2-8.7
		L494.8,310.7z"/>
	<path class="st5" d="M498.5,315.6c0,0-0.7,4.3-2.5,3.7s-2.9-0.4-3.2-2.1c-0.1-1.2,0.2-2.3,0.9-3.3L498.5,315.6z"/>
	<path class="st7" d="M498.8,314.3c0,0-0.7,4.3-2.5,3.7s-2.9-0.4-3.2-2.1c-0.1-1.2,0.2-2.3,0.9-3.3L498.8,314.3z"/>
	<path class="st20" d="M456.8,256.1c-1.8-0.2-7.1,0-7.1,0c-3.8,1.5-7.4,3.2-11,5.1c-6.5,3.4-7.1,3.8-7.1,3.8s14.1-6.8,19.2-7.5
		c3.7-0.4,7.3-0.6,11-0.5C461.8,257,458.1,256.2,456.8,256.1z"/>
	<path class="st5" d="M500.9,311.1l-1.4,4.3c0,0-2.5,2-3.6,1c-0.7-0.7-1.5-1.3-2.3-1.9l2.9-2.7L500.9,311.1z"/>
	<path class="st7" d="M500.9,310l-1.4,4.3c0,0-2.2,1.2-3.6,1c-0.8-0.2-1.6-0.4-2.3-0.8l2.9-3.7L500.9,310z"/>
	<path class="st20" d="M449.7,249.9l-1.1-5.4c2.9-0.8,5.9-1.1,8.9-0.9c4.9,0.4-4.1-0.3-6.1,2.2S449.7,249.9,449.7,249.9z"/>
	<circle class="st5" cx="494.8" cy="307.4" r="3.3"/>
	<g class="st21">
		<path class="st22" d="M496.5,304.5L496.5,304.5L496.5,304.5L496.5,304.5L496.5,304.5z"/>
		<path class="st22" d="M494.8,310.7c1.8,0,3.3-1.5,3.3-3.3c0-0.6-0.2-1.1-0.4-1.6l-1.1-1.1c0.3,0.4,0.4,1,0.2,1.5
			c-0.3,1.2-0.8,1.2-2,1.3c-0.8,0.1-1.6,1.6-2.1,2.5C493.3,310.4,494.1,310.7,494.8,310.7z"/>
	</g>
	<path class="st5" d="M497,304.9c0,0,6.8,3.4,5.4,5.2c-1.3,1.4-2.7,2.6-4.3,3.6c0,0-5.3,1.9-5.3,0s1.1-4.7,3.2-4.3
		S497,304.9,497,304.9z"/>
	<path class="st2" d="M497.4,308.1c0,0,2.1-8.7,3-10.6s1.2-7.2,2.3-9.5s3.4-10.2,4.4-13s2-5.5,2-5.5s1.5,1.1,2.3,0.5
		c0.8-0.6,5.9-5.4,6.9-18s-4.3-14.5-6.4-14.5s-5.7,2.7-6.6,5.1s-3,22.3-3.3,25.5s-3.2,23.4-3.3,24.8c-0.4,3.3-1.1,6.5-2,9.7
		c-0.3,0.5-0.5,1-0.6,1.6c0.7,0.1,1.2,0.7,1.3,1.5C497.3,306.5,497.4,307.3,497.4,308.1z"/>
	<path class="st6" d="M509,269.7c-0.6-0.3-1.1-0.6-1.5-1c-0.5-0.5-1-1-1.3-1.6c-0.5-0.8-0.9-1.6-1.2-2.5c-0.3-1-0.6-2.1-0.7-3.2
		c-0.1-1.2-0.1-2.4-0.1-3.6c0.1-1.3,0.3-2.6,0.5-3.8c0.3-1.3,0.8-2.6,1.5-3.8c0.4-0.7,0.9-1.2,1.6-1.7c0.8-0.5,1.8-0.6,2.7-0.2
		c0.4,0.2,0.7,0.4,1,0.7l0.2,0.2c0,0,0.1,0.1,0.1,0.1l0,0l0.1,0.1l0.3,0.4c1.2,1.7,1.7,3.8,1.4,5.8c-0.1,0.6-0.3,1.3-0.5,1.8
		c-0.2,0.4-0.4,0.7-0.8,0.9c-0.3,0.2-0.4,0.2-0.6,0.4c-0.4,0.3-0.8,0.6-1.2,0.8c-0.5,0.3-1.1,0.4-1.7,0.3c-0.2,0-0.3-0.1-0.4-0.2
		c-0.1-0.1-0.2-0.1-0.3-0.2c-0.1-0.1-0.2-0.2-0.2-0.3c-0.1-0.1-0.1-0.2-0.1-0.3c-0.1-0.3-0.2-0.7-0.2-1c0-0.5,0-0.9,0-1.4l0.1-0.5
		h0.2l0.1,0.4c0.1,0.4,0.2,0.8,0.4,1.2c0.1,0.3,0.2,0.5,0.4,0.7c0.1,0.1,0.1,0.2,0.2,0.2c0.1,0,0.1,0.1,0.2,0.1c0,0,0.1,0,0.1,0
		c0.7-0.2,1.2-0.7,1.6-1.2c0.2-0.2,0.5-0.4,0.6-0.5c0-0.1,0.1-0.2,0.1-0.3c0.1-0.4,0.2-0.9,0.2-1.3c0.1-1-0.1-2-0.4-3
		c-0.2-0.5-0.4-1-0.6-1.4l-0.3-0.4l-0.1-0.1l0,0c0,0.1,0,0,0,0l-0.1-0.1c-0.1-0.2-0.3-0.3-0.5-0.4c-0.3-0.2-0.7-0.2-1,0
		c-0.2,0.1-0.4,0.3-0.6,0.4c-0.2,0.2-0.4,0.4-0.5,0.6c-0.7,1-1.2,2.1-1.5,3.3c-0.3,1.2-0.6,2.3-0.7,3.5c-0.1,1.1-0.2,2.3-0.1,3.4
		c0,1,0.2,2,0.4,3c0.2,0.8,0.5,1.6,0.9,2.4c0.3,0.6,0.7,1.1,1.1,1.6c0.4,0.4,0.8,0.8,1.3,1.1L509,269.7z"/>
	<path class="st23" d="M516.6,248.1c0,0,1-8.5-4.4-8.9c-3.9-0.3-5.9,3.5-5.9,3.5l-1.6,7.4c0,0,2.5-8.6,6.4-8.3
		C515,242.2,516.6,248.1,516.6,248.1z"/>
	<path class="st18" d="M494.3,313.9c0,0,6.5-3.2,6.2-5.1s-1.2-1.4-1.2-1.4c0.9,0.5,1.8,1.1,2.5,1.8c0.7,0.9-3.1,3.7-4,3.9
		S494.3,313.9,494.3,313.9z"/>
	<path class="st7" d="M397.7,288.3l0.5,0.8l-4.3-0.8l-1.5-1.9c0,0,0-0.6,2.1,0.2C395.7,287.1,396.7,287.7,397.7,288.3z"/>
	<path class="st7" d="M402,286.5l-0.3,1.2c0,0-4.6-3.6-5-4c-0.8-0.7-0.8-2.9-0.8-2.9L402,286.5z"/>
	<path class="st7" d="M405.9,287.4L405,289c0,0-1.2-5.6-1.6-6.8s-1.1-2.2-1.4-2.1l-0.3,0.1c0,0,0.3-0.9,0.9-0.5s1.4,0.9,2,3
		S405.9,287.4,405.9,287.4z"/>
	<path class="st7" d="M403.8,293.9c0,0-2.4,0.6-2.9-1.1c-0.3-1-0.3-2,0-2.9c0,0-0.1,2.8,1.3,3c1.3,0,2.7-0.2,3.9-0.6L403.8,293.9z"
		/>
	<path class="st7" d="M402.8,286.8c0,0-2.8,2-3.7,2.8s-2.1,2-2.1,2s4-3.3,5.2-3.4L402.8,286.8z"/>
	<path class="st19" d="M451.7,283c3.3-1.1,6.8-1.2,10.1-0.4c5.4,1.4,7,3.8,7,3.8c-3.2-2.2-7-3.3-10.9-3.2c-6.8,0.1-5.7,1.8-5.7,1.8
		L451.7,283z"/>
	<path class="st19" d="M434.7,282.7c-1.7-0.8-3.6-1-5.4-0.5c-2,0.7-3.7,2-5,3.7c0,0,3.5-3.1,6-2.9s3.3,1.3,3.3,1.3L434.7,282.7z"/>
</g>
<g>
	<path d="M31.8,362.2c0,0-6.3,8.3-4.7,9.4c1.6,1.1,2.6-1.4,2.6-1.4s-1.9,2.9,0.3,3c2.2,0.1,2.2-2.8,2.2-2.8s-2,2.7,0,2.8
		c2,0.1,5.3-10.1,5.3-10.1L31.8,362.2z"/>
	<path d="M68.4,363.7c0,0,7.4,9.8,5.5,11.1c-1.9,1.4-3.1-1.8-3.1-1.8s2.3,3.5-0.3,3.5s-2.6-3.3-2.6-3.3s2.3,3.2,0,3.3
		c-2.3,0.1-6.1-11.9-6.1-11.9L68.4,363.7z"/>
	<path class="st24" d="M62.5,259.2l-0.8-1.2c0.2-4.6,0-9.1-0.6-13.6c-1-5.9-1.1-10.3-10.5-16.9c-9.4-6.6-17.7,2.8-18.2,3.9
		c-1.4,4.2-2.3,8.6-2.7,13v5.7c0,0-1.8,3.9-2.7,5.9c-0.4,1-0.8,2.1-1,3.2c0,0-6.8-5.9-9.9-7.9s-10.5-6.8-14.3-6s2.8,5.7,5.5,8.6
		s9.1,10.1,10.3,11.7c1.1,1.6,2.8,5.7,4.1,6.8c0.5,0.5,1.1,1,1.8,1.3c-4.2,10.8-6.8,22.2-7.6,33.8c-0.9,17.6,6.3,45.7,10.7,50.6
		c4.4,5,5.3,7.3,7.3,7.4c2.1,0.1,8-5,8-5c2.6,0.7,5.3,1,8,1c1.9,0,3.9-0.2,5.8-0.6c1.1,2.1,2.6,4,4.3,5.7c2.4,2.1,3.2,2.7,7.6,3.3
		c4.5,0.7,11.1-3.5,13.5-8.2s8.3-39.5-2-71.6c-6.8-21.4-9.1-19.5-9.1-19.5s9.9-18.5,12.3-22.4c2.4-3.9,5.3-9.1,2.8-9.6
		c-2.5-0.5-10.7,6-16.6,13.3L62.5,259.2z"/>
	<path class="st25" d="M29.7,248.6l3.8,3.5H37l15.2-0.4l9.6-0.7c-0.1-2.2-0.3-4.5-0.6-6.7c-1-5.9-1.1-10.3-10.5-16.9
		s-17.7,2.8-18.2,3.9c-1.4,4.2-2.4,8.6-2.8,13L29.7,248.6L29.7,248.6L29.7,248.6z"/>
	<path d="M61.7,251c0.4-5.2-0.6-10.4-2.8-15.1c-3.7-7.2-8.5-11.4-17.2-10.8s-9.4,6.2-9.4,6.2c1.1,0.4,1.8,1.5,1.8,2.6
		c-0.2,1.9,0.3,7.7-0.5,9.1c-0.7,1.2-0.7,2.7-0.2,4c0.5,0.9,2.5,5.4,6.4,4.8s5.7-1.2,5.8-4.7c-1.1-2.8-2-5.8-2.6-8.8
		c0-1.8,0.9-6.9,5.3-7.5c4.3-0.6,6.2,1.2,7.4,4.9c1.1,3.4,1.3,7,0.8,10.5c-0.5,2.5-0.8,2.6-4.5,3.5c-3.7,0.9-7,1.9-7,1.9
		c3.5-0.3,6.9-0.3,10.4,0C57.5,252.3,59.7,252,61.7,251z"/>
	<path d="M29.7,250l3.7,2.1c-1.2-1.2-2.1-2.6-2.8-4.1c-0.6-1.2-0.9-2.5-1-3.8L29.7,250L29.7,250L29.7,250z"/>
	<path class="st26" d="M37.2,243.2c-0.7,1.1-1.3,2.2-1.8,3.4c0.1,1.2,0.4,2.3,0.8,3.4c1.1-1.1,2.5-1.9,4-2.5c1.1-0.2,2.1-0.7,3-1.3
		c-1.4-0.2-2.7-0.7-3.9-1.5C38.7,244.1,38,243.6,37.2,243.2z"/>
	<path d="M48.1,243.2c0,0,1.2-4.4,3.9-4.5c2.7-0.2,1.5,4.2-1.2,3.8C49.8,242.4,48.8,242.7,48.1,243.2z"/>
	<path d="M32.3,242.5c0,0-0.3-4.8-0.8-3.9c-0.3,0.9-0.3,1.8,0,2.7L32.3,242.5z"/>
	<path class="st27" d="M69.9,270.7c0,0-5.1-3.9-2.9-8c3.4-5.7,7.3-11.1,11.7-16.1c2.1-1.9,4.4-3.5,6.8-4.9c0,0-5.4,11-7.8,14.5
		C75.4,259.7,69.9,270.7,69.9,270.7z"/>
	<path class="st27" d="M23.4,273.7l1.5-7c0,0-7-9.2-11.7-12.4c-3.7-2.4-7.6-4.4-11.6-6c0,0,7.6,8.2,10.3,11.2s7.1,9.5,8.4,11.2
		C21.1,271.8,22.2,272.9,23.4,273.7z"/>
	<path class="st25" d="M76,311.3c0,24.3-3.9,45.4-29,45.4c-14.5,0-26.2-19.7-26.2-44c0-24.3,7.9-50.7,22.4-50.7S76,287,76,311.3z"/>
	<path class="st28" d="M59.5,312.3v3c0,0.3-0.1,0.5-0.3,0.7c-0.2,0.2-0.5,0.3-0.8,0.3h-2.7v7.4h-4.5v-7.4H38.4
		c-0.3,0-0.7-0.1-0.9-0.3c-0.3-0.2-0.4-0.5-0.5-0.8l-0.5-2.6l14.4-19.3h4.9v19L59.5,312.3L59.5,312.3z M51.2,312.3v-10
		c0-1,0.1-2.1,0.2-3.1L42,312.3H51.2L51.2,312.3z"/>
</g>
<g>
	<path d="M26.5,119.3c0,0-5.4,7.1-4,8.1c1.4,1,2.2-1.2,2.2-1.2s-1.6,2.5,0.2,2.6c1.9,0.1,1.9-2.4,1.9-2.4s-1.7,2.4,0,2.4
		s4.5-8.7,4.5-8.7L26.5,119.3z"/>
	<path d="M57.8,120.6c0,0,6.3,8.4,4.7,9.6s-2.6-1.5-2.6-1.5s1.9,3-0.3,3c-2.2,0-2.2-2.8-2.2-2.8s2,2.8,0,2.9
		c-2,0.1-5.2-10.3-5.2-10.3L57.8,120.6z"/>
	<path class="st24" d="M52.7,30.4l-0.7-1.1c0.2-3.9,0-7.9-0.5-11.8c-0.9-5.1-1-8.9-9-14.6s-15,2.5-15.5,3.3c-1.2,3.6-2,7.4-2.4,11.2
		v4.9c0,0-1.5,3.3-2.3,5.1c-0.4,0.9-0.7,1.8-0.9,2.8c0,0-5.8-5.1-8.4-6.8c-2.6-1.7-9-5.9-12.2-5.2c-3.2,0.7,2.4,4.9,4.7,7.5
		c2.3,2.5,7.8,8.7,8.7,10c0.9,1.3,2.4,4.9,3.5,5.9c0.4,0.5,0.9,0.9,1.5,1.1c-3.6,9.3-5.8,19.2-6.4,29.2c-0.8,15.1,5.4,39.4,9.1,43.7
		s4.5,6.3,6.2,6.4c1.8,0.1,6.8-4.3,6.8-4.3c2.2,0.6,4.5,0.9,6.9,0.9c1.7,0,3.3-0.2,4.9-0.5c0.9,1.8,2.2,3.5,3.6,4.9
		c2.1,1.8,2.7,2.3,6.5,2.9c3.8,0.6,9.4-3,11.5-7.1c2.1-4.1,7.1-34.1-1.7-61.8c-5.8-18.4-7.8-16.8-7.8-16.8s8.4-15.9,10.5-19.3
		c2.1-3.4,4.5-7.9,2.4-8.3c-2.1-0.4-9.1,5.2-14.2,11.5L52.7,30.4z"/>
	<path class="st25" d="M24.7,21.3l3.2,3h3L43.9,24l8.2-0.6c-0.1-1.9-0.2-3.9-0.6-5.8c-0.9-5.1-1-8.9-9-14.6s-15,2.5-15.4,3.4
		c-1.2,3.6-2,7.4-2.4,11.2L24.7,21.3L24.7,21.3L24.7,21.3z"/>
	<path d="M52.1,23.4c0.4-4.5-0.5-9-2.4-13C46.5,4.2,42.4,0.6,35,1.1S27,6.4,27,6.4c0.9,0.4,1.5,1.3,1.5,2.3
		c-0.1,1.6,0.3,6.7-0.4,7.9c-0.6,1.1-0.6,2.4-0.1,3.5c0.4,0.8,2.1,4.7,5.4,4.1s4.8-1.1,5-4c-0.9-2.5-1.7-5-2.2-7.6
		c0-1.5,0.8-5.9,4.5-6.5s5.3,1.1,6.3,4.2c0.9,2.9,1.1,6,0.7,9.1c-0.4,2.1-0.7,2.3-3.8,3c-3.2,0.8-6,1.7-6,1.7c2.9-0.3,5.9-0.3,8.8,0
		C48.5,24.5,50.4,24.2,52.1,23.4z"/>
	<path d="M24.7,22.5l3.2,1.9c-1-1-1.8-2.2-2.4-3.5c-0.5-1-0.8-2.1-0.9-3.3V22.5L24.7,22.5z"/>
	<path class="st26" d="M31.2,16.6c-0.6,0.9-1.1,1.9-1.5,2.9c0.1,1,0.3,2,0.7,2.9c1-0.9,2.1-1.6,3.4-2.1c0.9-0.2,1.8-0.6,2.6-1.2
		C35.1,19.1,34,18.6,33,18C32.5,17.4,31.9,17,31.2,16.6z"/>
	<path d="M40.4,16.6c0,0,1.1-3.8,3.3-3.9c2.3-0.1,1.3,3.7-1.1,3.2C41.9,15.9,41.1,16.2,40.4,16.6z"/>
	<path d="M27,16.1c0,0-0.3-4.1-0.7-3.4c-0.2,0.8-0.2,1.6,0,2.3L27,16.1z"/>
	<path class="st27" d="M59.1,40.3c0,0-4.4-3.3-2.5-6.9c2.9-4.9,6.2-9.5,10-13.8c1.8-1.6,3.7-3,5.8-4.2c0,0-4.6,9.5-6.6,12.5
		C63.8,30.8,59.1,40.3,59.1,40.3z"/>
	<path class="st27" d="M19.4,43l1.3-6.1c0,0-6-8-10-10.7c-3.1-2-6.4-3.8-9.9-5.2c0,0,6.6,7.1,8.8,9.7s6.1,8.2,7.2,9.7
		C17.5,41.3,18.4,42.2,19.4,43z"/>
	<path class="st25" d="M64.3,75.4c0,21-3.3,39.2-24.7,39.2c-12.3,0-22.3-17-22.3-38s6.7-43.7,19-43.7S64.3,54.4,64.3,75.4z"/>
	<path class="st28" d="M45.1,72.5c1.4,0.4,2.6,1.2,3.5,2.4c0.8,1.2,1.2,2.5,1.1,3.9c0,1.1-0.2,2.2-0.7,3.2c-0.4,0.9-1.1,1.7-1.8,2.4
		c-0.8,0.7-1.8,1.2-2.8,1.5c-2.4,0.7-5,0.7-7.3,0c-1-0.3-2-0.8-2.8-1.5c-0.8-0.7-1.4-1.5-1.8-2.4c-0.4-1-0.7-2.1-0.7-3.2
		c0-1.4,0.4-2.8,1.1-3.9c0.9-1.2,2.1-2,3.5-2.4c-1.2-0.4-2.1-1.2-2.8-2.3c-1.1-1.9-1.3-4.3-0.3-6.3c0.4-0.8,1-1.6,1.7-2.2
		c0.8-0.7,1.6-1.2,2.6-1.5c2.1-0.7,4.4-0.7,6.6,0c0.9,0.3,1.8,0.8,2.6,1.5c0.7,0.6,1.3,1.4,1.7,2.2c0.4,0.9,0.6,1.8,0.6,2.8
		c0,1.2-0.3,2.5-0.9,3.5C47.3,71.2,46.3,72,45.1,72.5z M40.8,82.9c0.7,0,1.3-0.1,1.9-0.3c0.5-0.2,1-0.5,1.4-0.9
		c0.4-0.4,0.6-0.8,0.8-1.3c0.2-0.5,0.3-1.1,0.3-1.7c0.1-1.2-0.3-2.4-1.2-3.3c-0.9-0.8-2.1-1.2-3.3-1.1c-1.2-0.1-2.4,0.3-3.3,1.1
		c-0.8,0.9-1.3,2.1-1.2,3.3c0,0.6,0.1,1.2,0.3,1.7c0.2,0.5,0.5,1,0.9,1.3c0.4,0.4,0.9,0.7,1.4,0.9C39.4,82.9,40.1,83,40.8,82.9
		L40.8,82.9z M40.8,63c-0.6,0-1.2,0.1-1.7,0.3c-0.5,0.2-0.9,0.5-1.2,0.8c-0.3,0.3-0.6,0.8-0.7,1.2c-0.2,0.5-0.2,0.9-0.2,1.4
		c0,0.5,0.1,1,0.2,1.5c0.1,0.5,0.3,0.9,0.6,1.3c0.3,0.4,0.7,0.7,1.2,0.9c1.2,0.5,2.5,0.5,3.6,0c0.5-0.2,0.9-0.5,1.2-0.9
		c0.3-0.4,0.5-0.8,0.6-1.3c0.1-0.5,0.2-1,0.2-1.5c0-0.5-0.1-1-0.2-1.4c-0.2-0.4-0.4-0.9-0.7-1.2c-0.3-0.4-0.7-0.6-1.2-0.8
		C41.9,63.1,41.3,63,40.8,63L40.8,63z"/>
</g>
<g>
	<path d="M30.3,583.9c0,0-6.1,8-4.6,9.1c1.5,1.1,2.5-1.4,2.5-1.4s-1.9,2.8,0.3,2.9c2.1,0.1,2.2-2.7,2.2-2.7s-2,2.7,0,2.7
		s5.1-9.8,5.1-9.8L30.3,583.9z"/>
	<path d="M65.8,585.4c0,0,7.2,9.5,5.4,10.8c-1.8,1.3-3-1.6-3-1.6s2.2,3.4-0.3,3.4s-2.5-3.2-2.5-3.2s2.2,3.1,0,3.2
		c-2.2,0.1-5.9-11.6-5.9-11.6L65.8,585.4z"/>
	<path class="st24" d="M60,484l-0.7-1.2c0.2-4.4,0-8.8-0.6-13.2c-1-5.7-1.1-10-10.2-16.4c-9.1-6.4-17.1,2.8-17.6,3.7
		c-1.4,4.1-2.3,8.3-2.8,12.6v5.5c0,0-1.7,3.7-2.6,5.7c-0.4,1-0.8,2.1-1,3.1c0,0-6.6-5.7-9.6-7.7c-3-2-10.2-6.6-13.9-5.8
		c-3.7,0.8,2.8,5.5,5.3,8.4c2.6,2.9,9,9.8,10,11.3c1.1,1.6,2.8,5.5,3.9,6.6c0.5,0.5,1.1,1,1.7,1.3c-4.1,10.5-6.6,21.5-7.4,32.7
		c-0.9,17,6.1,44.3,10.3,49.1c4.2,4.8,5.1,7.1,7.1,7.2c2,0.1,7.8-4.8,7.8-4.8c2.5,0.7,5.2,1,7.8,1c1.9,0,3.8-0.2,5.6-0.6
		c1.1,2,2.5,3.9,4.1,5.5c2.4,2.1,3.1,2.6,7.4,3.2c4.3,0.7,10.7-3.4,13.1-8c2.4-4.6,8-38.3-1.9-69.4c-6.6-20.7-8.8-18.9-8.8-18.9
		s9.6-17.9,11.9-21.7c2.3-3.8,5.1-8.8,2.7-9.3c-2.4-0.5-10.4,5.8-16.1,12.9L60,484z"/>
	<path class="st25" d="M28.1,473.7l3.7,3.4h3.4l14.7-0.4l9.3-0.7c-0.1-2.2-0.3-4.4-0.6-6.5c-1-5.7-1.1-10-10.2-16.4
		c-9.1-6.4-17.1,2.8-17.6,3.7c-1.4,4.1-2.3,8.3-2.8,12.6L28.1,473.7L28.1,473.7L28.1,473.7z"/>
	<path d="M59.3,476.1c0.4-5-0.5-10.1-2.7-14.6c-3.6-7-8.3-11-16.7-10.4c-8.4,0.6-9.2,6-9.2,6c1,0.4,1.7,1.4,1.7,2.6
		c-0.2,1.8,0.3,7.5-0.4,8.9c-0.6,1.2-0.7,2.6-0.2,3.9c0.4,0.9,2.4,5.3,6.2,4.6c3.8-0.6,5.5-1.2,5.7-4.5c-1.1-2.8-1.9-5.6-2.5-8.5
		c0-1.7,0.9-6.7,5.1-7.3s6,1.2,7.2,4.7c1,3.3,1.3,6.8,0.7,10.2c-0.4,2.4-0.7,2.6-4.4,3.4c-3.6,0.9-6.8,1.9-6.8,1.9
		c3.3-0.3,6.7-0.3,10.1,0C55.2,477.4,57.4,477.1,59.3,476.1z"/>
	<path d="M28.1,475.1l3.7,2.1c-1.1-1.1-2-2.5-2.7-3.9c-0.6-1.2-0.9-2.4-1-3.7V475.1L28.1,475.1z"/>
	<path class="st26" d="M35.5,468.6c-0.7,1-1.3,2.1-1.7,3.3c0.1,1.1,0.4,2.2,0.8,3.3c1.1-1,2.4-1.9,3.8-2.4c1-0.2,2-0.7,2.9-1.3
		c-1.3-0.2-2.6-0.7-3.7-1.4C37,469.5,36.3,469,35.5,468.6z"/>
	<path d="M46,468.6c0,0,1.2-4.3,3.8-4.4s1.4,4.1-1.2,3.6C47.6,467.8,46.7,468.1,46,468.6z"/>
	<path d="M30.7,467.9c0,0-0.3-4.6-0.8-3.8c-0.3,0.8-0.3,1.7,0,2.6L30.7,467.9z"/>
	<path class="st27" d="M67.2,495.1c0,0-5-3.7-2.8-7.8c3.3-5.5,7.1-10.7,11.3-15.6c2-1.8,4.2-3.4,6.6-4.7c0,0-5.3,10.7-7.6,14
		C72.5,484.5,67.2,495.1,67.2,495.1z"/>
	<path class="st27" d="M22.2,498.1l1.5-6.8c0,0-6.8-8.9-11.3-12c-3.6-2.3-7.3-4.2-11.2-5.8c0,0,7.4,7.9,10,10.9s6.9,9.2,8.1,10.9
		C20,496.3,21,497.3,22.2,498.1z"/>
	<path class="st25" d="M73.2,534.6c0,23.6-3.8,44-28.1,44c-14,0-25.4-19.1-25.4-42.7s7.7-49.1,21.7-49.1S73.2,511,73.2,534.6z"/>
	<path class="st28" d="M57.2,531.9c0,2.3-0.2,4.5-0.8,6.7c-0.5,1.7-1.2,3.3-2.3,4.7c-0.9,1.2-2.1,2.1-3.4,2.8
		c-1.4,0.6-2.8,0.9-4.3,0.9c-1.5,0-2.9-0.3-4.3-0.9c-1.3-0.6-2.5-1.6-3.4-2.8c-1.1-1.4-1.8-3-2.3-4.7c-1.1-4.4-1.1-9,0-13.4
		c0.4-1.7,1.2-3.3,2.3-4.7c0.9-1.2,2.1-2.1,3.4-2.8c1.3-0.6,2.8-0.9,4.3-0.9c1.5,0,3,0.3,4.3,0.9c1.3,0.6,2.5,1.6,3.4,2.8
		c1.1,1.4,1.8,3,2.3,4.7C57,527.4,57.3,529.6,57.2,531.9z M52,531.9c0-1.8-0.1-3.6-0.5-5.3c-0.2-1.2-0.6-2.3-1.3-3.4
		c-0.4-0.7-1.1-1.3-1.8-1.7c-0.7-0.3-1.4-0.5-2.1-0.5c-0.7,0-1.4,0.2-2.1,0.5c-0.7,0.4-1.4,1-1.8,1.7c-0.6,1.1-1,2.2-1.2,3.4
		c-0.6,3.5-0.6,7.1,0,10.6c0.2,1.2,0.6,2.3,1.2,3.4c0.4,0.7,1,1.3,1.8,1.7c0.6,0.3,1.4,0.5,2.1,0.5c0.7,0,1.5-0.2,2.1-0.5
		c0.7-0.4,1.4-1,1.8-1.7c0.6-1.1,1-2.2,1.3-3.4C51.9,535.5,52.1,533.7,52,531.9z"/>
</g>
<g>
	<polygon class="st29" points="334.1,64.4 294.1,61.5 293.7,63.5 97.6,60.9 96.4,66.7 292.5,69.3 292.1,70.9 333.1,69.1 374,67.3 	
		"/>
	<polygon class="st29" points="332.2,215.3 293.1,190.4 291.9,192.6 94.8,85.3 91.2,92.1 288.3,199.4 287.2,201.4 329.3,220.8 
		371.4,240.2 	"/>
	<polygon class="st29" points="339.6,443.9 300.2,386.5 298.4,388.3 96.6,120.4 91.1,125.9 292.9,393.8 291.3,395.3 335.1,448.4 
		378.9,501.4 	"/>
</g>
<g>
	<path class="st30" d="M218.6,20.1c0.4-0.4,0.8-0.8,1.2-1.1c0.2,0,0.4-0.1,0.6-0.2l1.7-2.5c0.5-0.8,1.2-1.5,2-1.9
		c1.1-0.4,1.3-1.5,3.3-1.1c1,0.1,1.9,0.5,2.7,1.1c1.5-0.2,3,0.1,4.3,0.7c2,1.1,3.4,3.6,4.7,3.9c1.3,0.3,3.1-0.5,4.8-1.1
		c1.7-0.6,11,3.5,12.7,4.3c1.6,0.7,10.3,2.4,12.3,10.9c2,8.5-0.2,14.8-1.1,16.5s-4,6.8-4.3,7.9c-0.2,1.1-1.2,6.1-1.3,6.8
		c-0.1,1.5-0.1,3,0,4.5c0.1,0.3,0.7,0.8,0.3,1.2c-0.4,0.4-3.4,2-6,0.2c0,0-1.4-0.8-1.3-1.8c0-1,0.7-5,0.9-6c0.3-1.6,0.6-3.3,0.7-5
		c0-0.4-0.1-0.8-0.4-1.1c0,0-4.2,1.6-5,1.8c-0.5,0.1-1,0.3-1.3,0.6c0.4,1.4,0.7,2.8,0.8,4.2c0.1,1.3,0.5,3.4,0.1,4.3
		c-0.4,0.9-2.9,1.1-3.3,1.1c-0.6-0.1-1.2-0.3-1.8-0.5c0,0,0.3-4.2,0-5.5c-0.2-0.7-0.3-1.4-0.6-2c0,0-0.8,4.5-0.7,6.1
		c0.1,1.6,1,5.4,1.3,5.7c0.4,0.3,1.1,2.9-1.4,3.7c-2.5,0.7-4.9,0.7-5.8-0.5c-0.6-0.8-1.2-1.6-1.6-2.5c0.7-2,1.1-4.1,1-6.2
		c-0.1-3.4-0.8-6.5-0.6-8.3s-1.4,0.8-4.3-0.8c-2.9-1.6-1.2-0.7-1.2-0.7l-0.9,0.7c0,0,3.8,7.8,4.4,10c0.3,1.3,0.6,2.5,0.7,3.8
		c0,0-1.4,2.8-4.1,3.4c-1.6,0.4-3.2,0.2-4.7-0.6c0.5-2.2,0.5-4.6,0-6.8c-0.8-3-5.2-9.9-5.2-9.9l-4.1-6.1L216.8,35L218.6,20.1z"/>
	<path class="st31" d="M221.7,56.7c3.2-1.8,5.5-4.8,6.5-8.3c1.7-6,2.1-7,2.1-10.2S229,19.4,229,19.4l-8.6-0.6l-1.8,1.3l0.7,33.1
		L221.7,56.7z"/>
	<path class="st30" d="M223.4,20.2c0.8-0.5,1.4-1.3,1.6-2.3c0.1-0.7,0.7-1.1,1.4-1.1c0,0,0,0,0,0c0.1,0,0.2,0,0.2,0.1l1.1,4.8
		c0,0-1.1,0.4-0.8,1.2c0.2,0.8,2.2,12.2,2.2,15.5c0,3.4-1.5,9.3-4.3,11.2s-5.8,3.4-6.6,4.6c-0.8,1.1-1.7,2-2.9,2
		c-1.1,0-4.6-0.4-5.9-0.2c-1.3,0.2-3.5,0.2-3.5-0.5c-0.2-1-0.4-2-0.7-3c-0.2-1.1,0.7-2.1,1-3c0.2-0.6,0.2-1.2,0.2-1.9
		c-0.9-0.5-1.7-1.2-2.4-2c-0.3-1-0.8-2-1.4-2.9c-1-1.3-3.4-4.1-3.8-5.7c-0.9-2.6-1.5-5.2-1.7-7.9c-0.2-3.2,0.2-6.8,0.6-6.9
		c0.4-0.1-0.6,5.7,3.1,11.4c3.7,5.7,7.8,5.2,7.8,5.2c0.1-1.4,0.1-2.8,0.1-4.2c-0.1-1.7-0.4-3.8,0-4.3c0.4-0.4,1.2,2,2.7,2.9
		s1.1,0.7,1.1,0.7s0.7-1.4,0.7-4.6c-0.1-1.6,0.1-3.2,0.5-4.7c0,0-1.4-2.9-2-4.3c-0.4-0.9-0.9-1.8-1.4-2.7c1.3,0.8,2.7,1.6,4.2,2.2
		c0.7,0.2,1.3,0.5,2,0.8c1-0.4,2.1-0.6,3.2-0.6L223.4,20.2z"/>
	<path class="st32" d="M226.6,22.4c0,0-0.7-2.5-1.2-4s0.5-4.4,2.4-4.4s-0.2,1.2,0.7,1.2c0.8,0,0.9-1.9,1.9-1.6s-0.2,1.5,0.5,3.1
		c0.7,1.3,0.5,2.9-0.6,4c-0.8,0.6-1.6,1-2.5,1.2L226.6,22.4z"/>
	<path class="st32" d="M213.1,23.5c-0.2-1.1-0.5-2.1-0.8-3.1c-0.7-1-1.3-2-2-2.9c0,0-0.5-1.5-3.1-1.3c-2.6,0.1-1.2,1.4-1.2,1.4
		l0.4,1c0.4,1.3,1,2.5,1.9,3.6c0.9,0.9,2.1,1.4,3.4,1.4L213.1,23.5L213.1,23.5z"/>
	<path d="M219.2,39.7c0,0,0.2-0.5,1.6-0.5s0.9,0.2,0.9,0.2s0.2,1.1-1.2,1C218.9,40.4,219.2,39.7,219.2,39.7z"/>
	<path class="st32" d="M213.1,53.1c0,0,0.5-1.4,1.2-1.4s2,0.5,1.5,1C215.2,53.1,213.1,53.1,213.1,53.1z"/>
	<path class="st32" d="M206.8,53.5c0,0-0.7-2.3-1-1.8c-0.2,0.5-1,1,0,1.4L206.8,53.5z"/>
	<ellipse class="st25" cx="249.5" cy="39.5" rx="16.7" ry="14.2"/>
	<path class="st31" d="M206.4,47.7c0.9,0.5,1.9,0.7,2.9,0.5c1.8-0.2-2.4,1.1-3.2,2.1l-0.7,0.7c0.4-0.6,0.6-1.3,0.8-2
		C206.3,48.6,206.4,47.7,206.4,47.7z"/>
	<path class="st31" d="M208.6,38.8c0.9,0.1,1.7,0.4,2.4,1.1c0.2,0.2-1.3-2.1-1.6-3.2c-0.2-0.6-0.4-1.2-0.7-1.7v2.3
		C208.6,37.8,208.6,38.8,208.6,38.8z"/>
	<path class="st31" d="M245.3,60.5c0,0,0-1.5,1.1-2c2.3-0.8,4.7-1.4,7.1-1.8c1-0.1,2-0.2,2.9-0.3c0,0-5.6,1.9-6.3,2.4
		c-0.7,0.5-3.4,2.2-3.6,2.8c-0.1,0.4-0.4,0.7-0.7,1L245.3,60.5z"/>
	<path d="M254,41.1v1c0,0.1,0,0.2-0.1,0.2c-0.1,0.1-0.2,0.1-0.3,0.1h-1V45h-1.5v-2.5h-4.4c-0.1,0-0.2,0-0.3-0.1
		c-0.1-0.1-0.2-0.2-0.2-0.3l-0.2-0.9l4.9-6.6h1.7v6.5L254,41.1L254,41.1z M251.1,41.1v-3.4c0-0.4,0-0.7,0.1-1.1l-3.2,4.5L251.1,41.1
		L251.1,41.1z"/>
</g>
<g>
	<path class="st30" d="M236.2,153.2c0.4-0.4,0.8-0.8,1.2-1.2c0.2,0,0.4-0.1,0.6-0.2l1.8-2.5c0.5-0.8,1.2-1.5,2.1-1.9
		c1.2-0.4,1.4-1.5,3.3-1.2c1,0.1,2,0.5,2.7,1.2c1.5-0.2,3,0.1,4.4,0.7c2.1,1.1,3.4,3.6,4.8,4s3.1-0.5,4.9-1.1
		c1.7-0.6,11.2,3.6,12.8,4.3s10.4,2.4,12.4,11c2,8.6-0.2,14.9-1.2,16.7c-1,1.8-4.1,6.9-4.3,8c-0.2,1.2-1.2,6.2-1.4,6.9
		c-0.1,1.5-0.1,3,0,4.6c0.1,0.3,0.7,0.8,0.3,1.2c-0.4,0.4-3.5,2.1-6,0.3c0,0-1.4-0.8-1.4-1.8s0.7-5,0.9-6.1c0.4-1.7,0.6-3.4,0.7-5
		c0-0.4-0.1-0.8-0.4-1.2c0,0-4.2,1.7-5,1.8c-0.5,0.1-1,0.3-1.4,0.6c0.4,1.4,0.6,2.8,0.7,4.3c0.1,1.4,0.5,3.5,0.1,4.4
		s-2.9,1.2-3.3,1.2c-0.6-0.1-1.2-0.3-1.8-0.5c0,0,0.3-4.2,0-5.5c-0.2-0.7-0.3-1.4-0.6-2.1c0,0-0.8,4.6-0.7,6.2s1,5.5,1.4,5.8
		s1.1,3-1.4,3.7c-2.5,0.7-5,0.7-5.9-0.5c-0.6-0.8-1.2-1.6-1.7-2.5c0.7-2,1.1-4.1,1-6.3c-0.1-3.5-0.8-6.5-0.6-8.4s-1.4,0.8-4.3-0.8
		s-1.2-0.7-1.2-0.7l-0.9,0.7c0,0,3.9,7.9,4.5,10.1c0.3,1.3,0.6,2.6,0.7,3.9c0,0-1.4,2.8-4.1,3.4c-1.6,0.4-3.3,0.2-4.8-0.6
		c0.5-2.3,0.5-4.6,0-6.9c-0.8-3.1-5.3-10-5.3-10l-4.1-6.2l-1.4-16.8L236.2,153.2z"/>
	<path class="st31" d="M239.4,190.3c3.2-1.8,5.6-4.8,6.5-8.3c1.7-6.1,2.2-7,2.2-10.4c0-3.3-1.4-19.1-1.4-19.1l-8.7-0.6l-1.8,1.4
		l0.7,33.5L239.4,190.3z"/>
	<path class="st30" d="M241,153.4c0.8-0.5,1.4-1.4,1.6-2.3c0.1-0.7,0.7-1.2,1.4-1.1c0,0,0,0,0,0c0.1,0,0.2,0,0.3,0.1l1.1,4.9
		c0,0-1.1,0.4-0.8,1.2c0.3,0.8,2.2,12.3,2.2,15.7c0,3.4-1.5,9.4-4.3,11.3c-2.8,1.9-5.9,3.5-6.7,4.6c-0.8,1.2-1.7,2.1-2.9,2.1
		c-1.2,0-4.6-0.4-6-0.3c-1.3,0.2-3.6,0.2-3.6-0.5c-0.2-1-0.4-2.1-0.7-3.1c-0.3-1.2,0.7-2.2,1-3.1c0.2-0.6,0.2-1.3,0.3-1.9
		c-0.9-0.5-1.8-1.2-2.4-2.1c-0.3-1-0.8-2-1.4-2.9c-1-1.4-3.4-4.1-3.9-5.8c-0.9-2.6-1.5-5.3-1.7-8c-0.2-3.2,0.2-6.9,0.6-7
		c0.4-0.1-0.6,5.8,3.1,11.5c3.7,5.7,7.9,5.2,7.9,5.2c0.1-1.4,0.1-2.8,0.1-4.2c-0.1-1.7-0.4-3.9,0-4.3c0.4-0.4,1.2,2.1,2.7,2.9
		c1.5,0.8,1.1,0.7,1.1,0.7s0.7-1.4,0.7-4.6c-0.1-1.6,0.1-3.2,0.5-4.8c0,0-1.4-2.9-2.1-4.4c-0.4-0.9-0.9-1.8-1.4-2.7
		c1.4,0.8,2.8,1.6,4.2,2.2c0.7,0.2,1.3,0.5,2,0.8c1-0.4,2.1-0.6,3.2-0.6L241,153.4z"/>
	<path class="st32" d="M244.2,155.6c0,0-0.7-2.6-1.2-4.1c-0.6-1.5,0.5-4.5,2.4-4.5c1.9,0-0.2,1.2,0.7,1.2c0.8,0,0.9-1.9,1.9-1.7
		c1,0.3-0.3,1.5,0.5,3.1c0.7,1.3,0.5,3-0.6,4.1c-0.8,0.6-1.6,1-2.6,1.2L244.2,155.6z"/>
	<path class="st32" d="M230.6,156.7c-0.2-1.1-0.5-2.1-0.8-3.1c-0.7-1-1.4-2-2.1-2.9c0,0-0.5-1.5-3.1-1.4c-2.7,0.1-1.2,1.4-1.2,1.4
		l0.4,1c0.4,1.3,1.1,2.5,1.9,3.6c0.9,0.9,2.2,1.4,3.5,1.4L230.6,156.7L230.6,156.7z"/>
	<path d="M236.8,173.1c0,0,0.2-0.5,1.6-0.5c1.4,0,0.9,0.3,0.9,0.3s0.3,1.1-1.2,1S236.8,173.1,236.8,173.1z"/>
	<path class="st32" d="M230.6,186.6c0,0,0.5-1.4,1.2-1.4s2.1,0.5,1.5,1C232.7,186.7,230.6,186.6,230.6,186.6z"/>
	<path class="st32" d="M224.3,187.1c0,0-0.7-2.3-1-1.8s-1,1,0,1.4L224.3,187.1z"/>
	<ellipse class="st25" cx="267.5" cy="172.8" rx="16.9" ry="14.3"/>
	<path class="st31" d="M223.9,181.2c0.9,0.5,1.9,0.7,2.9,0.6c1.8-0.2-2.4,1.2-3.2,2.2l-0.7,0.7c0.4-0.6,0.6-1.3,0.8-2
		C223.8,182,223.9,181.2,223.9,181.2z"/>
	<path class="st31" d="M226,172.2c0.9,0.1,1.8,0.4,2.4,1.1c0.3,0.3-1.4-2.2-1.7-3.2c-0.2-0.6-0.4-1.2-0.7-1.7v2.3
		C226.1,171.2,226,172.2,226,172.2z"/>
	<path class="st31" d="M263.2,194.1c0,0,0-1.5,1.1-2c2.3-0.8,4.7-1.5,7.2-1.8c1-0.1,2-0.2,3-0.3c0,0-5.6,1.9-6.4,2.4
		s-3.5,2.2-3.6,2.8c-0.1,0.4-0.4,0.7-0.7,1L263.2,194.1z"/>
	<path d="M267.2,177.1v1.4h-5.8v-1.4h2.1v-6.2c0-0.2,0-0.5,0-0.8l-1.5,1.3c-0.1,0.1-0.3,0.2-0.5,0.1c-0.1,0-0.1,0-0.2-0.1
		c-0.1,0-0.1-0.1-0.1-0.1l-0.6-0.8l3.2-2.7h1.5v9.2L267.2,177.1L267.2,177.1z"/>
	<path d="M276.2,174.4v1c0,0.1,0,0.2-0.1,0.3c-0.1,0.1-0.2,0.1-0.3,0.1h-1v2.6h-1.6v-2.6h-4.5c-0.1,0-0.2,0-0.3-0.1
		c-0.1-0.1-0.2-0.2-0.2-0.3l-0.2-1l5-6.7h1.7v6.6L276.2,174.4L276.2,174.4z M273.3,174.4V171c0-0.4,0-0.7,0.1-1.1l-3.3,4.5H273.3z"
		/>
</g>
<g>
	<path class="st30" d="M241.5,306.3c0.4-0.4,0.8-0.8,1.3-1.2c0.2,0,0.4-0.1,0.6-0.2l1.8-2.6c0.5-0.9,1.2-1.6,2.1-2
		c1.2-0.4,1.4-1.5,3.4-1.2c1,0.1,2,0.5,2.8,1.2c1.6-0.2,3.1,0.1,4.6,0.8c2.1,1.1,3.5,3.8,4.9,4.1c1.4,0.3,3.3-0.5,5.1-1.1
		c1.8-0.6,11.6,3.7,13.3,4.5s10.8,2.5,12.9,11.4c2.1,8.9-0.2,15.5-1.2,17.3c-1,1.9-4.2,7.1-4.5,8.3s-1.3,6.4-1.4,7.1
		c-0.1,1.6-0.1,3.1,0,4.7c0.1,0.3,0.8,0.9,0.3,1.3c-0.4,0.4-3.6,2.1-6.3,0.3c0,0-1.5-0.9-1.4-1.9c0-1,0.8-5.2,0.9-6.3
		c0.4-1.7,0.6-3.5,0.7-5.2c0-0.4-0.1-0.9-0.4-1.2c0,0-4.4,1.7-5.2,1.9c-0.5,0.1-1,0.3-1.4,0.6c0.4,1.5,0.6,3,0.8,4.5
		c0.1,1.4,0.5,3.6,0.1,4.6c-0.4,1-3,1.2-3.4,1.2c-0.6-0.1-1.3-0.3-1.9-0.5c0,0,0.3-4.4,0-5.7c-0.2-0.7-0.4-1.4-0.6-2.1
		c0,0-0.9,4.7-0.7,6.4c0.2,1.7,1,5.7,1.4,6c0.4,0.3,1.1,3.1-1.5,3.9c-2.6,0.8-5.2,0.7-6.1-0.5c-0.7-0.8-1.2-1.7-1.7-2.6
		c0.8-2.1,1.1-4.3,1-6.5c-0.1-3.6-0.9-6.8-0.6-8.7c0.3-1.9-1.5,0.9-4.5-0.9c-3-1.7-1.3-0.7-1.3-0.7l-0.9,0.7c0,0,4,8.2,4.6,10.5
		c0.3,1.3,0.6,2.7,0.8,4c0,0-1.5,2.9-4.3,3.5c-1.7,0.4-3.4,0.2-4.9-0.6c0.5-2.3,0.5-4.8,0-7.1c-0.9-3.2-5.5-10.4-5.5-10.4l-4.3-6.4
		l-1.5-17.4L241.5,306.3z"/>
	<path class="st31" d="M244.8,344.8c3.3-1.9,5.7-5,6.7-8.7c1.8-6.3,2.2-7.3,2.2-10.7c0-3.4-1.4-19.8-1.4-19.8l-9-0.6l-1.9,1.4
		l0.8,34.7L244.8,344.8z"/>
	<path class="st30" d="M246.5,306.5c0.9-0.5,1.5-1.4,1.6-2.4c0.1-0.7,0.7-1.2,1.4-1.1c0,0,0,0,0,0c0.1,0,0.2,0,0.3,0.1l1.1,5.1
		c0,0-1.1,0.4-0.9,1.3c0.3,0.9,2.3,12.8,2.3,16.3c0,3.5-1.5,9.8-4.5,11.8c-2.9,2-6.1,3.6-7,4.8s-1.8,2.1-3,2.1s-4.8-0.4-6.2-0.3
		c-1.4,0.2-3.7,0.2-3.7-0.5c-0.2-1.1-0.4-2.1-0.7-3.2c-0.3-1.2,0.8-2.2,1-3.2c0.2-0.6,0.3-1.3,0.3-2c-1-0.5-1.8-1.3-2.5-2.1
		c-0.4-1.1-0.8-2.1-1.4-3c-1-1.4-3.5-4.3-4-6c-0.9-2.7-1.5-5.5-1.8-8.3c-0.2-3.4,0.2-7.1,0.6-7.2c0.4-0.1-0.6,6,3.3,12
		c3.9,6,8.2,5.4,8.2,5.4c0.1-1.5,0.1-2.9,0.1-4.4c-0.1-1.8-0.4-4,0-4.5s1.3,2.1,2.8,3c1.5,0.9,1.1,0.8,1.1,0.8s0.8-1.5,0.7-4.8
		c-0.1-1.7,0.1-3.3,0.5-4.9c0,0-1.5-3-2.1-4.6c-0.4-1-0.9-1.9-1.5-2.8c1.4,0.9,2.9,1.6,4.4,2.3c0.7,0.2,1.4,0.5,2.1,0.9
		c1.1-0.4,2.2-0.6,3.4-0.6L246.5,306.5z"/>
	<path class="st32" d="M249.9,308.8c0,0-0.7-2.7-1.3-4.2c-0.6-1.6,0.5-4.6,2.5-4.6s-0.2,1.3,0.7,1.3s0.9-2,2-1.7
		c1,0.3-0.3,1.5,0.5,3.3c0.7,1.4,0.5,3.1-0.6,4.2c-0.8,0.6-1.7,1-2.7,1.3L249.9,308.8z"/>
	<path class="st32" d="M235.7,309.9c-0.2-1.1-0.5-2.2-0.9-3.3c-0.7-1-1.4-2.1-2.1-3c0,0-0.5-1.5-3.3-1.4c-2.8,0.1-1.3,1.5-1.3,1.5
		l0.4,1c0.4,1.3,1.1,2.6,2,3.7c1,0.9,2.3,1.5,3.6,1.5L235.7,309.9L235.7,309.9z"/>
	<path d="M242.1,326.9c0,0,0.2-0.5,1.6-0.5s0.9,0.3,0.9,0.3s0.3,1.1-1.3,1S242.1,326.9,242.1,326.9z"/>
	<path class="st32" d="M235.7,340.9c0,0,0.5-1.5,1.3-1.5c0.8,0,2.1,0.5,1.5,1C237.9,341,235.7,340.9,235.7,340.9z"/>
	<path class="st32" d="M229.2,341.4c0,0-0.8-2.4-1-1.9c-0.3,0.5-1,1,0,1.5L229.2,341.4z"/>
	<ellipse class="st25" cx="274" cy="326.6" rx="17.5" ry="14.9"/>
	<path class="st31" d="M228.7,335.3c0.9,0.5,2,0.7,3,0.6c1.9-0.2-2.5,1.2-3.4,2.2l-0.7,0.8c0.4-0.6,0.7-1.3,0.9-2.1
		C228.7,336.2,228.7,335.3,228.7,335.3z"/>
	<path class="st31" d="M231,326c0.9,0.1,1.8,0.5,2.5,1.1c0.3,0.3-1.4-2.2-1.7-3.4c-0.2-0.6-0.4-1.2-0.7-1.8v2.4
		C231.1,324.9,231,326,231,326z"/>
	<path class="st31" d="M269.5,348.7c0,0,0-1.5,1.1-2.1c2.4-0.9,4.9-1.5,7.5-1.9c1-0.1,2.1-0.2,3.1-0.3c0,0-5.8,2-6.6,2.5
		c-0.8,0.5-3.6,2.3-3.8,2.9c-0.1,0.4-0.4,0.8-0.7,1L269.5,348.7z"/>
	<path d="M275.2,328.2l0.2-0.3l0.2-0.3c-0.3,0.2-0.5,0.3-0.8,0.4c-0.3,0.1-0.6,0.1-1,0.1c-0.4,0-0.8-0.1-1.1-0.2
		c-0.4-0.1-0.7-0.3-1-0.6c-0.3-0.3-0.5-0.6-0.7-1c-0.2-0.4-0.3-0.9-0.3-1.4c0-0.5,0.1-1,0.3-1.4c0.2-0.4,0.4-0.8,0.8-1.1
		c0.3-0.3,0.7-0.6,1.2-0.8c0.5-0.2,1-0.3,1.5-0.3c0.5,0,1,0.1,1.5,0.3c0.4,0.2,0.8,0.4,1.1,0.7c0.3,0.3,0.6,0.7,0.7,1.1
		c0.2,0.5,0.3,1,0.3,1.5c0,0.3,0,0.6-0.1,1c-0.1,0.3-0.1,0.6-0.2,0.9c-0.1,0.3-0.2,0.6-0.4,0.8c-0.2,0.3-0.3,0.5-0.5,0.8l-2.5,3.6
		c-0.1,0.1-0.2,0.2-0.4,0.3c-0.2,0.1-0.4,0.1-0.6,0.1h-1.7L275.2,328.2z M272.7,324.8c0,0.5,0.1,1,0.5,1.4c0.4,0.3,0.8,0.5,1.3,0.5
		c0.3,0,0.6,0,0.8-0.1c0.2-0.1,0.4-0.2,0.6-0.4c0.2-0.2,0.3-0.4,0.4-0.6c0.1-0.2,0.1-0.5,0.1-0.7c0-0.3,0-0.5-0.1-0.8
		c-0.1-0.2-0.2-0.4-0.4-0.6c-0.2-0.2-0.4-0.3-0.6-0.4c-0.2-0.1-0.5-0.1-0.8-0.1c-0.3,0-0.5,0-0.8,0.1c-0.4,0.2-0.8,0.5-1,1
		C272.8,324.3,272.7,324.5,272.7,324.8L272.7,324.8z"/>
</g>
<g>
	<path class="st30" d="M135.8,200.4c0.4-0.4,0.8-0.8,1.3-1.2c0.2,0,0.4-0.1,0.6-0.2l1.8-2.6c0.5-0.9,1.2-1.5,2.1-2
		c1.2-0.4,1.4-1.5,3.4-1.2c1,0.1,2,0.5,2.7,1.2c1.5-0.2,3.1,0.1,4.4,0.8c2.1,1.1,3.4,3.7,4.8,4.1s3.2-0.5,4.9-1.1
		c1.8-0.6,11.3,3.7,13,4.4c1.7,0.8,10.6,2.5,12.6,11.3c2,8.9-0.2,15.3-1.2,17.2c-1,1.8-4.1,7.1-4.4,8.3c-0.2,1.2-1.3,6.4-1.4,7.1
		c-0.1,1.6-0.1,3.1,0,4.7c0.1,0.3,0.8,0.9,0.3,1.3c-0.4,0.4-3.5,2.1-6.1,0.3c0,0-1.4-0.9-1.4-1.9c0-1,0.8-5.2,0.9-6.3
		c0.4-1.7,0.6-3.4,0.7-5.2c0-0.4-0.1-0.9-0.4-1.2c0,0-4.3,1.7-5.1,1.9c-0.5,0.1-1,0.3-1.4,0.6c0.4,1.4,0.6,2.9,0.8,4.4
		c0.1,1.4,0.5,3.6,0.1,4.5s-2.9,1.2-3.4,1.2c-0.6-0.1-1.3-0.3-1.8-0.5c0,0,0.3-4.3,0-5.7c-0.2-0.7-0.4-1.4-0.6-2.1
		c0,0-0.8,4.7-0.7,6.4c0.2,1.7,1,5.6,1.4,6c0.4,0.3,1.1,3.1-1.4,3.8s-5,0.7-6-0.5c-0.7-0.8-1.2-1.6-1.7-2.6c0.8-2.1,1.1-4.3,1-6.5
		c-0.1-3.6-0.8-6.7-0.6-8.6s-1.4,0.9-4.4-0.9c-2.9-1.7-1.3-0.7-1.3-0.7l-0.9,0.7c0,0,3.9,8.1,4.5,10.4c0.3,1.3,0.6,2.7,0.8,4
		c0,0-1.4,2.9-4.2,3.5c-1.6,0.4-3.3,0.2-4.8-0.6c0.5-2.3,0.5-4.7,0-7.1c-0.8-3.1-5.4-10.3-5.4-10.3l-4.2-6.4l-1.4-17.3L135.8,200.4z
		"/>
	<path class="st31" d="M139,238.5c3.2-1.9,5.6-4.9,6.6-8.6c1.8-6.3,2.2-7.2,2.2-10.6s-1.4-19.7-1.4-19.7l-8.8-0.6l-1.8,1.4l0.8,34.4
		L139,238.5z"/>
	<path class="st30" d="M140.7,200.6c0.9-0.5,1.4-1.4,1.6-2.4c0.1-0.7,0.7-1.2,1.4-1.1c0,0,0,0,0.1,0c0.1,0,0.2,0,0.3,0.1l1.1,5
		c0,0-1.1,0.4-0.8,1.3c0.3,0.9,2.2,12.7,2.2,16.2c0,3.5-1.5,9.7-4.4,11.7c-2.8,2-6,3.6-6.8,4.8c-0.8,1.2-1.8,2.1-2.9,2.1
		s-4.7-0.4-6-0.3c-1.3,0.2-3.6,0.2-3.6-0.5c-0.2-1.1-0.4-2.1-0.7-3.1c-0.3-1.2,0.8-2.2,1-3.1c0.2-0.6,0.3-1.3,0.3-2
		c-1-0.5-1.8-1.2-2.4-2.1c-0.4-1-0.8-2-1.4-3c-1-1.4-3.4-4.3-3.9-6c-0.9-2.7-1.5-5.4-1.8-8.3c-0.2-3.3,0.2-7.1,0.6-7.2
		s-0.6,6,3.2,11.9c3.8,5.9,8,5.4,8,5.4c0.1-1.4,0.1-2.9,0.1-4.3c-0.1-1.8-0.4-4,0-4.4c0.4-0.4,1.3,2.1,2.7,3
		c1.5,0.9,1.1,0.8,1.1,0.8s0.8-1.4,0.7-4.8c-0.1-1.6,0.1-3.3,0.5-4.9c0,0-1.4-3-2.1-4.5c-0.4-1-0.9-1.9-1.4-2.8
		c1.4,0.9,2.8,1.6,4.3,2.3c0.7,0.2,1.4,0.5,2,0.9c1-0.4,2.2-0.6,3.3-0.6L140.7,200.6z"/>
	<path class="st32" d="M143.9,202.9c0,0-0.7-2.6-1.3-4.2s0.5-4.6,2.4-4.6s-0.2,1.3,0.7,1.3c0.9,0,0.9-2,1.9-1.7
		c1,0.3-0.3,1.5,0.5,3.2c0.7,1.4,0.5,3.1-0.6,4.2c-0.8,0.6-1.7,1-2.6,1.3L143.9,202.9z"/>
	<path class="st32" d="M130.1,204c-0.2-1.1-0.5-2.2-0.8-3.2c-0.7-1-1.4-2-2.1-3c0,0-0.5-1.5-3.2-1.4s-1.3,1.4-1.3,1.4l0.4,1
		c0.4,1.3,1.1,2.6,1.9,3.7c0.9,0.9,2.2,1.5,3.5,1.4L130.1,204L130.1,204z"/>
	<path d="M136.4,220.8c0,0,0.2-0.5,1.6-0.5s0.9,0.3,0.9,0.3s0.3,1.1-1.3,1S136.4,220.8,136.4,220.8z"/>
	<path class="st32" d="M130.1,234.7c0,0,0.5-1.4,1.3-1.4s2.1,0.5,1.5,1S130.1,234.7,130.1,234.7z"/>
	<path class="st32" d="M123.7,235.2c0,0-0.8-2.4-1-1.9s-1,1,0,1.4L123.7,235.2z"/>
	<ellipse class="st25" cx="167.5" cy="220.6" rx="17.1" ry="14.7"/>
	<path class="st31" d="M123.3,229.2c0.9,0.5,1.9,0.7,2.9,0.6c1.8-0.2-2.4,1.2-3.3,2.2l-0.7,0.8c0.4-0.6,0.6-1.3,0.8-2
		C123.2,230,123.3,229.2,123.3,229.2z"/>
	<path class="st31" d="M125.5,219.9c0.9,0.1,1.8,0.5,2.4,1.1c0.3,0.3-1.4-2.2-1.7-3.3c-0.2-0.6-0.4-1.2-0.7-1.8v2.4
		C125.6,218.9,125.5,219.9,125.5,219.9z"/>
	<path class="st31" d="M163.1,242.4c0,0,0-1.5,1.1-2c2.4-0.9,4.8-1.5,7.3-1.9c1-0.1,2-0.2,3-0.3c0,0-5.7,2-6.5,2.5
		c-0.7,0.5-3.5,2.3-3.7,2.9c-0.1,0.4-0.4,0.7-0.7,1L163.1,242.4z"/>
	<path d="M166.8,219.4c0.2,0,0.5-0.1,0.7-0.1c0.2,0,0.4,0,0.6,0c0.5,0,1,0.1,1.5,0.3c0.4,0.2,0.8,0.4,1.1,0.7
		c0.3,0.3,0.5,0.7,0.7,1.1c0.1,0.4,0.2,0.9,0.2,1.3c0,0.5-0.1,1.1-0.3,1.6c-0.2,0.5-0.5,0.9-0.8,1.2c-0.4,0.3-0.8,0.6-1.3,0.8
		c-0.5,0.2-1,0.3-1.6,0.3c-0.3,0-0.6,0-1-0.1c-0.6-0.1-1.1-0.4-1.6-0.7c-0.2-0.1-0.4-0.3-0.6-0.5l0.6-0.8c0.1-0.2,0.3-0.3,0.5-0.3
		c0.1,0,0.3,0,0.4,0.1l0.4,0.3c0.2,0.1,0.4,0.2,0.6,0.3c0.3,0.1,0.5,0.1,0.8,0.1c0.3,0,0.6-0.1,0.9-0.2c0.2-0.1,0.5-0.3,0.6-0.5
		c0.2-0.2,0.3-0.4,0.4-0.7c0.1-0.3,0.1-0.6,0.1-0.9c0-0.5-0.2-1-0.5-1.4c-0.4-0.4-1-0.5-1.5-0.5c-0.5,0-1.1,0.1-1.6,0.3l-1.2-0.3
		l0.9-5.3h5.3v0.8c0,0.2-0.1,0.5-0.2,0.6c-0.2,0.2-0.5,0.3-0.8,0.3h-2.9L166.8,219.4z"/>
</g>
<g>
	<path class="st30" d="M289.3,432.8c0.4-0.4,0.8-0.8,1.3-1.2c0.2,0,0.4-0.1,0.6-0.2l1.8-2.6c0.5-0.9,1.2-1.6,2.2-2
		c1.2-0.4,1.4-1.6,3.4-1.2c1,0.1,2,0.5,2.8,1.2c1.6-0.2,3.2,0.1,4.6,0.8c2.2,1.1,3.5,3.8,4.9,4.1c1.4,0.3,3.3-0.5,5.1-1.1
		c1.8-0.6,11.6,3.7,13.4,4.5s10.9,2.5,12.9,11.5c2.1,9-0.2,15.5-1.2,17.4c-1,1.9-4.2,7.2-4.5,8.4s-1.3,6.5-1.4,7.2
		c-0.1,1.6-0.1,3.2,0,4.7c0.1,0.3,0.8,0.9,0.3,1.3c-0.4,0.4-3.6,2.2-6.3,0.3c0,0-1.5-0.9-1.4-1.9c0-1,0.8-5.3,0.9-6.4
		c0.4-1.7,0.6-3.5,0.7-5.3c0-0.4-0.1-0.9-0.4-1.2c0,0-4.4,1.7-5.3,1.9c-0.5,0.1-1,0.3-1.4,0.6c0.4,1.5,0.7,3,0.8,4.5
		c0.1,1.4,0.5,3.6,0.1,4.6c-0.4,1-3,1.2-3.4,1.2c-0.7-0.1-1.3-0.3-1.9-0.5c0,0,0.3-4.4,0-5.8c-0.2-0.7-0.4-1.4-0.6-2.2
		c0,0-0.9,4.7-0.7,6.5c0.2,1.7,1,5.7,1.4,6s1.1,3.1-1.5,3.9s-5.2,0.7-6.1-0.5c-0.7-0.8-1.3-1.7-1.7-2.6c0.8-2.1,1.1-4.3,1-6.6
		c-0.1-3.6-0.9-6.8-0.6-8.7s-1.5,0.9-4.5-0.9c-3-1.7-1.3-0.7-1.3-0.7l-0.9,0.7c0,0,4,8.2,4.7,10.5c0.3,1.3,0.6,2.7,0.8,4
		c0,0-1.5,2.9-4.3,3.5c-1.7,0.4-3.4,0.2-4.9-0.6c0.5-2.4,0.5-4.8,0-7.2c-0.9-3.2-5.5-10.4-5.5-10.4l-4.3-6.5l-1.4-17.5L289.3,432.8z
		"/>
	<path class="st31" d="M292.5,471.4c3.3-1.9,5.8-5,6.8-8.7c1.8-6.4,2.2-7.3,2.2-10.8c0-3.4-1.4-19.9-1.4-19.9l-9.1-0.6l-1.9,1.4
		l0.8,34.8L292.5,471.4z"/>
	<path class="st30" d="M294.3,432.9c0.9-0.5,1.5-1.4,1.6-2.4c0.1-0.7,0.7-1.2,1.4-1.1c0,0,0,0,0,0c0.1,0,0.2,0,0.3,0.1l1.1,5.1
		c0,0-1.1,0.4-0.9,1.3s2.3,12.8,2.3,16.4c0,3.5-1.6,9.8-4.5,11.8s-6.1,3.6-7,4.8c-0.9,1.2-1.8,2.2-3,2.2c-1.2,0-4.8-0.4-6.2-0.3
		c-1.4,0.2-3.7,0.2-3.7-0.5c-0.2-1.1-0.4-2.1-0.7-3.2c-0.3-1.2,0.8-2.2,1-3.2c0.2-0.6,0.3-1.3,0.3-2c-1-0.5-1.8-1.3-2.5-2.2
		c-0.4-1.1-0.9-2.1-1.5-3c-1-1.4-3.5-4.3-4-6c-0.9-2.7-1.6-5.5-1.8-8.4c-0.2-3.4,0.2-7.2,0.6-7.2c0.4-0.1-0.6,6,3.3,12
		s8.2,5.4,8.2,5.4c0.1-1.5,0.1-2.9,0.1-4.4c-0.1-1.8-0.4-4,0-4.5c0.4-0.4,1.3,2.2,2.8,3c1.5,0.9,1.1,0.8,1.1,0.8s0.8-1.5,0.7-4.8
		c-0.1-1.7,0.1-3.3,0.5-4.9c0,0-1.5-3-2.2-4.6c-0.4-1-0.9-1.9-1.5-2.8c1.4,0.9,2.9,1.7,4.4,2.3c0.7,0.3,1.4,0.5,2.1,0.9
		c1.1-0.4,2.2-0.6,3.4-0.6L294.3,432.9z"/>
	<path class="st32" d="M297.6,435.2c0,0-0.7-2.7-1.3-4.2c-0.6-1.6,0.5-4.7,2.5-4.7c2,0-0.2,1.3,0.7,1.3c0.9,0,0.9-2,2-1.7
		s-0.3,1.6,0.5,3.3c0.7,1.4,0.5,3.1-0.6,4.2c-0.8,0.6-1.7,1-2.7,1.3L297.6,435.2z"/>
	<path class="st32" d="M283.4,436.4c-0.2-1.1-0.5-2.2-0.9-3.3c-0.7-1-1.4-2.1-2.2-3c0,0-0.5-1.6-3.3-1.4c-2.8,0.1-1.3,1.5-1.3,1.5
		l0.4,1c0.4,1.3,1.1,2.6,2,3.7c1,0.9,2.3,1.5,3.6,1.5L283.4,436.4L283.4,436.4z"/>
	<path d="M289.9,453.4c0,0,0.2-0.5,1.6-0.5c1.5,0,0.9,0.3,0.9,0.3s0.3,1.1-1.3,1S289.9,453.4,289.9,453.4z"/>
	<path class="st32" d="M283.4,467.5c0,0,0.5-1.5,1.3-1.5s2.2,0.5,1.6,1C285.7,467.6,283.4,467.5,283.4,467.5z"/>
	<path class="st32" d="M276.9,468c0,0-0.8-2.4-1-1.9c-0.3,0.5-1,1,0,1.5L276.9,468z"/>
	<ellipse class="st25" cx="321.9" cy="453.2" rx="17.6" ry="14.9"/>
	<path class="st31" d="M276.4,461.9c0.9,0.5,2,0.7,3,0.6c1.9-0.2-2.5,1.2-3.4,2.2l-0.7,0.8c0.4-0.6,0.7-1.3,0.9-2.1
		C276.3,462.8,276.4,461.9,276.4,461.9z"/>
	<path class="st31" d="M278.7,452.5c0.9,0.1,1.8,0.5,2.5,1.1c0.3,0.3-1.4-2.2-1.7-3.4c-0.2-0.6-0.4-1.2-0.7-1.8v2.4
		C278.7,451.5,278.7,452.5,278.7,452.5z"/>
	<path class="st31" d="M317.4,475.3c0,0,0-1.6,1.1-2.1c2.4-0.9,4.9-1.5,7.5-1.9c1-0.1,2.1-0.2,3.1-0.3c0,0-5.9,2-6.6,2.5
		s-3.6,2.3-3.8,2.9c-0.1,0.4-0.4,0.8-0.7,1L317.4,475.3z"/>
	<path d="M321.1,457.3c0.2,0,0.3,0.1,0.5,0.2c0.1,0.1,0.2,0.3,0.2,0.5v1.1h-7.5v-0.6c0-0.1,0-0.3,0.1-0.4c0.1-0.1,0.1-0.3,0.3-0.4
		l3.3-3.3c0.3-0.3,0.5-0.6,0.7-0.8c0.2-0.2,0.4-0.5,0.6-0.8c0.1-0.2,0.3-0.5,0.3-0.8c0.1-0.3,0.1-0.5,0.1-0.8c0-0.2,0-0.5-0.1-0.7
		c-0.1-0.2-0.2-0.4-0.3-0.5c-0.1-0.1-0.3-0.2-0.5-0.3c-0.2-0.1-0.4-0.1-0.7-0.1c-0.2,0-0.4,0-0.6,0.1c-0.4,0.1-0.7,0.4-0.9,0.7
		c-0.1,0.2-0.2,0.3-0.2,0.5c-0.1,0.2-0.2,0.4-0.3,0.5c-0.2,0.1-0.4,0.1-0.6,0.1l-1-0.2c0.1-0.5,0.2-1,0.4-1.4c0.2-0.4,0.5-0.7,0.8-1
		c0.3-0.3,0.7-0.5,1.1-0.6c0.4-0.1,0.9-0.2,1.4-0.2c0.5,0,1,0.1,1.4,0.2c0.4,0.1,0.8,0.4,1.1,0.6c0.3,0.3,0.5,0.6,0.7,1
		c0.2,0.4,0.3,0.8,0.3,1.3c0,0.4-0.1,0.8-0.2,1.1c-0.1,0.3-0.3,0.7-0.5,1c-0.2,0.3-0.4,0.6-0.7,0.9c-0.3,0.3-0.5,0.6-0.8,0.9
		l-2.5,2.6c0.2-0.1,0.5-0.1,0.7-0.2c0.2,0,0.5-0.1,0.7-0.1H321.1z"/>
	<path d="M330.9,453.5c0,0.8-0.1,1.7-0.3,2.5c-0.2,0.6-0.5,1.2-0.9,1.8c-0.3,0.4-0.8,0.8-1.3,1c-0.5,0.2-1.1,0.3-1.6,0.3
		c-0.5,0-1.1-0.1-1.6-0.3c-0.5-0.2-0.9-0.6-1.3-1c-0.4-0.5-0.7-1.1-0.8-1.8c-0.4-1.6-0.4-3.4,0-5c0.2-0.6,0.5-1.2,0.8-1.8
		c0.3-0.4,0.8-0.8,1.3-1c0.5-0.2,1-0.3,1.6-0.3c0.6,0,1.1,0.1,1.6,0.3c0.5,0.2,0.9,0.6,1.3,1c0.4,0.5,0.7,1.1,0.9,1.8
		C330.9,451.8,331,452.7,330.9,453.5z M329,453.5c0-0.7,0-1.3-0.2-2c-0.1-0.4-0.2-0.9-0.5-1.2c-0.2-0.3-0.4-0.5-0.7-0.7
		c-0.2-0.1-0.5-0.2-0.8-0.2c-0.3,0-0.5,0.1-0.8,0.2c-0.3,0.2-0.5,0.4-0.7,0.7c-0.2,0.4-0.4,0.8-0.5,1.2c-0.2,1.3-0.2,2.6,0,4
		c0.1,0.4,0.2,0.9,0.5,1.2c0.2,0.3,0.4,0.5,0.7,0.7c0.2,0.1,0.5,0.2,0.8,0.2c0.3,0,0.5-0.1,0.8-0.2c0.3-0.1,0.5-0.4,0.7-0.7
		c0.2-0.4,0.4-0.8,0.5-1.2C329,454.8,329,454.2,329,453.5L329,453.5z"/>
</g>
<g>
	<path class="st30" d="M154.1,279.4c0.4-0.4,0.8-0.8,1.3-1.2c0.2,0,0.4-0.1,0.6-0.2l1.8-2.6c0.5-0.9,1.2-1.6,2.2-2
		c1.2-0.4,1.4-1.6,3.4-1.2c1,0.1,2,0.5,2.8,1.2c1.6-0.2,3.2,0.1,4.6,0.8c2.2,1.1,3.5,3.8,4.9,4.1c1.4,0.3,3.3-0.5,5.1-1.1
		s11.6,3.7,13.4,4.5s10.9,2.5,12.9,11.5c2.1,9-0.2,15.5-1.2,17.4c-1,1.9-4.2,7.2-4.5,8.4c-0.2,1.2-1.3,6.5-1.4,7.2
		c-0.1,1.6-0.1,3.2,0,4.7c0.1,0.3,0.8,0.9,0.3,1.3c-0.4,0.4-3.6,2.2-6.3,0.3c0,0-1.5-0.9-1.4-1.9s0.8-5.3,0.9-6.4
		c0.4-1.7,0.6-3.5,0.7-5.3c0-0.4-0.1-0.9-0.4-1.2c0,0-4.4,1.7-5.3,1.9c-0.5,0.1-1,0.3-1.4,0.6c0.4,1.5,0.7,3,0.8,4.5
		c0.1,1.4,0.5,3.6,0.1,4.6c-0.4,1-3,1.2-3.4,1.2c-0.7-0.1-1.3-0.3-1.9-0.5c0,0,0.3-4.4,0-5.8c-0.2-0.7-0.4-1.4-0.6-2.2
		c0,0-0.9,4.7-0.7,6.5c0.2,1.7,1,5.7,1.4,6c0.4,0.3,1.1,3.1-1.5,3.9c-2.6,0.8-5.2,0.7-6.1-0.5c-0.7-0.8-1.3-1.7-1.7-2.6
		c0.8-2.1,1.1-4.3,1-6.6c-0.1-3.6-0.9-6.8-0.6-8.7c0.3-1.9-1.5,0.9-4.5-0.9c-3-1.7-1.3-0.7-1.3-0.7l-0.9,0.7c0,0,4,8.2,4.7,10.5
		c0.3,1.3,0.6,2.7,0.8,4c0,0-1.5,2.9-4.3,3.5c-1.7,0.4-3.4,0.2-4.9-0.6c0.5-2.4,0.5-4.8,0-7.2c-0.9-3.2-5.5-10.4-5.5-10.4l-4.3-6.5
		l-1.5-17.5L154.1,279.4z"/>
	<path class="st31" d="M157.3,318c3.3-1.9,5.8-5,6.8-8.7c1.8-6.4,2.2-7.3,2.2-10.8c0-3.4-1.4-19.9-1.4-19.9l-9.1-0.6l-1.9,1.4
		l0.8,34.8L157.3,318z"/>
	<path class="st30" d="M159.1,279.6c0.9-0.5,1.5-1.4,1.6-2.4c0.1-0.7,0.7-1.2,1.4-1.1c0,0,0,0,0,0c0.1,0,0.2,0,0.3,0.1l1.1,5.1
		c0,0-1.1,0.4-0.9,1.3c0.3,0.9,2.3,12.8,2.3,16.4c0,3.5-1.6,9.8-4.5,11.8c-2.9,2-6.1,3.6-7,4.8c-0.9,1.2-1.8,2.2-3,2.2
		c-1.2,0-4.8-0.4-6.2-0.3c-1.4,0.2-3.7,0.2-3.7-0.5c-0.2-1.1-0.4-2.1-0.7-3.2c-0.3-1.2,0.8-2.2,1-3.2c0.2-0.6,0.3-1.3,0.3-2
		c-1-0.5-1.8-1.3-2.5-2.2c-0.4-1.1-0.9-2.1-1.5-3c-1-1.4-3.5-4.3-4-6c-0.9-2.7-1.6-5.5-1.8-8.4c-0.2-3.4,0.2-7.2,0.6-7.2
		c0.4-0.1-0.6,6,3.3,12s8.2,5.4,8.2,5.4c0.1-1.5,0.1-2.9,0.1-4.4c-0.1-1.8-0.4-4,0-4.5s1.3,2.2,2.8,3s1.1,0.8,1.1,0.8
		s0.8-1.5,0.7-4.8c-0.1-1.7,0.1-3.3,0.5-4.9c0,0-1.5-3-2.2-4.6c-0.4-1-0.9-1.9-1.5-2.8c1.4,0.9,2.9,1.7,4.4,2.3
		c0.7,0.3,1.4,0.5,2.1,0.9c1.1-0.4,2.2-0.6,3.4-0.6L159.1,279.6z"/>
	<path class="st32" d="M162.4,281.9c0,0-0.7-2.7-1.3-4.2c-0.6-1.6,0.5-4.7,2.5-4.7c2,0-0.2,1.3,0.7,1.3c0.9,0,0.9-2,2-1.7
		c1,0.3-0.3,1.6,0.5,3.3c0.7,1.4,0.5,3.1-0.6,4.2c-0.8,0.6-1.7,1-2.7,1.3L162.4,281.9z"/>
	<path class="st32" d="M148.2,283c-0.2-1.1-0.5-2.2-0.9-3.3c-0.7-1-1.4-2.1-2.2-3c0,0-0.5-1.6-3.3-1.4s-1.3,1.5-1.3,1.5l0.4,1
		c0.4,1.3,1.1,2.6,2,3.7c1,0.9,2.3,1.5,3.6,1.5L148.2,283L148.2,283z"/>
	<path d="M154.7,300.1c0,0,0.2-0.5,1.6-0.5c1.5,0,0.9,0.3,0.9,0.3s0.3,1.1-1.3,1C154.4,300.8,154.7,300.1,154.7,300.1z"/>
	<path class="st32" d="M148.2,314.2c0,0,0.5-1.5,1.3-1.5s2.2,0.5,1.6,1C150.4,314.2,148.2,314.2,148.2,314.2z"/>
	<path class="st32" d="M141.6,314.7c0,0-0.8-2.4-1-1.9c-0.3,0.5-1,1,0,1.5L141.6,314.7z"/>
	<ellipse class="st25" cx="186.7" cy="299.9" rx="17.6" ry="14.9"/>
	<path class="st31" d="M141.2,308.6c0.9,0.5,2,0.7,3,0.6c1.9-0.2-2.5,1.2-3.4,2.2l-0.7,0.8c0.4-0.6,0.7-1.3,0.9-2.1
		C141.1,309.4,141.2,308.6,141.2,308.6z"/>
	<path class="st31" d="M143.5,299.2c0.9,0.1,1.8,0.5,2.5,1.1c0.3,0.3-1.4-2.2-1.7-3.4c-0.2-0.6-0.4-1.2-0.7-1.8v2.4
		C143.5,298.1,143.5,299.2,143.5,299.2z"/>
	<path class="st31" d="M182.2,322c0,0,0-1.6,1.1-2.1c2.4-0.9,4.9-1.5,7.5-1.9c1-0.1,2.1-0.2,3.1-0.3c0,0-5.9,2-6.6,2.5
		c-0.8,0.5-3.6,2.3-3.8,2.9c-0.1,0.4-0.4,0.8-0.7,1L182.2,322z"/>
	<path d="M190.8,304.3v1.4h-6.1v-1.4h2.2v-6.4c0-0.3,0-0.5,0-0.8l-1.6,1.3c-0.1,0.1-0.3,0.2-0.5,0.1c-0.1,0-0.1,0-0.2-0.1
		c-0.1,0-0.1-0.1-0.1-0.1l-0.6-0.8l3.4-2.8h1.5v9.6L190.8,304.3L190.8,304.3z"/>
</g>
<g>
	<circle class="st33" cx="462.2" cy="411.7" r="7.8"/>
	<circle class="st34" cx="462.2" cy="404" r="5.4"/>
	<circle class="st34" cx="462.2" cy="420" r="5.4"/>
	<circle class="st25" cx="464.7" cy="420" r="1.7"/>
	<path class="st33" d="M425.1,413.5l-0.9-0.8c0.6-0.7,1-1.1,1-1.1l0.9,0.9C426,412.5,425.6,412.9,425.1,413.5z"/>
	<path class="st33" d="M457,451.7l-0.2-1.2c0.9-0.2,1.8-0.4,2.6-0.8l0.4,1.1C458.9,451.2,458,451.5,457,451.7z M462.4,449.6l-0.6-1
		c0.8-0.5,1.5-1,2.2-1.6l0.8,0.9C464.1,448.6,463.3,449.1,462.4,449.6L462.4,449.6L462.4,449.6z M466.7,445.6l-1-0.7
		c0.5-0.7,0.8-1.5,1-2.4l1.2,0.3C467.7,443.8,467.3,444.8,466.7,445.6L466.7,445.6L466.7,445.6z M466.7,440.1
		c-0.2-0.8-0.6-1.6-1.2-2.2l0.9-0.8c0.7,0.8,1.1,1.7,1.4,2.7L466.7,440.1z M463.6,436.1c-0.3-0.2-0.5-0.4-0.8-0.5
		c-0.5-0.3-1-0.5-1.5-0.7l0.4-1.1c0.6,0.2,1.1,0.5,1.7,0.8c0.3,0.2,0.6,0.4,0.9,0.6L463.6,436.1z M434.4,435.1h-0.9v-1.2h0.9
		c0.6,0,1.2,0,1.9,0l0,1.2C435.7,435.1,435,435.1,434.4,435.1L434.4,435.1L434.4,435.1z M430.7,434.9c-1-0.1-1.9-0.3-2.8-0.6
		l0.4-1.1c0.9,0.3,1.8,0.4,2.6,0.6L430.7,434.9z M439.2,434.9l-0.1-1.2l2.8-0.3l0.1,1.2L439.2,434.9L439.2,434.9L439.2,434.9z
		 M444.8,434.3l-0.1-1.2l2.8-0.3l0.1,1.2C446.6,434.1,445.7,434.2,444.8,434.3L444.8,434.3L444.8,434.3z M458.6,434
		c-0.9-0.2-1.8-0.3-2.7-0.3l0.1-1.2c1,0.1,1.9,0.2,2.9,0.4L458.6,434z M450.4,433.7l-0.1-1.2c1-0.1,2-0.1,2.8-0.1v1.2
		C452.3,433.6,451.4,433.6,450.4,433.7L450.4,433.7z M425.2,433.1c-0.8-0.4-1.4-1-2.1-1.6l-0.2-0.2l0.9-0.8l0.2,0.2
		c0.5,0.5,1.2,1,1.8,1.4L425.2,433.1z M421.1,428.9c-0.5-0.9-0.9-1.8-1.1-2.8l1.2-0.3c0.2,0.9,0.6,1.7,1,2.5L421.1,428.9z
		 M420.9,423.2h-1.2c0-1,0.2-2,0.5-2.9l1.2,0.3C421,421.5,420.9,422.4,420.9,423.2L420.9,423.2z M422.2,418.1l-1.1-0.5
		c0.4-0.9,0.9-1.7,1.4-2.5l1,0.6C423,416.5,422.6,417.3,422.2,418.1L422.2,418.1z"/>
	<path class="st33" d="M453.8,452c-0.4,0-0.8,0-1.2,0l0.1-1.2c0.5,0,0.9,0,1.4,0v1.2H453.8z"/>
	<circle class="st25" cx="464.7" cy="404" r="1.7"/>
	<path class="st35" d="M449.7,414.6c0,0,7,7.3,7,14.1s-1.5,10.6-7,10.6s-6.9-4.3-6.9-10.2S449.7,414.6,449.7,414.6z"/>
	<path class="st35" d="M449.9,409.4c0,0-7-7.3-7-14.1s1.5-10.6,7-10.6s6.9,4.3,6.9,10.2S449.9,409.4,449.9,409.4z"/>
	<circle class="st33" cx="444.3" cy="412.1" r="12.4"/>
	<circle class="st25" cx="444.3" cy="412.1" r="10.1"/>
	<path d="M447.1,414.8v1.1h-4.8v-1.1h1.8v-5.1c0-0.2,0-0.4,0-0.6l-1.2,1c-0.1,0.1-0.3,0.1-0.4,0.1c-0.1,0-0.1,0-0.2-0.1
		c0,0-0.1-0.1-0.1-0.1l-0.5-0.6l2.6-2.2h1.2v7.6L447.1,414.8L447.1,414.8z"/>
</g>
<g>
	<path class="st2" d="M416.6,87.6c0,0-3.8,15-2.5,17.4s9.5,6.7,9.5,6.7s-6.3,0.8-6.3,4.8s11.5-3.4,11.5-3.4l-1.1-4.6l14-5.1
		c0,0,15.6,0.3,22.5,5.1s6.1,4.6,6.1,4.6s0.9,6.4,5.1,6.4s-4.1-7.7-4.1-7.7c-0.3-4.9-0.1-9.8,0.8-14.7c1.5-7.3,1.7-8.4,1.7-8.4
		L416.6,87.6z"/>
	<path class="st3" d="M475.3,80.5l-2.2,11.3c0,0-0.2,3.7-13.2,5s-33.5-2.1-33.5-2.1s-6.3-3.2-7.9-4.8c-0.8-0.7-1.5-1.5-2-2.4l2-7.9
		l51.7-5.6c0,0,1.8,4.2,2.9,5C473.8,79.6,474.6,80.1,475.3,80.5z"/>
	<path class="st4" d="M474.8,83l-0.5,3.2l-2.4-1c0,0-0.7,6.2-2.4,7.2c-1.5,1-2.9,2.3-4,3.7l4-19.7l3.4-0.9L474.8,83z"/>
	<path class="st5" d="M473.9,58.1c0,0,11.6,3.7,16.9,7l5.3,3.4l-5.3,4.6c0,0-5.5-1.8-10.7,0s-3.4,1-3.4,1l-2,8.9
		c0,0-5.4-8.5-5.3-12.4s0-7.6,0-7.6L473.9,58.1z"/>
	<path class="st5" d="M413.8,54c0,0-4.1,2.5-5.9,1.4l-1.9-1.1c0,0,2.7-4.1,2.7-6.6s-1.9,0.2-2.7,1.2l-0.9,1c0,0-1.2-5.9-2.7-7.3
		s-2.2,1.7-2.2,3.2c0.1,1.1,0.4,2.2,1,3.2l-6.1-5.6c-1,0.9-1.3,2.2-1,3.5c0.5,1.6,1.5,3,2.9,4c0,0-4.2-2.8-5.2-1.9s2,5.1,2,5.1h2.5
		c0,0-0.3,2.9,0.7,4.2s4.2,0,4.2,0s11.2,10.4,14.6,12.4l3.4,2V58.8L413.8,54z"/>
	<path class="st6" d="M473.2,91.9l-1.2,6.1c0,0-5.1,1.8-6.4,2s-2.7,3.1-4.7,4.1s-3.2,1.7-3.2,1.7l-5.2-1.4l-16.9,1.4l-3.3,1.2
		l-6.7,2.3c0,0,4.7-3.1,4.7-4.9s-4.7-10-4.7-10l15.5,2.9L473.2,91.9z"/>
	<path class="st7" d="M419.3,58.8l-5.5-4.9c-1.3,0.8-2.6,1.3-4.1,1.7c-0.5,1.6-1.2,4.8,0.3,6.9c2.1,2.9,1.6,4.8,1.6,4.8
		c1.3,1.2,2.8,2.2,4.2,3.2l0.5,0.3l2.9-1.3L419.3,58.8L419.3,58.8z"/>
	<path class="st7" d="M482.4,68.4c-5.3,0.4-8.3-0.1-8.3-1.7s2.2-1.5,2.7-2.5c0.5-1.5,1-3,1.3-4.5c-2.4-0.9-4.1-1.4-4.1-1.4l-4.5,4.8
		c0,0,0.1,3.7,0,7.6s5.3,12.4,5.3,12.4l2-8.8c0.4-0.1,1.3-0.4,3.4-1.1c5.1-1.8,10.7,0,10.7,0l1.8-1.6l0,0c0,0,3.1-4.3,1.5-5
		c-0.6-0.3-5.5,2.9-6.2,2.7C486.2,68.5,484.3,68.2,482.4,68.4z"/>
	
		<linearGradient id="SVGID_3_" gradientUnits="userSpaceOnUse" x1="470.1577" y1="522.4349" x2="476.7477" y2="522.4349" gradientTransform="matrix(1 0 0 -1 0 600)">
		<stop  offset="0" style="stop-color:#257B82"/>
		<stop  offset="1" style="stop-color:#339DA8"/>
	</linearGradient>
	<path class="st36" d="M476.7,74.2c0,0-2.6,0.1-3.9,1.3s-2.7-3.3-2.7-3.3l0.9,4l3.8,6.8L476.7,74.2z"/>
	<path class="st9" d="M447.9,46.2l22.5,18.3c0,0,3.1,20.9-2.6,28.9s-17.9,15.6-22.2,17.2s-9,2.6-9,2.6s2.9-1.1,2.2-3.5
		s-25.6-28.6-25.8-33.5s4.4-11.7,4.4-11.7L442,48.1L447.9,46.2z"/>
	<path class="st10" d="M467.8,93.3c5.7-7.9,2.6-28.9,2.6-28.9l-3-2.4l-13.5,1.3c0,0,8.1,16.7,4.8,30.7s-22.2,19.2-22.2,19.2
		s4.6-1.1,9-2.6S462,101.2,467.8,93.3z"/>
	<path class="st3" d="M424.3,47.3c0,0-7.9-5.1-8.4-9.1s23.3-18,28.5-19.4s4.6-1.2,4.6-1.2l-2.3-11.1c0,0,3.3-1.8,12.1-1.2
		s10.3,4.3,10.3,4.3l-5.7,9.8c0,0,12.7,7.9,17.3,14.5s6.7,11.6,5.9,12.9s-9.1,3.2-13.8,4c-2.6,0.5-5.2,0.8-7.8,0.8L424.3,47.3z"/>
	<path class="st11" d="M470.4,64.4l0.3,2.9c-2.1,0.7-4.4,1.1-6.6,1c-2.9,0-5.7-0.4-8.5-1l-1-3.6L470.4,64.4z"/>
	<path class="st4" d="M465.1,51.6h0.9c2.3-0.1,4.6-0.4,6.8-0.8c4.6-0.8,12.9-2.7,13.8-4s-1.3-6.4-5.9-12.9s-17.3-14.5-17.3-14.5
		l5.7-9.8c0,0-0.8-2-4.6-3.3l-3.3,12.1c0,0,8.6,6.5,12,12.2s-2,11.9-2,11.9L465.1,51.6z"/>
	<path class="st12" d="M424.9,45.7c0,0-8.5-4.6-5.8-6s7.2-5.6,30.7-4.9s32.6,9.6,32.6,10.9S468,48.9,468,48.9l-36.5-2.1L424.9,45.7z
		"/>
	<path class="st6" d="M482.4,45.7c0-1.2-9-10.1-32.6-10.9s-28,3.5-30.7,4.9c-1.5,0.8,0.4,2.4,2.4,3.8c4.9-1,15.9-3.2,20.9-3.1
		c6.5,0.1,22,1.9,28.9,5.2c1.7,0.8,3.1,1.5,4.2,2C479,47.1,482.4,46.3,482.4,45.7z"/>
	<path class="st9" d="M446.1,46.9c5-3.8,11.6-4.5,17.3-1.9c9.9,4.4,4.6,6.7,9.7,7.6s3-4.6,3-4.6s6.7,10.9-1.9,15s-8.2,4.8-11.9,4
		s-9.8-1.9-13.2-5.1c-2.1-1.9-3.8-4.1-5.3-6.5L446.1,46.9z"/>
	<path class="st13" d="M434.4,68.4c0,0,0.8,5.5,2.9,5.7s7.9-2.7,8.9-5.1s2-5.2,2-5.2l7.3,3.6l-0.9-2.2c0,0-3.7-1.3-5.6-3.2
		c-1.2-1.3-2.3-2.7-3.2-4.2L434.4,68.4z"/>
	<path class="st9" d="M437,45.6c0,0-2.1-2.9-8-2.1s-6.5,7.8-11.4,8.2s-4.2-1-4.2-2.5s-3.9,13.3,0,14.3s7.5,2.1,13.4,0
		c3.2-1.1,6.3-2.5,9.1-4.4L437,45.6z"/>
	<path class="st5" d="M437,61.2c0,0-6.7,5.3-2.1,10.1s11.8-4.8,11.6-7.2s-0.6-6.3-0.6-6.3L437,61.2z"/>
	<polygon class="st7" points="446.2,61.4 446.5,63.2 443,65.1 436.8,65.1 434.4,64.1 435.5,62.5 	"/>
	<path class="st14" d="M438.4,63.1c0,0-3.4,2.7-1.1,5.2s5.6-2.5,6-3.7c0.4-1.4,0.9-2.7,1.5-4L438.4,63.1z"/>
	<path class="st10" d="M449.1,61.9c3.4,3.2,9.5,4.4,13.2,5.1s3.3,0.2,11.9-4c2.9-1.2,4.6-4.2,4.4-7.3c0,0.7-0.4,2.4-3,4.3
		c-3.5,2.5-8.9-1.7-14.4-4.6c-3.4-1.7-7.3-2.2-11.1-1.4l-3.9,4.8C447.2,59.9,448.1,60.9,449.1,61.9z"/>
	<path class="st11" d="M452.9,53.5c0.8,0.3,1.4,1,1.7,1.9c0.2,1.3,0.2,3.3-1.4,3.4c-0.9,0.1-1.8,0.1-2.8,0c-0.2,0.6-0.5,1.2-0.9,1.8
		c-0.6,0.6-0.9,0.8-0.9,0.8l-1.3-1.4l1-4.1L452.9,53.5z"/>
	<path class="st15" d="M431.8,53.5c-0.9-1.3-2.4-2-3.9-1.9c-2.5,0.3-3.7,3.6-7,4.4s-7.7,0.5-8.2-0.6c-0.3-0.5-0.4-1.2-0.4-1.8
		c-0.7,4-1.1,9.3,1.1,9.8c3.9,1,7.5,2.1,13.4,0c3.1-1.1,6.1-2.5,8.9-4.2L431.8,53.5z"/>
	<ellipse class="st16" cx="435.7" cy="39" rx="4.2" ry="3.5"/>
	<path class="st9" d="M441.7,38.8c0,0-1.4-10.1-8.4-10.2s-10.2,3.4-10.5,5.1s-2,8.2-1.3,8.8s7.4-5.4,11.8-4.6s6.2,2.7,6.2,2.7
		L441.7,38.8z"/>
	<path class="st9" d="M447.3,39.9c0,0,10.2-7.3,13.9-7.8s8.6-0.7,8.6-0.7s5.7,5,4.9,9.2s-0.3,6.1-1.4,6.1s-9-7.1-16.2-7.1
		s-10.8,3.8-10.8,3.8L447.3,39.9z"/>
	<ellipse class="st16" cx="458.2" cy="40.5" rx="6" ry="3"/>
	<path class="st9" d="M447.3,39.9c0,0,10.2-7.3,13.9-7.8s8.6-0.7,8.6-0.7s5.7,5,4.9,9.2s-0.3,6.1-1.4,6.1s-9-7.1-16.2-7.1
		s-10.8,3.8-10.8,3.8L447.3,39.9z"/>
	<path class="st10" d="M474.7,40.6c0.1-0.4,0.1-0.8,0-1.2c-2.8-1-9.5-3.2-14-3.2c-5.7,0.1-13.5,4.9-13.5,4.9l1.3,0.6
		c2.6-1.4,5.5-2.2,8.5-2.1c7.2,0,15.1,7.1,16.2,7.1S474,44.8,474.7,40.6z"/>
	<path class="st11" d="M433.3,60.6l-1.9,1c-0.7-1.3-1.3-2.7-1.7-4.1c-0.3-1.5,2.4-5.2,2.4-5.2L433.3,60.6z"/>
	<path class="st10" d="M440.4,39.1c0,0-4.9-4.6-7.6-5.1s-11.2,5.5-11.2,5.5c-0.3,1.5-0.4,2.8-0.1,3.1c0.7,0.6,7.4-5.4,11.8-4.6
		c2.1,0.3,4.2,1.1,5.9,2.4L440.4,39.1z"/>
	<path class="st5" d="M450.7,51.6c0,0,0.8-12.8-6.3-14.1s-12.9,14.6-13.5,17.1s1.5,8.8,7.6,9.3c3.8,0.3,7.6-1.3,9.9-4.4
		c0.3-0.7,0.5-1.4,0.6-2.1c0,0,4.6,1.7,5-1.7S450.7,51.6,450.7,51.6z"/>
	<path class="st7" d="M450.7,51.6c-1.4-0.4-2.8-0.6-4.2-0.5c-1.9,0.2,1.7-1.4,1.7-7.9c0-4-0.2-3.6-0.2-3.6c1.4,1.7,2.2,3.8,2.4,6
		C450.7,49.7,450.7,51.6,450.7,51.6z"/>
	
		<linearGradient id="SVGID_4_" gradientUnits="userSpaceOnUse" x1="447.4353" y1="544.2505" x2="445.2453" y2="534.2005" gradientTransform="matrix(1 0 0 -1 0 600)">
		<stop  offset="0" style="stop-color:#257B82"/>
		<stop  offset="1" style="stop-color:#339DA8"/>
	</linearGradient>
	<path class="st37" d="M448.9,57.5c0,0-3.2-1.2-3.9,0.2s-0.7,5.2-0.7,5.2c1.3-0.6,2.4-1.4,3.3-2.5C449.4,58.6,448.9,57.5,448.9,57.5
		z"/>
	<path class="st18" d="M437,44.1c0,0-5,7.7-4.6,12.2s5,6.6,5,6.6s-3.3-4.2-2.5-8.5S437,44.1,437,44.1z"/>
	<path class="st19" d="M418.7,67.3c0,0-4.4,6.5-3,9.3s18.7,23.3,18.7,23.3S419,79.8,418.3,76.4s6-10.3,6-10.3h-5.4L418.7,67.3z"/>
	<path class="st12" d="M456.6,13.2c-6.2-0.8-8,0.9-8.3,1.3l0.6,2.9c1.8-0.1,4.4-0.2,6.6-0.2c2.8,0.1,5.4,0.9,7.9,2.2l1.7-2.9
		C462.6,14.7,459.7,13.5,456.6,13.2z"/>
	<path class="st2" d="M494.1,73.1c0,0-3.4,9.1-4.6,13.4s-5.5,20.5-5.6,24.2s-1,5.9,0.6,5.8s6.8-26.5,7.5-28.9s3.2-8.7,3.2-8.7
		L494.1,73.1z"/>
	<path class="st5" d="M497.7,78c0,0-0.7,4.3-2.5,3.7s-2.9-0.4-3.2-2.1c-0.1-1.2,0.2-2.3,0.9-3.3L497.7,78z"/>
	<path class="st7" d="M498.1,76.7c0,0-0.7,4.3-2.5,3.7s-2.9-0.4-3.2-2.1c-0.1-1.2,0.2-2.3,0.9-3.3L498.1,76.7z"/>
	<path class="st20" d="M456.1,18.5c-1.8-0.2-7.1,0-7.1,0c-3.8,1.5-7.4,3.2-11,5.1c-6.5,3.4-7.1,3.8-7.1,3.8s14.1-6.8,19.2-7.5
		c3.7-0.4,7.3-0.6,11-0.5C461,19.4,457.4,18.6,456.1,18.5z"/>
	<path class="st5" d="M500.2,73.6l-1.4,4.3c0,0-2.5,2-3.6,1c-0.7-0.7-1.5-1.3-2.3-1.9l2.9-2.7L500.2,73.6z"/>
	<path class="st7" d="M500.2,72.4l-1.4,4.3c0,0-2.2,1.2-3.6,1c-0.8-0.2-1.6-0.4-2.3-0.8l2.9-3.7L500.2,72.4z"/>
	<path class="st20" d="M449,12.3l-1.1-5.4c2.9-0.8,5.9-1.1,8.9-0.9c4.9,0.4-4.1-0.3-6.1,2.2S449,12.3,449,12.3z"/>
	<circle class="st5" cx="494.1" cy="69.8" r="3.3"/>
	<g class="st21">
		<path class="st22" d="M495.8,66.9L495.8,66.9L495.8,66.9L495.8,66.9L495.8,66.9z"/>
		<path class="st22" d="M494.1,73.1c1.8,0,3.3-1.5,3.3-3.3c0-0.6-0.2-1.1-0.4-1.6l-1.1-1.1c0.3,0.4,0.4,1,0.2,1.5
			c-0.3,1.2-0.8,1.2-2,1.3c-0.8,0.1-1.6,1.6-2.1,2.5C492.6,72.8,493.3,73.1,494.1,73.1z"/>
	</g>
	<path class="st5" d="M496.3,67.3c0,0,6.8,3.4,5.4,5.2c-1.3,1.4-2.7,2.6-4.3,3.6c0,0-5.3,1.9-5.3,0s1.1-4.7,3.2-4.3
		S496.3,67.3,496.3,67.3z"/>
	<path class="st2" d="M496.7,70.6c0,0,2.1-8.7,3-10.6s1.2-7.2,2.3-9.5s3.4-10.2,4.4-13s2-5.5,2-5.5s1.5,1.1,2.3,0.5
		c0.8-0.6,5.9-5.4,6.9-18S513.1,0,511.1,0c-2.1,0-5.7,2.7-6.6,5.1s-3,22.3-3.3,25.5s-3.2,23.4-3.3,24.8c-0.4,3.3-1.1,6.5-2,9.7
		c-0.3,0.5-0.5,1-0.6,1.6c0.7,0.1,1.2,0.7,1.3,1.5C496.6,68.9,496.7,69.7,496.7,70.6z"/>
	<path class="st6" d="M508.2,32.1c-0.6-0.3-1.1-0.6-1.5-1c-0.5-0.5-1-1-1.3-1.6c-0.5-0.8-0.9-1.6-1.2-2.5c-0.3-1-0.6-2.1-0.7-3.2
		c-0.1-1.2-0.1-2.4-0.1-3.6c0.1-1.3,0.3-2.6,0.5-3.8c0.3-1.3,0.8-2.6,1.5-3.8c0.4-0.7,0.9-1.2,1.6-1.7c0.8-0.5,1.8-0.6,2.7-0.2
		c0.4,0.2,0.7,0.4,1,0.7l0.2,0.2c0,0,0.1,0.1,0.1,0.1l0,0l0.1,0.1l0.3,0.4c1.2,1.7,1.7,3.8,1.4,5.8c-0.1,0.6-0.3,1.3-0.5,1.8
		c-0.2,0.4-0.4,0.7-0.8,0.9c-0.3,0.2-0.4,0.2-0.6,0.4c-0.4,0.3-0.8,0.6-1.2,0.8c-0.5,0.3-1.1,0.4-1.7,0.3c-0.2,0-0.3-0.1-0.4-0.2
		c-0.1-0.1-0.2-0.1-0.3-0.2c-0.1-0.1-0.2-0.2-0.2-0.3c-0.1-0.1-0.1-0.2-0.1-0.3c-0.1-0.3-0.2-0.7-0.2-1c0-0.5,0-0.9,0-1.4l0.1-0.5
		h0.2l0.1,0.4c0.1,0.4,0.2,0.8,0.4,1.2c0.1,0.3,0.2,0.5,0.4,0.7c0.1,0.1,0.1,0.2,0.2,0.2c0.1,0,0.1,0.1,0.2,0.1c0,0,0.1,0,0.1,0
		c0.7-0.2,1.2-0.7,1.6-1.2c0.2-0.2,0.5-0.4,0.6-0.5c0-0.1,0.1-0.2,0.1-0.3c0.1-0.4,0.2-0.9,0.2-1.3c0.1-1-0.1-2-0.4-3
		c-0.2-0.5-0.4-1-0.6-1.4l-0.3-0.4l-0.1-0.1l0,0c0,0.1,0,0,0,0l-0.1-0.1c-0.1-0.2-0.3-0.3-0.5-0.4c-0.3-0.2-0.7-0.2-1,0
		c-0.2,0.1-0.4,0.3-0.6,0.4c-0.2,0.2-0.4,0.4-0.5,0.6c-0.7,1-1.2,2.1-1.5,3.3c-0.3,1.2-0.6,2.3-0.7,3.5c-0.1,1.1-0.2,2.3-0.1,3.4
		c0,1,0.2,2,0.4,3c0.2,0.8,0.5,1.6,0.9,2.4c0.3,0.6,0.7,1.1,1.1,1.6c0.4,0.4,0.8,0.8,1.3,1.1L508.2,32.1z"/>
	<path class="st23" d="M515.9,10.6c0,0,1-8.5-4.4-8.9c-3.9-0.3-5.9,3.5-5.9,3.5l-1.6,7.4c0,0,2.5-8.6,6.4-8.3
		C514.3,4.7,515.9,10.6,515.9,10.6z"/>
	<path class="st18" d="M493.6,76.3c0,0,6.5-3.2,6.2-5.1s-1.2-1.4-1.2-1.4c0.9,0.5,1.8,1.1,2.5,1.8c0.7,0.9-3.1,3.7-4,3.9
		S493.6,76.3,493.6,76.3z"/>
	<path class="st7" d="M397,50.8l0.5,0.8l-4.3-0.8l-1.5-1.9c0,0,0-0.6,2.1,0.2C395,49.5,396,50.1,397,50.8z"/>
	<path class="st7" d="M401.3,48.9l-0.3,1.2c0,0-4.6-3.6-5-4c-0.8-0.7-0.8-2.9-0.8-2.9L401.3,48.9z"/>
	<path class="st7" d="M405.1,49.9l-0.9,1.6c0,0-1.2-5.6-1.6-6.8s-1.1-2.2-1.4-2.1l-0.3,0.1c0,0,0.3-0.9,0.9-0.5s1.4,0.9,2,3
		S405.1,49.9,405.1,49.9z"/>
	<path class="st7" d="M403,56.3c0,0-2.4,0.6-2.9-1.1c-0.3-1-0.3-2,0-2.9c0,0-0.1,2.8,1.3,3c1.3,0,2.7-0.2,3.9-0.6L403,56.3z"/>
	<path class="st7" d="M402.1,49.2c0,0-2.8,2-3.7,2.8s-2.1,2-2.1,2s4-3.3,5.2-3.4L402.1,49.2z"/>
	<path class="st19" d="M450.9,45.4c3.3-1.1,6.8-1.2,10.1-0.4c5.4,1.4,7,3.8,7,3.8c-3.2-2.2-7-3.3-10.9-3.2c-6.8,0.1-5.7,1.8-5.7,1.8
		L450.9,45.4z"/>
	<path class="st19" d="M434,45.1c-1.7-0.8-3.6-1-5.4-0.5c-2,0.7-3.7,2-5,3.7c0,0,3.5-3.1,6-2.9s3.3,1.3,3.3,1.3L434,45.1z"/>
</g>
<g>
	<path class="st2" d="M416.6,564.9c0,0-3.8,15-2.5,17.4c1.4,2.4,9.5,6.7,9.5,6.7s-6.3,0.8-6.3,4.8c0,4,11.5-3.4,11.5-3.4l-1.1-4.6
		l14-5.1c0,0,15.6,0.3,22.5,5.1s6.1,4.6,6.1,4.6s0.9,6.4,5.1,6.4s-4.1-7.7-4.1-7.7c-0.3-4.9-0.1-9.8,0.8-14.7
		c1.5-7.3,1.7-8.4,1.7-8.4L416.6,564.9z"/>
	<path class="st3" d="M475.3,557.9l-2.2,11.3c0,0-0.2,3.7-13.2,5.1c-13,1.3-33.5-2.1-33.5-2.1s-6.3-3.2-7.9-4.8
		c-0.8-0.7-1.5-1.5-2-2.4l2-7.9l51.7-5.6c0,0,1.8,4.2,2.9,5C473.8,557,474.6,557.4,475.3,557.9z"/>
	<path class="st4" d="M474.8,560.4l-0.5,3.2l-2.4-1c0,0-0.7,6.2-2.4,7.2c-1.5,1-2.9,2.3-4,3.7l4-19.7l3.4-0.8L474.8,560.4z"/>
	<path class="st5" d="M473.9,535.5c0,0,11.6,3.7,16.9,7l5.3,3.4l-5.3,4.6c0,0-5.5-1.8-10.7,0s-3.4,1-3.4,1l-2,8.9
		c0,0-5.4-8.5-5.3-12.4c0.1-3.9,0-7.6,0-7.6L473.9,535.5z"/>
	<path class="st5" d="M413.8,531.3c0,0-4.1,2.5-5.9,1.4l-1.9-1.1c0,0,2.7-4.1,2.7-6.6s-1.9,0.2-2.7,1.2l-0.9,1c0,0-1.2-5.8-2.7-7.3
		s-2.2,1.7-2.2,3.2c0.1,1.1,0.4,2.2,1,3.2l-6.1-5.6c-1,0.9-1.3,2.2-1,3.4c0.5,1.6,1.5,3,2.9,4c0,0-4.2-2.8-5.2-1.9c-1,1,2,5.1,2,5.1
		h2.5c0,0-0.3,2.9,0.7,4.2s4.2,0,4.2,0s11.2,10.4,14.6,12.4l3.4,2v-13.8L413.8,531.3z"/>
	<path class="st6" d="M473.2,569.2l-1.2,6.1c0,0-5.1,1.8-6.4,2c-1.3,0.2-2.7,3.1-4.7,4.1s-3.2,1.7-3.2,1.7l-5.2-1.4l-16.9,1.4
		l-3.3,1.2l-6.7,2.3c0,0,4.7-3.1,4.7-4.9s-4.7-10-4.7-10l15.5,2.9L473.2,569.2z"/>
	<path class="st7" d="M419.3,536.2l-5.5-4.9c-1.3,0.8-2.6,1.3-4.1,1.7c-0.5,1.6-1.2,4.8,0.3,6.9c2.1,2.9,1.6,4.8,1.6,4.8
		c1.3,1.2,2.8,2.2,4.2,3.2l0.5,0.3l2.9-1.3L419.3,536.2L419.3,536.2z"/>
	<path class="st7" d="M482.4,545.7c-5.3,0.4-8.3-0.1-8.3-1.7s2.2-1.5,2.7-2.5c0.5-1.5,1-3,1.3-4.5c-2.4-0.9-4.1-1.4-4.1-1.4
		l-4.5,4.8c0,0,0.1,3.7,0,7.6s5.3,12.4,5.3,12.4l2-8.8c0.4-0.1,1.3-0.4,3.4-1.1c5.1-1.8,10.7,0,10.7,0l1.8-1.6l0,0
		c0,0,3.1-4.3,1.5-5c-0.6-0.3-5.5,2.9-6.2,2.7C486.2,545.9,484.3,545.6,482.4,545.7z"/>
	
		<linearGradient id="SVGID_5_" gradientUnits="userSpaceOnUse" x1="470.1577" y1="45.075" x2="476.7477" y2="45.075" gradientTransform="matrix(1 0 0 -1 0 600)">
		<stop  offset="0" style="stop-color:#257B82"/>
		<stop  offset="1" style="stop-color:#339DA8"/>
	</linearGradient>
	<path class="st38" d="M476.7,551.6c0,0-2.6,0.1-3.9,1.3s-2.7-3.3-2.7-3.3l0.9,4l3.8,6.8L476.7,551.6z"/>
	<path class="st9" d="M447.9,523.5l22.5,18.3c0,0,3.1,20.9-2.6,28.9c-5.7,7.9-17.9,15.6-22.2,17.2c-4.4,1.5-9,2.6-9,2.6
		s2.9-1.1,2.2-3.5s-25.6-28.6-25.8-33.5s4.4-11.7,4.4-11.7l24.8-16.3L447.9,523.5z"/>
	<path class="st10" d="M467.8,570.7c5.7-7.9,2.6-28.9,2.6-28.9l-3-2.4l-13.5,1.3c0,0,8.1,16.7,4.8,30.7c-3.3,14-22.2,19.2-22.2,19.2
		s4.6-1.1,9-2.6C449.8,586.3,462,578.6,467.8,570.7z"/>
	<path class="st3" d="M424.3,524.7c0,0-7.9-5.1-8.4-9.1s23.3-18,28.5-19.4s4.6-1.2,4.6-1.2l-2.3-11.1c0,0,3.3-1.8,12.1-1.2
		s10.3,4.3,10.3,4.3l-5.7,9.8c0,0,12.7,7.9,17.3,14.5c4.5,6.5,6.7,11.6,5.9,12.9s-9.1,3.2-13.8,4c-2.6,0.5-5.2,0.8-7.8,0.8
		L424.3,524.7z"/>
	<path class="st11" d="M470.4,541.8l0.3,2.9c-2.1,0.7-4.4,1.1-6.6,1c-2.9,0-5.7-0.4-8.5-1l-1-3.6L470.4,541.8z"/>
	<path class="st4" d="M465.1,529h0.9c2.3-0.1,4.6-0.4,6.8-0.8c4.6-0.8,12.9-2.7,13.8-4c0.8-1.3-1.3-6.4-5.9-12.9
		c-4.6-6.5-17.3-14.5-17.3-14.5l5.7-9.8c0,0-0.8-2-4.6-3.3l-3.3,12.1c0,0,8.6,6.5,12,12.2c3.4,5.7-2,11.9-2,11.9L465.1,529z"/>
	<path class="st12" d="M424.9,523c0,0-8.5-4.6-5.8-6c2.7-1.4,7.2-5.6,30.7-4.9c23.5,0.7,32.6,9.6,32.6,10.8s-14.4,3.2-14.4,3.2
		l-36.5-2.1L424.9,523z"/>
	<path class="st6" d="M482.4,523c0-1.2-9-10.1-32.6-10.9c-23.6-0.7-28,3.5-30.7,4.9c-1.5,0.8,0.4,2.4,2.4,3.8
		c4.9-1,15.9-3.2,20.9-3.1c6.5,0.1,22,1.9,28.9,5.2c1.7,0.8,3.1,1.5,4.2,2C479,524.4,482.4,523.6,482.4,523z"/>
	<path class="st9" d="M446.1,524.2c5-3.8,11.6-4.5,17.3-1.9c9.9,4.4,4.6,6.7,9.7,7.6s3-4.6,3-4.6s6.7,10.9-1.9,15s-8.2,4.8-11.9,4
		s-9.8-1.9-13.2-5.1c-2.1-1.9-3.8-4.1-5.3-6.5L446.1,524.2z"/>
	<path class="st13" d="M434.4,545.7c0,0,0.8,5.5,2.9,5.7s7.9-2.7,8.9-5.1c1-2.4,2-5.2,2-5.2l7.3,3.6l-0.9-2.2c0,0-3.7-1.3-5.6-3.2
		c-1.2-1.3-2.3-2.7-3.2-4.2L434.4,545.7z"/>
	<path class="st9" d="M437,522.9c0,0-2.1-2.9-8-2.1c-5.9,0.8-6.5,7.8-11.4,8.2s-4.2-1-4.2-2.5c0-1.5-3.9,13.3,0,14.3s7.5,2.1,13.4,0
		c3.2-1.1,6.3-2.5,9.1-4.4L437,522.9z"/>
	<path class="st5" d="M437,538.5c0,0-6.7,5.3-2.1,10.1c4.6,4.8,11.8-4.8,11.6-7.2s-0.6-6.3-0.6-6.3L437,538.5z"/>
	<polygon class="st7" points="446.2,538.8 446.5,540.6 443,542.5 436.8,542.5 434.4,541.4 435.5,539.8 	"/>
	<path class="st14" d="M438.4,540.4c0,0-3.4,2.7-1.1,5.2s5.6-2.5,6-3.7c0.4-1.4,0.9-2.7,1.5-4L438.4,540.4z"/>
	<path class="st10" d="M449.1,539.3c3.4,3.2,9.5,4.4,13.2,5.1s3.3,0.2,11.9-4c2.9-1.2,4.6-4.2,4.4-7.3c0,0.7-0.4,2.4-3,4.3
		c-3.5,2.5-8.9-1.7-14.4-4.6c-3.4-1.7-7.3-2.2-11.1-1.4l-3.9,4.8C447.2,537.3,448.1,538.3,449.1,539.3z"/>
	<path class="st11" d="M452.9,530.9c0.8,0.3,1.4,1,1.7,1.9c0.2,1.3,0.2,3.3-1.4,3.4c-0.9,0.1-1.8,0.1-2.8,0
		c-0.2,0.6-0.5,1.2-0.9,1.8c-0.6,0.6-0.9,0.8-0.9,0.8l-1.3-1.4l1-4.1L452.9,530.9z"/>
	<path class="st15" d="M431.8,530.9c-0.9-1.3-2.4-2-3.9-1.9c-2.5,0.3-3.7,3.7-7,4.4c-3.3,0.7-7.7,0.5-8.2-0.6
		c-0.3-0.5-0.4-1.2-0.4-1.8c-0.7,4-1.1,9.3,1.1,9.8c3.9,1,7.5,2.1,13.4,0c3.1-1.1,6.1-2.5,8.9-4.2L431.8,530.9z"/>
	<ellipse class="st16" cx="435.7" cy="516.4" rx="4.2" ry="3.5"/>
	<path class="st9" d="M441.7,516.1c0,0-1.4-10.1-8.4-10.2s-10.2,3.4-10.5,5.1c-0.3,1.7-2,8.2-1.3,8.8s7.4-5.4,11.8-4.6
		s6.2,2.7,6.2,2.7L441.7,516.1z"/>
	<path class="st9" d="M447.3,517.3c0,0,10.2-7.3,13.9-7.8s8.6-0.7,8.6-0.7s5.7,5,4.9,9.2s-0.3,6.1-1.4,6.1s-9-7.1-16.2-7.1
		s-10.8,3.8-10.8,3.8L447.3,517.3z"/>
	<ellipse class="st16" cx="458.2" cy="517.8" rx="6" ry="3"/>
	<path class="st9" d="M447.3,517.3c0,0,10.2-7.3,13.9-7.8s8.6-0.7,8.6-0.7s5.7,5,4.9,9.2s-0.3,6.1-1.4,6.1s-9-7.1-16.2-7.1
		s-10.8,3.8-10.8,3.8L447.3,517.3z"/>
	<path class="st10" d="M474.7,518c0.1-0.4,0.1-0.8,0-1.2c-2.8-1-9.5-3.2-14-3.2c-5.7,0.1-13.5,4.9-13.5,4.9l1.3,0.6
		c2.6-1.4,5.5-2.2,8.5-2.1c7.2,0,15.1,7.1,16.2,7.1S474,522.2,474.7,518z"/>
	<path class="st11" d="M433.3,537.9l-1.9,1c-0.7-1.3-1.3-2.7-1.7-4.1c-0.3-1.5,2.4-5.2,2.4-5.2L433.3,537.9z"/>
	<path class="st10" d="M440.4,516.4c0,0-4.9-4.6-7.6-5.2s-11.2,5.5-11.2,5.5c-0.3,1.5-0.4,2.8-0.1,3.1c0.7,0.6,7.4-5.4,11.8-4.6
		c2.1,0.3,4.2,1.1,5.9,2.4L440.4,516.4z"/>
	<path class="st5" d="M450.7,529c0,0,0.8-12.8-6.3-14.1c-7-1.3-12.9,14.6-13.5,17.1c-0.6,2.5,1.5,8.8,7.6,9.3
		c3.8,0.3,7.6-1.3,9.9-4.4c0.3-0.7,0.5-1.4,0.6-2.1c0,0,4.6,1.7,5-1.7C454.3,529.8,450.7,529,450.7,529z"/>
	<path class="st7" d="M450.7,529c-1.4-0.4-2.8-0.6-4.2-0.5c-1.9,0.2,1.7-1.4,1.7-7.9c0-4-0.2-3.6-0.2-3.6c1.4,1.7,2.2,3.8,2.4,6
		C450.7,527,450.7,529,450.7,529z"/>
	
		<linearGradient id="SVGID_6_" gradientUnits="userSpaceOnUse" x1="447.4353" y1="66.8905" x2="445.2453" y2="56.8405" gradientTransform="matrix(1 0 0 -1 0 600)">
		<stop  offset="0" style="stop-color:#257B82"/>
		<stop  offset="1" style="stop-color:#339DA8"/>
	</linearGradient>
	<path class="st39" d="M448.9,534.9c0,0-3.2-1.2-3.9,0.2s-0.7,5.2-0.7,5.2c1.3-0.6,2.4-1.4,3.3-2.5
		C449.4,536,448.9,534.9,448.9,534.9z"/>
	<path class="st18" d="M437,521.4c0,0-5,7.7-4.6,12.2s5,6.7,5,6.7s-3.3-4.2-2.5-8.5C435.6,527.5,437,521.4,437,521.4z"/>
	<path class="st19" d="M418.7,544.7c0,0-4.4,6.5-3,9.3s18.7,23.3,18.7,23.3s-15.4-20.1-16.1-23.6c-0.7-3.4,6-10.3,6-10.3h-5.4
		L418.7,544.7z"/>
	<path class="st12" d="M456.6,490.5c-6.2-0.8-8,0.9-8.3,1.3l0.6,2.9c1.8-0.1,4.4-0.2,6.6-0.2c2.8,0.1,5.4,0.9,7.9,2.2l1.7-2.9
		C462.6,492,459.7,490.9,456.6,490.5z"/>
	<path class="st2" d="M494.1,550.5c0,0-3.4,9.1-4.6,13.4c-1.2,4.3-5.5,20.5-5.6,24.2c-0.1,3.7-1,5.9,0.6,5.8s6.8-26.5,7.5-28.9
		c0.7-2.4,3.2-8.7,3.2-8.7L494.1,550.5z"/>
	<path class="st5" d="M497.7,555.4c0,0-0.7,4.3-2.5,3.7c-1.8-0.6-2.9-0.4-3.2-2.1c-0.1-1.2,0.2-2.3,0.9-3.3L497.7,555.4z"/>
	<path class="st7" d="M498.1,554.1c0,0-0.7,4.3-2.5,3.7s-2.9-0.4-3.2-2.1c-0.1-1.2,0.2-2.3,0.9-3.3L498.1,554.1z"/>
	<path class="st20" d="M456.1,495.9c-1.8-0.2-7.1,0-7.1,0c-3.8,1.5-7.4,3.2-11,5.1c-6.5,3.4-7.1,3.8-7.1,3.8s14.1-6.8,19.2-7.5
		c3.7-0.4,7.3-0.6,11-0.5C461,496.8,457.4,496,456.1,495.9z"/>
	<path class="st5" d="M500.2,550.9l-1.4,4.3c0,0-2.5,2-3.6,1c-0.7-0.7-1.5-1.3-2.3-1.9l2.9-2.7L500.2,550.9z"/>
	<path class="st7" d="M500.2,549.8l-1.4,4.3c0,0-2.2,1.2-3.6,1c-0.8-0.2-1.6-0.4-2.3-0.8l2.9-3.7L500.2,549.8z"/>
	<path class="st20" d="M449,489.7l-1.1-5.4c2.9-0.8,5.9-1.1,8.9-0.9c4.9,0.4-4.1-0.3-6.1,2.2S449,489.7,449,489.7z"/>
	<circle class="st5" cx="494.1" cy="547.1" r="3.3"/>
	<g class="st21">
		<path class="st22" d="M495.8,544.3L495.8,544.3L495.8,544.3L495.8,544.3L495.8,544.3z"/>
		<path class="st22" d="M494.1,550.5c1.8,0,3.3-1.5,3.3-3.3c0-0.6-0.2-1.1-0.4-1.6l-1.1-1.2c0.3,0.4,0.4,1,0.2,1.5
			c-0.3,1.2-0.8,1.2-2,1.3c-0.8,0.1-1.6,1.6-2.1,2.5C492.6,550.2,493.3,550.5,494.1,550.5z"/>
	</g>
	<path class="st5" d="M496.3,544.7c0,0,6.8,3.4,5.4,5.2c-1.3,1.4-2.7,2.6-4.3,3.6c0,0-5.3,1.9-5.3,0s1.1-4.7,3.2-4.3
		S496.3,544.7,496.3,544.7z"/>
	<path class="st2" d="M496.7,547.9c0,0,2.1-8.7,3-10.6c0.9-1.8,1.2-7.2,2.3-9.5s3.4-10.2,4.4-13s2-5.5,2-5.5s1.5,1.1,2.3,0.5
		c0.8-0.6,5.9-5.4,6.9-18s-4.3-14.5-6.4-14.5c-2.1,0-5.7,2.7-6.6,5.1s-3,22.3-3.3,25.5s-3.2,23.4-3.3,24.8c-0.4,3.3-1.1,6.5-2,9.7
		c-0.3,0.5-0.5,1-0.6,1.6c0.7,0.1,1.2,0.7,1.3,1.4C496.6,546.3,496.7,547.1,496.7,547.9z"/>
	<path class="st6" d="M508.2,509.5c-0.6-0.3-1.1-0.6-1.5-1c-0.5-0.5-1-1-1.3-1.6c-0.5-0.8-0.9-1.6-1.2-2.5c-0.3-1-0.6-2.1-0.7-3.2
		c-0.1-1.2-0.1-2.4-0.1-3.6c0.1-1.3,0.3-2.6,0.5-3.8c0.3-1.3,0.8-2.6,1.5-3.8c0.4-0.7,0.9-1.2,1.6-1.7c0.8-0.5,1.8-0.6,2.7-0.2
		c0.4,0.2,0.7,0.4,1,0.7l0.2,0.2c0,0,0.1,0.1,0.1,0.1l0,0l0.1,0.1l0.3,0.4c1.2,1.7,1.7,3.8,1.4,5.8c-0.1,0.6-0.3,1.3-0.5,1.8
		c-0.2,0.4-0.4,0.7-0.8,0.9c-0.3,0.2-0.4,0.2-0.6,0.4c-0.4,0.3-0.8,0.6-1.2,0.8c-0.5,0.3-1.1,0.4-1.7,0.3c-0.2,0-0.3-0.1-0.4-0.2
		c-0.1-0.1-0.2-0.1-0.3-0.2c-0.1-0.1-0.2-0.2-0.2-0.3c-0.1-0.1-0.1-0.2-0.1-0.3c-0.1-0.3-0.2-0.7-0.2-1c0-0.5,0-0.9,0-1.4l0.1-0.5
		h0.2l0.1,0.5c0.1,0.4,0.2,0.8,0.4,1.2c0.1,0.3,0.2,0.5,0.4,0.7c0.1,0.1,0.1,0.2,0.2,0.2c0.1,0,0.1,0.1,0.2,0.1c0,0,0.1,0,0.1,0
		c0.7-0.2,1.2-0.7,1.6-1.2c0.2-0.2,0.5-0.4,0.6-0.5c0-0.1,0.1-0.2,0.1-0.3c0.1-0.4,0.2-0.9,0.2-1.3c0.1-1-0.1-2-0.4-3
		c-0.2-0.5-0.4-1-0.6-1.4l-0.3-0.4l-0.1-0.1l0,0c0,0.1,0,0,0,0l-0.1-0.1c-0.1-0.2-0.3-0.3-0.5-0.4c-0.3-0.2-0.7-0.2-1,0
		c-0.2,0.1-0.4,0.3-0.6,0.4c-0.2,0.2-0.4,0.4-0.5,0.6c-0.7,1-1.2,2.1-1.5,3.3c-0.3,1.2-0.6,2.3-0.7,3.5c-0.1,1.1-0.2,2.3-0.1,3.4
		c0,1,0.2,2,0.4,3c0.2,0.8,0.5,1.6,0.9,2.4c0.3,0.6,0.7,1.1,1.1,1.6c0.4,0.4,0.8,0.8,1.3,1.1L508.2,509.5z"/>
	<path class="st23" d="M515.9,487.9c0,0,1-8.5-4.4-8.9c-3.9-0.3-5.9,3.5-5.9,3.5l-1.6,7.4c0,0,2.5-8.6,6.4-8.3
		C514.3,482,515.9,487.9,515.9,487.9z"/>
	<path class="st18" d="M493.6,553.7c0,0,6.5-3.2,6.2-5.1s-1.2-1.4-1.2-1.4c0.9,0.5,1.8,1.1,2.5,1.8c0.7,0.9-3.1,3.7-4,3.9
		C496.1,553,493.6,553.7,493.6,553.7z"/>
	<path class="st7" d="M397,528.1l0.5,0.8l-4.3-0.8l-1.5-1.9c0,0,0-0.6,2.1,0.2C395,526.9,396,527.4,397,528.1z"/>
	<path class="st7" d="M401.3,526.3l-0.3,1.2c0,0-4.6-3.6-5-4c-0.8-0.7-0.8-2.9-0.8-2.9L401.3,526.3z"/>
	<path class="st7" d="M405.1,527.2l-0.9,1.6c0,0-1.2-5.6-1.6-6.8c-0.4-1.2-1.1-2.2-1.4-2.1L401,520c0,0,0.3-0.9,0.9-0.5s1.4,0.9,2,3
		S405.1,527.2,405.1,527.2z"/>
	<path class="st7" d="M403,533.7c0,0-2.4,0.6-2.9-1.1c-0.3-1-0.3-2,0-2.9c0,0-0.1,2.8,1.3,3c1.3,0,2.7-0.2,3.9-0.6L403,533.7z"/>
	<path class="st7" d="M402.1,526.6c0,0-2.8,2-3.7,2.8c-0.8,0.8-2.1,2-2.1,2s4-3.3,5.2-3.4L402.1,526.6z"/>
	<path class="st19" d="M450.9,522.8c3.3-1.1,6.8-1.2,10.1-0.4c5.4,1.4,7,3.8,7,3.8c-3.2-2.2-7-3.3-10.9-3.2
		c-6.8,0.1-5.7,1.8-5.7,1.8L450.9,522.8z"/>
	<path class="st19" d="M434,522.5c-1.7-0.8-3.6-1-5.4-0.5c-2,0.7-3.7,2-5,3.7c0,0,3.5-3.1,6-2.9s3.3,1.3,3.3,1.3L434,522.5z"/>
</g>
<g>
	<path class="st30" d="M160.9,372.8c0.4-0.4,0.8-0.8,1.2-1.1c0.2,0,0.4-0.1,0.6-0.2l1.7-2.5c0.5-0.8,1.2-1.5,2-1.9
		c1.1-0.4,1.3-1.5,3.3-1.1c1,0.1,1.9,0.5,2.7,1.1c1.5-0.2,3,0.1,4.3,0.7c2,1.1,3.4,3.6,4.7,3.9s3.1-0.5,4.8-1.1
		c1.7-0.6,11,3.5,12.7,4.3s10.3,2.4,12.3,10.9c2,8.5-0.2,14.8-1.1,16.5s-4,6.8-4.3,7.9c-0.2,1.1-1.2,6.1-1.3,6.8
		c-0.1,1.5-0.1,3,0,4.5c0.1,0.3,0.7,0.8,0.3,1.2c-0.4,0.4-3.4,2-6,0.2c0,0-1.4-0.8-1.3-1.8c0-1,0.7-5,0.9-6c0.3-1.6,0.6-3.3,0.7-5
		c0-0.4-0.1-0.8-0.4-1.1c0,0-4.2,1.6-5,1.8c-0.5,0.1-1,0.3-1.3,0.6c0.4,1.4,0.7,2.8,0.8,4.2c0.1,1.3,0.5,3.4,0.1,4.3
		c-0.4,0.9-2.9,1.1-3.3,1.1c-0.6-0.1-1.2-0.3-1.8-0.5c0,0,0.3-4.2,0-5.5c-0.2-0.7-0.3-1.4-0.6-2c0,0-0.8,4.5-0.7,6.1
		c0.1,1.6,1,5.4,1.3,5.7c0.4,0.3,1.1,2.9-1.4,3.7c-2.5,0.7-4.9,0.7-5.8-0.5c-0.6-0.8-1.2-1.6-1.6-2.5c0.7-2,1.1-4.1,1-6.2
		c-0.1-3.4-0.8-6.5-0.6-8.3c0.2-1.8-1.4,0.8-4.3-0.8c-2.9-1.6-1.2-0.7-1.2-0.7l-0.9,0.7c0,0,3.8,7.8,4.4,10c0.3,1.3,0.6,2.5,0.7,3.8
		c0,0-1.4,2.8-4.1,3.4c-1.6,0.4-3.2,0.2-4.7-0.6c0.5-2.2,0.5-4.6,0-6.8c-0.8-3-5.2-9.9-5.2-9.9l-4.1-6.1l-1.4-16.6L160.9,372.8z"/>
	<path class="st31" d="M164,409.4c3.2-1.8,5.5-4.8,6.5-8.3c1.7-6,2.1-7,2.1-10.2s-1.3-18.9-1.3-18.9l-8.6-0.6l-1.8,1.3l0.7,33.1
		L164,409.4z"/>
	<path class="st30" d="M165.6,372.9c0.8-0.5,1.4-1.3,1.6-2.3c0.1-0.7,0.7-1.1,1.4-1.1c0,0,0,0,0,0c0.1,0,0.2,0,0.2,0.1l1.1,4.8
		c0,0-1.1,0.4-0.8,1.2c0.2,0.8,2.2,12.2,2.2,15.5s-1.5,9.3-4.3,11.2s-5.8,3.4-6.6,4.6s-1.7,2-2.9,2s-4.6-0.4-5.9-0.2
		c-1.3,0.2-3.5,0.2-3.5-0.5c-0.2-1-0.4-2-0.7-3c-0.2-1.1,0.7-2.1,1-3c0.2-0.6,0.2-1.2,0.2-1.9c-0.9-0.5-1.7-1.2-2.4-2
		c-0.3-1-0.8-2-1.4-2.9c-1-1.3-3.4-4.1-3.8-5.7c-0.9-2.6-1.5-5.2-1.7-7.9c-0.2-3.2,0.2-6.8,0.6-6.9c0.4-0.1-0.6,5.7,3.1,11.4
		c3.7,5.7,7.8,5.2,7.8,5.2c0.1-1.4,0.1-2.8,0.1-4.2c-0.1-1.7-0.4-3.8,0-4.3c0.4-0.4,1.2,2,2.7,2.9c1.5,0.8,1.1,0.7,1.1,0.7
		s0.7-1.4,0.7-4.6c-0.1-1.6,0.1-3.2,0.5-4.7c0,0-1.4-2.9-2-4.3c-0.4-0.9-0.9-1.8-1.4-2.7c1.3,0.8,2.7,1.6,4.2,2.2
		c0.7,0.2,1.3,0.5,2,0.8c1-0.4,2.1-0.6,3.2-0.6L165.6,372.9z"/>
	<path class="st32" d="M168.8,375.1c0,0-0.7-2.5-1.2-4c-0.6-1.5,0.5-4.4,2.4-4.4s-0.2,1.2,0.7,1.2s0.9-1.9,1.9-1.6s-0.2,1.5,0.5,3.1
		c0.7,1.3,0.5,2.9-0.6,4c-0.8,0.6-1.6,1-2.5,1.2L168.8,375.1z"/>
	<path class="st32" d="M155.3,376.2c-0.2-1.1-0.5-2.1-0.8-3.1c-0.7-1-1.3-2-2-2.9c0,0-0.5-1.5-3.1-1.3c-2.6,0.1-1.2,1.4-1.2,1.4
		l0.4,1c0.4,1.3,1,2.5,1.9,3.6c0.9,0.9,2.1,1.4,3.4,1.4L155.3,376.2L155.3,376.2z"/>
	<path d="M161.4,392.4c0,0,0.2-0.5,1.6-0.5c1.4,0,0.9,0.2,0.9,0.2s0.2,1.1-1.2,1C161.2,393,161.4,392.4,161.4,392.4z"/>
	<path class="st32" d="M155.3,405.7c0,0,0.5-1.4,1.2-1.4s2,0.5,1.5,1C157.4,405.8,155.3,405.7,155.3,405.7z"/>
	<path class="st32" d="M149.1,406.2c0,0-0.7-2.3-1-1.8c-0.2,0.5-1,1,0,1.4L149.1,406.2z"/>
	<ellipse class="st25" cx="191.8" cy="392.1" rx="16.7" ry="14.2"/>
	<path class="st31" d="M148.7,400.4c0.9,0.5,1.9,0.7,2.9,0.5c1.8-0.2-2.4,1.1-3.2,2.1l-0.7,0.7c0.4-0.6,0.6-1.3,0.8-2
		C148.6,401.2,148.7,400.4,148.7,400.4z"/>
	<path class="st31" d="M150.8,391.5c0.9,0.1,1.7,0.4,2.4,1.1c0.2,0.2-1.3-2.1-1.6-3.2c-0.2-0.6-0.4-1.2-0.7-1.7v2.3
		C150.9,390.5,150.8,391.5,150.8,391.5z"/>
	<path class="st31" d="M187.5,413.2c0,0,0-1.5,1.1-2c2.3-0.8,4.7-1.4,7.1-1.8c1-0.1,2-0.2,2.9-0.3c0,0-5.6,1.9-6.3,2.4
		c-0.7,0.5-3.4,2.2-3.6,2.8c-0.1,0.4-0.4,0.7-0.7,1L187.5,413.2z"/>
	<path d="M196.2,393.7v1c0,0.1,0,0.2-0.1,0.2c-0.1,0.1-0.2,0.1-0.3,0.1h-1v2.5h-1.5v-2.5h-4.4c-0.1,0-0.2,0-0.3-0.1
		c-0.1-0.1-0.2-0.2-0.2-0.3l-0.2-0.9l4.9-6.6h1.7v6.5L196.2,393.7L196.2,393.7z M193.3,393.7v-3.4c0-0.4,0-0.7,0.1-1.1l-3.2,4.5
		H193.3L193.3,393.7z"/>
</g>
<g>
	<path class="st30" d="M176.2,453.9c0.4-0.4,0.8-0.8,1.2-1.2c0.2,0,0.4-0.1,0.6-0.2l1.8-2.5c0.5-0.8,1.2-1.5,2.1-1.9
		c1.2-0.4,1.4-1.5,3.3-1.2c1,0.1,2,0.5,2.7,1.2c1.5-0.2,3,0.1,4.4,0.7c2.1,1.1,3.4,3.6,4.8,4c1.4,0.3,3.1-0.5,4.9-1.1
		c1.7-0.6,11.2,3.6,12.8,4.3s10.4,2.4,12.4,11c2,8.6-0.2,14.9-1.2,16.7c-1,1.8-4.1,6.9-4.3,8c-0.2,1.2-1.2,6.2-1.4,6.9
		c-0.1,1.5-0.1,3,0,4.6c0.1,0.3,0.7,0.8,0.3,1.2c-0.4,0.4-3.5,2.1-6,0.3c0,0-1.4-0.8-1.4-1.8s0.7-5,0.9-6.1c0.4-1.7,0.6-3.4,0.7-5
		c0-0.4-0.1-0.8-0.4-1.2c0,0-4.2,1.7-5,1.8c-0.5,0.1-1,0.3-1.4,0.6c0.4,1.4,0.6,2.8,0.7,4.3c0.1,1.4,0.5,3.5,0.1,4.4
		c-0.4,0.9-2.9,1.2-3.3,1.2c-0.6-0.1-1.2-0.3-1.8-0.5c0,0,0.3-4.2,0-5.5c-0.2-0.7-0.3-1.4-0.6-2.1c0,0-0.8,4.6-0.7,6.2
		c0.1,1.7,1,5.5,1.4,5.8c0.4,0.3,1.1,3-1.4,3.7c-2.5,0.7-5,0.7-5.9-0.5c-0.6-0.8-1.2-1.6-1.7-2.5c0.7-2,1.1-4.1,1-6.3
		c-0.1-3.5-0.8-6.5-0.6-8.4c0.3-1.8-1.4,0.8-4.3-0.8c-2.9-1.7-1.2-0.7-1.2-0.7l-0.9,0.7c0,0,3.9,7.9,4.5,10.1
		c0.3,1.3,0.6,2.6,0.7,3.9c0,0-1.4,2.8-4.1,3.4c-1.6,0.4-3.3,0.2-4.8-0.6c0.5-2.3,0.5-4.6,0-6.9c-0.8-3.1-5.3-10-5.3-10l-4.1-6.2
		l-1.4-16.8L176.2,453.9z"/>
	<path class="st31" d="M179.4,491c3.2-1.8,5.6-4.8,6.5-8.3c1.7-6.1,2.2-7,2.2-10.4c0-3.3-1.4-19.1-1.4-19.1l-8.7-0.6l-1.8,1.4
		l0.7,33.5L179.4,491z"/>
	<path class="st30" d="M181,454.1c0.8-0.5,1.4-1.4,1.6-2.3c0.1-0.7,0.7-1.2,1.4-1.1c0,0,0,0,0,0c0.1,0,0.2,0,0.3,0.1l1.1,4.9
		c0,0-1.1,0.4-0.8,1.2c0.3,0.8,2.2,12.3,2.2,15.7c0,3.4-1.5,9.4-4.3,11.3c-2.8,1.9-5.9,3.5-6.7,4.6c-0.8,1.2-1.7,2.1-2.9,2.1
		s-4.6-0.4-6-0.3c-1.3,0.2-3.6,0.2-3.6-0.5c-0.2-1-0.4-2.1-0.7-3.1c-0.3-1.2,0.7-2.2,1-3.1c0.2-0.6,0.2-1.3,0.3-1.9
		c-0.9-0.5-1.8-1.2-2.4-2.1c-0.3-1-0.8-2-1.4-2.9c-1-1.4-3.4-4.1-3.9-5.8c-0.9-2.6-1.5-5.3-1.7-8c-0.2-3.2,0.2-6.9,0.6-7
		c0.4-0.1-0.6,5.8,3.1,11.5c3.7,5.7,7.9,5.2,7.9,5.2c0.1-1.4,0.1-2.8,0.1-4.2c-0.1-1.7-0.4-3.9,0-4.3c0.4-0.4,1.2,2.1,2.7,2.9
		c1.5,0.8,1.1,0.7,1.1,0.7s0.7-1.4,0.7-4.6c-0.1-1.6,0.1-3.2,0.5-4.8c0,0-1.4-2.9-2.1-4.4c-0.4-0.9-0.9-1.8-1.4-2.7
		c1.4,0.8,2.8,1.6,4.2,2.2c0.7,0.2,1.3,0.5,2,0.8c1-0.4,2.1-0.6,3.2-0.6L181,454.1z"/>
	<path class="st32" d="M184.2,456.3c0,0-0.7-2.6-1.2-4.1s0.5-4.5,2.4-4.5c1.9,0-0.2,1.2,0.7,1.2s0.9-1.9,1.9-1.7
		c1,0.3-0.3,1.5,0.5,3.1c0.7,1.3,0.5,3-0.6,4.1c-0.8,0.6-1.6,1-2.6,1.2L184.2,456.3z"/>
	<path class="st32" d="M170.6,457.4c-0.2-1.1-0.5-2.1-0.8-3.1c-0.7-1-1.4-2-2.1-2.9c0,0-0.5-1.5-3.1-1.4c-2.7,0.1-1.2,1.4-1.2,1.4
		l0.4,1c0.4,1.3,1.1,2.5,1.9,3.6c0.9,0.9,2.2,1.4,3.5,1.4L170.6,457.4L170.6,457.4z"/>
	<path d="M176.8,473.8c0,0,0.2-0.5,1.6-0.5c1.4,0,0.9,0.3,0.9,0.3s0.3,1.1-1.2,1S176.8,473.8,176.8,473.8z"/>
	<path class="st32" d="M170.6,487.3c0,0,0.5-1.4,1.2-1.4c0.7,0,2.1,0.5,1.5,1C172.7,487.4,170.6,487.3,170.6,487.3z"/>
	<path class="st32" d="M164.3,487.8c0,0-0.7-2.3-1-1.8s-1,1,0,1.4L164.3,487.8z"/>
	<ellipse class="st25" cx="207.5" cy="473.6" rx="16.9" ry="14.3"/>
	<path class="st31" d="M163.9,481.9c0.9,0.5,1.9,0.7,2.9,0.6c1.8-0.2-2.4,1.2-3.2,2.2l-0.7,0.7c0.4-0.6,0.6-1.3,0.8-2
		C163.8,482.8,163.9,481.9,163.9,481.9z"/>
	<path class="st31" d="M166,472.9c0.9,0.1,1.8,0.4,2.4,1.1c0.3,0.3-1.4-2.2-1.7-3.2c-0.2-0.6-0.4-1.2-0.7-1.7v2.3
		C166.1,471.9,166,472.9,166,472.9z"/>
	<path class="st31" d="M203.2,494.9c0,0,0-1.5,1.1-2c2.3-0.8,4.7-1.5,7.2-1.8c1-0.1,2-0.2,3-0.3c0,0-5.6,1.9-6.4,2.4
		c-0.7,0.5-3.5,2.2-3.6,2.8c-0.1,0.4-0.4,0.7-0.7,1L203.2,494.9z"/>
	<path d="M207.2,477.8v1.4h-5.8v-1.4h2.1v-6.2c0-0.2,0-0.5,0-0.8l-1.5,1.3c-0.1,0.1-0.3,0.2-0.5,0.1c-0.1,0-0.1,0-0.2-0.1
		c-0.1,0-0.1-0.1-0.1-0.1l-0.6-0.8l3.2-2.7h1.5v9.2L207.2,477.8L207.2,477.8z"/>
	<path d="M216.2,475.2v1c0,0.1,0,0.2-0.1,0.3c-0.1,0.1-0.2,0.1-0.3,0.1h-1v2.6h-1.6v-2.6h-4.5c-0.1,0-0.2,0-0.3-0.1
		c-0.1-0.1-0.2-0.2-0.2-0.3l-0.2-1l5-6.7h1.7v6.6L216.2,475.2L216.2,475.2z M213.3,475.2v-3.5c0-0.4,0-0.7,0.1-1.1l-3.3,4.5H213.3z"
		/>
</g>
<g>
	<path class="st30" d="M163.2,535c0.4-0.4,0.8-0.8,1.3-1.2c0.2,0,0.4-0.1,0.6-0.2l1.8-2.6c0.5-0.9,1.2-1.6,2.1-2
		c1.2-0.4,1.4-1.5,3.4-1.2c1,0.1,2,0.5,2.8,1.2c1.6-0.2,3.1,0.1,4.6,0.8c2.1,1.1,3.5,3.8,4.9,4.1c1.4,0.3,3.3-0.5,5.1-1.1
		c1.8-0.6,11.6,3.7,13.3,4.5c1.7,0.8,10.8,2.5,12.9,11.4c2.1,8.9-0.2,15.5-1.2,17.3c-1,1.9-4.2,7.1-4.5,8.3
		c-0.2,1.2-1.3,6.4-1.4,7.1c-0.1,1.6-0.1,3.1,0,4.7c0.1,0.3,0.8,0.9,0.3,1.3c-0.4,0.4-3.6,2.1-6.3,0.3c0,0-1.5-0.9-1.4-1.9
		s0.8-5.2,0.9-6.3c0.4-1.7,0.6-3.5,0.7-5.2c0-0.4-0.1-0.9-0.4-1.2c0,0-4.4,1.7-5.2,1.9c-0.5,0.1-1,0.3-1.4,0.6
		c0.4,1.5,0.6,3,0.8,4.5c0.1,1.4,0.5,3.6,0.1,4.6c-0.4,1-3,1.2-3.4,1.2c-0.6-0.1-1.3-0.3-1.9-0.5c0,0,0.3-4.4,0-5.7
		c-0.2-0.7-0.4-1.4-0.6-2.1c0,0-0.9,4.7-0.7,6.4c0.2,1.7,1,5.7,1.4,6c0.4,0.3,1.1,3.1-1.5,3.9c-2.6,0.8-5.2,0.7-6.1-0.5
		c-0.7-0.8-1.2-1.7-1.7-2.6c0.8-2.1,1.1-4.3,1-6.5c-0.1-3.6-0.9-6.8-0.6-8.7c0.3-1.9-1.5,0.9-4.5-0.9c-3-1.7-1.3-0.7-1.3-0.7
		l-0.9,0.7c0,0,4,8.2,4.6,10.5c0.3,1.3,0.6,2.7,0.8,4c0,0-1.5,2.9-4.3,3.5c-1.7,0.4-3.4,0.2-4.9-0.6c0.5-2.3,0.5-4.8,0-7.1
		c-0.9-3.2-5.5-10.4-5.5-10.4l-4.3-6.4l-1.5-17.4L163.2,535z"/>
	<path class="st31" d="M166.4,573.5c3.3-1.9,5.7-5,6.7-8.7c1.8-6.3,2.2-7.3,2.2-10.7s-1.4-19.8-1.4-19.8l-9-0.6l-1.9,1.4l0.8,34.7
		L166.4,573.5z"/>
	<path class="st30" d="M168.2,535.2c0.9-0.5,1.5-1.4,1.6-2.4c0.1-0.7,0.7-1.2,1.4-1.1c0,0,0,0,0,0c0.1,0,0.2,0,0.3,0.1l1.1,5.1
		c0,0-1.1,0.4-0.9,1.3c0.3,0.9,2.3,12.8,2.3,16.3s-1.5,9.8-4.5,11.8c-2.9,2-6.1,3.6-7,4.8c-0.9,1.2-1.8,2.1-3,2.1s-4.8-0.4-6.2-0.3
		c-1.4,0.2-3.7,0.2-3.7-0.5c-0.2-1.1-0.4-2.1-0.7-3.2c-0.3-1.2,0.8-2.2,1-3.2c0.2-0.6,0.3-1.3,0.3-2c-1-0.5-1.8-1.3-2.5-2.1
		c-0.4-1.1-0.8-2.1-1.4-3c-1-1.4-3.5-4.3-4-6c-0.9-2.7-1.5-5.5-1.8-8.3c-0.2-3.4,0.2-7.1,0.6-7.2c0.4-0.1-0.6,6,3.3,12
		c3.9,6,8.2,5.4,8.2,5.4c0.1-1.5,0.1-2.9,0.1-4.4c-0.1-1.8-0.4-4,0-4.5c0.4-0.4,1.3,2.1,2.8,3c1.5,0.9,1.1,0.8,1.1,0.8
		s0.8-1.5,0.7-4.8c-0.1-1.7,0.1-3.3,0.5-4.9c0,0-1.5-3-2.1-4.6c-0.4-1-0.9-1.9-1.5-2.8c1.4,0.9,2.9,1.6,4.4,2.3
		c0.7,0.2,1.4,0.5,2.1,0.9c1.1-0.4,2.2-0.6,3.4-0.6L168.2,535.2z"/>
	<path class="st32" d="M171.5,537.5c0,0-0.7-2.7-1.3-4.2c-0.6-1.6,0.5-4.6,2.5-4.6s-0.2,1.3,0.7,1.3s0.9-2,2-1.7
		c1,0.3-0.3,1.5,0.5,3.3c0.7,1.4,0.5,3.1-0.6,4.2c-0.8,0.6-1.7,1-2.7,1.3L171.5,537.5z"/>
	<path class="st32" d="M157.3,538.6c-0.2-1.1-0.5-2.2-0.9-3.3c-0.7-1-1.4-2.1-2.1-3c0,0-0.5-1.5-3.3-1.4c-2.8,0.1-1.3,1.5-1.3,1.5
		l0.4,1c0.4,1.3,1.1,2.6,2,3.7c1,0.9,2.3,1.5,3.6,1.5L157.3,538.6L157.3,538.6z"/>
	<path d="M163.8,555.7c0,0,0.2-0.5,1.6-0.5s0.9,0.3,0.9,0.3s0.3,1.1-1.3,1C163.5,556.3,163.8,555.7,163.8,555.7z"/>
	<path class="st32" d="M157.3,569.6c0,0,0.5-1.5,1.3-1.5c0.8,0,2.1,0.5,1.5,1S157.3,569.6,157.3,569.6z"/>
	<path class="st32" d="M150.8,570.2c0,0-0.8-2.4-1-1.9c-0.3,0.5-1,1,0,1.5L150.8,570.2z"/>
	<ellipse class="st25" cx="195.6" cy="555.4" rx="17.5" ry="14.9"/>
	<path class="st31" d="M150.4,564.1c0.9,0.5,2,0.7,3,0.6c1.9-0.2-2.5,1.2-3.4,2.2l-0.7,0.8c0.4-0.6,0.7-1.3,0.9-2.1
		C150.3,564.9,150.4,564.1,150.4,564.1z"/>
	<path class="st31" d="M152.6,554.7c0.9,0.1,1.8,0.5,2.5,1.1c0.3,0.3-1.4-2.2-1.7-3.3c-0.2-0.6-0.4-1.2-0.7-1.8v2.4
		C152.7,553.7,152.6,554.7,152.6,554.7z"/>
	<path class="st31" d="M191.2,577.5c0,0,0-1.5,1.1-2.1c2.4-0.9,4.9-1.5,7.5-1.9c1-0.1,2.1-0.2,3.1-0.3c0,0-5.8,2-6.6,2.5
		c-0.8,0.5-3.6,2.3-3.8,2.9c-0.1,0.4-0.4,0.8-0.7,1L191.2,577.5z"/>
	<path d="M196.9,556.9l0.2-0.3l0.2-0.3c-0.3,0.2-0.5,0.3-0.8,0.4c-0.3,0.1-0.6,0.1-1,0.1c-0.4,0-0.8-0.1-1.1-0.2
		c-0.4-0.1-0.7-0.3-1-0.6c-0.3-0.3-0.5-0.6-0.7-1c-0.2-0.4-0.3-0.9-0.3-1.4c0-0.5,0.1-1,0.3-1.4c0.2-0.4,0.4-0.8,0.8-1.1
		c0.3-0.3,0.7-0.6,1.2-0.8c0.5-0.2,1-0.3,1.5-0.3c0.5,0,1,0.1,1.5,0.3c0.4,0.2,0.8,0.4,1.1,0.7c0.3,0.3,0.6,0.7,0.7,1.1
		c0.2,0.5,0.3,1,0.3,1.5c0,0.3,0,0.6-0.1,1c-0.1,0.3-0.1,0.6-0.2,0.9c-0.1,0.3-0.2,0.6-0.4,0.8c-0.2,0.3-0.3,0.5-0.5,0.8l-2.5,3.6
		c-0.1,0.1-0.2,0.2-0.4,0.3c-0.2,0.1-0.4,0.1-0.6,0.1h-1.7L196.9,556.9z M194.4,553.5c0,0.5,0.1,1,0.5,1.4c0.4,0.3,0.8,0.5,1.3,0.5
		c0.3,0,0.6,0,0.8-0.1c0.2-0.1,0.4-0.2,0.6-0.4c0.2-0.2,0.3-0.4,0.4-0.6c0.1-0.2,0.1-0.5,0.1-0.7c0-0.3,0-0.5-0.1-0.8
		c-0.1-0.2-0.2-0.4-0.4-0.6c-0.2-0.2-0.4-0.3-0.6-0.4c-0.2-0.1-0.5-0.1-0.8-0.1c-0.3,0-0.5,0-0.8,0.1c-0.4,0.2-0.8,0.5-1,1
		C194.4,553,194.4,553.3,194.4,553.5L194.4,553.5z"/>
</g>
</svg>
