<svg id="Layer_1" data-name="Layer 1" xmlns="http://www.w3.org/2000/svg" viewBox="0 0 410.87 46"><title>network</title><polygon points="69.22 21.72 57.41 19.19 57.4 21.19 0.04 20.79 0 26.85 57.36 27.25 57.34 28.99 69.19 26.63 81.03 24.26 69.22 21.72" style="fill:#e0c175"/><rect x="103.88" y="7.96" width="7.31" height="37.76" style="fill:#b79855"/><rect x="100.23" y="7.96" width="7.31" height="37.76" style="fill:#e0c175"/><polygon points="87.41 7.96 87.41 0 125.16 0 132.16 3.98 125.16 7.96 87.41 7.96" style="fill:#b79855"/><polygon points="82.91 7.96 82.91 0 120.66 0 127.66 3.98 120.66 7.96 82.91 7.96" style="fill:#e0c175"/><rect x="100.23" y="7.96" width="7.31" height="1.94" style="fill:#ccab6a"/><rect x="107.53" y="7.96" width="3.65" height="1.94" style="fill:#967a41"/><polygon points="127.66 3.98 132.16 3.98 125.16 7.96 120.66 7.96 127.66 3.98" style="fill:#967a41"/><path d="M94,1.71H95.3L97,4.22V1.71h1.32V6.25H97l-1.7-2.49V6.25H94V1.71Z" style="fill:#b79855"/><path d="M99.08,4a2.34,2.34,0,0,1,.62-1.73,2.33,2.33,0,0,1,1.72-.62,2.37,2.37,0,0,1,1.74.61,2.29,2.29,0,0,1,.61,1.7,2.79,2.79,0,0,1-.27,1.3,1.9,1.9,0,0,1-.77.79,2.55,2.55,0,0,1-1.26.28,2.9,2.9,0,0,1-1.27-.24,1.91,1.91,0,0,1-.81-0.77A2.57,2.57,0,0,1,99.08,4Zm1.4,0a1.52,1.52,0,0,0,.26,1,1,1,0,0,0,1.39,0,1.68,1.68,0,0,0,.25-1.05A1.4,1.4,0,0,0,102.12,3a0.88,0.88,0,0,0-.7-0.3,0.85,0.85,0,0,0-.68.3A1.53,1.53,0,0,0,100.49,4Z" style="fill:#b79855"/><path d="M104.56,1.71h2.08a2.49,2.49,0,0,1,1,.17,1.62,1.62,0,0,1,.63.48,2,2,0,0,1,.36.73,3.37,3.37,0,0,1,.11.88,3,3,0,0,1-.17,1.13,1.86,1.86,0,0,1-.46.67,1.49,1.49,0,0,1-.63.36,3.24,3.24,0,0,1-.84.12h-2.08V1.71Zm1.4,1V5.22h0.34a1.44,1.44,0,0,0,.62-0.1,0.66,0.66,0,0,0,.29-0.34A2.13,2.13,0,0,0,107.32,4a1.53,1.53,0,0,0-.24-1,1,1,0,0,0-.78-0.27H106Z" style="fill:#b79855"/><path d="M109.46,1.71h3.76v1h-2.35V3.4H113V4.33h-2.18V5.22h2.42v1h-3.82V1.71Z" style="fill:#b79855"/><rect x="243.24" y="8.24" width="7.31" height="37.76" style="fill:#b79855"/><rect x="239.58" y="8.24" width="7.31" height="37.76" style="fill:#e0c175"/><polygon points="226.76 8.24 226.76 0.28 264.52 0.28 271.52 4.26 264.52 8.24 226.76 8.24" style="fill:#b79855"/><polygon points="222.26 8.24 222.26 0.28 260.02 0.28 267.02 4.26 260.02 8.24 222.26 8.24" style="fill:#e0c175"/><rect x="239.58" y="8.24" width="7.31" height="1.94" style="fill:#ccab6a"/><rect x="246.89" y="8.24" width="3.65" height="1.94" style="fill:#967a41"/><polygon points="267.02 4.26 271.52 4.26 264.52 8.24 260.02 8.24 267.02 4.26" style="fill:#967a41"/><path d="M233.35,2h1.31l1.71,2.51V2h1.32V6.53h-1.32L234.67,4V6.53h-1.32V2Z" style="fill:#b79855"/><path d="M238.44,4.26a2.34,2.34,0,0,1,.62-1.73,2.33,2.33,0,0,1,1.72-.62,2.37,2.37,0,0,1,1.74.61,2.29,2.29,0,0,1,.61,1.7,2.79,2.79,0,0,1-.27,1.3,1.9,1.9,0,0,1-.77.79,2.55,2.55,0,0,1-1.26.28,2.9,2.9,0,0,1-1.27-.24,1.91,1.91,0,0,1-.81-0.77A2.57,2.57,0,0,1,238.44,4.26Zm1.4,0a1.52,1.52,0,0,0,.26,1,1,1,0,0,0,1.39,0,1.68,1.68,0,0,0,.25-1.05,1.4,1.4,0,0,0-.26-0.94,0.88,0.88,0,0,0-.7-0.3,0.85,0.85,0,0,0-.68.3A1.53,1.53,0,0,0,239.84,4.27Z" style="fill:#b79855"/><path d="M243.91,2H246a2.49,2.49,0,0,1,1,.17,1.62,1.62,0,0,1,.63.48,2,2,0,0,1,.36.73,3.37,3.37,0,0,1,.11.88,3,3,0,0,1-.17,1.13,1.86,1.86,0,0,1-.46.67,1.49,1.49,0,0,1-.63.36,3.24,3.24,0,0,1-.84.12h-2.08V2Zm1.4,1V5.5h0.34a1.44,1.44,0,0,0,.62-0.1,0.66,0.66,0,0,0,.29-0.34,2.13,2.13,0,0,0,.11-0.79,1.53,1.53,0,0,0-.24-1A1,1,0,0,0,245.66,3h-0.35Z" style="fill:#b79855"/><path d="M248.82,2h3.76V3h-2.35V3.68h2.18V4.6h-2.18V5.5h2.42v1h-3.82V2Z" style="fill:#b79855"/><polygon points="208.52 21.72 196.72 19.19 196.7 21.19 139.34 20.79 139.3 26.85 196.66 27.25 196.65 28.99 208.49 26.63 220.33 24.26 208.52 21.72" style="fill:#e0c175"/><polygon points="347.57 21.72 335.76 19.19 335.75 21.19 278.39 20.79 278.35 26.85 335.71 27.25 335.7 28.99 347.54 26.63 359.38 24.26 347.57 21.72" style="fill:#e0c175"/><rect x="382.59" y="8.19" width="7.31" height="37.76" style="fill:#b79855"/><rect x="378.94" y="8.19" width="7.31" height="37.76" style="fill:#e0c175"/><polygon points="366.12 8.19 366.12 0.23 403.87 0.23 410.87 4.21 403.87 8.19 366.12 8.19" style="fill:#b79855"/><polygon points="361.62 8.19 361.62 0.23 399.37 0.23 406.37 4.21 399.37 8.19 361.62 8.19" style="fill:#e0c175"/><rect x="378.94" y="8.19" width="7.31" height="1.94" style="fill:#ccab6a"/><rect x="386.24" y="8.19" width="3.65" height="1.94" style="fill:#967a41"/><polygon points="406.37 4.21 410.87 4.21 403.87 8.19 399.37 8.19 406.37 4.21" style="fill:#967a41"/><path d="M372.7,1.94H374l1.71,2.51V1.94H377V6.48h-1.32L374,4V6.48H372.7V1.94Z" style="fill:#b79855"/><path d="M377.79,4.22a2.34,2.34,0,0,1,.62-1.73,2.33,2.33,0,0,1,1.72-.62,2.37,2.37,0,0,1,1.74.61,2.29,2.29,0,0,1,.61,1.7,2.79,2.79,0,0,1-.27,1.3,1.9,1.9,0,0,1-.77.79,2.55,2.55,0,0,1-1.26.28,2.9,2.9,0,0,1-1.27-.24,1.91,1.91,0,0,1-.81-0.77A2.57,2.57,0,0,1,377.79,4.22Zm1.4,0a1.52,1.52,0,0,0,.26,1,1,1,0,0,0,1.39,0,1.68,1.68,0,0,0,.25-1.05,1.4,1.4,0,0,0-.26-0.94,0.88,0.88,0,0,0-.7-0.3,0.85,0.85,0,0,0-.68.3A1.53,1.53,0,0,0,379.2,4.22Z" style="fill:#b79855"/><path d="M383.27,1.94h2.08a2.49,2.49,0,0,1,1,.17,1.62,1.62,0,0,1,.63.48,2,2,0,0,1,.36.73,3.37,3.37,0,0,1,.11.88,3,3,0,0,1-.17,1.13,1.86,1.86,0,0,1-.46.67,1.49,1.49,0,0,1-.63.36,3.24,3.24,0,0,1-.84.12h-2.08V1.94Zm1.4,1V5.45H385a1.44,1.44,0,0,0,.62-0.1A0.66,0.66,0,0,0,385.93,5,2.13,2.13,0,0,0,386,4.22a1.53,1.53,0,0,0-.24-1A1,1,0,0,0,385,3h-0.35Z" style="fill:#b79855"/><path d="M388.17,1.94h3.76v1h-2.35V3.63h2.18V4.56h-2.18V5.45H392v1h-3.82V1.94Z" style="fill:#b79855"/></svg>