<?xml version="1.0" encoding="UTF-8" standalone="no"?>
<svg width="107px" height="99px" viewBox="0 0 107 99" version="1.1" xmlns="http://www.w3.org/2000/svg" xmlns:xlink="http://www.w3.org/1999/xlink" xmlns:sketch="http://www.bohemiancoding.com/sketch/ns">
    <!-- Generator: Sketch 3.4.3 (16618) - http://www.bohemiancoding.com/sketch -->
    <title>Artboard 1</title>
    <desc>Created with Sketch.</desc>
    <defs></defs>
    <g id="Page-1" stroke="none" stroke-width="1" fill="none" fill-rule="evenodd" sketch:type="MSPage">
        <g id="Artboard-1" sketch:type="MSArtboardGroup">
            <g id="Group" sketch:type="MSLayerGroup">
                <rect id="Rectangle-path" fill="#B79855" sketch:type="MSShapeGroup" x="45.2952" y="17.1313043" width="15.7896" height="81.266087"></rect>
                <rect id="Rectangle-path" fill="#E0C175" sketch:type="MSShapeGroup" x="37.4112" y="17.1313043" width="15.7896" height="81.266087"></rect>
                <path d="M9.72,17.1313043 L9.72,0 L91.26,0 L106.38,8.56565217 L91.26,17.1313043 L9.72,17.1313043 L9.72,17.1313043 Z" id="Shape" fill="#B79855" sketch:type="MSShapeGroup"></path>
                <path d="M0,17.1313043 L0,0 L81.54,0 L96.66,8.56565217 L81.54,17.1313043 L0,17.1313043 L0,17.1313043 Z" id="Shape" fill="#E0C175" sketch:type="MSShapeGroup"></path>
                <rect id="Rectangle-path" fill="#CCAB6A" sketch:type="MSShapeGroup" x="37.4112" y="17.1313043" width="15.7896" height="4.17521739"></rect>
                <rect id="Rectangle-path" fill="#967A41" sketch:type="MSShapeGroup" x="53.1792" y="17.1313043" width="7.884" height="4.17521739"></rect>
                <path d="M96.66,8.56565217 L106.38,8.56565217 L91.26,17.1313043 L81.54,17.1313043 L96.66,8.56565217 L96.66,8.56565217 Z" id="Shape" fill="#967A41" sketch:type="MSShapeGroup"></path>
                <path d="M23.9544,3.68021739 L26.7624,3.68021739 L30.4344,9.08217391 L30.4344,3.68021739 L33.2856,3.68021739 L33.2856,13.451087 L30.4344,13.451087 L26.7624,8.09217391 L26.7624,13.451087 L23.9544,13.451087 L23.9544,3.68021739 L23.9544,3.68021739 Z" id="Shape" fill="#B79855" sketch:type="MSShapeGroup"></path>
                <path d="M34.9272,8.60869565 C34.8453326,7.23757397 35.32909,5.89262549 36.2664,4.88543478 C37.2706193,3.95488828 38.6124643,3.47295246 39.9816,3.55108696 C41.3608922,3.46528614 42.7164067,3.9387735 43.74,4.86391304 C44.6637223,5.85211499 45.1400183,7.17468788 45.0576,8.5226087 C45.0919956,9.48838992 44.8919307,10.4481751 44.4744,11.3204348 C44.1009633,12.0385952 43.5221613,12.6302794 42.8112,13.0206522 C41.9708781,13.4507507 41.0336545,13.658268 40.0896,13.6232609 C39.1478455,13.6588919 38.21016,13.4823335 37.3464,13.1067391 C36.6104198,12.7405089 36.0011321,12.163408 35.5968,11.4495652 C35.122392,10.5794062 34.8911433,9.59830219 34.9272,8.60869565 L34.9272,8.60869565 Z M37.9512,8.60869565 C37.8804325,9.36941843 38.079119,10.1308282 38.5128,10.7608696 C39.3500087,11.5671895 40.6779913,11.5671895 41.5152,10.7608696 C41.9397651,10.087295 42.1295649,9.29302399 42.0552,8.50108696 C42.1227279,7.77428516 41.9231689,7.04776891 41.4936,6.45652174 C41.1140055,6.02389874 40.5578072,5.7863917 39.9816,5.81086957 C39.4185024,5.79010748 38.8770212,6.02813072 38.5128,6.45652174 C38.088382,7.09008583 37.8975455,7.85066603 37.9728,8.60869565 L37.9512,8.60869565 Z" id="Shape" fill="#B79855" sketch:type="MSShapeGroup"></path>
                <path d="M46.764,3.68021739 L51.2568,3.68021739 C51.9943683,3.653213 52.7296218,3.77775323 53.4168,4.04608696 C53.9491969,4.27294767 54.4167704,4.62790339 54.7776,5.07913043 C55.1421423,5.54418195 55.4068227,6.07895019 55.5552,6.65021739 C55.7177872,7.26833664 55.7976788,7.90515378 55.7928,8.54413043 C55.827914,9.37073663 55.703253,10.1963637 55.4256,10.976087 C55.2051281,11.5238395 54.8658296,12.0162445 54.432,12.4180435 C54.0494074,12.7840872 53.5819469,13.0502397 53.0712,13.1928261 C52.4803777,13.357791 51.8703476,13.4446224 51.2568,13.451087 L46.764,13.451087 L46.764,3.68021739 L46.764,3.68021739 Z M49.788,5.8323913 L49.788,11.2343478 L50.5224,11.2343478 C50.9792549,11.2616529 51.4365282,11.1881664 51.8616,11.0191304 C52.1494446,10.8552126 52.3709492,10.5964584 52.488,10.2873913 C52.67126,9.74741154 52.7518377,9.17811292 52.7256,8.60869565 C52.8071999,7.85319605 52.6240478,7.09282733 52.2072,6.45652174 C51.7557688,6.03015392 51.1417756,5.81838785 50.5224,5.87543478 L49.8744,5.87543478 L49.788,5.8323913 Z" id="Shape" fill="#B79855" sketch:type="MSShapeGroup"></path>
                <path d="M57.348,3.68021739 L65.4696,3.68021739 L65.4696,5.8323913 L60.3936,5.8323913 L60.3936,7.3173913 L64.9944,7.3173913 L64.9944,9.31891304 L60.2856,9.31891304 L60.2856,11.2343478 L65.5128,11.2343478 L65.5128,13.3865217 L57.2616,13.3865217 L57.2616,3.68021739 L57.348,3.68021739 Z" id="Shape" fill="#B79855" sketch:type="MSShapeGroup"></path>
            </g>
        </g>
    </g>
</svg>