<svg id="Layer_1" data-name="Layer 1" xmlns="http://www.w3.org/2000/svg" viewBox="0 0 204.66 363.56"><title>penguin</title><path d="M254.72,537.41S239.61,557.29,243.44,560s6.21-3.43,6.21-3.43-4.65,7,.69,7.14,5.19-6.65,5.19-6.65-4.72,6.58.14,6.75,12.46-24.28,12.46-24.28Z" transform="translate(-179.93 -208.6)"/><path d="M342.61,541s17.83,23.46,13.3,26.71-7.32-4.05-7.32-4.05,5.48,8.31-.81,8.42-6.13-7.85-6.13-7.85,5.57,7.76-.16,8-14.7-28.65-14.7-28.65Z" transform="translate(-179.93 -208.6)"/><path d="M328.37,290.26l-1.87-2.93s1-18.53-1.46-32.67-2.68-24.63-25.11-40.48-42.43,6.83-43.65,9.27-6.83,23.41-6.83,31.21v13.65s-4.39,9.27-6.34,14.14a42.16,42.16,0,0,0-2.44,7.81s-16.34-14.15-23.65-19-25.36-16.34-34.38-14.39,6.83,13.65,13.17,20.73,21.94,24.14,24.63,28,6.83,13.65,9.75,16.34,4.39,3.17,4.39,3.17-16.09,38.77-18.29,81,15.12,109.48,25.6,121.43,12.68,17.56,17.56,17.8,19.26-11.95,19.26-11.95A72.06,72.06,0,0,0,298,535.79c10-.24,13.9-1.46,13.9-1.46s4.39,8.53,10.24,13.65,7.56,6.34,18.29,8,26.58-8.53,32.43-19.75,19.82-94.75-4.76-171.67c-16.39-51.3-21.85-46.82-21.85-46.82s23.72-44.33,29.34-53.69,12.79-21.85,6.71-23.1-25.7,14.41-39.8,31.84Z" transform="translate(-179.93 -208.6)" style="fill:#b5b3b1"/><path d="M249.45,264.88l9.09,8.59H267l36.44-1,23.12-1.74A125.28,125.28,0,0,0,325,254.66c-2.44-14.14-2.68-24.63-25.11-40.48s-42.43,6.83-43.65,9.27-6.83,23.41-6.83,31.21v10.22Z" transform="translate(-179.93 -208.6)" style="fill:#fff"/><path d="M326.55,270.76s2.18-18.94-6.73-36.21-20.43-27.3-41.22-25.81-22.65,14.86-22.65,14.86,4.46,1.86,4.09,6.31,0.74,18.57-1.11,21.91a11.1,11.1,0,0,0-.37,9.66c1.11,2.23,5.94,13,15.23,11.51s13.55-3,14-11.14c0,0-6.22-16.72-6.22-21s2.23-16.52,12.63-18,14.86,3,17.83,11.7A56.31,56.31,0,0,1,313.88,260c-1.11,5.94-1.86,6.31-10.77,8.54s-16.71,4.6-16.71,4.6,15.73-1.49,24.88,0A23.42,23.42,0,0,0,326.55,270.76Z" transform="translate(-179.93 -208.6)"/><path d="M249.45,268.31l9.09,5.16a34.19,34.19,0,0,1-6.69-9.72c-2.41-5.57-2.41-9.09-2.41-9.09v13.65Z" transform="translate(-179.93 -208.6)"/><path d="M267.77,251.94s-3.84,5.9-4.09,8.17c-0.23,2.09,2,8.17,2,8.17s5.76-5.2,9.47-5.94a21.11,21.11,0,0,0,7.06-3.13s-7.43-1.32-9.28-3.55A16.7,16.7,0,0,0,267.77,251.94Z" transform="translate(-179.93 -208.6)" style="fill:#586067"/><path d="M293.79,251.94s3-10.51,9.37-10.89,3.53,10.19-3,9C297.36,249.53,293.79,251.94,293.79,251.94Z" transform="translate(-179.93 -208.6)"/><path d="M255.94,250.38S255.21,238.9,254,241s0,6.42,0,6.42Z" transform="translate(-179.93 -208.6)"/><path d="M346.21,317.79s-12.31-9.26-6.89-19.19,21.67-32.3,28-38.49,16.4-11.7,16.4-11.7-13,26.41-18.75,34.69S346.21,317.79,346.21,317.79Z" transform="translate(-179.93 -208.6)" style="fill:#d8d6d4"/><path d="M234.58,325.13l3.63-17s-16.7-22.12-28-29.79-27.81-14.22-27.81-14.22,18.33,19.64,24.65,26.86,17.12,22.69,20.12,26.86A37.44,37.44,0,0,0,234.58,325.13Z" transform="translate(-179.93 -208.6)" style="fill:#d8d6d4"/><path d="M360.82,415.31c0,58.34-9.36,108.92-69.46,108.92-34.7,0-62.83-47.3-62.83-105.64S247.56,297,282.26,297,360.82,357,360.82,415.31Z" transform="translate(-179.93 -208.6)" style="fill:#fff"/></svg>