<svg id="Layer_1" data-name="Layer 1" xmlns="http://www.w3.org/2000/svg" viewBox="0 0 264.05 196.75"><title>red-frog</title><path d="M224.78,110.36s14.64,9.38,11.66,21.27-17.61,17.61-17.61,17.61,14.29-2.29,18-1.37,6,1.37,6,1.37,13.49,0.91,15.32,4.35,0.91,4.35-3.2,3.43-10.06-1.6-10.06-1.6,6.4,2.52,5.72,5.26-8.46,0-8.46,0l-14.41-.91-16.7-8Z" style="fill:#893030"/><path d="M66.18,103.46S46.33,84.15,23.81,89.78,0,110.34,0,114.89s5,10.39,9.53,11.47S16,128.09,16,128.09s10.54,9.48,17.07,14.48,13.67,9.55,13.67,9.55-15.15.22-22.73,2.6-15.15,6.71-13.64,10.61,17.9-4.76,22.7-4.76,9.78-1.89,7.4,1.33-2.6,4.52-5.85,7.76-13,10.61-14.72,14.29,0.43,7.79,5.85,3.46,20.57-20.29,26.84-21,9.53,0.19,11.69,5.6,6.93,15.15,10,11.47,0.43-7.36,0-10-5.41-16-5.41-16Z" style="fill:#893030"/><path d="M241.35,148.92c-1-.23-2.57-0.58-4.5-1.05-3.72-.91-18,1.37-18,1.37s11.42-4.47,16.13-13.71l-5.47-8.35v-13a34.82,34.82,0,0,0-4.71-3.82l-13.67,41.23,17.67,8.24,13.38,0.85,0.27,0.09Z" style="fill:#232323;opacity:0.3"/><path d="M220.86,142.57s19.94,10.78,19.25,18.33-8.69,5.95-8.69,5.95a27.31,27.31,0,0,0-3.89,4.8c-0.91,1.83,4.35,11.21,4.35,13.27s-3.66,5.72-5,1.37-3.66-13.72-7.55-13.72-24.93,19.21-27.9,17.61,19-17.15,20.81-19.21,0.91-3.27-2.52-2.43-21.27,10-22,5.41,17.15-7.78,20.13-9.61-3.88-2.48-3.88-2.48l1.14-13.07Z" style="fill:#a83939"/><path d="M59.46,134.46s-20.84-11-25.22-10.26-10.05,1.67-10.05,1.67,7.31-.73,11.15,2.56,17,19.92,18.46,22.48,8.77,10.6,11.7,12.25a17.79,17.79,0,0,0,6.09,2L68.23,156Z" style="fill:#232323;opacity:0.3"/><path d="M255.11,71.48c-1.77-1.77-14.72-23.6-17.74-28.09a22.8,22.8,0,0,0-4.92-5,15.29,15.29,0,0,0,4.92-11.1c0-8.92-8-16.15-17.89-16.15-9.61,0-17.44,6.85-17.85,15.44l-1.7-.3c-1.16-.19-2.34-0.35-3.52-0.48,0-.19,0-0.37,0-0.56,0-10.43-9-18.89-20-18.89a20.37,20.37,0,0,0-16.25,7.88c-2.87,1.5-5.87,3.11-6.75,3.77-1.83,1.37-10,15-10,15h0A20.8,20.8,0,0,0,141,34c-5,2.84-5.32,14-5.5,19.16s-5.05,8.37-5.05,8.37-9,5.82-11.8,7.24S82.32,85,71.14,96.87s-16.5,35.64-15.79,42.56,2.84,10.64,9.58,18.1,25.9,9.4,25.9,9.4,60.5,1.77,74.87,1.6,22-2,31.57-4.26,15.8-7.81,21.83-18.27,6.56-22.18,6.92-25.37,8.69-22.71,9-24.48,3.9-4.44,6.56-6,1.42-6,1.42-6,1.6-.19,9.23,0,10.82-2,11.71-4.44S256.89,73.25,255.11,71.48Z" style="fill:#a83939"/><path d="M226.78,146.15l-12.86-8.32-9.94,24s7.36-.35,3.88,2.48,22.09-16,22.09-16Z" style="fill:#232323;opacity:0.2"/><ellipse cx="230.96" cy="22.19" rx="18.3" ry="17.27" style="fill:#e87d7e"/><path d="M190.29,80c-7.14.65-25.11,4.11-34.85,8.71s-3.25,4.28-1.52,11.85-1.3,4.55-8,8.88-16,13.42-19.27,23.38-5.41,27.28-5.41,27.28l1.7,7.66c16.9,0.42,35.59.82,42.76,0.73,14.37-.18,22-2,31.57-4.26s15.8-7.81,21.83-18.27,6.56-22.18,6.92-25.37,8.69-22.71,9-24.48,3.9-4.44,6.56-6,1.42-6,1.42-6,1.09-.13,5.7-0.07h0s-19.06-.73-25.77-2S197.44,79.38,190.29,80Z" style="fill:#d25959"/><circle cx="166.78" cy="17.86" r="17.86" style="fill:#e87d7e"/><path d="M78.8,144.64c-8.24-3.2-16.12-5.24-17.76-15.85-1.62-10.44-1.18-11.94-1.16-12-3.41,9.47-4.93,18.72-4.53,22.63,0.71,6.92,2.84,10.64,9.58,18.1s25.9,9.4,25.9,9.4l11.88-20.85S87,147.84,78.8,144.64Z" style="fill:#232323;opacity:0.2"/><path d="M203.21,154.37c-9.59,7.34-39.51,7.34-56.81,5.46s-20.13-13.36-20.13-13.36l-4.48,16.15,1.15,5.16c16.9,0.42,35.59.82,42.76,0.73,14.37-.18,22-2,31.57-4.26s15.8-7.81,21.83-18.27a48.52,48.52,0,0,0,4.76-11.83C218.83,142.64,211,148.38,203.21,154.37Z" style="fill:#232323;opacity:0.1"/><path d="M125.22,137.91s4.41,9.73,3,14.3a15.21,15.21,0,0,1-3.66,6.63s4.35,9.09,7.55,9.17,29-2.76,29,3-9.92.69-13.88,0.91-2.67,3.66,0,4.8,30.35,12.12,29,15.78-24.47-11-27.45-11.44-8.23-1.83-10.75-.23,8.46,7.74,10.29,9.47,6.18,4.71,3.89,6.31-13.72-8.69-17.38-9.61-12.12-2.74-13.27-5.49l-1.14-2.74s-20.13-2.8-26.76-9.75-6.18-14.49-1.14-19.53S107,136.13,107,136.13Z" style="fill:#a83939"/><path d="M61,103.56S46.49,92.23,32.19,91.94s-22.64,7-25,10.22-3.81,11.62-3.81,11.62,3.81-10.22,10.22-13.62a43.38,43.38,0,0,1,28.85-3.81A62,62,0,0,1,61,103.56Z" style="fill:#fff;opacity:0.48"/><path d="M64.81,111.61A46.06,46.06,0,0,1,79,94.49c9.91-7.16,50.45-25.68,52.72-29s6.11-5.07,5.77-8.21,1.22-14.69,2.45-17.83a10.12,10.12,0,0,1,4-4.71s-3.67,4.54-3.49,9.61,0,12.75-.17,14.85-4.54,8.91-6.64,9.43S88.91,91.7,81.4,96.42,64.81,111.61,64.81,111.61Z" style="fill:#fff;opacity:0.2"/><path d="M211.12,89.27c-7.79.37-15.15,0-15.15,0s27.85,3.92,39.42,6.11a16.44,16.44,0,0,1,4.52-4.14C232.26,90.44,216.87,89,211.12,89.27Z" style="fill:#232323;opacity:0.1"/><path d="M239.92,76.76c6.32,0.53,18,1.9,24.1,2.63,0.31-2.49-7.19-6.19-8.91-7.91s-12.37-19.63-16.63-26.37c0,0,14.15,22.83,10.27,26.68s-30.81,2.94-30.81,2.94S231.12,76,239.92,76.76Z" style="fill:#232323;opacity:0.2"/><ellipse cx="142.51" cy="125.87" rx="64.88" ry="34.98" style="fill:#fff"/><path d="M180.91,17.54c0,6.15-6.42,2.42-14.33,2.42s-14.33,4.91-14.33-2.42,6.42-1.11,14.33-1.11S180.91,11.33,180.91,17.54Z" style="fill:#604140"/><path d="M246.61,21.32c0,6.15-6.42,2.42-14.33,2.42s-14.33,4.91-14.33-2.42,6.42-1.11,14.33-1.11S246.61,15.1,246.61,21.32Z" style="fill:#604140"/></svg>