<svg id="Layer_1" data-name="Layer 1" xmlns="http://www.w3.org/2000/svg" xmlns:xlink="http://www.w3.org/1999/xlink" viewBox="0 0 88.65 77.41"><defs><linearGradient id="linear-gradient" x1="92.97" y1="70.75" x2="23.17" y2="17.23" gradientUnits="userSpaceOnUse"><stop offset="0"/><stop offset="1" stop-color="#97969e"/></linearGradient><linearGradient id="linear-gradient-2" x1="46.69" y1="43.12" x2="-2.41" y2="11.9" xlink:href="#linear-gradient"/><linearGradient id="linear-gradient-3" x1="34.97" y1="9.99" x2="43.93" y2="-3.14" gradientUnits="userSpaceOnUse"><stop offset="0"/><stop offset="1" stop-color="#575757"/></linearGradient><linearGradient id="linear-gradient-4" x1="20.78" y1="13.19" x2="6.72" y2="1.22" xlink:href="#linear-gradient-3"/></defs><title>rhino</title><path d="M26.27,8.43A11.17,11.17,0,0,1,27.8,7.07a3,3,0,0,1,.71-0.26l2.08-3a6.07,6.07,0,0,1,2.47-2.32C34.44,1,34.65-.3,37.07.07a5.24,5.24,0,0,1,3.26,1.42,9.48,9.48,0,0,1,5.26.89c2.47,1.32,4.11,4.37,5.68,4.84s3.79-.57,5.9-1.31,13.53,4.26,15.47,5.15,12.58,2.95,15,13.26-0.16,18.05-1.42,20.21-4.95,8.32-5.16,9.74-1.47,7.47-1.58,8.26A47.34,47.34,0,0,0,79.44,68c0.11,0.37.89,1,.42,1.53s-4.21,2.47-7.32.26c0,0-1.74-1-1.58-2.16s0.89-6.06,1.11-7.4a44.59,44.59,0,0,0,.84-6.07,2,2,0,0,0-.47-1.38s-5.11,2-6.11,2.17a4,4,0,0,0-1.58.68,37.35,37.35,0,0,1,.95,5.16c0.05,1.58.63,4.21,0.11,5.26s-3.47,1.42-3.95,1.42a13.26,13.26,0,0,1-2.16-.58s0.37-5.12,0-6.66A18,18,0,0,0,59,57.76s-1.05,5.47-.79,7.53,1.21,6.63,1.58,7,1.26,3.58-1.68,4.53-5.95.79-7.11-.58A16.9,16.9,0,0,1,49,73.28a21.58,21.58,0,0,0,1.21-7.58c-0.11-4.21-.95-7.9-0.68-10.11s-1.74,1-5.21-.95-1.47-.84-1.47-0.84l-1.11.79s4.74,9.53,5.37,12.16A39.42,39.42,0,0,1,48,71.49S46.28,74.86,43,75.6a8.24,8.24,0,0,1-5.69-.74,20.5,20.5,0,0,0,0-8.26c-1-3.74-6.42-12.11-6.42-12.11l-5-7.55L24.15,26.59Z" style="fill:url(#linear-gradient)"/><path d="M30.08,53.24a16.3,16.3,0,0,0,7.86-10.09c2.1-7.41,2.64-8.48,2.64-12.52S39,7.47,39,7.47L28.51,6.8,26.27,8.43l0.88,40.39Z" style="fill:#414042;opacity:0.23"/><path d="M32.13,8.55a4.55,4.55,0,0,0,1.93-2.78,1.5,1.5,0,0,1,2-1.24l1.26,5.87s-1.26.54-1,1.47S39,26.86,39,31s-1.78,11.43-5.25,13.67-7.11,4.17-8.11,5.56-2.09,2.55-3.48,2.55S16.6,52.28,15,52.43s-4.33.23-4.33-.62-0.54-2.32-.77-3.71,0.93-2.63,1.24-3.71a9.77,9.77,0,0,0,.31-2.32,7.76,7.76,0,0,1-2.86-2.55,13.07,13.07,0,0,0-1.7-3.48C5.71,34.43,2.77,31,2.15,29A41.59,41.59,0,0,1,.07,19.29c-0.23-3.86.15-8.34,0.7-8.42S0,18.13,4.47,25,14,31.26,14,31.26a42.24,42.24,0,0,0,.08-5.1c-0.15-2.09-.46-4.71,0-5.18s1.47,2.47,3.32,3.55,1.31,0.85,1.31.85,0.86-1.7.82-5.64A17.66,17.66,0,0,1,20.15,14s-1.7-3.48-2.47-5.33A21.19,21.19,0,0,0,16,5.39a44.31,44.31,0,0,0,5.1,2.7,16.78,16.78,0,0,1,2.39,1,9.65,9.65,0,0,1,3.94-.7Z" style="fill:url(#linear-gradient-2)"/><path d="M36,11.34s-0.77-3.09-1.47-4.94S35.07,1,37.37,1s-0.25,1.54.83,1.54,1.08-2.32,2.32-2-0.31,1.78.62,3.79a4.21,4.21,0,0,1-.7,4.87,10.1,10.1,0,0,1-3.07,1.54Z" style="fill:url(#linear-gradient-3)"/><path d="M19.5,12.61a29.17,29.17,0,0,0-1-3.75A32,32,0,0,0,16,5.39S15.36,3.61,12.2,3.77s-1.54,1.7-1.54,1.7l0.54,1.16a12.82,12.82,0,0,0,2.32,4.33,6.11,6.11,0,0,0,4.17,1.66H19.5Z" style="fill:url(#linear-gradient-4)"/><path d="M27,32.42s0.23-.62,1.85-0.62S30,32.11,30,32.11s0.27,1.31-1.52,1.16S27,32.42,27,32.42Z"/><path d="M19.5,48.65s0.65-1.7,1.5-1.7,2.47,0.62,1.78,1.16S19.5,48.65,19.5,48.65Z"/><path d="M11.9,49.35S11,46.56,10.71,47.18s-1.19,1.24,0,1.7Z"/><ellipse cx="64.11" cy="32.08" rx="20.42" ry="17.27" style="fill:#fff"/></svg>