<?xml version="1.0" encoding="utf-8"?>
<!-- Generator: Adobe Illustrator 19.2.0, SVG Export Plug-In . SVG Version: 6.00 Build 0)  -->
<svg version="1.1" id="Layer_1" xmlns="http://www.w3.org/2000/svg" xmlns:xlink="http://www.w3.org/1999/xlink" x="0px" y="0px"
	 viewBox="0 0 88.7 77.4" style="enable-background:new 0 0 88.7 77.4;" xml:space="preserve">
<style type="text/css">
	.st0{fill:#61DB78;}
	.st1{opacity:0.23;fill:#414042;enable-background:new    ;}
	.st2{fill:#30893D;}
	.st3{fill:#FFFFFF;}
</style>
<title>rhino</title>
<path class="st0" d="M26.3,8.4c0.5-0.5,1-1,1.5-1.4c0.2,0,0.5-0.1,0.7-0.2l2.1-3c0.6-1,1.4-1.8,2.5-2.3c1.4-0.5,1.6-1.8,4-1.4
	c1.2,0.1,2.4,0.6,3.3,1.4c1.8-0.2,3.6,0.1,5.3,0.9c2.5,1.3,4.1,4.4,5.7,4.8s3.8-0.6,5.9-1.3s13.5,4.3,15.5,5.2s12.6,2.9,15,13.3
	s-0.2,18-1.4,20.2s-4.9,8.3-5.2,9.7s-1.5,7.5-1.6,8.3c-0.1,1.8-0.1,3.6,0,5.5c0.1,0.4,0.9,1,0.4,1.5s-4.2,2.5-7.3,0.3
	c0,0-1.7-1-1.6-2.2s0.9-6.1,1.1-7.4c0.4-2,0.7-4,0.8-6.1c0-0.5-0.1-1-0.5-1.4c0,0-5.1,2-6.1,2.2c-0.6,0.1-1.1,0.3-1.6,0.7
	c0.4,1.7,0.8,3.4,0.9,5.2c0.1,1.6,0.6,4.2,0.1,5.3s-3.5,1.4-4,1.4c-0.7-0.1-1.5-0.3-2.2-0.6c0,0,0.4-5.1,0-6.7
	c-0.2-0.8-0.4-1.7-0.7-2.5c0,0-1,5.5-0.8,7.5c0.3,2.1,1.2,6.6,1.6,7s1.3,3.6-1.7,4.5s-6,0.8-7.1-0.6c-0.8-0.9-1.4-1.9-2-3
	c0.9-2.4,1.3-5,1.2-7.6c-0.1-4.2-1-7.9-0.7-10.1s-1.7,1-5.2-1s-1.5-0.8-1.5-0.8l-1.1,0.8c0,0,4.7,9.5,5.4,12.2
	c0.4,1.6,0.7,3.1,0.9,4.7c0,0-1.7,3.4-5,4.1c-1.9,0.4-3.9,0.2-5.7-0.7c0.6-2.7,0.6-5.5,0-8.3c-1-3.7-6.4-12.1-6.4-12.1l-5-7.5
	l-1.7-20.3L26.3,8.4z"/>
<path class="st1" d="M30.1,53.2C34,51,36.8,47.4,38,43.1c2.1-7.4,2.6-8.5,2.6-12.5S39,7.5,39,7.5L28.5,6.8l-2.2,1.6l0.9,40.4
	L30.1,53.2z"/>
<path class="st0" d="M32.1,8.6C33.1,8,33.8,7,34,5.8c0.1-0.8,0.8-1.4,1.7-1.3c0.1,0,0.2,0,0.3,0.1l1.3,5.9c0,0-1.3,0.5-1,1.5
	S39,26.9,39,31s-1.8,11.4-5.2,13.7s-7.1,4.2-8.1,5.6s-2.1,2.5-3.5,2.5s-5.6-0.5-7.2-0.3s-4.3,0.2-4.3-0.6s-0.5-2.3-0.8-3.7
	s0.9-2.6,1.2-3.7c0.2-0.8,0.3-1.5,0.3-2.3c-1.2-0.6-2.1-1.5-2.9-2.5c-0.4-1.2-1-2.4-1.7-3.5c-1.2-1.6-4.1-5-4.7-7
	C1,26.1,0.3,22.8,0,19.5c-0.2-3.9,0.2-8.3,0.7-8.4S0,18.1,4.5,25s9.5,6.3,9.5,6.3c0.1-1.7,0.2-3.4,0.1-5.1c-0.1-2.1-0.5-4.7,0-5.2
	s1.5,2.5,3.3,3.5s1.3,0.9,1.3,0.9s0.9-1.7,0.8-5.6c-0.1-1.9,0.1-3.9,0.6-5.7c0,0-1.7-3.5-2.5-5.3c-0.5-1.1-1-2.2-1.7-3.3
	c1.6,1,3.3,1.9,5.1,2.7c0.8,0.3,1.6,0.6,2.4,1c1.2-0.5,2.6-0.7,3.9-0.7L32.1,8.6z"/>
<path class="st2" d="M36,11.3c0,0-0.8-3.1-1.5-4.9S35.1,1,37.4,1s-0.2,1.5,0.8,1.5s1.1-2.3,2.3-2s-0.3,1.8,0.6,3.8
	c0.8,1.6,0.6,3.6-0.7,4.9c-0.9,0.7-2,1.2-3.1,1.5L36,11.3z"/>
<path class="st2" d="M19.5,12.6c-0.2-1.3-0.6-2.5-1-3.8c-0.8-1.2-1.6-2.4-2.5-3.5c0,0-0.6-1.8-3.8-1.6s-1.5,1.7-1.5,1.7l0.5,1.2
	c0.5,1.6,1.3,3,2.3,4.3c1.1,1.1,2.6,1.7,4.2,1.7H19.5L19.5,12.6z"/>
<path d="M27,32.4c0,0,0.2-0.6,1.9-0.6s1.1,0.3,1.1,0.3s0.3,1.3-1.5,1.2S27,32.4,27,32.4z"/>
<path class="st2" d="M19.5,48.7c0,0,0.6-1.7,1.5-1.7s2.5,0.6,1.8,1.2S19.5,48.7,19.5,48.7z"/>
<path class="st2" d="M11.9,49.3c0,0-0.9-2.8-1.2-2.2s-1.2,1.2,0,1.7L11.9,49.3z"/>
<ellipse class="st3" cx="64.1" cy="32.1" rx="20.4" ry="17.3"/>
<path class="st1" d="M11.4,42.2c0,0,1.3,0.9,3.5,0.7S12,44.3,11,45.5l-0.8,0.9c0,0,0.9-1.6,1-2.4C11.3,43.2,11.4,42.2,11.4,42.2z"/>
<path class="st1" d="M14,31.3c0,0,1.9,0.1,2.9,1.3c0.3,0.3-1.6-2.6-2-3.9s-0.8-2.1-0.8-2.1s0,2.2,0,2.8C14.1,30.1,14,31.3,14,31.3z"
	/>
<path class="st1" d="M58.9,57.8c0,0,0-1.8,1.3-2.4c1.3-0.6,6.9-2.1,8.7-2.2c1.9-0.1,3.6-0.4,3.6-0.4s-6.8,2.3-7.7,2.9
	c-0.9,0.6-4.2,2.7-4.4,3.4c-0.2,0.7-0.8,1.2-0.8,1.2L58.9,57.8z"/>
</svg>
