<svg id="Layer_1" data-name="Layer 1" xmlns="http://www.w3.org/2000/svg" xmlns:xlink="http://www.w3.org/1999/xlink" viewBox="0 0 172.28 163.42"><defs><linearGradient id="linear-gradient" x1="107.45" y1="106.05" x2="116.46" y2="106.05" gradientUnits="userSpaceOnUse"><stop offset="0" stop-color="#257b83"/><stop offset="1" stop-color="#339da8"/></linearGradient><linearGradient id="linear-gradient-2" x1="76.39" y1="76.19" x2="73.4" y2="89.93" xlink:href="#linear-gradient"/></defs><title>shaman</title><path d="M34.23,119.69S29,140.17,30.89,143.52s13,9.22,13,9.22-8.55,1.08-8.55,6.51S51,154.64,51,154.64l-1.47-6.31,19.06-6.91s21.36,0.42,30.69,6.91,8.28,6.31,8.28,6.31,1.19,8.78,7,8.78-5.61-10.47-5.61-10.47a79.63,79.63,0,0,1,1.14-20.07c2-10,2.31-11.48,2.31-11.48Z" style="fill:#8e572b"/><path d="M114.54,110l-3,15.51s-0.3,5.11-18,6.91-45.8-2.89-45.8-2.89-8.62-4.32-10.85-6.57a13.45,13.45,0,0,1-2.68-3.3l2.68-10.83,70.64-7.62s2.39,5.72,3.89,6.83A30.11,30.11,0,0,0,114.54,110Z" style="fill:#e8af7c"/><path d="M113.79,113.44l-0.72,4.37-3.28-1.3s-0.9,8.54-3.25,9.78-5.42,5-5.42,5l5.42-27,4.58-1.16Z" style="fill:#cc9262"/><path d="M112.62,79.42s15.87,5,23.06,9.6l7.2,4.6-7.2,6.27s-7.57-2.4-14.58,0-4.61,1.35-4.61,1.35l-2.71,12.2s-7.44-11.62-7.25-17,0-10.41,0-10.41Z" style="fill:#49c4d8"/><path d="M30.39,73.74s-5.56,3.49-8.11,2l-2.55-1.54s3.71-5.66,3.71-9-2.55.31-3.71,1.63l-1.16,1.32s-1.62-8-3.71-10-3,2.31-3,4.31a10.85,10.85,0,0,0,1.39,4.41L4.92,59.17a4.73,4.73,0,0,0-1.39,4.72c0.69,3.08,3.94,5.5,3.94,5.5S1.67,65.5.28,66.82s2.78,6.92,2.78,6.92H6.54s-0.46,4,.93,5.68,5.79,0,5.79,0,15.33,14.23,20,17l4.67,2.78V80.41Z" style="fill:#49c4d8"/><path d="M111.59,125.55l-1.7,8.28s-7,2.5-8.78,2.77-3.73,4.25-6.38,5.58-4.33,2.3-4.33,2.3l-7.17-2-23,2-4.44,1.61-9.2,3.14S53,145,53,142.59s-6.43-13.65-6.43-13.65l21.14,3.94Z" style="fill:#512f15"/><path d="M37.92,80.41l-7.53-6.67A17.92,17.92,0,0,1,24.79,76c-0.68,2.17-1.66,6.57.46,9.43C28.16,89.36,27.47,92,27.47,92a55.81,55.81,0,0,0,5.78,4.4L34,96.88,37.92,95V80.41Z" style="fill:#339da8;opacity:0.52"/><path d="M124.15,93.42c-7.29.57-11.35-.16-11.35-2.38s3-2,3.69-3.49a46.93,46.93,0,0,0,1.77-6.22c-3.3-1.17-5.64-1.91-5.64-1.91L106.53,86s0.19,5,0,10.41,7.25,17,7.25,17l2.67-12c0.54-.14,1.83-0.54,4.65-1.51,7-2.4,14.58,0,14.58,0l2.46-2.14h0s4.26-5.84,2.06-6.9c-0.85-.41-7.46,4-8.51,3.65A18.92,18.92,0,0,0,124.15,93.42Z" style="fill:#339da8;opacity:0.52"/><path d="M116.46,101.41s-3.6.1-5.35,1.76-3.66-4.51-3.66-4.51l1.2,5.53,5.14,9.25Z" style="fill:url(#linear-gradient)"/><path d="M77.07,63.08l30.72,25s4.22,28.62-3.61,39.46S79.78,148.92,73.76,151s-12.35,3.61-12.35,3.61,3.92-1.51,3-4.82S29.49,110.67,29.19,104s6-16,6-16L69.05,65.79Z" style="fill:#d6d6d6"/><path d="M104.18,127.54c7.83-10.84,3.61-39.46,3.61-39.46l-4.1-3.34L85.25,86.46s11,22.78,6.51,42-30.35,26.23-30.35,26.23,6.32-1.51,12.35-3.61S96.35,138.38,104.18,127.54Z" style="fill:#b0afb0;opacity:0.64"/><path d="M44.76,64.7S34,57.66,33.26,52.2,65.14,27.66,72.17,25.68,78.52,24,78.52,24L75.35,8.86s4.56-2.4,16.58-1.7,14.14,5.94,14.14,5.94L98.29,26.53s17.39,10.83,23.61,19.76,9.19,15.81,8.06,17.6-12.44,4.39-18.8,5.5a72.59,72.59,0,0,1-10.6,1.14Z" style="fill:#e8af7c"/><path d="M107.8,88.08l0.47,4a25.37,25.37,0,0,1-9.05,1.39A58.62,58.62,0,0,1,87.56,92l-1.35-4.89Z" style="fill:#999"/><path d="M100.55,70.53l1.28,0a80.5,80.5,0,0,0,9.33-1.09c6.36-1.1,17.67-3.7,18.8-5.5s-1.84-8.67-8.06-17.6S98.29,26.53,98.29,26.53l7.77-13.43s-1.12-2.75-6.32-4.53L95.22,25.11s11.69,8.84,16.41,16.7-2.7,16.31-2.7,16.31Z" style="fill:#cc9262"/><path d="M45.61,62.43s-11.69-6.25-8-8.15,9.79-7.68,42-6.69,44.53,13.13,44.53,14.84-19.65,4.39-19.65,4.39L54.56,63.89Z" style="fill:#75461c"/><path d="M124.15,62.43c0-1.7-12.34-13.84-44.53-14.84s-38.26,4.79-42,6.69c-2,1,.5,3.34,3.23,5.24,6.69-1.38,21.79-4.32,28.57-4.23,8.85,0.13,30,2.56,39.49,7.14,2.31,1.12,4.22,2,5.8,2.76C119.5,64.32,124.15,63.26,124.15,62.43Z" style="fill:#512f15"/><path d="M74.55,64.08a23.21,23.21,0,0,1,23.66-2.6c13.52,6,6.24,9.1,13.26,10.4s4.16-6.26,4.16-6.26,9.1,14.84-2.6,20.56-11.19,6.5-16.26,5.46-13.39-2.6-18.07-7a44.17,44.17,0,0,1-7.28-8.93Z" style="fill:#d6d6d6"/><path d="M58.59,93.42s1.06,7.47,4,7.81,10.79-3.67,12.19-7,2.77-7.09,2.77-7.09l10,4.89L86.36,89s-5.1-1.73-7.64-4.35a36.33,36.33,0,0,1-4.42-5.72Z" style="fill:#9b9a9a;opacity:0.64"/><path d="M62.07,62.26s-2.86-4-10.92-2.9-8.84,10.7-15.6,11.22-5.72-1.3-5.72-3.38-5.32,18.2-.06,19.5S40,89.56,48,86.7a55.9,55.9,0,0,0,12.48-6Z" style="fill:#d6d6d6"/><path d="M62.07,83.58S53,90.86,59.21,97.36s16.06-6.58,15.86-9.81-0.78-8.65-.78-8.65Z" style="fill:#49c4d8"/><polygon points="74.71 83.9 75.08 86.44 70.37 89.03 61.8 89.03 58.59 87.55 60.12 85.37 74.71 83.9" style="fill:#339da8;opacity:0.52"/><path d="M64,86.22s-4.69,3.75-1.47,7.1,7.7-3.46,8.17-5.05a29.76,29.76,0,0,1,2.07-5.41Z" style="fill:#2e7c84"/><path d="M78.71,84.62c4.68,4.42,13,6,18.07,7s4.55,0.26,16.26-5.46a10,10,0,0,0,6-10c0,0.95-.52,3.23-4.13,5.84-4.75,3.44-12.11-2.37-19.65-6.31a23.06,23.06,0,0,0-15.14-2l-5.32,6.63A45.14,45.14,0,0,0,78.71,84.62Z" style="fill:#b0afb0;opacity:0.64"/><path d="M83.81,73.12a3.73,3.73,0,0,1,2.27,2.57c0.3,1.83.24,4.46-1.91,4.64a21.56,21.56,0,0,1-3.76,0,7.22,7.22,0,0,1-1.25,2.41C78.37,83.56,78,83.9,78,83.9L76.17,82l1.37-5.55Z" style="fill:#999"/><path d="M55,73.12a5.88,5.88,0,0,0-5.35-2.54c-3.41.45-5,5-9.57,6s-10.56.68-11.27-.85a4.64,4.64,0,0,1-.55-2.44c-1,5.47-1.51,12.69,1.56,13.45C35,88,40,89.56,48,86.7a58.51,58.51,0,0,0,12.2-5.79Z" style="fill:#c4bdb8"/><ellipse cx="60.35" cy="53.35" rx="5.7" ry="4.77" style="fill:#c0e6eb"/><path d="M68.59,53S66.68,39.14,57,39s-14,4.68-14.34,7S40,57.3,41,58.06,51,50.7,57,51.75s8.5,3.73,8.5,3.73Z" style="fill:#d6d6d6"/><path d="M76.17,54.53s14-9.94,19.05-10.71,11.79-1,11.79-1,7.74,6.88,6.69,12.62-0.38,8.41-1.91,8.41-12.33-9.75-22.18-9.75-14.85,5.21-14.85,5.21Z" style="fill:#d6d6d6"/><ellipse cx="91.08" cy="55.29" rx="8.2" ry="4.07" style="fill:#c0e6eb"/><path d="M76.17,54.53s14-9.94,19.05-10.71,11.79-1,11.79-1,7.74,6.88,6.69,12.62-0.38,8.41-1.91,8.41-12.33-9.75-22.18-9.75-14.85,5.21-14.85,5.21Z" style="fill:#d6d6d6"/><path d="M113.7,55.48a6.39,6.39,0,0,0,.05-1.7c-3.82-1.36-13-4.39-19.07-4.32-7.84.1-18.51,6.69-18.51,6.69L78,57a23.44,23.44,0,0,1,11.62-2.89c9.85,0,20.65,9.75,22.18,9.75S112.65,61.22,113.7,55.48Z" style="fill:#b0afb0;opacity:0.64"/><path d="M57,82.75l-2.55,1.3a30,30,0,0,1-2.35-5.54c-0.43-2,3.28-7.1,3.28-7.1Z" style="fill:#999"/><path d="M66.83,53.38s-6.65-6.31-10.4-7S41.12,53.85,41.1,53.87C40.73,56,40.56,57.74,41,58.06c1,0.76,10-7.36,16.06-6.31a17.23,17.23,0,0,1,8.06,3.32Z" style="fill:#b0afb0;opacity:0.64"/><path d="M80.79,70.58s1-17.42-8.58-19.24-17.68,20-18.46,23.4,2.08,12,10.4,12.74a15.23,15.23,0,0,0,13.52-6,9.44,9.44,0,0,0,.78-2.86S84.7,81,85.22,76.3,80.79,70.58,80.79,70.58Z" style="fill:#49c4d8"/><path d="M80.79,70.58A15.88,15.88,0,0,0,75.08,70c-2.61.35,2.26-1.88,2.26-10.79,0-5.46-.33-4.87-0.33-4.87a14.79,14.79,0,0,1,3.27,8.24C80.81,67.87,80.79,70.58,80.79,70.58Z" style="fill:#339da8;opacity:0.52"/><path d="M78.45,78.64S74,77,73.1,78.9,72.17,86,72.17,86a13.55,13.55,0,0,0,4.57-3.4C79,80.12,78.45,78.64,78.45,78.64Z" style="fill:url(#linear-gradient-2)"/><path d="M62.07,60.22s-6.81,10.49-6.29,16.72S62.58,86,62.58,86s-4.47-5.69-3.42-11.6S62.07,60.22,62.07,60.22Z" style="fill:#fff;opacity:0.37"/><path d="M37.12,92s-6.05,8.84-4.1,12.75S58.59,136.6,58.59,136.6s-21.08-27.53-22.05-32.21,8.22-14.11,8.22-14.11H37.32Z" style="fill:#f9f9fa;opacity:0.73"/><path d="M89,18c-8.52-1.08-10.87,1.25-11.31,1.84l0.84,4c2.46-.14,6-0.3,9.08-0.3a24.58,24.58,0,0,1,10.73,3l2.33-4A24.68,24.68,0,0,0,89,18Z" style="fill:#75461c"/><path d="M140.21,99.9s-4.59,12.42-6.23,18.32-7.55,28.06-7.71,33.14-1.31,8,.82,7.88,9.36-36.27,10.26-39.55,4.36-11.94,4.36-11.94Z" style="fill:#8e572b"/><path d="M145.15,106.65s-1,5.87-3.44,5.09-4-.53-4.36-2.88a6.83,6.83,0,0,1,1.18-4.53Z" style="fill:#49c4d8"/><path d="M145.64,104.89s-1,5.87-3.44,5.09-4-.53-4.36-2.88a6.83,6.83,0,0,1,1.18-4.53Z" style="fill:#339da8;opacity:0.52"/><path d="M88.27,25.26c-2.43-.23-9.75,0-9.75,0a144.84,144.84,0,0,0-15,7c-8.82,4.67-9.73,5.19-9.73,5.19S73.1,28.12,80,27.21a111.24,111.24,0,0,1,15-.68S90,25.42,88.27,25.26Z" style="fill:#ecc19d"/><path d="M148.46,100.53l-1.85,5.86s-3.47,2.73-4.91,1.37a29,29,0,0,0-3.18-2.55l4-3.63Z" style="fill:#49c4d8"/><path d="M148.46,99l-1.85,5.86s-3,1.69-4.91,1.37a14.15,14.15,0,0,1-3.18-1.07l4-5.12Z" style="fill:#339da8;opacity:0.52"/><path d="M78.52,16.84L77,9.45A36.18,36.18,0,0,1,89.13,8.28c6.66,0.52-5.61-.43-8.33,3S78.52,16.84,78.52,16.84Z" style="fill:#ecc19d"/><circle cx="140.21" cy="95.38" r="4.52" style="fill:#49c4d8"/><g style="opacity:0.52"><path d="M142.48,91.49l0.1,0.1-0.08-.09h0Z" style="fill:#339da8"/><path d="M140.21,99.9a4.52,4.52,0,0,0,4.52-4.52,4.47,4.47,0,0,0-.6-2.22l-1.55-1.57a2.26,2.26,0,0,1,.31,2c-0.36,1.59-1.09,1.61-2.68,1.75-1.08.1-2.24,2.16-2.87,3.47A4.48,4.48,0,0,0,140.21,99.9Z" style="fill:#339da8"/></g><path d="M143.24,92s9.24,4.71,7.39,7.12a28.34,28.34,0,0,1-5.9,5s-7.2,2.58-7.2,0,1.48-6.46,4.43-5.9S143.24,92,143.24,92Z" style="fill:#49c4d8"/><path d="M143.67,96.43s2.82-11.9,4.09-14.43,1.6-9.91,3.12-13,4.68-13.91,5.95-17.81,2.74-7.48,2.74-7.48,2.11,1.48,3.16.63,8-7.38,9.38-24.56S166.21,0,163.36,0s-7.8,3.64-9.06,7-4.11,30.49-4.53,34.81-4.43,32-4.53,33.85S143.11,87.8,142.48,89a7.37,7.37,0,0,0-.77,2.15,2.14,2.14,0,0,1,1.75,2A27.9,27.9,0,0,1,143.67,96.43Z" style="fill:#8e572b"/><path d="M159.52,43.83a7.66,7.66,0,0,1-2-1.45,13,13,0,0,1-1.79-2.21,16.33,16.33,0,0,1-1.55-3.36,20.48,20.48,0,0,1-.86-4.29,29.86,29.86,0,0,1-.05-4.88,30.74,30.74,0,0,1,.77-5.18,16.73,16.73,0,0,1,2.07-5.13,6.87,6.87,0,0,1,2.09-2.16,3.88,3.88,0,0,1,1.61-.55,3.46,3.46,0,0,1,1.75.29,4.79,4.79,0,0,1,1.34.94l0.27,0.28,0.1,0.11,0.05,0.06,0.1,0.13L163.78,17a10.63,10.63,0,0,1,1.31,2.52,11,11,0,0,1,.56,2.62,10,10,0,0,1-.05,2.56,8.17,8.17,0,0,1-.69,2.41,3.09,3.09,0,0,1-.94,1.17c-0.4.26-.53,0.31-0.81,0.52a18.54,18.54,0,0,1-1.62,1.14,2.77,2.77,0,0,1-2.13.42,2.24,2.24,0,0,1-.54-0.24,2.17,2.17,0,0,1-.35-0.29,1.72,1.72,0,0,1-.32-0.4A2.06,2.06,0,0,1,158,29a5.24,5.24,0,0,1-.36-1.35,10.19,10.19,0,0,1-.09-1.85c0-.42,0-0.65,0-0.65h0.2s0,0.22.1,0.63a12.47,12.47,0,0,0,.42,1.71,4.64,4.64,0,0,0,.51,1.07,1.22,1.22,0,0,0,.18.24,0.71,0.71,0,0,0,.17.16,1.12,1.12,0,0,0,.27.17s0.14,0,.21,0a1.66,1.66,0,0,0,1.11-.44c0.42-.32.85-0.76,1.38-1.23,0.23-.22.68-0.52,0.84-0.66a2.27,2.27,0,0,0,.29-0.53,6.42,6.42,0,0,0,.4-1.88,10.2,10.2,0,0,0-.55-4.27,8.89,8.89,0,0,0-.95-2l-0.38-.52-0.09-.13,0-.07a0.07,0.07,0,1,1,0,0l-0.17-.2a2.94,2.94,0,0,0-.74-0.61,1.71,1.71,0,0,0-1.69.06,5.26,5.26,0,0,0-1.64,1.57,15.31,15.31,0,0,0-2.06,4.58,29.48,29.48,0,0,0-.94,4.93,31.65,31.65,0,0,0-.16,4.71,19.66,19.66,0,0,0,.59,4.16,15.74,15.74,0,0,0,1.31,3.3,12.61,12.61,0,0,0,1.61,2.23,7.41,7.41,0,0,0,1.86,1.5Z" style="fill:#512f15"/><path d="M169.92,14.41s1.39-11.58-6-12.1C158.66,1.93,155.89,7,155.89,7L153.7,17.15s3.48-11.78,8.8-11.29S169.92,14.41,169.92,14.41Z" style="fill:#ba8460;opacity:0.49"/><path d="M139.47,104.33s8.87-4.41,8.51-7-1.68-1.92-1.68-1.92a11.83,11.83,0,0,1,3.36,2.48c1,1.29-4.2,5-5.46,5.31S139.47,104.33,139.47,104.33Z" style="fill:#fff;opacity:0.37"/><path d="M7.46,69.39l0.7,1.14L2.34,69.39,0.28,66.82s0-.82,2.9.24A20.77,20.77,0,0,1,7.46,69.39Z" style="fill:#339da8;opacity:0.52"/><path d="M13.25,66.84L12.8,68.52s-6.34-4.93-6.86-5.44c-1-1-1-3.91-1-3.91Z" style="fill:#339da8;opacity:0.52"/><path d="M18.58,68.13l-1.21,2.12s-1.64-7.62-2.23-9.32-1.5-3-1.89-2.81l-0.39.16s0.37-1.16,1.19-.66,1.85,1.24,2.76,4.15S18.58,68.13,18.58,68.13Z" style="fill:#339da8;opacity:0.52"/><path d="M15.72,76.94s-3.27.76-4-1.52a6.38,6.38,0,0,1,0-4s-0.15,3.83,1.83,4.06A18.08,18.08,0,0,0,19,74.71Z" style="fill:#339da8;opacity:0.52"/><path d="M14.4,67.24S10.53,70,9.4,71s-2.86,2.71-2.86,2.71,5.44-4.46,7.1-4.68Z" style="fill:#339da8;opacity:0.52"/><path d="M81.19,62.1A24.76,24.76,0,0,1,95,61.62c7.37,2,9.53,5.2,9.53,5.2a25,25,0,0,0-14.94-4.39c-9.28.11-7.84,2.5-7.84,2.5Z" style="fill:#f9f9fa;opacity:0.73"/><path d="M58,61.62a10.42,10.42,0,0,0-7.42-.76C46.58,62,43.84,66,43.84,66s4.73-4.27,8.25-4,4.49,1.82,4.49,1.82Z" style="fill:#f9f9fa;opacity:0.73"/></svg>