<?xml version="1.0" encoding="utf-8"?>
<!-- Generator: Adobe Illustrator 16.0.0, SVG Export Plug-In . SVG Version: 6.00 Build 0)  -->
<!DOCTYPE svg PUBLIC "-//W3C//DTD SVG 1.1 Tiny//EN" "http://www.w3.org/Graphics/SVG/1.1/DTD/svg11-tiny.dtd">
<svg version="1.1" baseProfile="tiny"
	 id="Layer_1" sodipodi:docname="logo.svg" inkscape:version="0.91 r13725" xmlns:dc="http://purl.org/dc/elements/1.1/" xmlns:cc="http://creativecommons.org/ns#" xmlns:rdf="http://www.w3.org/1999/02/22-rdf-syntax-ns#" xmlns:svg="http://www.w3.org/2000/svg" xmlns:sodipodi="http://sodipodi.sourceforge.net/DTD/sodipodi-0.dtd" xmlns:inkscape="http://www.inkscape.org/namespaces/inkscape"
	 xmlns="http://www.w3.org/2000/svg" xmlns:xlink="http://www.w3.org/1999/xlink" x="0px" y="0px" width="320px" height="160px"
	 viewBox="0 0 320 160" xml:space="preserve">
<sodipodi:namedview  id="namedview9" bordercolor="#666666" pagecolor="#ffffff" guidetolerance="10" inkscape:cy="78.5" gridtolerance="10" inkscape:cx="160.6665" objecttolerance="10" inkscape:zoom="0.91805072" borderopacity="1" showgrid="false" inkscape:window-maximized="1" inkscape:current-layer="Layer_1" inkscape:window-y="24" inkscape:window-x="53" inkscape:window-height="1056" inkscape:window-width="1867" inkscape:pageshadow="2" inkscape:pageopacity="0">
	</sodipodi:namedview>
<g id="g4141" transform="translate(-1.4208998,2.573)">
	<path id="path3" inkscape:connector-curvature="0" fill="#048BB3" d="M162.046,13.529c-14.88,0-26.94,12.07-26.94,26.94
		c0,14.88,12.06,26.94,26.94,26.94c14.87,0,26.93-12.06,26.93-26.94C188.976,25.599,176.917,13.529,162.046,13.529L162.046,13.529z
		 M179.876,34.049l4.04-1.32c0.04-0.01,0.069-0.02,0.11-0.02c0.05,0,0.1,0.02,0.148,0.04c0.08,0.04,0.141,0.11,0.17,0.2
		c0.54,1.66,0.891,3.4,1.062,5.16c0.01,0.09-0.021,0.18-0.08,0.25c-0.062,0.07-0.142,0.12-0.229,0.13l-4.24,0.37h-0.029
		c-0.18,0-0.33-0.13-0.34-0.31c-0.131-1.39-0.41-2.76-0.83-4.07C179.597,34.299,179.696,34.109,179.876,34.049z M144.696,24.579
		c1.01-1.17,2.26-2.29,3.93-3.5c0.06-0.05,0.13-0.07,0.2-0.07c0.02,0,0.04,0,0.06,0.01c0.09,0.01,0.17,0.06,0.22,0.14l2.46,3.47
		c0.1,0.16,0.07,0.37-0.08,0.48c-0.93,0.67-2.12,1.6-3.11,2.76c-0.06,0.07-0.14,0.11-0.23,0.12h-0.03c-0.08,0-0.16-0.03-0.22-0.09
		l-3.17-2.84C144.586,24.929,144.577,24.719,144.696,24.579z M142.787,52.849c-0.06,0.03-0.12,0.05-0.19,0.05
		c-0.11,0-0.22-0.05-0.28-0.15c-2.38-3.65-3.64-7.98-3.64-12.53s1.25-8.88,3.63-12.53c0.06-0.1,0.17-0.16,0.28-0.16
		c0.07,0,0.13,0.02,0.19,0.05l3.59,2.28c0.08,0.05,0.13,0.13,0.15,0.22c0.02,0.09,0,0.18-0.05,0.26
		c-3.79,5.81-3.79,13.94,0.01,19.75c0.05,0.08,0.07,0.17,0.05,0.26c-0.02,0.09-0.07,0.17-0.15,0.22L142.787,52.849z M151.606,55.809
		l-2.44,3.48c-0.06,0.08-0.14,0.13-0.23,0.15h-0.05c-0.07,0-0.14-0.02-0.2-0.06c-1.68-1.22-2.93-2.33-3.94-3.5
		c-0.13-0.14-0.11-0.35,0.03-0.48l3.15-2.85c0.06-0.06,0.15-0.09,0.23-0.09c0.01,0,0.01,0,0.02,0c0.09,0.01,0.18,0.05,0.24,0.12
		c0.98,1.15,2.18,2.08,3.11,2.76C151.676,55.449,151.707,55.659,151.606,55.809z M152.196,19.009c1.4-0.68,2.99-1.22,4.99-1.69
		c0.03,0,0.05-0.01,0.08-0.01c0.06,0,0.13,0.02,0.18,0.06c0.08,0.04,0.13,0.12,0.15,0.21l0.89,4.16c0.04,0.18-0.07,0.36-0.25,0.41
		c-1.65,0.39-2.87,0.8-3.94,1.33c-0.05,0.03-0.1,0.04-0.15,0.04c-0.04,0-0.08-0.01-0.11-0.02c-0.09-0.03-0.16-0.1-0.2-0.18
		l-1.8-3.85C151.957,19.299,152.026,19.099,152.196,19.009z M157.667,62.839c-0.02,0.09-0.08,0.17-0.15,0.22
		c-0.06,0.04-0.12,0.06-0.19,0.06c-0.02,0-0.05-0.01-0.08-0.01c-2-0.47-3.59-1.01-4.99-1.68c-0.17-0.09-0.24-0.29-0.16-0.46
		l1.79-3.85c0.04-0.09,0.11-0.15,0.2-0.18c0.03-0.02,0.07-0.02,0.11-0.02c0.05,0,0.1,0.01,0.15,0.03c1.07,0.52,2.28,0.93,3.94,1.33
		c0.18,0.04,0.29,0.22,0.25,0.4L157.667,62.839L157.667,62.839z M182.856,51.079c-3.84,7.51-12.109,12.55-20.569,12.55
		c-0.37,0-0.76-0.01-1.13-0.03c-0.19-0.01-0.33-0.17-0.32-0.35l0.17-4.25c0-0.09,0.04-0.18,0.11-0.24c0.06-0.06,0.14-0.09,0.23-0.09
		c0,0,0.01,0,0.02,0c0.29,0.01,0.59,0.02,0.89,0.02c6.67,0,13.189-3.98,16.221-9.9c0.039-0.08,0.119-0.14,0.199-0.17
		c0.04-0.01,0.07-0.02,0.11-0.02c0.05,0,0.11,0.02,0.159,0.04l3.761,1.98C182.876,50.709,182.937,50.909,182.856,51.079
		L182.856,51.079z M184.376,47.399c-0.029,0.08-0.09,0.16-0.17,0.2c-0.05,0.02-0.109,0.03-0.16,0.03c-0.04,0-0.07,0-0.109-0.01
		l-4.039-1.31c-0.182-0.06-0.28-0.25-0.23-0.43c0.43-1.35,0.7-2.72,0.82-4.07c0.02-0.18,0.17-0.32,0.34-0.32
		c0.01,0,0.02,0.01,0.029,0.01l4.24,0.36c0.09,0.01,0.17,0.05,0.229,0.12c0.06,0.07,0.09,0.16,0.08,0.25
		C185.256,43.949,184.907,45.689,184.376,47.399z"/>
	<path id="path5" inkscape:connector-curvature="0" fill="#010101" d="M297.907,106.878c0.085,0.172,0.085,0.258-0.172,0.258H283.5
		c-0.172,0-0.257-0.172-0.172-0.344l6.858-17.92c0.086-0.172,0.174-0.172,0.26,0L297.907,106.878L297.907,106.878z M311.882,120.941
		c0,0-1.715-2.916-2.485-4.545l-15.777-34.984c-0.515-1.029-4.287-1.115-4.716,0l-16.894,39.357
		c-0.257,0.688-0.086,1.373,0.857,1.373h3.772c0.771,0,1.114-0.258,1.371-0.943l3.773-10.377c0.086-0.17,0.257-0.428,0.6-0.428
		h16.379c0.342,0,0.6,0.258,0.687,0.428l2.313,5.746l1.889,4.631c0.257,0.6,0.771,0.943,1.543,0.943h5.831
		C311.797,122.142,312.311,121.712,311.882,120.941 M267.646,121.198v-3.43c0-0.857-0.856-0.943-1.457-0.857
		c0,0-7.633,1.285-11.404,1.285h-6.002c-0.857,0-1.543-0.6-1.543-1.371l-0.086-15.264l0.086-19.551c0-0.686-0.516-1.027-1.287-1.027
		h-4.373c-0.771,0-1.2,0.344-1.2,1.027l0.086,19.551l-0.086,19.551c0,0.686,0.429,1.029,1.2,1.029h24.609
		C266.96,122.142,267.646,121.884,267.646,121.198 M229.668,82.353c0-0.6-0.171-1.371-1.028-1.371h-4.545
		c-0.857,0-1.115,0.771-1.027,1.371c0,0,0.343,2.83,0.343,4.891l0.257,22.723c0.086,6.516-4.545,9.174-9.947,9.174
		c-6.174,0-11.146-3.686-11.146-9.861l0.086-22.723l0.171-4.545c0-0.686-0.516-1.027-1.286-1.027h-4.63
		c-0.771,0-1.286,0.344-1.286,1.027l0.085,4.545l0.258,23.238c0.086,9.004,6.688,13.463,17.406,13.463
		c9.518,0,15.178-4.545,15.436-13.463l0.601-22.637C229.498,85.013,229.668,82.353,229.668,82.353 M187.489,82.353
		c0.258-0.6,0.172-1.371-0.771-1.371h-3.945c-0.771,0-1.112,0.258-1.371,0.943l-11.746,32.328c-0.086,0.086-0.516,0.172-0.602,0
		l-10.89-27.783l-1.887-4.545c-0.257-0.6-0.771-0.943-1.543-0.943h-5.745c-0.772,0-1.201,0.43-0.858,1.201l2.144,4.543
		l15.692,35.072c0.171,0.43,1.63,0.771,2.487,0.771c0.855,0,2.314-0.43,2.484-0.857L187.489,82.353L187.489,82.353z M136.22,106.878
		c0.086,0.172,0.086,0.258-0.171,0.258h-14.234c-0.172,0-0.258-0.172-0.172-0.344l6.86-17.92c0.086-0.172,0.172-0.172,0.257,0
		L136.22,106.878z M150.197,120.941c0,0-1.715-2.916-2.487-4.545l-15.777-34.984c-0.515-1.029-4.287-1.115-4.716,0l-16.892,39.357
		c-0.258,0.688-0.086,1.373,0.857,1.373h3.773c0.772,0,1.115-0.258,1.372-0.943l3.773-10.377c0.085-0.17,0.257-0.428,0.6-0.428
		h16.378c0.343,0,0.6,0.258,0.686,0.428l2.315,5.746l1.886,4.631c0.258,0.6,0.772,0.943,1.544,0.943h5.831
		C150.111,122.142,150.626,121.712,150.197,120.941 M112.391,82.269c0.429-0.6,0.343-1.285-0.6-1.285h-3.773
		c-0.686,0-1.115,0.086-1.543,0.686L94.813,100.62c-0.086,0.172-0.429,0.172-0.514,0L81.521,81.927
		c-0.429-0.602-1.029-0.943-1.801-0.943h-5.745c-0.857,0-1.114,0.516-0.6,1.199l16.549,22.637c0.258,0.344,0.429,0.859,0.429,1.287
		l-0.086,15.006c0,0.686,0.515,1.029,1.287,1.029h4.373c0.771,0,1.2-0.344,1.2-1.029l-0.086-16.293c0-0.428,0.258-0.941,0.515-1.285
		L112.391,82.269z M64.81,121.113l-0.086-19.551l0.086-19.551c0-0.686-0.515-1.027-1.287-1.027H59.15c-0.771,0-1.2,0.344-1.2,1.027
		l0.086,19.551l-0.086,19.551c0,0.686,0.429,1.029,1.2,1.029h4.373C64.294,122.142,64.81,121.798,64.81,121.113 M46.21,108.593
		c0-19.293-28.897-14.664-28.897-28.467c0-4.031,3.43-6.518,8.318-6.518c7.117,0,11.747,2.315,15.263,4.373
		c0.6,0.344,1.2,0.258,1.372-0.43l1.029-5.229c0.085-0.515,0-1.115-0.601-1.115c-3.944-0.257-9.175-1.543-16.892-1.543
		c-8.575,0-14.748,4.887-14.748,13.548c0,17.063,28.811,13.635,28.811,27.182c0,4.975-4.974,8.746-10.89,8.746
		c-6.517,0-11.662-2.658-15.178-6.344c-0.514-0.516-1.286-0.602-1.457,0.084l-1.458,5.316c-0.171,0.516-0.086,1.201,0.515,1.457
		c4.201,1.717,8.917,3.518,16.892,3.518C37.893,123.171,46.21,119.226,46.21,108.593"/>
	<path id="path7" inkscape:connector-curvature="0" fill="#048AB2" d="M299.354,139.648c-0.07,0.02-0.238,0.039-0.506,0.061
		c-0.268,0.02-0.584,0.027-0.951,0.027c-0.613,0-1.17-0.072-1.67-0.221c-0.5-0.15-0.934-0.375-1.301-0.676
		c-0.365-0.303-0.646-0.691-0.846-1.166c-0.198-0.477-0.297-1.039-0.297-1.693c0-0.584,0.091-1.111,0.273-1.582
		c0.185-0.469,0.443-0.869,0.779-1.195c0.337-0.326,0.732-0.576,1.188-0.75c0.457-0.174,0.961-0.26,1.516-0.26
		c0.355,0,0.684,0.033,0.98,0.098c0.295,0.066,0.565,0.143,0.809,0.236c0.242,0.096,0.451,0.201,0.624,0.32s0.313,0.232,0.423,0.342
		c0.061-0.041,0.129-0.094,0.208-0.164c0.079-0.068,0.155-0.15,0.229-0.246c0.074-0.094,0.14-0.197,0.192-0.311
		c0.056-0.113,0.082-0.236,0.082-0.365c0-0.137-0.042-0.273-0.126-0.408c-0.084-0.133-0.215-0.26-0.395-0.379
		c-0.1-0.068-0.234-0.143-0.407-0.221c-0.173-0.08-0.384-0.156-0.632-0.232c-0.248-0.072-0.534-0.135-0.86-0.184
		c-0.327-0.051-0.692-0.074-1.099-0.074c-0.803,0-1.547,0.123-2.235,0.371c-0.688,0.246-1.285,0.604-1.79,1.068
		c-0.505,0.467-0.9,1.029-1.188,1.693c-0.287,0.662-0.432,1.41-0.432,2.24c0,0.883,0.146,1.656,0.438,2.324
		c0.293,0.668,0.699,1.227,1.219,1.67c0.52,0.445,1.141,0.783,1.863,1.012s1.515,0.342,2.375,0.342c0.387,0,0.759-0.01,1.115-0.029
		c0.354-0.02,0.68-0.045,0.973-0.074c0.291-0.029,0.541-0.057,0.748-0.082c0.209-0.025,0.353-0.047,0.432-0.066v-4.693
		c0-0.672-0.352-1.01-1.054-1.01h-3.074c-0.04,0.051-0.087,0.148-0.142,0.297c-0.056,0.148-0.082,0.322-0.082,0.52
		c0,0.518,0.293,0.773,0.877,0.773h1.738v2.688H299.354z M280.795,141.058h1.752v-7.662c0.257,0.357,0.542,0.754,0.854,1.195
		c0.312,0.439,0.631,0.902,0.957,1.381c0.328,0.48,0.652,0.963,0.979,1.449c0.327,0.484,0.642,0.953,0.943,1.402
		c0.302,0.451,0.577,0.865,0.823,1.246c0.248,0.383,0.461,0.711,0.64,0.986h1.782v-9.992c-0.051-0.029-0.151-0.068-0.307-0.119
		c-0.152-0.051-0.328-0.072-0.525-0.072c-0.287,0-0.51,0.064-0.668,0.199c-0.159,0.135-0.238,0.34-0.238,0.617v6.547
		c-0.218-0.336-0.473-0.729-0.766-1.172c-0.291-0.445-0.602-0.906-0.928-1.383c-0.326-0.475-0.656-0.953-0.986-1.434
		c-0.332-0.48-0.646-0.926-0.938-1.336s-0.549-0.768-0.771-1.068c-0.223-0.303-0.383-0.514-0.482-0.633
		c-0.068-0.049-0.193-0.117-0.371-0.207s-0.406-0.133-0.683-0.133c-0.287,0-0.537,0.07-0.75,0.215
		c-0.214,0.145-0.319,0.389-0.319,0.734L280.795,141.058L280.795,141.058z M276.146,141.058h1.767V131.05
		c-0.05-0.021-0.154-0.055-0.312-0.105c-0.158-0.049-0.332-0.072-0.521-0.072c-0.287,0-0.515,0.066-0.683,0.199
		c-0.168,0.135-0.252,0.34-0.252,0.617V141.058L276.146,141.058z M264.522,141.058h1.752v-7.662
		c0.258,0.357,0.541,0.754,0.854,1.195c0.313,0.439,0.631,0.902,0.958,1.381c0.327,0.48,0.653,0.963,0.979,1.449
		c0.328,0.484,0.642,0.953,0.942,1.402c0.304,0.451,0.577,0.865,0.824,1.246c0.248,0.383,0.461,0.711,0.64,0.986h1.781v-9.992
		c-0.05-0.029-0.15-0.068-0.305-0.119c-0.153-0.051-0.329-0.072-0.527-0.072c-0.287,0-0.51,0.064-0.668,0.199
		s-0.238,0.34-0.238,0.617v6.547c-0.218-0.336-0.473-0.729-0.764-1.172c-0.293-0.445-0.602-0.906-0.929-1.383
		c-0.326-0.475-0.655-0.953-0.987-1.434s-0.645-0.926-0.936-1.336c-0.293-0.41-0.551-0.768-0.772-1.068
		c-0.223-0.303-0.384-0.514-0.481-0.633c-0.069-0.049-0.193-0.117-0.371-0.207c-0.18-0.09-0.406-0.133-0.685-0.133
		c-0.286,0-0.536,0.07-0.75,0.215c-0.213,0.145-0.317,0.389-0.317,0.734V141.058L264.522,141.058z M255.599,132.312
		c0.078-0.02,0.25-0.039,0.512-0.059c0.263-0.021,0.642-0.031,1.137-0.031c0.564,0,1.031,0.051,1.402,0.15
		c0.373,0.098,0.666,0.229,0.885,0.398c0.218,0.17,0.371,0.361,0.46,0.578c0.089,0.221,0.134,0.451,0.134,0.699
		c0,0.268-0.047,0.512-0.141,0.734s-0.254,0.412-0.477,0.572c-0.223,0.158-0.515,0.281-0.876,0.371
		c-0.36,0.088-0.81,0.133-1.344,0.133c-0.485,0-0.856-0.014-1.114-0.045c-0.258-0.029-0.449-0.053-0.578-0.072V132.312
		L255.599,132.312z M253.875,141.058h1.724v-3.801c0.129,0.02,0.346,0.043,0.652,0.066c0.309,0.023,0.635,0.037,0.98,0.037
		c0.156,0,0.328-0.008,0.512-0.016c0.184-0.01,0.359-0.023,0.527-0.045c0.139,0.189,0.313,0.457,0.52,0.811
		c0.208,0.352,0.416,0.719,0.624,1.1s0.401,0.742,0.579,1.084s0.307,0.596,0.386,0.764h2.05c-0.168-0.326-0.349-0.672-0.541-1.039
		s-0.395-0.736-0.603-1.105c-0.208-0.371-0.418-0.73-0.631-1.076c-0.214-0.348-0.423-0.664-0.632-0.951
		c0.595-0.258,1.063-0.619,1.402-1.084c0.342-0.465,0.514-1.055,0.514-1.768c0-1.02-0.387-1.826-1.158-2.422
		c-0.772-0.594-1.936-0.891-3.489-0.891c-0.772,0-1.362,0.018-1.769,0.053c-0.405,0.035-0.684,0.066-0.83,0.098
		c-0.229,0.049-0.422,0.143-0.579,0.281c-0.159,0.139-0.238,0.365-0.238,0.684V141.058L253.875,141.058z M244.75,136.841
		c0.147-0.387,0.308-0.781,0.476-1.188s0.338-0.807,0.506-1.195c0.168-0.393,0.332-0.764,0.488-1.115
		c0.158-0.35,0.303-0.664,0.432-0.943c0.09,0.18,0.211,0.441,0.363,0.789c0.153,0.346,0.316,0.73,0.49,1.15s0.35,0.852,0.527,1.291
		c0.178,0.441,0.336,0.844,0.475,1.211H244.75L244.75,136.841z M243.117,141.058c0.108-0.307,0.25-0.689,0.424-1.15
		c0.173-0.461,0.368-0.963,0.586-1.508h4.976c0.078,0.199,0.168,0.428,0.268,0.684c0.1,0.258,0.195,0.512,0.29,0.766
		c0.094,0.252,0.18,0.486,0.26,0.705c0.079,0.219,0.144,0.387,0.192,0.504h1.961c-0.079-0.217-0.219-0.578-0.416-1.09
		c-0.198-0.51-0.428-1.094-0.69-1.754c-0.263-0.658-0.547-1.354-0.854-2.094c-0.307-0.736-0.606-1.445-0.898-2.123
		s-0.563-1.289-0.814-1.834c-0.254-0.543-0.459-0.955-0.617-1.232c-0.01-0.01-0.047-0.031-0.111-0.066
		c-0.064-0.033-0.145-0.07-0.238-0.109s-0.201-0.074-0.324-0.105c-0.125-0.029-0.25-0.043-0.381-0.043
		c-0.347,0-0.634,0.076-0.859,0.23c-0.229,0.152-0.432,0.428-0.609,0.822c-0.355,0.793-0.716,1.604-1.076,2.436
		c-0.361,0.832-0.711,1.652-1.048,2.459c-0.336,0.807-0.657,1.594-0.965,2.361c-0.308,0.766-0.584,1.482-0.832,2.145h1.779V141.058z
		 M232.083,141.058h7.588v-1.619h-5.791v-2.775h5.436c0.041-0.051,0.088-0.15,0.142-0.305c0.054-0.152,0.082-0.324,0.082-0.512
		c0-0.535-0.292-0.803-0.876-0.803h-4.782v-2.555h5.658c0.03-0.049,0.074-0.15,0.133-0.307c0.062-0.15,0.091-0.322,0.091-0.512
		c0-0.535-0.298-0.801-0.892-0.801h-5.703c-0.724,0-1.084,0.336-1.084,1.01L232.083,141.058L232.083,141.058z M223.278,141.058
		h7.009v-1.619h-5.242v-8.389c-0.049-0.021-0.153-0.055-0.312-0.105c-0.158-0.049-0.332-0.072-0.521-0.072
		c-0.287,0-0.515,0.066-0.683,0.199c-0.17,0.135-0.254,0.34-0.254,0.617v9.369H223.278z M207.285,141.058
		c0.05,0.01,0.327,0.037,0.832,0.082s1.286,0.066,2.346,0.066c1,0,1.884-0.121,2.651-0.363c0.767-0.242,1.41-0.592,1.93-1.047
		c0.521-0.455,0.914-1.008,1.182-1.656c0.268-0.646,0.4-1.379,0.4-2.189c0-0.803-0.139-1.527-0.416-2.176s-0.676-1.197-1.195-1.648
		c-0.519-0.451-1.152-0.797-1.899-1.039c-0.748-0.242-1.593-0.365-2.532-0.365c-0.654,0-1.191,0.012-1.611,0.031
		c-0.421,0.021-0.758,0.066-1.01,0.141c-0.253,0.074-0.429,0.188-0.525,0.334c-0.101,0.148-0.149,0.354-0.149,0.609v9.221H207.285z
		 M209.051,132.372c0.04-0.012,0.191-0.027,0.453-0.053c0.263-0.025,0.632-0.037,1.106-0.037c0.723,0,1.347,0.092,1.871,0.273
		c0.523,0.184,0.955,0.438,1.293,0.758c0.336,0.322,0.586,0.709,0.75,1.158c0.162,0.451,0.244,0.943,0.244,1.479
		c0,1.168-0.356,2.07-1.069,2.711c-0.712,0.637-1.742,0.957-3.089,0.957c-0.465,0-0.826-0.014-1.084-0.037
		c-0.258-0.025-0.416-0.047-0.477-0.066L209.051,132.372L209.051,132.372z M197.144,141.058h7.588v-1.619h-5.791v-2.775h5.435
		c0.039-0.051,0.086-0.15,0.142-0.305c0.055-0.152,0.082-0.324,0.082-0.512c0-0.535-0.293-0.803-0.877-0.803h-4.781v-2.555h5.658
		c0.028-0.049,0.073-0.15,0.133-0.307c0.061-0.15,0.09-0.322,0.09-0.512c0-0.535-0.297-0.801-0.893-0.801h-5.701
		c-0.724,0-1.084,0.336-1.084,1.01V141.058L197.144,141.058z M188.218,132.312c0.08-0.02,0.25-0.039,0.514-0.059
		c0.263-0.021,0.642-0.031,1.137-0.031c0.563,0,1.031,0.051,1.402,0.15c0.371,0.098,0.666,0.229,0.885,0.398
		c0.217,0.17,0.371,0.361,0.46,0.578c0.089,0.221,0.134,0.451,0.134,0.699c0,0.268-0.047,0.512-0.141,0.734
		c-0.096,0.223-0.254,0.412-0.478,0.572c-0.222,0.158-0.514,0.281-0.876,0.371c-0.359,0.088-0.809,0.133-1.344,0.133
		c-0.485,0-0.855-0.014-1.113-0.045c-0.258-0.029-0.451-0.053-0.58-0.072V132.312z M186.497,141.058h1.723v-3.801
		c0.129,0.02,0.348,0.043,0.653,0.066c0.308,0.023,0.633,0.037,0.979,0.037c0.158,0,0.328-0.008,0.513-0.016
		c0.183-0.01,0.358-0.023,0.526-0.045c0.14,0.189,0.312,0.457,0.521,0.811c0.209,0.352,0.416,0.719,0.624,1.1s0.4,0.742,0.579,1.084
		c0.178,0.342,0.307,0.596,0.386,0.764h2.049c-0.168-0.326-0.348-0.672-0.542-1.039c-0.192-0.367-0.393-0.736-0.601-1.105
		c-0.208-0.371-0.418-0.73-0.631-1.076c-0.213-0.348-0.424-0.664-0.631-0.951c0.594-0.258,1.062-0.619,1.401-1.084
		c0.343-0.465,0.513-1.055,0.513-1.768c0-1.02-0.387-1.826-1.158-2.422c-0.771-0.594-1.936-0.891-3.489-0.891
		c-0.772,0-1.361,0.018-1.767,0.053c-0.406,0.035-0.685,0.066-0.832,0.098c-0.229,0.049-0.42,0.143-0.58,0.281
		c-0.157,0.139-0.236,0.365-0.236,0.684V141.058L186.497,141.058z M176.354,141.058h7.588v-1.619h-5.791v-2.775h5.435
		c0.04-0.051,0.087-0.15,0.144-0.305c0.054-0.152,0.08-0.324,0.08-0.512c0-0.535-0.293-0.803-0.877-0.803h-4.781v-2.555h5.658
		c0.029-0.049,0.073-0.15,0.135-0.307c0.059-0.15,0.089-0.322,0.089-0.512c0-0.535-0.298-0.801-0.892-0.801h-5.701
		c-0.725,0-1.084,0.336-1.084,1.01v9.178H176.354z M165.09,141.058c0.069-0.188,0.156-0.439,0.261-0.756
		c0.104-0.318,0.217-0.676,0.342-1.078c0.123-0.4,0.252-0.828,0.386-1.283c0.134-0.457,0.265-0.914,0.394-1.375
		c0.129-0.459,0.252-0.912,0.371-1.357s0.225-0.852,0.313-1.219c0.089,0.377,0.189,0.787,0.305,1.232
		c0.113,0.445,0.232,0.904,0.355,1.375c0.125,0.469,0.252,0.934,0.387,1.395c0.134,0.461,0.257,0.889,0.371,1.285
		c0.113,0.396,0.22,0.75,0.32,1.063c0.098,0.311,0.178,0.551,0.235,0.719h1.99c0.317-0.801,0.642-1.645,0.973-2.531
		s0.648-1.768,0.95-2.643c0.303-0.877,0.587-1.719,0.854-2.525c0.268-0.807,0.49-1.537,0.668-2.189
		c-0.039-0.031-0.147-0.088-0.326-0.172c-0.178-0.084-0.406-0.125-0.684-0.125c-0.316,0-0.56,0.076-0.728,0.229
		c-0.169,0.154-0.302,0.4-0.401,0.736c-0.119,0.416-0.26,0.898-0.423,1.447c-0.164,0.549-0.342,1.137-0.535,1.76
		c-0.192,0.623-0.397,1.266-0.614,1.924c-0.22,0.658-0.438,1.305-0.654,1.939c-0.188-0.635-0.379-1.305-0.571-2.006
		c-0.192-0.703-0.379-1.396-0.558-2.086c-0.178-0.689-0.348-1.354-0.504-1.99c-0.16-0.641-0.297-1.215-0.416-1.73
		c-0.051-0.029-0.164-0.076-0.342-0.135c-0.18-0.059-0.383-0.088-0.608-0.088c-0.337,0-0.582,0.084-0.735,0.252
		c-0.152,0.168-0.27,0.391-0.349,0.668c-0.07,0.277-0.179,0.693-0.327,1.248s-0.316,1.168-0.505,1.84
		c-0.188,0.674-0.384,1.367-0.587,2.08s-0.395,1.367-0.571,1.961c-0.14-0.377-0.285-0.795-0.438-1.256s-0.312-0.936-0.477-1.426
		c-0.163-0.49-0.324-0.982-0.482-1.477c-0.158-0.496-0.31-0.971-0.453-1.426s-0.272-0.877-0.385-1.264
		c-0.114-0.385-0.206-0.717-0.275-0.994c-0.04-0.021-0.131-0.063-0.275-0.119c-0.143-0.059-0.329-0.088-0.557-0.088
		c-0.297,0-0.522,0.076-0.675,0.229c-0.154,0.154-0.23,0.359-0.23,0.617c0,0.197,0.044,0.436,0.133,0.713
		c0.089,0.277,0.188,0.594,0.297,0.951c0.05,0.168,0.136,0.428,0.26,0.779s0.265,0.754,0.423,1.209
		c0.159,0.457,0.332,0.945,0.52,1.471c0.188,0.523,0.379,1.043,0.572,1.551c0.192,0.51,0.378,0.998,0.558,1.463
		c0.178,0.467,0.336,0.867,0.475,1.203H165.09L165.09,141.058z M151.851,139.425c-0.436-0.188-0.815-0.447-1.136-0.779
		c-0.322-0.332-0.572-0.725-0.75-1.182c-0.178-0.455-0.267-0.955-0.267-1.5c0-0.543,0.089-1.045,0.267-1.506
		c0.178-0.461,0.428-0.857,0.75-1.189c0.321-0.33,0.7-0.588,1.136-0.771c0.435-0.184,0.911-0.275,1.426-0.275
		c0.514,0,0.989,0.094,1.425,0.275c0.436,0.184,0.812,0.441,1.129,0.771c0.316,0.332,0.566,0.729,0.75,1.189
		c0.183,0.461,0.274,0.963,0.274,1.506c0,0.545-0.091,1.045-0.274,1.5c-0.184,0.457-0.434,0.85-0.75,1.182
		c-0.317,0.332-0.693,0.592-1.129,0.779s-0.911,0.283-1.425,0.283C152.762,139.708,152.286,139.613,151.851,139.425 M151.13,131.013
		c-0.659,0.271-1.233,0.648-1.723,1.129c-0.49,0.48-0.874,1.047-1.151,1.699c-0.277,0.654-0.416,1.361-0.416,2.123
		c0,0.764,0.139,1.471,0.416,2.125c0.277,0.652,0.661,1.219,1.151,1.699c0.49,0.479,1.064,0.855,1.723,1.129
		c0.658,0.271,1.373,0.408,2.146,0.408c0.772,0,1.487-0.137,2.145-0.408c0.659-0.271,1.233-0.648,1.723-1.129
		s0.874-1.047,1.151-1.699c0.277-0.654,0.416-1.361,0.416-2.125c0-0.762-0.139-1.469-0.416-2.123
		c-0.277-0.652-0.661-1.219-1.151-1.699s-1.064-0.857-1.723-1.129c-0.658-0.273-1.373-0.408-2.145-0.408
		C152.503,130.605,151.789,130.74,151.13,131.013 M137.908,141.058h1.723v-3.623c0.03,0,0.109,0.01,0.238,0.029
		c0.128,0.02,0.282,0.037,0.46,0.053c0.178,0.014,0.374,0.029,0.587,0.045c0.212,0.016,0.423,0.021,0.631,0.021
		c0.821,0,1.519-0.086,2.094-0.26c0.574-0.174,1.039-0.412,1.395-0.723c0.357-0.307,0.617-0.67,0.78-1.09
		c0.163-0.422,0.245-0.875,0.245-1.357c0-1.041-0.386-1.871-1.158-2.496c-0.772-0.623-1.951-0.938-3.535-0.938
		c-0.772,0-1.366,0.02-1.782,0.055c-0.415,0.033-0.703,0.064-0.861,0.098c-0.228,0.049-0.421,0.143-0.579,0.281
		c-0.158,0.139-0.238,0.363-0.238,0.684V141.058L137.908,141.058z M139.63,132.312c0.079-0.02,0.262-0.039,0.549-0.059
		c0.288-0.021,0.669-0.031,1.144-0.031c0.594,0,1.081,0.055,1.463,0.164c0.381,0.109,0.68,0.252,0.898,0.43
		c0.218,0.18,0.366,0.385,0.446,0.617c0.079,0.232,0.118,0.473,0.118,0.721c0,0.268-0.044,0.518-0.133,0.75
		c-0.089,0.232-0.24,0.438-0.453,0.615s-0.503,0.318-0.869,0.416c-0.366,0.1-0.822,0.148-1.366,0.148
		c-0.495,0-0.901-0.021-1.218-0.066s-0.51-0.072-0.579-0.082V132.312L139.63,132.312z M131.688,136.187
		c-0.029,0.07-0.064,0.174-0.104,0.313c-0.039,0.139-0.059,0.293-0.059,0.461c0,0.258,0.057,0.465,0.171,0.623
		c0.113,0.16,0.314,0.238,0.601,0.238h2.985c0.03-0.068,0.064-0.178,0.104-0.32c0.039-0.143,0.059-0.293,0.059-0.453
		c0-0.246-0.059-0.451-0.178-0.615s-0.322-0.246-0.609-0.246H131.688L131.688,136.187z M125.622,141.058h1.767v-3.83
		c0.208-0.277,0.44-0.592,0.698-0.943c0.257-0.352,0.522-0.719,0.794-1.1c0.273-0.381,0.542-0.766,0.81-1.158
		c0.267-0.391,0.517-0.762,0.75-1.113c0.232-0.352,0.438-0.674,0.616-0.965c0.178-0.293,0.312-0.527,0.401-0.705
		c-0.04-0.039-0.149-0.111-0.327-0.217c-0.178-0.104-0.401-0.154-0.668-0.154c-0.307,0-0.545,0.07-0.713,0.215
		s-0.307,0.299-0.416,0.467c-0.178,0.277-0.378,0.59-0.601,0.938c-0.223,0.348-0.456,0.701-0.698,1.061
		c-0.243,0.361-0.49,0.725-0.743,1.084c-0.252,0.361-0.497,0.701-0.735,1.02c-0.247-0.316-0.529-0.693-0.846-1.129
		c-0.317-0.438-0.631-0.875-0.943-1.314c-0.312-0.441-0.601-0.854-0.869-1.24c-0.267-0.385-0.475-0.693-0.623-0.92
		c-0.05-0.021-0.137-0.055-0.26-0.105c-0.124-0.049-0.285-0.072-0.483-0.072c-0.248,0-0.445,0.066-0.594,0.199
		c-0.148,0.135-0.223,0.314-0.223,0.541c0,0.209,0.084,0.445,0.253,0.707c0.168,0.262,0.341,0.518,0.519,0.766
		c0.159,0.229,0.367,0.516,0.624,0.867c0.258,0.352,0.535,0.723,0.832,1.113c0.297,0.393,0.591,0.781,0.883,1.166
		c0.292,0.387,0.557,0.719,0.795,0.996V141.058L125.622,141.058z M118.286,139.648c-0.069,0.02-0.238,0.039-0.505,0.061
		c-0.267,0.02-0.584,0.027-0.95,0.027c-0.614,0-1.171-0.072-1.671-0.221c-0.5-0.15-0.933-0.375-1.299-0.676
		c-0.367-0.303-0.649-0.691-0.847-1.166c-0.198-0.477-0.297-1.039-0.297-1.693c0-0.584,0.092-1.111,0.275-1.582
		c0.183-0.469,0.443-0.869,0.78-1.195c0.336-0.326,0.732-0.576,1.188-0.75c0.455-0.174,0.96-0.26,1.514-0.26
		c0.357,0,0.683,0.033,0.98,0.098c0.297,0.066,0.567,0.143,0.81,0.236c0.242,0.096,0.45,0.201,0.623,0.32
		c0.174,0.119,0.315,0.232,0.424,0.342c0.059-0.041,0.128-0.094,0.208-0.164c0.079-0.068,0.156-0.15,0.23-0.246
		c0.074-0.094,0.138-0.197,0.193-0.311c0.054-0.113,0.081-0.236,0.081-0.365c0-0.137-0.042-0.273-0.126-0.408
		c-0.084-0.133-0.215-0.26-0.393-0.379c-0.099-0.068-0.236-0.143-0.409-0.221c-0.173-0.08-0.383-0.156-0.631-0.232
		c-0.247-0.072-0.534-0.135-0.861-0.184c-0.327-0.051-0.693-0.074-1.099-0.074c-0.802,0-1.547,0.123-2.235,0.371
		c-0.688,0.246-1.284,0.604-1.789,1.068c-0.505,0.467-0.901,1.029-1.188,1.693c-0.288,0.662-0.431,1.41-0.431,2.24
		c0,0.883,0.146,1.656,0.438,2.324s0.698,1.227,1.218,1.67c0.52,0.445,1.141,0.783,1.863,1.012c0.723,0.229,1.515,0.342,2.376,0.342
		c0.387,0,0.758-0.01,1.114-0.029c0.357-0.02,0.681-0.045,0.973-0.074s0.542-0.057,0.75-0.082s0.351-0.047,0.43-0.066v-4.693
		c0-0.672-0.351-1.01-1.054-1.01h-3.074c-0.039,0.051-0.087,0.148-0.141,0.297c-0.054,0.148-0.082,0.322-0.082,0.52
		c0,0.518,0.292,0.773,0.877,0.773h1.737V139.648L118.286,139.648z M102.13,139.425c-0.436-0.188-0.814-0.447-1.136-0.779
		c-0.322-0.332-0.572-0.725-0.75-1.182c-0.178-0.455-0.267-0.955-0.267-1.5c0-0.543,0.089-1.045,0.267-1.506
		c0.178-0.461,0.428-0.857,0.75-1.189c0.322-0.33,0.7-0.588,1.136-0.771c0.435-0.184,0.911-0.275,1.426-0.275
		c0.514,0,0.989,0.094,1.425,0.275c0.436,0.184,0.812,0.441,1.129,0.771c0.316,0.332,0.566,0.729,0.75,1.189
		c0.183,0.461,0.274,0.963,0.274,1.506c0,0.545-0.091,1.045-0.274,1.5c-0.184,0.457-0.434,0.85-0.75,1.182
		c-0.317,0.332-0.693,0.592-1.129,0.779s-0.911,0.283-1.425,0.283C103.042,139.708,102.565,139.613,102.13,139.425 M101.411,131.013
		c-0.659,0.271-1.233,0.648-1.723,1.129c-0.49,0.48-0.874,1.047-1.151,1.699c-0.277,0.654-0.416,1.361-0.416,2.123
		c0,0.764,0.139,1.471,0.416,2.125c0.277,0.652,0.661,1.219,1.151,1.699c0.49,0.479,1.064,0.855,1.723,1.129
		c0.658,0.27,1.373,0.408,2.146,0.408c0.772,0,1.487-0.137,2.145-0.408c0.659-0.271,1.233-0.648,1.723-1.129
		c0.49-0.48,0.874-1.047,1.151-1.699c0.277-0.654,0.416-1.361,0.416-2.125c0-0.762-0.139-1.469-0.416-2.123
		c-0.277-0.652-0.661-1.219-1.151-1.699c-0.49-0.48-1.064-0.857-1.723-1.129c-0.658-0.273-1.373-0.408-2.145-0.408
		C102.784,130.605,102.069,130.74,101.411,131.013 M90.09,141.058h7.01v-1.619h-5.242v-8.389c-0.05-0.021-0.154-0.055-0.312-0.105
		c-0.158-0.049-0.332-0.072-0.52-0.072c-0.287,0-0.515,0.066-0.683,0.199c-0.168,0.135-0.252,0.34-0.252,0.617L90.09,141.058
		L90.09,141.058z M80.851,139.425c-0.435-0.188-0.814-0.447-1.136-0.779c-0.322-0.332-0.571-0.725-0.75-1.182
		c-0.178-0.455-0.267-0.955-0.267-1.5c0-0.543,0.089-1.045,0.267-1.506c0.179-0.461,0.428-0.857,0.75-1.189
		c0.322-0.33,0.701-0.588,1.136-0.771c0.436-0.184,0.911-0.275,1.426-0.275c0.515,0,0.99,0.094,1.425,0.275
		c0.436,0.184,0.812,0.441,1.129,0.771c0.317,0.332,0.567,0.729,0.75,1.189c0.183,0.459,0.275,0.963,0.275,1.506
		c0,0.545-0.092,1.045-0.275,1.5c-0.183,0.457-0.433,0.85-0.75,1.182s-0.693,0.592-1.129,0.779c-0.435,0.188-0.91,0.283-1.425,0.283
		C81.762,139.708,81.287,139.613,80.851,139.425 M80.13,131.013c-0.658,0.271-1.232,0.648-1.723,1.129
		c-0.49,0.48-0.873,1.047-1.15,1.699c-0.278,0.654-0.416,1.361-0.416,2.123c0,0.764,0.138,1.471,0.416,2.125
		c0.277,0.652,0.66,1.219,1.15,1.699c0.491,0.479,1.065,0.855,1.723,1.129c0.658,0.27,1.374,0.408,2.146,0.408
		s1.487-0.137,2.146-0.408c0.658-0.271,1.232-0.648,1.722-1.129s0.874-1.047,1.151-1.699c0.277-0.654,0.416-1.361,0.416-2.125
		c0-0.762-0.139-1.469-0.416-2.123c-0.277-0.652-0.661-1.219-1.151-1.699s-1.064-0.857-1.722-1.129
		c-0.659-0.273-1.374-0.408-2.146-0.408S80.789,130.74,80.13,131.013 M65.739,141.058h1.752v-7.662
		c0.257,0.357,0.542,0.754,0.854,1.195c0.312,0.439,0.631,0.902,0.958,1.381c0.326,0.48,0.653,0.963,0.98,1.449
		c0.326,0.484,0.641,0.953,0.943,1.402c0.302,0.451,0.576,0.863,0.824,1.246c0.247,0.383,0.46,0.711,0.638,0.986h1.782v-9.994
		c-0.049-0.027-0.151-0.066-0.304-0.117c-0.154-0.051-0.329-0.072-0.527-0.072c-0.287,0-0.51,0.064-0.668,0.199
		c-0.159,0.135-0.238,0.34-0.238,0.615v6.549c-0.218-0.336-0.473-0.729-0.765-1.174c-0.292-0.443-0.601-0.904-0.928-1.381
		c-0.327-0.475-0.656-0.953-0.987-1.434c-0.332-0.48-0.644-0.926-0.936-1.336s-0.549-0.768-0.772-1.068
		c-0.223-0.303-0.384-0.514-0.483-0.633c-0.069-0.049-0.193-0.117-0.371-0.207c-0.178-0.09-0.406-0.133-0.683-0.133
		c-0.287,0-0.537,0.07-0.75,0.215c-0.213,0.143-0.319,0.389-0.319,0.734V141.058L65.739,141.058z M54.085,141.058h1.767v-4.484
		h5.227v4.484h1.767v-9.994c-0.049-0.029-0.153-0.068-0.311-0.119c-0.159-0.049-0.337-0.072-0.535-0.072
		c-0.287,0-0.512,0.066-0.676,0.199c-0.163,0.135-0.245,0.34-0.245,0.617v3.268h-5.227v-3.906c-0.05-0.02-0.153-0.055-0.312-0.104
		c-0.158-0.049-0.332-0.072-0.519-0.072c-0.288,0-0.515,0.066-0.684,0.199c-0.168,0.135-0.252,0.34-0.252,0.617V141.058z
		 M52.114,140.376l-0.787-1.352c-0.208,0.139-0.537,0.285-0.987,0.443c-0.451,0.158-0.988,0.238-1.612,0.238
		c-0.525,0-1.015-0.08-1.47-0.238c-0.455-0.158-0.851-0.393-1.188-0.705c-0.337-0.311-0.601-0.697-0.794-1.16
		c-0.193-0.459-0.29-0.99-0.29-1.596c0-0.594,0.092-1.125,0.275-1.596c0.183-0.471,0.433-0.871,0.75-1.203
		c0.316-0.332,0.693-0.584,1.128-0.758c0.436-0.174,0.906-0.26,1.411-0.26c0.347,0,0.668,0.037,0.965,0.111s0.565,0.166,0.802,0.275
		c0.238,0.107,0.443,0.229,0.617,0.354c0.173,0.129,0.309,0.248,0.408,0.357c0.059-0.029,0.128-0.08,0.208-0.148
		c0.079-0.068,0.156-0.148,0.23-0.246c0.074-0.094,0.138-0.199,0.193-0.316c0.054-0.119,0.082-0.242,0.082-0.371
		c0-0.119-0.052-0.271-0.156-0.453c-0.104-0.184-0.287-0.361-0.55-0.535c-0.262-0.172-0.621-0.318-1.076-0.438
		c-0.456-0.119-1.04-0.18-1.753-0.18c-0.742,0-1.44,0.121-2.093,0.363c-0.654,0.242-1.226,0.594-1.716,1.055
		c-0.49,0.459-0.876,1.027-1.158,1.699c-0.282,0.674-0.423,1.438-0.423,2.287c0,0.861,0.146,1.625,0.438,2.287
		c0.292,0.664,0.688,1.219,1.188,1.664s1.077,0.785,1.73,1.016c0.653,0.234,1.346,0.352,2.079,0.352
		c0.505,0,0.955-0.035,1.351-0.105c0.396-0.068,0.74-0.152,1.032-0.252s0.535-0.203,0.728-0.311
		c0.193-0.109,0.344-0.203,0.453-0.281h-0.015V140.376z M33.596,141.058h7.589v-1.619h-5.792v-2.775h5.435
		c0.04-0.051,0.087-0.15,0.141-0.305c0.055-0.152,0.082-0.324,0.082-0.512c0-0.535-0.292-0.803-0.876-0.803h-4.782v-2.555h5.658
		c0.03-0.049,0.074-0.15,0.134-0.307c0.059-0.15,0.089-0.322,0.089-0.512c0-0.535-0.297-0.801-0.891-0.801H34.68
		c-0.722,0-1.084,0.336-1.084,1.01V141.058L33.596,141.058z M26.06,141.058h1.767v-8.568h3.742c0.04-0.049,0.087-0.15,0.141-0.305
		c0.055-0.152,0.082-0.324,0.082-0.512c0-0.535-0.292-0.801-0.876-0.801h-8.479c-0.03,0.049-0.075,0.15-0.134,0.303
		c-0.059,0.154-0.089,0.326-0.089,0.514c0,0.533,0.292,0.801,0.876,0.801h2.97V141.058L26.06,141.058z"/>
</g>
</svg>
