<svg id="Capa_1" data-name="Capa 1" xmlns="http://www.w3.org/2000/svg" viewBox="0 0 146.44 211.52"><title>stars</title><polygon points="119.51 0 127.83 16.86 146.44 19.57 132.97 32.7 136.15 51.23 119.51 42.48 102.86 51.23 106.04 32.7 92.57 19.57 111.19 16.86 119.51 0" style="fill:#e54c3c"/><polygon points="29.8 63.78 53.68 84.96 84.66 77.3 71.89 106.55 88.75 133.64 56.99 130.54 36.44 154.95 29.57 123.78 0 111.78 27.52 95.61 29.8 63.78" style="fill:#3db7e2"/><polygon points="56.33 23.51 54.89 34.26 62.94 41.54 52.27 43.5 47.83 53.4 42.67 43.85 31.89 42.7 39.37 34.84 37.14 24.22 46.92 28.91 56.33 23.51" style="fill:#b63de2"/><polygon points="24.98 176.15 38.9 179.82 49.82 170.43 50.63 184.81 62.94 192.29 49.52 197.51 46.2 211.52 37.09 200.37 22.74 201.54 30.53 189.44 24.98 176.15" style="fill:#e54c3c"/><polygon points="120.4 180.25 119.37 187.97 125.15 193.19 117.48 194.6 114.3 201.71 110.59 194.85 102.85 194.02 108.22 188.38 106.62 180.76 113.65 184.12 120.4 180.25" style="fill:#b63de2"/></svg>