<svg id="Layer_1" data-name="Layer 1" xmlns="http://www.w3.org/2000/svg" xmlns:xlink="http://www.w3.org/1999/xlink" viewBox="0 0 518.33 598.04"><defs><linearGradient id="linear-gradient" x1="470.87" y1="284.86" x2="477.46" y2="284.86" gradientTransform="matrix(1, 0, 0, -1, 0, 600)" gradientUnits="userSpaceOnUse"><stop offset="0" stop-color="#257b82"/><stop offset="1" stop-color="#339da8"/></linearGradient><linearGradient id="linear-gradient-2" x1="448.15" y1="306.68" x2="445.96" y2="296.63" xlink:href="#linear-gradient"/><linearGradient id="linear-gradient-3" x1="470.16" y1="522.43" x2="476.75" y2="522.43" xlink:href="#linear-gradient"/><linearGradient id="linear-gradient-4" x1="447.44" y1="544.25" x2="445.25" y2="534.2" xlink:href="#linear-gradient"/><linearGradient id="linear-gradient-5" x1="470.16" y1="45.07" x2="476.75" y2="45.07" xlink:href="#linear-gradient"/><linearGradient id="linear-gradient-6" x1="447.44" y1="66.89" x2="445.25" y2="56.84" xlink:href="#linear-gradient"/></defs><title>madness</title><polygon points="336.4 98.63 296.34 127.22 297.46 129.34 109.72 280.68 113.1 287.14 300.83 135.81 301.77 137.69 339.14 103.86 376.48 70.05 336.4 98.63" style="fill:#896e37"/><polygon points="337.98 306.86 299.17 302.78 299.2 305.12 111.18 299.24 111.27 306.32 299.29 312.21 299.29 314.23 338.05 312.6 376.77 310.94 337.98 306.86" style="fill:#896e37"/><polygon points="339.44 475.67 301.63 446.6 300.38 448.84 109.52 321.12 105.71 327.9 296.57 455.62 295.45 457.55 336.36 481.17 377.24 504.75 339.44 475.67" style="fill:#896e37"/><polygon points="378.32 539.58 337.47 537.77 296.58 535.97 296.96 537.63 101.22 540.21 102.45 546.01 298.21 543.43 298.61 545.34 338.46 542.47 378.32 539.58" style="fill:#bc9f5e"/><polygon points="375.71 366.72 333.73 386.09 291.7 405.51 292.76 407.44 96.11 514.79 99.7 521.6 296.36 414.25 297.54 416.5 336.63 391.61 375.71 366.72" style="fill:#bc9f5e"/><polygon points="374 123.53 330.27 176.52 286.52 229.57 288.13 231.11 86.78 498.98 92.28 504.46 293.63 236.59 295.43 238.41 334.72 180.98 374 123.53" style="fill:#bc9f5e"/><path d="M417.3,325.14s-3.82,15-2.45,17.43,9.47,6.74,9.47,6.74-6.26.79-6.26,4.76,11.49-3.37,11.49-3.37l-1.07-4.61,14-5.09s15.62,0.31,22.45,5.06,6.06,4.61,6.06,4.61,0.87,6.42,5.11,6.42-4.11-7.66-4.11-7.66a58.25,58.25,0,0,1,.84-14.68c1.49-7.33,1.69-8.4,1.69-8.4Z" transform="translate(0.04)" style="fill:#8d572b"/><path d="M476.06,318.08l-2.16,11.34s-0.22,3.74-13.19,5-33.5-2.11-33.5-2.11-6.31-3.16-7.94-4.81a9.84,9.84,0,0,1-2-2.42l2-7.92,51.67-5.57s1.75,4.18,2.85,5A22,22,0,0,0,476.06,318.08Z" transform="translate(0.04)" style="fill:#e8af7c"/><path d="M475.5,320.57l-0.53,3.2-2.4-1s-0.66,6.25-2.38,7.16a18.25,18.25,0,0,0-4,3.67l4-19.74,3.35-.85Z" transform="translate(0.04)" style="fill:#cb9162"/><path d="M474.65,295.68s11.61,3.66,16.87,7l5.26,3.37-5.26,4.59s-5.53-1.75-10.66,0-3.37,1-3.37,1l-2,8.92s-5.44-8.5-5.31-12.44,0-7.61,0-7.61Z" transform="translate(0.04)" style="fill:#49c3d8"/><path d="M414.5,291.53s-4.07,2.55-5.93,1.43l-1.86-1.13s2.71-4.14,2.71-6.56-1.86.23-2.71,1.19l-0.85,1s-1.19-5.85-2.71-7.33-2.2,1.69-2.2,3.16a7.94,7.94,0,0,0,1,3.23l-6.1-5.61a3.46,3.46,0,0,0-1,3.45,8.32,8.32,0,0,0,2.88,4s-4.24-2.84-5.25-1.88,2,5.07,2,5.07H397s-0.34,2.92.68,4.16,4.24,0,4.24,0,11.22,10.41,14.63,12.44l3.41,2V296.4Z" transform="translate(0.04)" style="fill:#49c3d8"/><path d="M473.9,329.43l-1.24,6.06a65,65,0,0,1-6.42,2c-1.31.17-2.73,3.11-4.67,4.08s-3.17,1.68-3.17,1.68l-5.25-1.43-16.86,1.43-3.29,1.2-6.73,2.29s4.71-3.06,4.71-4.86-4.71-10-4.71-10l15.46,2.88Z" transform="translate(0.04)" style="fill:#502f15"/><path d="M420,296.4l-5.51-4.88a13.11,13.11,0,0,1-4.1,1.66c-0.5,1.59-1.21,4.81.34,6.9,2.13,2.86,1.62,4.82,1.62,4.82a40.83,40.83,0,0,0,4.23,3.22l0.55,0.33,2.86-1.34V296.4h0Z" transform="translate(0.04)" style="fill:#339da8;opacity:0.5199999809265137;isolation:isolate"/><path d="M483.09,305.92c-5.33.42-8.3-.12-8.3-1.74s2.16-1.46,2.7-2.55a34.33,34.33,0,0,0,1.29-4.55c-2.41-.86-4.13-1.4-4.13-1.4l-4.46,4.83s0.14,3.67,0,7.61,5.31,12.44,5.31,12.44l2-8.81c0.4-.1,1.34-0.4,3.4-1.1,5.13-1.75,10.66,0,10.66,0l1.8-1.57h0s3.12-4.28,1.51-5c-0.62-.3-5.46,2.94-6.23,2.67A13.84,13.84,0,0,0,483.09,305.92Z" transform="translate(0.04)" style="fill:#339da8;opacity:0.5199999809265137;isolation:isolate"/><path d="M477.46,311.76s-2.63.08-3.91,1.29-2.68-3.3-2.68-3.3l0.88,4,3.76,6.77Z" transform="translate(0.04)" style="fill:url(#linear-gradient)"/><path d="M448.65,283.73L471.12,302s3.08,20.93-2.64,28.86S450.63,346.5,446.23,348s-9,2.64-9,2.64,2.86-1.1,2.2-3.53-25.56-28.64-25.78-33.49S418,302,418,302l24.76-16.3Z" transform="translate(0.04)" style="fill:#d5d5d5"/><path d="M468.48,330.88c5.73-7.93,2.64-28.86,2.64-28.86l-3-2.44-13.49,1.26s8.06,16.67,4.76,30.69-22.2,19.19-22.2,19.19,4.63-1.1,9-2.64S462.75,338.81,468.48,330.88Z" transform="translate(0.04)" style="fill:#aeaeaf;opacity:0.6399999856948853;isolation:isolate"/><path d="M425,284.91s-7.89-5.14-8.41-9.14,23.32-18,28.46-19.4,4.64-1.24,4.64-1.24l-2.32-11.06s3.34-1.76,12.13-1.24,10.34,4.34,10.34,4.34L464.16,257s12.72,7.93,17.27,14.46,6.72,11.56,5.89,12.87-9.1,3.21-13.75,4a53.1,53.1,0,0,1-7.76.84Z" transform="translate(0.04)" style="fill:#e8af7c"/><path d="M471.12,302l0.34,2.89a18.56,18.56,0,0,1-6.62,1,42.88,42.88,0,0,1-8.52-1l-1-3.57Z" transform="translate(0.04)" style="fill:#989898"/><path d="M465.82,289.18h0.93a58.89,58.89,0,0,0,6.82-.8c4.65-.81,12.93-2.71,13.75-4S486,278,481.43,271.45,464.16,257,464.16,257l5.69-9.82s-0.82-2-4.63-3.32l-3.3,12.1s8.56,6.47,12,12.22-2,11.93-2,11.93Z" transform="translate(0.04)" style="fill:#cb9162"/><path d="M425.63,283.25s-8.55-4.57-5.83-6,7.16-5.62,30.71-4.89,32.57,9.61,32.57,10.85-14.37,3.21-14.37,3.21l-36.54-2.14Z" transform="translate(0.04)" style="fill:#75461c"/><path d="M483.09,283.25c0-1.25-9-10.13-32.57-10.85s-28,3.5-30.71,4.89c-1.48.75,0.37,2.44,2.36,3.83,4.89-1,15.94-3.16,20.9-3.09,6.48,0.09,22,1.88,28.89,5.22,1.69,0.82,3.09,1.48,4.24,2C479.69,284.63,483.09,283.85,483.09,283.25Z" transform="translate(0.04)" style="fill:#502f15"/><path d="M446.8,284.45a17,17,0,0,1,17.31-1.9c9.89,4.38,4.57,6.66,9.7,7.61s3-4.58,3-4.58,6.66,10.86-1.9,15-8.19,4.76-11.89,4-9.79-1.9-13.22-5.14a32.31,32.31,0,0,1-5.33-6.53Z" transform="translate(0.04)" style="fill:#d5d5d5"/><path d="M435.12,305.92s0.78,5.46,2.92,5.71,7.9-2.69,8.92-5.11,2-5.19,2-5.19l7.33,3.57-0.88-2.24s-3.73-1.27-5.59-3.18a26.58,26.58,0,0,1-3.23-4.19Z" transform="translate(0.04)" style="fill:#99999a;opacity:0.6399999856948853;isolation:isolate"/><path d="M437.67,283.12s-2.09-2.91-8-2.12-6.47,7.83-11.41,8.21-4.19-1-4.19-2.47-3.89,13.32,0,14.27,7.46,2.09,13.36,0a40.9,40.9,0,0,0,9.13-4.38Z" transform="translate(0.04)" style="fill:#d5d5d5"/><path d="M437.67,298.72S431,304,435.58,308.8s11.75-4.82,11.6-7.18-0.57-6.33-.57-6.33Z" transform="translate(0.04)" style="fill:#49c3d8"/><polygon points="446.96 298.96 447.23 300.81 443.78 302.7 437.51 302.7 435.16 301.63 436.28 300.03 446.96 298.96" style="fill:#339da8;opacity:0.5199999809265137;isolation:isolate"/><path d="M439.08,300.65s-3.43,2.74-1.08,5.19,5.63-2.53,6-3.7a21.77,21.77,0,0,1,1.52-4Z" transform="translate(0.04)" style="fill:#2e7c83"/><path d="M449.85,299.48c3.42,3.23,9.51,4.38,13.22,5.14s3.33,0.19,11.89-4a7.29,7.29,0,0,0,4.36-7.33c0,0.69-.38,2.36-3,4.27-3.47,2.52-8.86-1.73-14.37-4.61a16.87,16.87,0,0,0-11.07-1.43L447,296.37A33,33,0,0,0,449.85,299.48Z" transform="translate(0.04)" style="fill:#aeaeaf;opacity:0.6399999856948853;isolation:isolate"/><path d="M453.57,291.07a2.73,2.73,0,0,1,1.66,1.88c0.22,1.34.17,3.26-1.4,3.4a15.77,15.77,0,0,1-2.75,0,5.29,5.29,0,0,1-.92,1.77c-0.57.59-.86,0.84-0.86,0.84l-1.3-1.39,1-4.06Z" transform="translate(0.04)" style="fill:#989898"/><path d="M432.47,291.07a4.3,4.3,0,0,0-3.92-1.86c-2.49.33-3.68,3.65-7,4.36s-7.73.5-8.25-.62a3.39,3.39,0,0,1-.4-1.78c-0.71,4-1.1,9.28,1.14,9.84,3.85,1,7.46,2.09,13.36,0a42.8,42.8,0,0,0,8.93-4.24Z" transform="translate(0.04)" style="fill:#c3bcb7"/><ellipse cx="436.46" cy="276.6" rx="4.17" ry="3.49" style="fill:#bfe5eb"/><path d="M442.44,276.35S441,266.21,434,266.14s-10.21,3.43-10.49,5.1-2,8.25-1.26,8.81,7.35-5.38,11.75-4.62,6.22,2.73,6.22,2.73Z" transform="translate(0.04)" style="fill:#d5d5d5"/><path d="M448,277.47s10.21-7.27,13.94-7.83,8.63-.7,8.63-0.7,5.66,5,4.89,9.23-0.28,6.15-1.4,6.15-9-7.13-16.22-7.13S447,281,447,281Z" transform="translate(0.04)" style="fill:#d5d5d5"/><ellipse cx="458.93" cy="278.03" rx="6" ry="2.97" style="fill:#bfe5eb"/><path d="M448,277.47s10.21-7.27,13.94-7.83,8.63-.7,8.63-0.7,5.66,5,4.89,9.23-0.28,6.15-1.4,6.15-9-7.13-16.22-7.13S447,281,447,281Z" transform="translate(0.04)" style="fill:#d5d5d5"/><path d="M475.44,278.17a4.68,4.68,0,0,0,0-1.25c-2.79-1-9.51-3.21-14-3.16-5.73.07-13.54,4.89-13.54,4.89l1.34,0.64a17.15,17.15,0,0,1,8.5-2.11c7.2,0,15.1,7.13,16.22,7.13S474.67,282.36,475.44,278.17Z" transform="translate(0.04)" style="fill:#aeaeaf;opacity:0.6399999856948853;isolation:isolate"/><path d="M434,298.12l-1.86,1A21.94,21.94,0,0,1,430.4,295c-0.31-1.45,2.4-5.2,2.4-5.2Z" transform="translate(0.04)" style="fill:#989898"/><path d="M441.15,276.63s-4.86-4.61-7.61-5.15-11.2,5.5-11.22,5.51c-0.26,1.54-.39,2.83-0.1,3.07,0.7,0.56,7.35-5.38,11.75-4.62a12.61,12.61,0,0,1,5.89,2.43Z" transform="translate(0.04)" style="fill:#aeaeaf;opacity:0.6399999856948853;isolation:isolate"/><path d="M451.37,289.21s0.76-12.75-6.28-14.08-12.94,14.65-13.51,17.12,1.52,8.75,7.61,9.32a11.14,11.14,0,0,0,9.89-4.38,6.91,6.91,0,0,0,.57-2.09s4.57,1.71,5-1.71S451.37,289.21,451.37,289.21Z" transform="translate(0.04)" style="fill:#49c3d8"/><path d="M451.37,289.21a11.61,11.61,0,0,0-4.18-.45c-1.91.25,1.66-1.37,1.66-7.9,0-4-.24-3.57-0.24-3.57a10.82,10.82,0,0,1,2.39,6C451.38,287.23,451.37,289.21,451.37,289.21Z" transform="translate(0.04)" style="fill:#339da8;opacity:0.5199999809265137;isolation:isolate"/><path d="M449.66,295.11s-3.25-1.2-3.92.19-0.68,5.21-.68,5.21A9.91,9.91,0,0,0,448.4,298C450.08,296.19,449.66,295.11,449.66,295.11Z" transform="translate(0.04)" style="fill:url(#linear-gradient-2)"/><path d="M437.67,281.63s-5,7.68-4.6,12.23,5,6.65,5,6.65-3.27-4.16-2.5-8.49S437.67,281.63,437.67,281.63Z" transform="translate(0.04)" style="fill:#fff;opacity:0.3700000047683716;isolation:isolate"/><path d="M419.42,304.91s-4.43,6.47-3,9.33,18.7,23.28,18.7,23.28S419.71,317.37,419,314s6-10.32,6-10.32h-5.44Z" transform="translate(0.04)" style="fill:#f9f9f9;opacity:0.7300000190734863;isolation:isolate"/><path d="M457.34,250.72c-6.23-.79-8,0.92-8.28,1.34l0.61,2.92c1.8-.1,4.37-0.22,6.64-0.22a18,18,0,0,1,7.85,2.22l1.7-2.94A18,18,0,0,0,457.34,250.72Z" transform="translate(0.04)" style="fill:#75461c"/><path d="M494.83,310.66s-3.36,9.08-4.56,13.41-5.52,20.52-5.64,24.25-1,5.88.6,5.76,6.84-26.53,7.5-28.93,3.19-8.74,3.19-8.74Z" transform="translate(0.04)" style="fill:#8d572b"/><path d="M498.45,315.6s-0.7,4.29-2.52,3.72-2.9-.38-3.19-2.11a5,5,0,0,1,.86-3.32Z" transform="translate(0.04)" style="fill:#49c3d8"/><path d="M498.81,314.31s-0.7,4.29-2.52,3.72-2.9-.38-3.19-2.11a5,5,0,0,1,.86-3.32Z" transform="translate(0.04)" style="fill:#339da8;opacity:0.5199999809265137;isolation:isolate"/><path d="M456.84,256.06c-1.78-.17-7.13,0-7.13,0a106,106,0,0,0-11,5.12c-6.45,3.41-7.12,3.79-7.12,3.79s14.13-6.83,19.16-7.49a81.38,81.38,0,0,1,11-.5S458.08,256.18,456.84,256.06Z" transform="translate(0.04)" style="fill:#ecc09c"/><path d="M500.87,311.12l-1.35,4.29s-2.54,2-3.59,1a21.25,21.25,0,0,0-2.33-1.87l2.9-2.66Z" transform="translate(0.04)" style="fill:#49c3d8"/><path d="M500.87,310l-1.35,4.29s-2.16,1.24-3.59,1a10.35,10.35,0,0,1-2.33-.78l2.9-3.74Z" transform="translate(0.04)" style="fill:#339da8;opacity:0.5199999809265137;isolation:isolate"/><path d="M449.7,249.9l-1.12-5.41a26.47,26.47,0,0,1,8.88-.85c4.88,0.38-4.1-.31-6.09,2.18S449.7,249.9,449.7,249.9Z" transform="translate(0.04)" style="fill:#ecc09c"/><circle cx="494.87" cy="307.35" r="3.31" style="fill:#49c3d8"/><g style="opacity:0.5199999809265137"><path d="M496.49,304.51l0.07,0.07-0.06-.07h0Z" transform="translate(0.04)" style="fill:#339da8"/><path d="M494.83,310.66a3.31,3.31,0,0,0,3.31-3.31,3.27,3.27,0,0,0-.44-1.62l-1.13-1.15a1.65,1.65,0,0,1,.23,1.49c-0.26,1.16-.8,1.18-2,1.28-0.79.07-1.64,1.58-2.1,2.54A3.28,3.28,0,0,0,494.83,310.66Z" transform="translate(0.04)" style="fill:#339da8"/></g><path d="M497,304.91s6.76,3.44,5.41,5.21a20.73,20.73,0,0,1-4.32,3.65s-5.26,1.89-5.26,0,1.08-4.72,3.24-4.32S497,304.91,497,304.91Z" transform="translate(0.04)" style="fill:#49c3d8"/><path d="M497.37,308.12s2.06-8.71,3-10.56,1.17-7.25,2.28-9.48,3.42-10.18,4.35-13,2-5.47,2-5.47,1.54,1.08,2.31.46,5.86-5.4,6.86-18-4.32-14.5-6.4-14.5-5.71,2.66-6.63,5.15-3,22.3-3.32,25.47-3.24,23.38-3.32,24.76a68.35,68.35,0,0,1-2,9.71,5.39,5.39,0,0,0-.57,1.57,1.56,1.56,0,0,1,1.28,1.45A20.41,20.41,0,0,1,497.37,308.12Z" transform="translate(0.04)" style="fill:#8d572b"/><path d="M509,269.67a5.64,5.64,0,0,1-1.49-1,9.57,9.57,0,0,1-1.34-1.61,12,12,0,0,1-1.17-2.46,15.09,15.09,0,0,1-.67-3.16,22.37,22.37,0,0,1-.07-3.57,23.63,23.63,0,0,1,.54-3.84,12.66,12.66,0,0,1,1.52-3.82,5,5,0,0,1,1.6-1.66,2.86,2.86,0,0,1,2.67-.23,3.88,3.88,0,0,1,1,.74l0.22,0.21,0.09,0.09h0l0.07,0.09,0.29,0.37a7.83,7.83,0,0,1,1.36,5.82,6.25,6.25,0,0,1-.54,1.83,2.51,2.51,0,0,1-.78.94c-0.32.2-.38,0.21-0.59,0.36a13.68,13.68,0,0,1-1.22.82,2.2,2.2,0,0,1-1.69.3,1.83,1.83,0,0,1-.44-0.2,2,2,0,0,1-.26-0.23,1.33,1.33,0,0,1-.25-0.32,1.59,1.59,0,0,1-.15-0.29,3.84,3.84,0,0,1-.24-1,7.19,7.19,0,0,1,0-1.37l0.06-.48h0.2l0.09,0.45a9.41,9.41,0,0,0,.36,1.23,3.21,3.21,0,0,0,.39.74,0.77,0.77,0,0,0,.23.24l0.19,0.1H509a3.61,3.61,0,0,0,1.65-1.23c0.16-.16.53-0.42,0.62-0.5a1.32,1.32,0,0,1,.12-0.3,4.53,4.53,0,0,0,.25-1.31,7.72,7.72,0,0,0-.41-3,6.31,6.31,0,0,0-.64-1.4l-0.27-.38-0.07-.1h0l-0.11-.12a2.09,2.09,0,0,0-.46-0.42,1,1,0,0,0-1,0,2.79,2.79,0,0,0-.59.42,5.72,5.72,0,0,0-.54.64,11.24,11.24,0,0,0-1.51,3.27,22.44,22.44,0,0,0-.71,3.55,24.33,24.33,0,0,0-.15,3.43,14.27,14.27,0,0,0,.4,3,11.43,11.43,0,0,0,.92,2.41,9.17,9.17,0,0,0,1.15,1.63,5.39,5.39,0,0,0,1.34,1.11Z" transform="translate(0.04)" style="fill:#502f15"/><path d="M516.57,248.12s1-8.47-4.37-8.85c-3.87-.27-5.9,3.46-5.9,3.46l-1.6,7.4s2.54-8.62,6.44-8.26S516.57,248.12,516.57,248.12Z" transform="translate(0.04)" style="fill:#b98360;opacity:0.49000000953674316;isolation:isolate"/><path d="M494.29,313.9s6.49-3.23,6.23-5.14-1.23-1.41-1.23-1.41a8.65,8.65,0,0,1,2.46,1.82c0.71,0.94-3.07,3.67-4,3.88S494.29,313.9,494.29,313.9Z" transform="translate(0.04)" style="fill:#fff;opacity:0.3700000047683716;isolation:isolate"/><path d="M397.72,288.34l0.51,0.84-4.26-.84-1.5-1.88s0-.6,2.12.18A15.19,15.19,0,0,1,397.72,288.34Z" transform="translate(0.04)" style="fill:#339da8;opacity:0.5199999809265137;isolation:isolate"/><path d="M402,286.47l-0.33,1.23s-4.63-3.61-5-4c-0.75-.72-0.75-2.86-0.75-2.86Z" transform="translate(0.04)" style="fill:#339da8;opacity:0.5199999809265137;isolation:isolate"/><path d="M405.85,287.42L405,289s-1.2-5.58-1.63-6.82-1.1-2.18-1.38-2.06l-0.29.12s0.27-.85.87-0.48,1.35,0.91,2,3S405.85,287.42,405.85,287.42Z" transform="translate(0.04)" style="fill:#339da8;opacity:0.5199999809265137;isolation:isolate"/><path d="M403.76,293.86s-2.39.56-2.91-1.12a4.67,4.67,0,0,1,0-2.93s-0.11,2.8,1.34,3a13.23,13.23,0,0,0,3.94-.56Z" transform="translate(0.04)" style="fill:#339da8;opacity:0.5199999809265137;isolation:isolate"/><path d="M402.8,286.77s-2.83,2-3.66,2.77-2.09,2-2.09,2,4-3.26,5.2-3.43Z" transform="translate(0.04)" style="fill:#339da8;opacity:0.5199999809265137;isolation:isolate"/><path d="M451.66,283a18.11,18.11,0,0,1,10.09-.35c5.39,1.43,7,3.8,7,3.8a18.31,18.31,0,0,0-10.93-3.21c-6.79.08-5.74,1.83-5.74,1.83Z" transform="translate(0.04)" style="fill:#f9f9f9;opacity:0.7300000190734863;isolation:isolate"/><path d="M434.72,282.66a7.62,7.62,0,0,0-5.43-.55,10.57,10.57,0,0,0-5,3.74s3.46-3.13,6-2.89,3.29,1.33,3.29,1.33Z" transform="translate(0.04)" style="fill:#f9f9f9;opacity:0.7300000190734863;isolation:isolate"/><path d="M31.77,362.22s-6.3,8.29-4.71,9.41,2.58-1.42,2.58-1.42-1.93,2.92.28,3,2.16-2.77,2.16-2.77-2,2.74,0,2.81,5.27-10.13,5.27-10.13Z" transform="translate(0.04)"/><path d="M68.42,363.73s7.43,9.78,5.55,11.13-3.06-1.76-3.06-1.76,2.28,3.51-.33,3.51S68,373.36,68,373.36s2.32,3.23,0,3.34-6.13-11.94-6.13-11.94Z" transform="translate(0.04)"/><path d="M62.48,259.17l-0.77-1.23a72.9,72.9,0,0,0-.61-13.63c-1-5.9-1.12-10.27-10.54-16.88s-17.68,2.84-18.19,3.86a60,60,0,0,0-2.7,13V250s-1.76,3.86-2.65,5.9a17.56,17.56,0,0,0-1,3.25s-6.81-5.9-9.87-7.92-10.54-6.81-14.33-6,2.84,5.69,5.5,8.64,9.15,10.06,10.27,11.68,2.84,5.69,4.07,6.81a6.13,6.13,0,0,0,1.76,1.32,115.71,115.71,0,0,0-7.62,33.77c-0.91,17.56,6.3,45.66,10.68,50.63s5.27,7.32,7.32,7.43,8-5,8-5a30,30,0,0,0,8,1,24.17,24.17,0,0,0,5.8-.61,22.53,22.53,0,0,0,4.27,5.69c2.44,2.14,3.16,2.65,7.62,3.34S78.6,366.44,81,361.71s8.27-39.51-2-71.58c-6.83-21.39-9.11-19.53-9.11-19.53s9.89-18.49,12.29-22.39,5.27-9.11,2.79-9.62-10.71,6-16.6,13.28Z" transform="translate(0.04)" style="fill:#b4b2b0"/><path d="M29.66,248.64l3.79,3.51H37l15.19-.42L61.8,251a52.24,52.24,0,0,0-.65-6.71c-1-5.9-1.12-10.27-10.54-16.88s-17.68,2.84-18.19,3.86a60,60,0,0,0-2.84,13v4.34h0.09Z" transform="translate(0.04)" style="fill:#fff"/><path d="M61.72,251a29.4,29.4,0,0,0-2.81-15.1c-3.72-7.2-8.52-11.38-17.19-10.77s-9.45,6.2-9.45,6.2A2.79,2.79,0,0,1,34,234c-0.16,1.86.32,7.74-.46,9.13a4.64,4.64,0,0,0-.16,4c0.46,0.93,2.48,5.43,6.36,4.79s5.65-1.25,5.83-4.65a53.86,53.86,0,0,1-2.6-8.78c0-1.76.93-6.88,5.27-7.5s6.2,1.25,7.43,4.88a23.48,23.48,0,0,1,.77,10.54C56,248.92,55.7,249.07,52,250s-7,1.91-7,1.91a53.49,53.49,0,0,1,10.38,0A9.76,9.76,0,0,0,61.72,251Z" transform="translate(0.04)"/><path d="M29.66,250l3.71,2.12a14.26,14.26,0,0,1-2.79-4.06,10.54,10.54,0,0,1-1-3.79V250h0Z" transform="translate(0.04)"/><path d="M37.21,243.19a14.26,14.26,0,0,0-1.76,3.41,13.29,13.29,0,0,0,.83,3.41,12.29,12.29,0,0,1,4-2.48,8.78,8.78,0,0,0,3-1.3,9.41,9.41,0,0,1-3.86-1.48A7,7,0,0,0,37.21,243.19Z" transform="translate(0.04)" style="fill:#586167"/><path d="M48.06,243.19s1.25-4.39,3.9-4.55,1.48,4.25-1.25,3.76A4.46,4.46,0,0,0,48.06,243.19Z" transform="translate(0.04)"/><path d="M32.27,242.54s-0.3-4.79-.81-3.92a4.55,4.55,0,0,0,0,2.67Z" transform="translate(0.04)"/><path d="M69.93,270.66s-5.15-3.86-2.88-8a107.32,107.32,0,0,1,11.68-16.05,37.12,37.12,0,0,1,6.83-4.88s-5.43,11-7.81,14.47S69.93,270.66,69.93,270.66Z" transform="translate(0.04)" style="fill:#d8d6d3"/><path d="M23.37,273.71l1.51-7s-7-9.22-11.68-12.42a72.14,72.14,0,0,0-11.64-6s7.64,8.18,10.27,11.2,7.13,9.47,8.39,11.2A15.61,15.61,0,0,0,23.37,273.71Z" transform="translate(0.04)" style="fill:#d8d6d3"/><path d="M76,311.31c0,24.32-3.9,45.41-29,45.41-14.47,0-26.2-19.72-26.2-44S28.78,262,43.25,262,76,287,76,311.31Z" transform="translate(0.04)" style="fill:#fff"/><path d="M59.51,312.33v3a1.05,1.05,0,0,1-.28.72,1,1,0,0,1-.77.3h-2.7v7.45H51.22v-7.45H38.44a1.42,1.42,0,0,1-.93-0.33,1.4,1.4,0,0,1-.51-0.81l-0.54-2.63,14.44-19.32h4.93v19h3.69v0Zm-8.36,0v-10a28.55,28.55,0,0,1,.19-3.13L42,312.33h9.2Z" transform="translate(0.04)" style="fill:#231f20"/><path d="M26.55,119.29s-5.37,7.15-4,8.12,2.2-1.23,2.2-1.23-1.65,2.51.24,2.57,1.92-2.39,1.92-2.39-1.68,2.36,0,2.42S31.38,120,31.38,120Z" transform="translate(0.04)"/><path d="M57.79,120.59s6.33,8.44,4.73,9.6-2.6-1.51-2.6-1.51,1.95,3-.28,3-2.19-2.82-2.19-2.82,2,2.79,0,2.88-5.22-10.3-5.22-10.3Z" transform="translate(0.04)"/><path d="M52.73,30.42l-0.66-1.06a63.59,63.59,0,0,0-.52-11.75c-0.87-5.09-1-8.86-9-14.55S27.53,5.52,27.1,6.4a52.3,52.3,0,0,0-2.43,11.22v4.91s-1.5,3.33-2.26,5.09a15.27,15.27,0,0,0-.87,2.8s-5.79-5.13-8.4-6.83-9-5.88-12.21-5.18,2.43,4.91,4.69,7.45,7.8,8.69,8.74,10,2.43,4.91,3.47,5.88a5.23,5.23,0,0,0,1.5,1.14,100.78,100.78,0,0,0-6.44,29.18c-0.78,15.14,5.37,39.38,9.1,43.66s4.49,6.32,6.24,6.41,6.84-4.3,6.84-4.3a25.33,25.33,0,0,0,6.86.86,20.37,20.37,0,0,0,4.94-.53,19.41,19.41,0,0,0,3.64,4.91c2.08,1.85,2.69,2.29,6.5,2.88s9.45-3,11.53-7.1,7.05-34.06-1.69-61.77C61,38.64,59.08,40.25,59.08,40.25S67.5,24.3,69.55,20.94s4.49-7.86,2.38-8.3-9.12,5.22-14.18,11.49Z" transform="translate(0.04)" style="fill:#b4b2b0"/><path d="M24.68,21.29l3.23,3h3L43.85,24l8.22-.62a45.57,45.57,0,0,0-.55-5.79c-0.87-5.09-1-8.86-9-14.55s-15,2.53-15.45,3.41a52.3,52.3,0,0,0-2.43,11.22V21.3h0v0Z" transform="translate(0.04)" style="fill:#fff"/><path d="M52.08,23.41a25.61,25.61,0,0,0-2.4-13C46.52,4.17,42.43.57,35,1.06S27,6.4,27,6.4a2.41,2.41,0,0,1,1.5,2.27c-0.13,1.61.27,6.68-.39,7.88A4,4,0,0,0,28,20c0.39,0.8,2.11,4.68,5.42,4.13s4.82-1.08,5-4a46.86,46.86,0,0,1-2.22-7.57c0-1.51.79-5.94,4.49-6.47s5.28,1.08,6.33,4.21a20.48,20.48,0,0,1,.66,9.09c-0.39,2.14-.66,2.27-3.83,3s-6,1.65-6,1.65a45.07,45.07,0,0,1,8.85,0A8.24,8.24,0,0,0,52.08,23.41Z" transform="translate(0.04)"/><path d="M24.68,22.53l3.23,1.86a12.3,12.3,0,0,1-2.38-3.5,9.17,9.17,0,0,1-.85-3.27v4.91h0Z" transform="translate(0.04)"/><path d="M31.19,16.64a12.35,12.35,0,0,0-1.5,2.94,11.58,11.58,0,0,0,.7,2.94,10.46,10.46,0,0,1,3.37-2.14,7.44,7.44,0,0,0,2.56-1.15A8,8,0,0,1,33,18,6,6,0,0,0,31.19,16.64Z" transform="translate(0.04)" style="fill:#586167"/><path d="M40.44,16.64s1.06-3.79,3.32-3.92S45,16.38,42.7,16A3.77,3.77,0,0,0,40.44,16.64Z" transform="translate(0.04)"/><path d="M27,16.08S26.73,12,26.29,12.7a4,4,0,0,0,0,2.3Z" transform="translate(0.04)"/><path d="M59.08,40.32S54.7,37,56.62,33.42a92.51,92.51,0,0,1,10-13.84,31.65,31.65,0,0,1,5.82-4.21s-4.61,9.5-6.59,12.48S59.08,40.32,59.08,40.32Z" transform="translate(0.04)" style="fill:#d8d6d3"/><path d="M19.41,43l1.29-6.06s-6-8-10-10.71A61.24,61.24,0,0,0,.84,21s6.59,7.07,8.76,9.66,6.08,8.16,7.16,9.66A13.38,13.38,0,0,0,19.41,43Z" transform="translate(0.04)" style="fill:#d8d6d3"/><path d="M64.31,75.38c0,21-3.32,39.16-24.68,39.16-12.33,0-22.33-17-22.33-38s6.71-43.71,19-43.71S64.31,54.42,64.31,75.38Z" transform="translate(0.04)" style="fill:#fff"/><path d="M45.14,72.46a6.16,6.16,0,0,1,4.64,6.33A7.45,7.45,0,0,1,49.12,82a6.91,6.91,0,0,1-1.84,2.39,8.45,8.45,0,0,1-2.84,1.51,12.66,12.66,0,0,1-7.35,0,8.45,8.45,0,0,1-2.84-1.51,6.93,6.93,0,0,1-1.84-2.42,7.45,7.45,0,0,1-.66-3.17,6.16,6.16,0,0,1,4.64-6.33,6,6,0,0,1-2.83-2.27,7,7,0,0,1-.34-6.33,6.82,6.82,0,0,1,1.68-2.2,7.79,7.79,0,0,1,2.57-1.51,10.36,10.36,0,0,1,6.59,0,7.79,7.79,0,0,1,2.57,1.51,6.82,6.82,0,0,1,1.68,2.24,6.5,6.5,0,0,1,.6,2.79A6.43,6.43,0,0,1,48,70.2,6,6,0,0,1,45.14,72.46ZM40.75,82.94a5.33,5.33,0,0,0,1.92-.32,4,4,0,0,0,1.39-.88,3.66,3.66,0,0,0,.79-1.33,4.85,4.85,0,0,0,.28-1.7A4.27,4.27,0,0,0,44,75.44a4.61,4.61,0,0,0-3.26-1.11,4.61,4.61,0,0,0-3.26,1.11,4.27,4.27,0,0,0-1.18,3.27,4.85,4.85,0,0,0,.28,1.7,3.64,3.64,0,0,0,.85,1.35,4,4,0,0,0,1.39.88,5.33,5.33,0,0,0,2,.32v0Zm0-20a4.3,4.3,0,0,0-1.71.3,3.44,3.44,0,0,0-1.2.83,3.26,3.26,0,0,0-.7,1.2,4.44,4.44,0,0,0-.22,1.42,6.12,6.12,0,0,0,.19,1.51,3.5,3.5,0,0,0,.64,1.3,3.19,3.19,0,0,0,1.18.92,4.93,4.93,0,0,0,3.62,0,3.19,3.19,0,0,0,1.18-.92,3.5,3.5,0,0,0,.64-1.3,6.12,6.12,0,0,0,.19-1.51,4.29,4.29,0,0,0-.24-1.42,3.45,3.45,0,0,0-.7-1.2,3.35,3.35,0,0,0-1.18-.83A4.3,4.3,0,0,0,40.75,63v0Z" transform="translate(0.04)" style="fill:#231f20"/><path d="M30.26,583.91s-6.11,8-4.56,9.12,2.5-1.38,2.5-1.38-1.87,2.83.27,2.89,2.2-2.71,2.2-2.71-2,2.72,0,2.72,5.11-9.82,5.11-9.82Z" transform="translate(0.04)"/><path d="M65.79,585.36s7.2,9.48,5.38,10.79-3-1.58-3-1.58,2.21,3.4-.32,3.4-2.49-3.17-2.49-3.17,2.25,3.13,0,3.23-5.94-11.58-5.94-11.58Z" transform="translate(0.04)"/><path d="M60,484l-0.75-1.19a70.66,70.66,0,0,0-.6-13.21c-1-5.72-1.09-10-10.21-16.36S31.33,456,30.84,457a58.2,58.2,0,0,0-2.76,12.61v5.52s-1.7,3.74-2.57,5.72a17,17,0,0,0-1,3.15s-6.6-5.72-9.57-7.68-10.21-6.6-13.89-5.82S3.82,476,6.4,478.88s9,9.77,10,11.34,2.76,5.52,3.95,6.6a5.94,5.94,0,0,0,1.7,1.28,112.16,112.16,0,0,0-7.39,32.73c-0.89,17,6.11,44.26,10.35,49.08s5.11,7.1,7.1,7.2,7.78-4.83,7.78-4.83a29.13,29.13,0,0,0,7.8,1,23.42,23.42,0,0,0,5.62-.6,21.84,21.84,0,0,0,4.14,5.52c2.37,2.08,3.06,2.57,7.39,3.23s10.74-3.4,13.11-8S86,545.12,76,514c-6.62-20.73-8.83-18.93-8.83-18.93s9.58-17.92,11.92-21.7,5.11-8.83,2.71-9.33-10.38,5.82-16.09,12.87Z" transform="translate(0.04)" style="fill:#b4b2b0"/><path d="M28.13,473.71l3.68,3.4h3.4l14.72-.41,9.35-.7a50.64,50.64,0,0,0-.63-6.5c-1-5.72-1.09-10-10.21-16.36s-17.14,2.76-17.64,3.74A58.2,58.2,0,0,0,28,469.5v4.2h0.09Z" transform="translate(0.04)" style="fill:#fff"/><path d="M59.28,476.14a28.5,28.5,0,0,0-2.72-14.64c-3.61-7-8.26-11-16.66-10.43s-9.16,6-9.16,6a2.71,2.71,0,0,1,1.7,2.55c-0.15,1.8.31,7.51-.44,8.85a4.49,4.49,0,0,0-.15,3.9c0.44,0.9,2.4,5.26,6.16,4.65s5.48-1.21,5.65-4.51A52.21,52.21,0,0,1,41.14,464c0-1.7.9-6.67,5.11-7.27s6,1.21,7.2,4.73a22.76,22.76,0,0,1,.75,10.21c-0.44,2.4-.75,2.55-4.36,3.4S43,476.94,43,476.94a51.84,51.84,0,0,1,10.06,0A9.47,9.47,0,0,0,59.28,476.14Z" transform="translate(0.04)"/><path d="M28.13,475.14l3.68,2.09a13.82,13.82,0,0,1-2.71-3.93,10.21,10.21,0,0,1-1-3.68v5.52h0Z" transform="translate(0.04)"/><path d="M35.54,468.6a13.82,13.82,0,0,0-1.7,3.3,12.89,12.89,0,0,0,.8,3.3,11.92,11.92,0,0,1,3.83-2.4,8.51,8.51,0,0,0,2.86-1.26,9.12,9.12,0,0,1-3.74-1.43A6.81,6.81,0,0,0,35.54,468.6Z" transform="translate(0.04)" style="fill:#586167"/><path d="M46,468.6s1.21-4.26,3.78-4.41,1.43,4.12-1.21,3.64A4.32,4.32,0,0,0,46,468.6Z" transform="translate(0.04)"/><path d="M30.67,467.9s-0.29-4.65-.78-3.8a4.41,4.41,0,0,0,0,2.59Z" transform="translate(0.04)"/><path d="M67.23,495.14s-5-3.74-2.79-7.76a104,104,0,0,1,11.32-15.56,36,36,0,0,1,6.62-4.73s-5.26,10.67-7.57,14S67.23,495.14,67.23,495.14Z" transform="translate(0.04)" style="fill:#d8d6d3"/><path d="M22.16,498.1l1.46-6.81s-6.81-8.94-11.32-12A69.93,69.93,0,0,0,1.07,473.5s7.4,7.93,10,10.86,6.91,9.18,8.14,10.86A15.13,15.13,0,0,0,22.16,498.1Z" transform="translate(0.04)" style="fill:#d8d6d3"/><path d="M73.23,534.56c0,23.58-3.78,44-28.07,44-14,0-25.4-19.12-25.4-42.69s7.69-49.14,21.72-49.14S73.23,511,73.23,534.56Z" transform="translate(0.04)" style="fill:#fff"/><path d="M57.24,531.91a24.19,24.19,0,0,1-.83,6.71,13.77,13.77,0,0,1-2.28,4.72,9.26,9.26,0,0,1-3.4,2.77,10.21,10.21,0,0,1-4.31.9,10.11,10.11,0,0,1-4.27-.9,9.23,9.23,0,0,1-3.4-2.77,13.72,13.72,0,0,1-2.26-4.72,28,28,0,0,1,0-13.43,13.7,13.7,0,0,1,2.26-4.7,9.19,9.19,0,0,1,3.4-2.77,10.08,10.08,0,0,1,4.27-.9,10.21,10.21,0,0,1,4.31.9,9.24,9.24,0,0,1,3.4,2.77,13.75,13.75,0,0,1,2.28,4.7A24.17,24.17,0,0,1,57.24,531.91Zm-5.21,0a25,25,0,0,0-.48-5.31,10.71,10.71,0,0,0-1.26-3.4,4.6,4.6,0,0,0-1.8-1.7,4.77,4.77,0,0,0-2.13-.49,4.66,4.66,0,0,0-2.09.49,4.56,4.56,0,0,0-1.79,1.7,10.72,10.72,0,0,0-1.24,3.4,30.91,30.91,0,0,0,0,10.62,10.72,10.72,0,0,0,1.24,3.4,4.54,4.54,0,0,0,1.79,1.7,4.66,4.66,0,0,0,2.09.49,4.77,4.77,0,0,0,2.13-.49,4.58,4.58,0,0,0,1.8-1.7,10.71,10.71,0,0,0,1.26-3.4A24.94,24.94,0,0,0,52,531.91Z" transform="translate(0.04)" style="fill:#231f20"/><polygon points="334.11 64.42 294.17 61.54 293.78 63.45 97.63 60.88 96.39 66.68 292.53 69.25 292.15 70.92 333.11 69.11 374.05 67.3 334.11 64.42" style="fill:#dfc075"/><polygon points="332.27 215.28 293.11 190.39 291.92 192.64 94.88 85.28 91.27 92.09 288.32 199.45 287.25 201.38 329.36 220.79 371.43 240.16 332.27 215.28" style="fill:#dfc075"/><polygon points="339.6 443.91 300.23 386.47 298.43 388.3 96.68 120.43 91.17 125.91 292.91 393.78 291.31 395.31 335.14 448.37 378.96 501.36 339.6 443.91" style="fill:#dfc075"/><path d="M218.62,20.11A15.71,15.71,0,0,1,219.84,19a1.52,1.52,0,0,0,.57-0.16l1.72-2.45a4.56,4.56,0,0,1,2-1.88c1.15-.41,1.34-1.48,3.27-1.15a4.69,4.69,0,0,1,2.68,1.15,8,8,0,0,1,4.34.74c2,1.07,3.35,3.6,4.69,3.93s3.11-.49,4.83-1.07,11,3.52,12.68,4.25S267,24.69,268.95,33.2,268.79,48,267.8,49.73s-4,6.79-4.25,7.94-1.23,6.14-1.34,6.79a41.28,41.28,0,0,0,0,4.5c0.08,0.33.74,0.82,0.33,1.23s-3.43,2-6,.25c0,0-1.39-.82-1.34-1.8s0.74-5,.9-6a33.3,33.3,0,0,0,.67-5,1.53,1.53,0,0,0-.41-1.15s-4.17,1.64-5,1.8a2.68,2.68,0,0,0-1.34.57,24.34,24.34,0,0,1,.82,4.19c0.08,1.34.49,3.43,0.08,4.34s-2.86,1.15-3.27,1.15a7.38,7.38,0,0,1-1.8-.49,29.54,29.54,0,0,0,0-5.48,19.11,19.11,0,0,0-.57-2,37.72,37.72,0,0,0-.67,6.14c0.15,1.64,1,5.4,1.34,5.73A2.45,2.45,0,0,1,244.6,76c-2.45.74-4.91,0.67-5.81-.49a12.82,12.82,0,0,1-1.64-2.45,16,16,0,0,0,1-6.22c-0.08-3.43-.82-6.47-0.57-8.26s-1.39.82-4.25-.82-1.23-.67-1.23-0.67l-0.9.67s3.84,7.77,4.42,10a31.83,31.83,0,0,1,.74,3.84A6.75,6.75,0,0,1,232.25,75a7.11,7.11,0,0,1-4.69-.57,15.84,15.84,0,0,0,0-6.79c-0.82-3-5.24-9.9-5.24-9.9l-4.09-6.14L216.84,35Z" transform="translate(0.04)" style="fill:#61db78"/><path d="M221.72,56.74a13.63,13.63,0,0,0,6.47-8.26c1.72-6,2.13-7,2.13-10.23S229,19.35,229,19.35l-8.56-.58-1.8,1.34,0.74,33.06Z" transform="translate(0.04)" style="fill:#414042;opacity:0.23000000417232513;isolation:isolate"/><path d="M223.38,20.24a3.28,3.28,0,0,0,1.56-2.29,1.22,1.22,0,0,1,1.35-1.07h0a0.3,0.3,0,0,1,.25.08l1.07,4.83a1.16,1.16,0,0,0-.82,1.23c0.25,0.82,2.21,12.19,2.21,15.55s-1.48,9.33-4.25,11.21-5.81,3.43-6.63,4.58-1.72,2-2.86,2-4.58-.41-5.89-0.25-3.52.16-3.52-.49a23.12,23.12,0,0,0-.67-3c-0.25-1.15.74-2.13,1-3a7.43,7.43,0,0,0,.25-1.88,7.18,7.18,0,0,1-2.37-2,13.22,13.22,0,0,0-1.39-2.86c-1-1.34-3.35-4.09-3.84-5.73a32.72,32.72,0,0,1-1.72-7.94c-0.16-3.19.16-6.79,0.57-6.87s-0.57,5.73,3.11,11.4,7.77,5.16,7.77,5.16a35.54,35.54,0,0,0,.08-4.17c-0.08-1.72-.41-3.84,0-4.25s1.23,2,2.68,2.86,1.07,0.74,1.07.74a10.16,10.16,0,0,0,.67-4.58,14.85,14.85,0,0,1,.49-4.69s-1.39-2.86-2-4.34a21.16,21.16,0,0,0-1.39-2.68,33.63,33.63,0,0,0,4.17,2.21,20,20,0,0,1,2,.82,8.48,8.48,0,0,1,3.19-.57Z" transform="translate(0.04)" style="fill:#61db78"/><path d="M226.55,22.45s-0.67-2.54-1.23-4S225.81,14,227.7,14s-0.16,1.23.67,1.23,0.9-1.88,1.88-1.64-0.25,1.48.49,3.11a3.47,3.47,0,0,1-.57,4A7.3,7.3,0,0,1,227.64,22Z" transform="translate(0.04)" style="fill:#30893d"/><path d="M213.05,23.52a21.8,21.8,0,0,0-.82-3.11c-0.67-1-1.34-2-2-2.86,0,0-.49-1.48-3.11-1.34s-1.23,1.39-1.23,1.39l0.41,1a11.23,11.23,0,0,0,1.88,3.55,4.82,4.82,0,0,0,3.43,1.39h1.48Z" transform="translate(0.04)" style="fill:#30893d"/><path d="M219.19,39.72s0.16-.49,1.56-0.49,0.9,0.25.9,0.25,0.25,1.07-1.23,1S219.19,39.72,219.19,39.72Z" transform="translate(0.04)"/><path d="M213.05,53.06s0.49-1.39,1.23-1.39,2,0.49,1.48,1S213.05,53.06,213.05,53.06Z" transform="translate(0.04)" style="fill:#30893d"/><path d="M206.83,53.55s-0.74-2.29-1-1.8-1,1,0,1.39Z" transform="translate(0.04)" style="fill:#30893d"/><ellipse cx="249.59" cy="39.47" rx="16.69" ry="14.16" style="fill:#fff"/><path d="M206.43,47.74a4.58,4.58,0,0,0,2.87.54c1.8-.16-2.37,1.15-3.19,2.13l-0.67.74a8.17,8.17,0,0,0,.82-2C206.34,48.56,206.43,47.74,206.43,47.74Z" transform="translate(0.04)" style="fill:#414042;opacity:0.23000000417232513;isolation:isolate"/><path d="M208.55,38.82a3.71,3.71,0,0,1,2.37,1.07,33.7,33.7,0,0,1-1.64-3.19,12.32,12.32,0,0,0-.67-1.72v2.29C208.62,37.83,208.55,38.82,208.55,38.82Z" transform="translate(0.04)" style="fill:#414042;opacity:0.23000000417232513;isolation:isolate"/><path d="M245.29,60.5a2.29,2.29,0,0,1,1.07-2,36.22,36.22,0,0,1,7.12-1.8,27.42,27.42,0,0,0,2.94-.33s-5.57,1.88-6.3,2.37-3.43,2.21-3.6,2.78a2.27,2.27,0,0,1-.67,1Z" transform="translate(0.04)" style="fill:#414042;opacity:0.23000000417232513;isolation:isolate"/><path d="M254,41.06v1a0.36,0.36,0,0,1-.09.25,0.34,0.34,0,0,1-.27.11h-1V45H251.1V42.45h-4.4a0.48,0.48,0,0,1-.32-0.11,0.48,0.48,0,0,1-.17-0.27L246,41.15l4.94-6.6h1.69v6.51H254Zm-2.86,0V37.65a9.75,9.75,0,0,1,.07-1.07l-3.24,4.48h3.17Z" transform="translate(0.04)"/><path d="M236.22,153.2a15.9,15.9,0,0,1,1.24-1.16,1.53,1.53,0,0,0,.58-0.16l1.76-2.49a4.62,4.62,0,0,1,2.07-1.91c1.16-.41,1.36-1.49,3.31-1.16a4.75,4.75,0,0,1,2.71,1.16,8.14,8.14,0,0,1,4.39.75c2.07,1.08,3.39,3.64,4.75,4s3.15-.5,4.89-1.08,11.18,3.56,12.83,4.3,10.43,2.4,12.42,11S287,181.37,286,183.17s-4.07,6.88-4.3,8-1.24,6.21-1.36,6.88a41.78,41.78,0,0,0,0,4.55c0.08,0.33.75,0.83,0.33,1.24s-3.48,2.07-6,.25c0,0-1.4-.83-1.36-1.82s0.75-5,.91-6.11a33.7,33.7,0,0,0,.68-5,1.55,1.55,0,0,0-.41-1.16s-4.22,1.66-5,1.82a2.71,2.71,0,0,0-1.36.58,24.64,24.64,0,0,1,.75,4.3c0.08,1.36.5,3.48,0.08,4.39s-2.9,1.16-3.31,1.16a7.47,7.47,0,0,1-1.82-.5,29.9,29.9,0,0,0,0-5.55,19.34,19.34,0,0,0-.58-2.07,38.17,38.17,0,0,0-.68,6.21c0.15,1.66,1,5.46,1.36,5.8a2.48,2.48,0,0,1-1.4,3.73c-2.48.75-5,.68-5.88-0.5a13,13,0,0,1-1.66-2.48,16.19,16.19,0,0,0,1-6.29c-0.08-3.48-.83-6.54-0.58-8.36s-1.4.83-4.3-.83-1.24-.68-1.24-0.68l-0.91.68s3.89,7.87,4.47,10.11a32.21,32.21,0,0,1,.75,3.89,6.83,6.83,0,0,1-4.14,3.39,7.19,7.19,0,0,1-4.75-.58,16,16,0,0,0,0-6.88c-0.83-3.06-5.3-10-5.3-10l-4.14-6.21-1.39-16.84Z" transform="translate(0.04)" style="fill:#61db78"/><path d="M239.37,190.31a13.8,13.8,0,0,0,6.54-8.34c1.74-6.11,2.15-7,2.15-10.35s-1.36-19.13-1.36-19.13l-8.69-.58-1.82,1.36,0.75,33.45Z" transform="translate(0.04)" style="fill:#414042;opacity:0.23000000417232513;isolation:isolate"/><path d="M241,153.37A3.32,3.32,0,0,0,242.6,151,1.24,1.24,0,0,1,244,150h0a0.31,0.31,0,0,1,.25.08l1.08,4.89a1.17,1.17,0,0,0-.83,1.24c0.25,0.83,2.23,12.34,2.23,15.73s-1.49,9.44-4.3,11.35-5.88,3.48-6.71,4.64S234,190,232.83,190s-4.64-.41-6-0.25-3.56.16-3.56-.5a23.4,23.4,0,0,0-.68-3.06c-0.25-1.16.75-2.15,1-3.06a7.52,7.52,0,0,0,.25-1.91,7.26,7.26,0,0,1-2.4-2.07,13.38,13.38,0,0,0-1.4-2.9c-1-1.36-3.39-4.14-3.89-5.8a33.12,33.12,0,0,1-1.74-8c-0.16-3.23.16-6.88,0.58-7s-0.58,5.8,3.15,11.54,7.87,5.22,7.87,5.22a36,36,0,0,0,.08-4.22c-0.08-1.74-.41-3.89,0-4.3s1.24,2.07,2.71,2.9,1.08,0.75,1.08.75a10.28,10.28,0,0,0,.68-4.64,15,15,0,0,1,.5-4.75s-1.4-2.9-2.07-4.39a21.41,21.41,0,0,0-1.4-2.71,34,34,0,0,0,4.22,2.23,20.23,20.23,0,0,1,2,.83,8.58,8.58,0,0,1,3.23-.58Z" transform="translate(0.04)" style="fill:#61db78"/><path d="M244.25,155.6s-0.68-2.57-1.24-4.07,0.5-4.47,2.4-4.47-0.16,1.24.68,1.24,0.91-1.91,1.91-1.66-0.25,1.49.5,3.15a3.52,3.52,0,0,1-.58,4.07,7.39,7.39,0,0,1-2.57,1.24Z" transform="translate(0.04)" style="fill:#30893d"/><path d="M230.59,156.68a22.07,22.07,0,0,0-.83-3.15c-0.68-1-1.36-2-2.07-2.9,0,0-.5-1.49-3.15-1.36s-1.24,1.4-1.24,1.4l0.41,1a11.36,11.36,0,0,0,1.91,3.56,4.88,4.88,0,0,0,3.48,1.4h1.49v0Z" transform="translate(0.04)" style="fill:#30893d"/><path d="M236.8,173.08s0.16-.5,1.57-0.5,0.91,0.25.91,0.25,0.25,1.08-1.24,1S236.8,173.08,236.8,173.08Z" transform="translate(0.04)"/><path d="M230.59,186.58s0.5-1.4,1.24-1.4,2.07,0.5,1.49,1S230.59,186.58,230.59,186.58Z" transform="translate(0.04)" style="fill:#30893d"/><path d="M224.29,187.07s-0.75-2.32-1-1.82-1,1,0,1.4Z" transform="translate(0.04)" style="fill:#30893d"/><ellipse cx="267.56" cy="172.83" rx="16.89" ry="14.33" style="fill:#fff"/><path d="M223.88,181.19a4.64,4.64,0,0,0,2.9.58c1.82-.16-2.4,1.16-3.23,2.15l-0.68.75a8.27,8.27,0,0,0,.83-2C223.8,182,223.88,181.19,223.88,181.19Z" transform="translate(0.04)" style="fill:#414042;opacity:0.23000000417232513;isolation:isolate"/><path d="M226,172.17a3.75,3.75,0,0,1,2.4,1.08,34.1,34.1,0,0,1-1.66-3.23,12.47,12.47,0,0,0-.68-1.74v2.32C226.11,171.17,226,172.17,226,172.17Z" transform="translate(0.04)" style="fill:#414042;opacity:0.23000000417232513;isolation:isolate"/><path d="M263.21,194.11a2.32,2.32,0,0,1,1.08-2,36.65,36.65,0,0,1,7.21-1.82,27.74,27.74,0,0,0,3-.33s-5.63,1.91-6.37,2.4-3.48,2.23-3.64,2.82a2.29,2.29,0,0,1-.68,1Z" transform="translate(0.04)" style="fill:#414042;opacity:0.23000000417232513;isolation:isolate"/><path d="M267.22,177.06v1.36h-5.84v-1.36h2.14v-6.91L262,171.42a0.6,0.6,0,0,1-.5.13,0.58,0.58,0,0,1-.2-0.07,0.42,0.42,0,0,1-.13-0.12l-0.57-.78,3.22-2.71h1.48v9.22h1.9Z" transform="translate(0.04)"/><path d="M276.23,174.44v1a0.37,0.37,0,0,1-.1.25,0.35,0.35,0,0,1-.27.11h-1v2.58h-1.57v-2.57h-4.45a0.49,0.49,0,0,1-.32-0.12,0.48,0.48,0,0,1-.18-0.28l-0.2-1,5-6.68h1.71v6.59h1.36Zm-2.9,0V171a9.86,9.86,0,0,1,.07-1.08l-3.28,4.53h3.21Z" transform="translate(0.04)"/><path d="M241.54,306.29a16.48,16.48,0,0,1,1.29-1.2,1.59,1.59,0,0,0,.6-0.17l1.79-2.6a4.79,4.79,0,0,1,2.15-2c1.2-.43,1.41-1.55,3.43-1.2a4.93,4.93,0,0,1,2.82,1.2,8.45,8.45,0,0,1,4.55.77c2.15,1.12,3.52,3.78,4.93,4.12s3.27-.51,5.07-1.12,11.59,3.69,13.31,4.46,10.82,2.49,12.88,11.42-0.17,15.48-1.2,17.35-4.22,7.13-4.46,8.33-1.29,6.44-1.41,7.13a43.32,43.32,0,0,0,0,4.72c0.08,0.34.77,0.86,0.34,1.29s-3.6,2.15-6.27.26c0,0-1.46-.86-1.41-1.89s0.77-5.24.94-6.33a34.94,34.94,0,0,0,.7-5.24,1.6,1.6,0,0,0-.43-1.2s-4.38,1.72-5.24,1.89a2.82,2.82,0,0,0-1.41.6,25.55,25.55,0,0,1,.77,4.46c0.08,1.41.51,3.6,0.08,4.55s-3,1.2-3.43,1.2a7.74,7.74,0,0,1-1.89-.51,31,31,0,0,0,0-5.75,20.05,20.05,0,0,0-.6-2.15,39.58,39.58,0,0,0-.7,6.44c0.15,1.72,1,5.67,1.41,6A2.57,2.57,0,0,1,268.7,365c-2.58.77-5.15,0.7-6.09-.51a13.46,13.46,0,0,1-1.72-2.58,16.79,16.79,0,0,0,1-6.52c-0.08-3.6-.86-6.78-0.6-8.67s-1.46.86-4.46-.86-1.29-.7-1.29-0.7l-0.94.7s4,8.16,4.64,10.48a33.4,33.4,0,0,1,.77,4,7.08,7.08,0,0,1-4.29,3.52,7.46,7.46,0,0,1-4.93-.6,16.62,16.62,0,0,0,0-7.13c-0.86-3.17-5.5-10.39-5.5-10.39L241,339.37l-1.46-17.43Z" transform="translate(0.04)" style="fill:#61db78"/><path d="M244.8,344.76a14.31,14.31,0,0,0,6.75-8.66c1.8-6.33,2.23-7.3,2.23-10.73s-1.41-19.83-1.41-19.83l-9-.6-1.89,1.41L242.25,341Z" transform="translate(0.04)" style="fill:#414042;opacity:0.23000000417232513;isolation:isolate"/><path d="M246.52,306.46a3.44,3.44,0,0,0,1.63-2.41,1.28,1.28,0,0,1,1.42-1.12h0a0.32,0.32,0,0,1,.26.08l1.12,5.07s-1.12.43-.86,1.29,2.32,12.79,2.32,16.31-1.55,9.79-4.46,11.77-6.09,3.6-7,4.81-1.8,2.15-3,2.15-4.81-.43-6.18-0.26-3.69.17-3.69-.51a24.27,24.27,0,0,0-.7-3.17c-0.26-1.2.77-2.23,1-3.17a7.8,7.8,0,0,0,.26-2,7.53,7.53,0,0,1-2.49-2.15,13.87,13.87,0,0,0-1.44-3c-1-1.41-3.52-4.29-4-6a34.34,34.34,0,0,1-1.8-8.33c-0.17-3.35.17-7.13,0.6-7.21s-0.6,6,3.27,12S231,326,231,326a37.3,37.3,0,0,0,.08-4.38c-0.08-1.8-.43-4,0-4.46s1.29,2.15,2.82,3,1.12,0.77,1.12.77a10.66,10.66,0,0,0,.7-4.81,15.58,15.58,0,0,1,.51-4.93s-1.46-3-2.15-4.55a22.2,22.2,0,0,0-1.46-2.82,35.3,35.3,0,0,0,4.38,2.32,21,21,0,0,1,2.06.86,8.9,8.9,0,0,1,3.35-.6Z" transform="translate(0.04)" style="fill:#61db78"/><path d="M249.87,308.78s-0.7-2.66-1.29-4.22,0.51-4.64,2.49-4.64-0.17,1.29.7,1.29,0.94-2,2-1.72-0.26,1.55.51,3.27a3.65,3.65,0,0,1-.6,4.22,7.66,7.66,0,0,1-2.66,1.29Z" transform="translate(0.04)" style="fill:#30893d"/><path d="M235.7,309.9a22.88,22.88,0,0,0-.86-3.27c-0.7-1-1.41-2.06-2.15-3,0,0-.51-1.55-3.27-1.41s-1.29,1.46-1.29,1.46l0.43,1a11.78,11.78,0,0,0,2,3.69,5.06,5.06,0,0,0,3.6,1.46h1.55v0Z" transform="translate(0.04)" style="fill:#30893d"/><path d="M242.14,326.9s0.17-.51,1.63-0.51,0.94,0.26.94,0.26,0.26,1.12-1.29,1S242.14,326.9,242.14,326.9Z" transform="translate(0.04)"/><path d="M235.7,340.89s0.51-1.46,1.29-1.46,2.15,0.51,1.55,1S235.7,340.89,235.7,340.89Z" transform="translate(0.04)" style="fill:#30893d"/><path d="M229.17,341.41s-0.77-2.41-1-1.89-1,1,0,1.46Z" transform="translate(0.04)" style="fill:#30893d"/><ellipse cx="274.04" cy="326.64" rx="17.52" ry="14.86" style="fill:#fff"/><path d="M228.74,335.31a4.81,4.81,0,0,0,3,.6c1.89-.17-2.49,1.2-3.35,2.23l-0.7.77a8.57,8.57,0,0,0,.86-2.06C228.66,336.17,228.74,335.31,228.74,335.31Z" transform="translate(0.04)" style="fill:#414042;opacity:0.23000000417232513;isolation:isolate"/><path d="M231,326a3.89,3.89,0,0,1,2.49,1.12,35.36,35.36,0,0,1-1.72-3.35,12.93,12.93,0,0,0-.7-1.8v2.41C231.07,324.92,231,326,231,326Z" transform="translate(0.04)" style="fill:#414042;opacity:0.23000000417232513;isolation:isolate"/><path d="M269.53,348.71a2.41,2.41,0,0,1,1.12-2.06,38,38,0,0,1,7.47-1.89,28.77,28.77,0,0,0,3.09-.34s-5.84,2-6.61,2.49-3.6,2.32-3.78,2.92a2.38,2.38,0,0,1-.7,1Z" transform="translate(0.04)" style="fill:#414042;opacity:0.23000000417232513;isolation:isolate"/><path d="M275.22,328.19l0.24-.31,0.22-.3a3,3,0,0,1-.83.37,3.59,3.59,0,0,1-1,.13,3.26,3.26,0,0,1-1.11-.2,2.82,2.82,0,0,1-1-.59,3,3,0,0,1-.7-1,3.34,3.34,0,0,1-.26-1.41,3.52,3.52,0,0,1,.27-1.41,3.46,3.46,0,0,1,.77-1.13,3.58,3.58,0,0,1,1.18-.77,4,4,0,0,1,1.52-.28,4.07,4.07,0,0,1,1.51.27,3.29,3.29,0,0,1,1.15.74,3.24,3.24,0,0,1,.7,1.14,4.07,4.07,0,0,1,.25,1.46,5.13,5.13,0,0,1-.08,1,5.26,5.26,0,0,1-.25.87,5.92,5.92,0,0,1-.39.82,9,9,0,0,1-.51.8l-2.51,3.58a1,1,0,0,1-.39.31,1.32,1.32,0,0,1-.58.13h-1.68Zm-2.48-3.41a1.91,1.91,0,0,0,.47,1.41,1.8,1.8,0,0,0,1.34.48,2.15,2.15,0,0,0,.81-0.14,1.72,1.72,0,0,0,.6-0.39,1.65,1.65,0,0,0,.37-0.59,2.11,2.11,0,0,0,.13-0.7,2.2,2.2,0,0,0-.13-0.8,1.63,1.63,0,0,0-.39-0.59,1.69,1.69,0,0,0-.59-0.37,2.11,2.11,0,0,0-.75-0.13,2,2,0,0,0-.77.14,1.67,1.67,0,0,0-1,1,2.11,2.11,0,0,0-.13.7h0Z" transform="translate(0.04)"/><path d="M135.8,200.4a16.19,16.19,0,0,1,1.26-1.19,1.54,1.54,0,0,0,.58-0.17l1.76-2.55a4.7,4.7,0,0,1,2.1-2c1.18-.43,1.37-1.53,3.35-1.19a4.78,4.78,0,0,1,2.75,1.19,8.14,8.14,0,0,1,4.45.77c2.1,1.11,3.44,3.75,4.81,4.09s3.19-.51,4.95-1.11,11.32,3.66,13,4.42,10.56,2.47,12.58,11.32-0.16,15.35-1.18,17.2-4.12,7.07-4.36,8.26-1.26,6.38-1.37,7.07a43.58,43.58,0,0,0,0,4.68c0.08,0.34.76,0.85,0.34,1.28s-3.52,2.13-6.12.26c0,0-1.42-.85-1.37-1.87s0.76-5.19.92-6.28a35.13,35.13,0,0,0,.69-5.19,1.6,1.6,0,0,0-.42-1.19s-4.27,1.7-5.11,1.87a2.73,2.73,0,0,0-1.37.59,25.67,25.67,0,0,1,.76,4.42c0.08,1.4.5,3.57,0.08,4.51s-2.93,1.19-3.35,1.19a7.47,7.47,0,0,1-1.84-.51,31.19,31.19,0,0,0,0-5.7,20.11,20.11,0,0,0-.58-2.13,39.79,39.79,0,0,0-.69,6.38c0.15,1.7,1,5.62,1.37,6a2.56,2.56,0,0,1-1.42,3.83c-2.52.77-5,.7-6-0.51a13.35,13.35,0,0,1-1.68-2.55,16.87,16.87,0,0,0,1-6.47c-0.08-3.57-.84-6.72-0.58-8.59s-1.42.85-4.36-.85-1.26-.7-1.26-0.7l-0.92.7s3.94,8.08,4.53,10.39a33.55,33.55,0,0,1,.76,4s-1.42,2.89-4.19,3.49a7.19,7.19,0,0,1-4.81-.59,16.72,16.72,0,0,0,0-7.07c-0.84-3.15-5.37-10.3-5.37-10.3l-4.19-6.38-1.42-17.28Z" transform="translate(0.04)" style="fill:#61db78"/><path d="M139,238.54a14.15,14.15,0,0,0,6.62-8.59c1.76-6.28,2.18-7.23,2.18-10.64s-1.37-19.66-1.37-19.66l-8.8-.59-1.84,1.4,0.76,34.38Z" transform="translate(0.04)" style="fill:#414042;opacity:0.23000000417232513;isolation:isolate"/><path d="M140.66,200.57a3.41,3.41,0,0,0,1.59-2.39,1.25,1.25,0,0,1,1.39-1.11h0.06a0.31,0.31,0,0,1,.25.08l1.09,5a1.2,1.2,0,0,0-.84,1.28c0.25,0.85,2.24,12.68,2.24,16.17s-1.51,9.7-4.36,11.66-6,3.57-6.79,4.76-1.76,2.13-2.93,2.13-4.69-.43-6-0.26-3.61.17-3.61-.51a24.36,24.36,0,0,0-.69-3.15c-0.25-1.19.76-2.21,1-3.15a7.84,7.84,0,0,0,.25-2,7.39,7.39,0,0,1-2.43-2.13,13.84,13.84,0,0,0-1.42-3c-1-1.4-3.44-4.26-3.94-6a34.47,34.47,0,0,1-1.76-8.26c-0.16-3.32.16-7.07,0.58-7.15s-0.58,6,3.19,11.86,8,5.36,8,5.36a37.52,37.52,0,0,0,.08-4.34c-0.08-1.79-.42-4,0-4.42s1.26,2.13,2.75,3,1.09,0.77,1.09.77a10.71,10.71,0,0,0,.69-4.76,15.67,15.67,0,0,1,.5-4.88s-1.42-3-2.1-4.51a22.13,22.13,0,0,0-1.42-2.79,34.29,34.29,0,0,0,4.27,2.3,20.31,20.31,0,0,1,2,.85,8.57,8.57,0,0,1,3.27-.59Z" transform="translate(0.04)" style="fill:#61db78"/><path d="M143.93,202.87s-0.69-2.64-1.26-4.19,0.5-4.6,2.43-4.6-0.16,1.28.69,1.28,0.92-2,1.93-1.7-0.25,1.53.5,3.24a3.65,3.65,0,0,1-.58,4.19,7.44,7.44,0,0,1-2.6,1.28Z" transform="translate(0.04)" style="fill:#30893d"/><path d="M130.1,204a23,23,0,0,0-.84-3.24c-0.69-1-1.37-2-2.1-3,0,0-.5-1.53-3.19-1.4s-1.26,1.44-1.26,1.44l0.42,1a11.74,11.74,0,0,0,1.93,3.66,4.9,4.9,0,0,0,3.52,1.44h1.51v0Z" transform="translate(0.04)" style="fill:#30893d"/><path d="M136.39,220.83s0.16-.51,1.59-0.51,0.92,0.26.92,0.26,0.25,1.11-1.26,1S136.39,220.83,136.39,220.83Z" transform="translate(0.04)"/><path d="M130.1,234.71s0.5-1.44,1.26-1.44,2.1,0.51,1.51,1S130.1,234.71,130.1,234.71Z" transform="translate(0.04)" style="fill:#30893d"/><path d="M123.72,235.21s-0.76-2.39-1-1.87-1,1,0,1.44Z" transform="translate(0.04)" style="fill:#30893d"/><ellipse cx="167.54" cy="220.57" rx="17.11" ry="14.73" style="fill:#fff"/><path d="M123.3,229.17a4.64,4.64,0,0,0,2.93.59c1.84-.17-2.43,1.19-3.27,2.21l-0.69.77a8.57,8.57,0,0,0,.84-2C123.22,230,123.3,229.17,123.3,229.17Z" transform="translate(0.04)" style="fill:#414042;opacity:0.23000000417232513;isolation:isolate"/><path d="M125.49,219.9a3.78,3.78,0,0,1,2.43,1.11,35.24,35.24,0,0,1-1.68-3.32,12.93,12.93,0,0,0-.69-1.79v2.39C125.57,218.87,125.49,219.9,125.49,219.9Z" transform="translate(0.04)" style="fill:#414042;opacity:0.23000000417232513;isolation:isolate"/><path d="M163.14,242.45a2.4,2.4,0,0,1,1.09-2,36.66,36.66,0,0,1,7.3-1.87,27.69,27.69,0,0,0,3-.34s-5.7,2-6.45,2.47-3.52,2.3-3.69,2.89a2.36,2.36,0,0,1-.69,1Z" transform="translate(0.04)" style="fill:#414042;opacity:0.23000000417232513;isolation:isolate"/><path d="M166.83,219.4a6.67,6.67,0,0,1,.69-0.11,6.09,6.09,0,0,1,.63,0,4,4,0,0,1,1.48.26,3,3,0,0,1,1.08.7,3,3,0,0,1,.69,1.05,3.75,3.75,0,0,1,.22,1.3,4,4,0,0,1-.3,1.58,3.56,3.56,0,0,1-.83,1.22,3.74,3.74,0,0,1-1.26.78,4.41,4.41,0,0,1-1.59.28,4.19,4.19,0,0,1-1-.1,4.69,4.69,0,0,1-1.58-.7,4.63,4.63,0,0,1-.6-0.48l0.56-.79a0.54,0.54,0,0,1,.47-0.26,0.68,0.68,0,0,1,.38.12l0.44,0.27a3.58,3.58,0,0,0,.58.27,2.41,2.41,0,0,0,.81.12,2.22,2.22,0,0,0,.89-0.17,1.73,1.73,0,0,0,.64-0.46,2,2,0,0,0,.38-0.7,2.93,2.93,0,0,0,.13-0.89,1.86,1.86,0,0,0-.51-1.4,2,2,0,0,0-1.5-.5,4.63,4.63,0,0,0-1.56.29l-1.2-.34,0.89-5.27h5.3v0.79a0.88,0.88,0,0,1-.25.65,1.14,1.14,0,0,1-.83.25h-2.93Z" transform="translate(0.04)"/><path d="M289.27,432.75a16.55,16.55,0,0,1,1.29-1.21,1.6,1.6,0,0,0,.6-0.17l1.81-2.59a4.81,4.81,0,0,1,2.16-2c1.21-.43,1.41-1.55,3.45-1.21a5,5,0,0,1,2.83,1.21,8.48,8.48,0,0,1,4.57.78c2.16,1.12,3.53,3.8,4.95,4.14s3.28-.52,5.09-1.12,11.64,3.71,13.37,4.48,10.86,2.5,12.93,11.47-0.17,15.55-1.21,17.42-4.24,7.16-4.48,8.37-1.29,6.47-1.41,7.16a43.5,43.5,0,0,0,0,4.74c0.08,0.35.78,0.86,0.35,1.29s-3.62,2.16-6.3.26c0,0-1.46-.86-1.41-1.89s0.78-5.26.95-6.36a35.09,35.09,0,0,0,.71-5.26,1.61,1.61,0,0,0-.43-1.21s-4.4,1.72-5.26,1.89a2.83,2.83,0,0,0-1.41.6,25.66,25.66,0,0,1,.78,4.48c0.08,1.41.52,3.62,0.08,4.57s-3,1.21-3.45,1.21a7.77,7.77,0,0,1-1.89-.52,31.13,31.13,0,0,0,0-5.77,20.14,20.14,0,0,0-.6-2.16,39.75,39.75,0,0,0-.71,6.47c0.16,1.72,1,5.69,1.41,6a2.58,2.58,0,0,1-1.46,3.88c-2.59.78-5.17,0.71-6.12-.52a13.51,13.51,0,0,1-1.72-2.59,16.86,16.86,0,0,0,1-6.55c-0.08-3.62-.86-6.81-0.6-8.71s-1.46.86-4.48-.86-1.29-.71-1.29-0.71l-0.95.71s4,8.19,4.66,10.52a33.54,33.54,0,0,1,.78,4,7.11,7.11,0,0,1-4.31,3.53,7.49,7.49,0,0,1-4.95-.6,16.69,16.69,0,0,0,0-7.16c-0.86-3.19-5.52-10.43-5.52-10.43L288.77,466l-1.4-17.55Z" transform="translate(0.04)" style="fill:#61db78"/><path d="M292.54,471.38a14.37,14.37,0,0,0,6.81-8.71c1.81-6.36,2.24-7.33,2.24-10.78S300.18,432,300.18,432l-9.05-.6-1.89,1.41L290,467.63Z" transform="translate(0.04)" style="fill:#414042;opacity:0.23000000417232513;isolation:isolate"/><path d="M294.28,432.89a3.46,3.46,0,0,0,1.64-2.42,1.29,1.29,0,0,1,1.43-1.13h0a0.32,0.32,0,0,1,.26.08l1.12,5.09s-1.12.43-.86,1.29,2.33,12.85,2.33,16.38S298.68,462,295.75,464s-6.12,3.62-7,4.83-1.83,2.21-3,2.21-4.83-.43-6.21-0.26-3.71.17-3.71-.52a24.37,24.37,0,0,0-.71-3.19c-0.26-1.21.78-2.24,1-3.19a7.83,7.83,0,0,0,.26-2,7.56,7.56,0,0,1-2.5-2.16,13.93,13.93,0,0,0-1.46-3c-1-1.41-3.53-4.31-4-6a34.48,34.48,0,0,1-1.81-8.37c-0.17-3.36.17-7.16,0.6-7.24s-0.6,6,3.28,12,8.19,5.44,8.19,5.44a37.46,37.46,0,0,0,.08-4.4c-0.08-1.81-.43-4,0-4.48s1.29,2.16,2.83,3,1.12,0.78,1.12.78a10.71,10.71,0,0,0,.71-4.83,15.65,15.65,0,0,1,.52-4.95s-1.46-3-2.16-4.57a22.3,22.3,0,0,0-1.46-2.83,35.45,35.45,0,0,0,4.4,2.33,21.06,21.06,0,0,1,2.07.86,8.93,8.93,0,0,1,3.36-.6h4.16Z" transform="translate(0.04)" style="fill:#61db78"/><path d="M297.63,435.25s-0.71-2.67-1.29-4.24,0.52-4.66,2.5-4.66-0.17,1.29.71,1.29,0.95-2,2-1.72-0.26,1.55.52,3.28a3.66,3.66,0,0,1-.6,4.24,7.7,7.7,0,0,1-2.67,1.29Z" transform="translate(0.04)" style="fill:#30893d"/><path d="M283.41,436.37a23,23,0,0,0-.86-3.28c-0.71-1-1.41-2.07-2.16-3,0,0-.52-1.55-3.28-1.41s-1.29,1.46-1.29,1.46l0.43,1a11.83,11.83,0,0,0,2,3.71,5.08,5.08,0,0,0,3.62,1.46h1.55v0Z" transform="translate(0.04)" style="fill:#30893d"/><path d="M289.87,453.44s0.17-.52,1.64-0.52,0.95,0.26.95,0.26,0.26,1.12-1.29,1S289.87,453.44,289.87,453.44Z" transform="translate(0.04)"/><path d="M283.41,467.52s0.52-1.46,1.29-1.46,2.16,0.52,1.55,1S283.41,467.52,283.41,467.52Z" transform="translate(0.04)" style="fill:#30893d"/><path d="M276.85,468s-0.78-2.42-1-1.89-1,1,0,1.46Z" transform="translate(0.04)" style="fill:#30893d"/><ellipse cx="321.91" cy="453.18" rx="17.59" ry="14.92" style="fill:#fff"/><path d="M276.42,461.87a4.83,4.83,0,0,0,3,.6c1.89-.17-2.5,1.21-3.36,2.24l-0.71.78a8.61,8.61,0,0,0,.86-2.07C276.34,462.76,276.42,461.87,276.42,461.87Z" transform="translate(0.04)" style="fill:#414042;opacity:0.23000000417232513;isolation:isolate"/><path d="M278.66,452.5a3.91,3.91,0,0,1,2.5,1.12,35.51,35.51,0,0,1-1.72-3.36,13,13,0,0,0-.71-1.81v2.42C278.73,451.46,278.66,452.5,278.66,452.5Z" transform="translate(0.04)" style="fill:#414042;opacity:0.23000000417232513;isolation:isolate"/><path d="M317.38,475.35a2.42,2.42,0,0,1,1.12-2.07,38.16,38.16,0,0,1,7.51-1.89,28.9,28.9,0,0,0,3.1-.35s-5.87,2-6.64,2.5-3.62,2.33-3.8,2.93a2.39,2.39,0,0,1-.71,1Z" transform="translate(0.04)" style="fill:#414042;opacity:0.23000000417232513;isolation:isolate"/><path d="M321.14,457.25a0.71,0.71,0,0,1,.48.17,0.59,0.59,0,0,1,.18.45V459h-7.54v-0.62a1.12,1.12,0,0,1,.08-0.4,1,1,0,0,1,.25-0.37l3.34-3.34q0.42-.42.75-0.81a5.18,5.18,0,0,0,.55-0.77,3.6,3.6,0,0,0,.34-0.77,2.83,2.83,0,0,0,.12-0.83,2,2,0,0,0-.11-0.71,1.41,1.41,0,0,0-.33-0.51,1.34,1.34,0,0,0-.5-0.31,2,2,0,0,0-.66-0.11,2,2,0,0,0-.62.09,1.67,1.67,0,0,0-.88.66,1.74,1.74,0,0,0-.23.5,0.83,0.83,0,0,1-.33.47,0.93,0.93,0,0,1-.59.06l-1-.18a4.08,4.08,0,0,1,.44-1.41,3.31,3.31,0,0,1,.82-1,3.39,3.39,0,0,1,1.12-.6,4.5,4.5,0,0,1,1.36-.2,4.14,4.14,0,0,1,1.41.23,3.14,3.14,0,0,1,1.08.64,2.86,2.86,0,0,1,.71,1,3.19,3.19,0,0,1,.25,1.29,3.43,3.43,0,0,1-.18,1.12,4.7,4.7,0,0,1-.48,1,6.69,6.69,0,0,1-.71.91l-0.84.9-2.54,2.58a5.58,5.58,0,0,1,.71-0.16,4.24,4.24,0,0,1,.71-0.06h2.83Z" transform="translate(0.04)"/><path d="M330.94,453.5a9,9,0,0,1-.31,2.5,5.12,5.12,0,0,1-.86,1.75,3.45,3.45,0,0,1-1.29,1,3.81,3.81,0,0,1-1.6.34,3.76,3.76,0,0,1-1.59-.34,3.42,3.42,0,0,1-1.27-1,5.1,5.1,0,0,1-.84-1.75,10.42,10.42,0,0,1,0-5,5.1,5.1,0,0,1,.84-1.75,3.42,3.42,0,0,1,1.27-1,3.76,3.76,0,0,1,1.59-.34,3.81,3.81,0,0,1,1.6.34,3.44,3.44,0,0,1,1.29,1,5.14,5.14,0,0,1,.86,1.75A9,9,0,0,1,330.94,453.5Zm-1.94,0a9.29,9.29,0,0,0-.18-2,4,4,0,0,0-.47-1.24,1.71,1.71,0,0,0-.71-0.65,1.77,1.77,0,0,0-.79-0.18,1.74,1.74,0,0,0-.78.18,1.69,1.69,0,0,0-.66.65,4,4,0,0,0-.46,1.24,11.51,11.51,0,0,0,0,4,4,4,0,0,0,.46,1.24,1.69,1.69,0,0,0,.66.65,1.74,1.74,0,0,0,.78.18,1.77,1.77,0,0,0,.79-0.18,1.71,1.71,0,0,0,.71-0.65,4,4,0,0,0,.47-1.24,9.29,9.29,0,0,0,.17-2h0Z" transform="translate(0.04)"/><path d="M154.06,279.41a16.55,16.55,0,0,1,1.29-1.21A1.6,1.6,0,0,0,156,278l1.81-2.59a4.81,4.81,0,0,1,2.16-2c1.21-.43,1.41-1.55,3.45-1.21a5,5,0,0,1,2.83,1.21,8.48,8.48,0,0,1,4.57.78c2.16,1.12,3.53,3.8,4.95,4.14s3.28-.52,5.09-1.12,11.64,3.71,13.37,4.48,10.86,2.5,12.93,11.47-0.17,15.55-1.21,17.42-4.24,7.16-4.48,8.37-1.29,6.47-1.41,7.16a43.5,43.5,0,0,0,0,4.74c0.08,0.35.78,0.86,0.35,1.29s-3.62,2.16-6.3.26c0,0-1.46-.86-1.41-1.89s0.78-5.26.95-6.36a35.09,35.09,0,0,0,.71-5.26,1.61,1.61,0,0,0-.43-1.21s-4.4,1.72-5.26,1.89a2.83,2.83,0,0,0-1.41.6,25.66,25.66,0,0,1,.78,4.48c0.08,1.41.52,3.62,0.08,4.57s-3,1.21-3.45,1.21a7.77,7.77,0,0,1-1.89-.52,31.13,31.13,0,0,0,0-5.77,20.14,20.14,0,0,0-.6-2.16,39.75,39.75,0,0,0-.71,6.47c0.16,1.72,1,5.69,1.41,6a2.58,2.58,0,0,1-1.46,3.88c-2.59.78-5.17,0.71-6.12-.52a13.51,13.51,0,0,1-1.72-2.59,16.86,16.86,0,0,0,1-6.55c-0.08-3.62-.86-6.81-0.6-8.71s-1.46.86-4.48-.86-1.29-.71-1.29-0.71l-0.95.71s4,8.19,4.66,10.52a33.55,33.55,0,0,1,.78,4,7.11,7.11,0,0,1-4.31,3.53,7.49,7.49,0,0,1-4.95-.6,16.69,16.69,0,0,0,0-7.16c-0.86-3.19-5.52-10.43-5.52-10.43l-4.31-6.47-1.46-17.51Z" transform="translate(0.04)" style="fill:#61db78"/><path d="M157.34,318a14.37,14.37,0,0,0,6.81-8.73c1.81-6.36,2.24-7.33,2.24-10.78S165,278.62,165,278.62l-9.05-.6L154,279.43l0.78,34.84Z" transform="translate(0.04)" style="fill:#414042;opacity:0.23000000417232513;isolation:isolate"/><path d="M159.07,279.59a3.46,3.46,0,0,0,1.64-2.42,1.29,1.29,0,0,1,1.43-1.13h0a0.32,0.32,0,0,1,.26.08l1.12,5.09s-1.12.43-.86,1.29S165,295.36,165,298.9s-1.55,9.83-4.48,11.82-6.12,3.62-7,4.83-1.81,2.16-3,2.16-4.83-.43-6.21-0.26-3.71.17-3.71-.52a24.37,24.37,0,0,0-.71-3.19c-0.26-1.21.78-2.24,1-3.19a7.83,7.83,0,0,0,.26-2,7.56,7.56,0,0,1-2.5-2.16,13.93,13.93,0,0,0-1.46-3c-1-1.41-3.53-4.31-4-6a34.48,34.48,0,0,1-1.81-8.37c-0.17-3.36.17-7.16,0.6-7.24s-0.6,6,3.28,12,8.19,5.44,8.19,5.44a37.46,37.46,0,0,0,.08-4.4c-0.08-1.81-.43-4,0-4.48s1.29,2.16,2.83,3,1.12,0.78,1.12.78a10.71,10.71,0,0,0,.71-4.83,15.65,15.65,0,0,1,.52-4.95s-1.46-3-2.16-4.57a22.3,22.3,0,0,0-1.46-2.83,35.45,35.45,0,0,0,4.4,2.33,21.06,21.06,0,0,1,2.07.86,8.93,8.93,0,0,1,3.36-.6Z" transform="translate(0.04)" style="fill:#61db78"/><path d="M162.42,281.91s-0.71-2.67-1.29-4.24,0.52-4.66,2.5-4.66-0.17,1.29.71,1.29,0.95-2,2-1.72-0.26,1.55.52,3.28a3.66,3.66,0,0,1-.6,4.24,7.7,7.7,0,0,1-2.69,1.29Z" transform="translate(0.04)" style="fill:#30893d"/><path d="M148.2,283a23,23,0,0,0-.86-3.28c-0.71-1-1.41-2.07-2.16-3,0,0-.52-1.55-3.28-1.41s-1.29,1.46-1.29,1.46l0.43,1a11.83,11.83,0,0,0,2,3.71,5.08,5.08,0,0,0,3.62,1.46h1.55v0Z" transform="translate(0.04)" style="fill:#30893d"/><path d="M154.66,300.13s0.17-.52,1.64-0.52,0.95,0.26.95,0.26,0.26,1.12-1.29,1S154.66,300.13,154.66,300.13Z" transform="translate(0.04)"/><path d="M148.2,314.16s0.52-1.46,1.29-1.46,2.16,0.52,1.55,1S148.2,314.16,148.2,314.16Z" transform="translate(0.04)" style="fill:#30893d"/><path d="M141.64,314.68s-0.78-2.42-1-1.89-1,1,0,1.46Z" transform="translate(0.04)" style="fill:#30893d"/><ellipse cx="186.7" cy="299.85" rx="17.59" ry="14.92" style="fill:#fff"/><path d="M141.21,308.56a4.83,4.83,0,0,0,3,.6c1.89-.17-2.5,1.21-3.36,2.24l-0.71.78a8.61,8.61,0,0,0,.86-2.07C141.13,309.42,141.21,308.56,141.21,308.56Z" transform="translate(0.04)" style="fill:#414042;opacity:0.23000000417232513;isolation:isolate"/><path d="M143.45,299.16a3.91,3.91,0,0,1,2.5,1.12,35.51,35.51,0,0,1-1.72-3.36,13,13,0,0,0-.71-1.81v2.42C143.54,298.13,143.45,299.16,143.45,299.16Z" transform="translate(0.04)" style="fill:#414042;opacity:0.23000000417232513;isolation:isolate"/><path d="M182.17,322A2.42,2.42,0,0,1,183.3,320a38.16,38.16,0,0,1,7.51-1.89,28.89,28.89,0,0,0,3.1-.35s-5.87,2-6.64,2.5-3.62,2.33-3.8,2.93a2.39,2.39,0,0,1-.71,1Z" transform="translate(0.04)" style="fill:#414042;opacity:0.23000000417232513;isolation:isolate"/><path d="M190.75,304.26v1.41h-6.09v-1.41h2.21v-7.2l-1.58,1.32a0.63,0.63,0,0,1-.52.13,0.61,0.61,0,0,1-.21-0.08,0.44,0.44,0,0,1-.13-0.13l-0.59-.81,3.36-2.83h1.54v9.61h2Z" transform="translate(0.04)"/><circle cx="462.22" cy="411.71" r="7.76" style="fill:#4f4f4f"/><circle cx="462.22" cy="403.96" r="5.4" style="fill:#ed2d64"/><circle cx="462.22" cy="419.97" r="5.4" style="fill:#ed2d64"/><circle cx="464.74" cy="419.97" r="1.67" style="fill:#fff"/><path d="M425.12,413.53l-0.93-.76c0.58-.71,1-1.11,1-1.13l0.86,0.85A13.55,13.55,0,0,0,425.12,413.53Z" transform="translate(0.04)" style="fill:#4f4f4f"/><path d="M457,451.67l-0.23-1.18a15.92,15.92,0,0,0,2.6-.75l0.43,1.12A17.15,17.15,0,0,1,457,451.67Zm5.4-2.07-0.62-1A13.48,13.48,0,0,0,464,447l0.81,0.89a14.67,14.67,0,0,1-2.35,1.73h0v0Zm4.27-4-1-.66a7.22,7.22,0,0,0,1-2.37l1.18,0.26a8.42,8.42,0,0,1-1.17,2.76h0Zm0-5.52a5.89,5.89,0,0,0-1.17-2.24l0.93-.76a7.08,7.08,0,0,1,1.4,2.7Zm-3.12-4c-0.26-.18-0.53-0.35-0.82-0.52a11.32,11.32,0,0,0-1.53-.74l0.44-1.12a12.52,12.52,0,0,1,1.69.82c0.31,0.18.61,0.37,0.89,0.56Zm-29.13-1h-0.88v-1.2h2.76l0,1.2h-1.93Zm-3.75-.23a17.79,17.79,0,0,1-2.84-.6l0.35-1.15a16.6,16.6,0,0,0,2.65.56Zm8.54,0-0.1-1.2,2.78-.27,0.13,1.2-2.8.27h0Zm5.6-.58-0.13-1.2,2.8-.29,0.12,1.2c-1,.09-1.9.17-2.79,0.29h0Zm13.8-.24a22,22,0,0,0-2.71-.34l0.07-1.21a23.17,23.17,0,0,1,2.86.36Zm-8.24-.29-0.08-1.2c1-.07,2-0.11,2.84-0.12v1.2a22.58,22.58,0,0,0-2.76.12h0Zm-25.23-.66a10.39,10.39,0,0,1-2.06-1.6l-0.25-.25,0.87-.83,0.23,0.23a9.19,9.19,0,0,0,1.83,1.41Zm-4.09-4.2a10.5,10.5,0,0,1-1.11-2.75l1.18-.28a9.3,9.3,0,0,0,1,2.45Zm-0.2-5.65h-1.2a13,13,0,0,1,.45-2.9l1.16,0.31a11.82,11.82,0,0,0-.44,2.66Zm1.34-5.16-1.08-.51a21.8,21.8,0,0,1,1.37-2.53l1,0.65a20.62,20.62,0,0,0-1.31,2.46Z" transform="translate(0.04)" style="fill:#4f4f4f"/><path d="M453.77,452a11.56,11.56,0,0,1-1.17,0l0.08-1.2h1.39V452h-0.3Z" transform="translate(0.04)" style="fill:#4f4f4f"/><circle cx="464.74" cy="403.96" r="1.67" style="fill:#fff"/><path d="M449.74,414.59s7,7.27,7,14.1-1.5,10.6-7,10.6-6.9-4.27-6.9-10.24S449.74,414.59,449.74,414.59Z" transform="translate(0.04)" style="fill:#ccc"/><path d="M449.88,409.36s-7-7.29-7-14.12,1.5-10.6,7-10.6,6.9,4.27,6.9,10.24S449.88,409.36,449.88,409.36Z" transform="translate(0.04)" style="fill:#ccc"/><circle cx="444.37" cy="412.07" r="12.44" style="fill:#4f4f4f"/><circle cx="444.37" cy="412.07" r="10.09" style="fill:#fff"/><path d="M447.14,414.81v1.11h-4.8v-1.11h1.76v-5.06q0-.3,0-0.62l-1.25,1a0.5,0.5,0,0,1-.41.11,0.48,0.48,0,0,1-.17-0.06,0.35,0.35,0,0,1-.11-0.1l-0.47-.64,2.65-2.25h1.22v7.58h1.56Z" transform="translate(0.04)"/><path d="M416.59,87.57s-3.82,15-2.45,17.43,9.47,6.74,9.47,6.74-6.26.79-6.26,4.76,11.49-3.37,11.49-3.37l-1.07-4.61,14-5.09s15.62,0.31,22.45,5.06,6.06,4.61,6.06,4.61,0.87,6.42,5.11,6.42-4.11-7.66-4.11-7.66a58.25,58.25,0,0,1,.84-14.68c1.49-7.33,1.69-8.4,1.69-8.4Z" transform="translate(0.04)" style="fill:#8d572b"/><path d="M475.35,80.51l-2.16,11.34S473,95.59,460,96.9s-33.5-2.11-33.5-2.11-6.31-3.16-7.94-4.81a9.84,9.84,0,0,1-2-2.42l2-7.92,51.67-5.57s1.75,4.18,2.85,5A22,22,0,0,0,475.35,80.51Z" transform="translate(0.04)" style="fill:#e8af7c"/><path d="M474.79,83l-0.53,3.2-2.4-1s-0.66,6.25-2.38,7.16a18.25,18.25,0,0,0-4,3.67l4-19.74,3.35-.85Z" transform="translate(0.04)" style="fill:#cb9162"/><path d="M473.94,58.11s11.61,3.66,16.87,7l5.26,3.37-5.26,4.59s-5.53-1.75-10.66,0-3.37,1-3.37,1l-2,8.92s-5.44-8.5-5.31-12.44,0-7.61,0-7.61Z" transform="translate(0.04)" style="fill:#49c3d8"/><path d="M413.79,54s-4.07,2.55-5.93,1.43L406,54.26s2.71-4.14,2.71-6.56-1.86.23-2.71,1.19l-0.85,1S404,44,402.44,42.56s-2.2,1.69-2.2,3.16a7.94,7.94,0,0,0,1,3.23l-6.1-5.61a3.46,3.46,0,0,0-1,3.45,8.32,8.32,0,0,0,2.88,4s-4.24-2.84-5.25-1.88,2,5.07,2,5.07h2.52s-0.34,2.92.68,4.16,4.24,0,4.24,0,11.22,10.41,14.63,12.44l3.41,2V58.83Z" transform="translate(0.04)" style="fill:#49c3d8"/><path d="M473.19,91.86l-1.24,6.06a65,65,0,0,1-6.42,2c-1.31.17-2.73,3.11-4.67,4.08s-3.17,1.68-3.17,1.68l-5.25-1.43-16.86,1.43-3.29,1.2-6.73,2.29s4.71-3.06,4.71-4.86-4.71-10-4.71-10L441,97.19Z" transform="translate(0.04)" style="fill:#502f15"/><path d="M419.29,58.83L413.78,54a13.11,13.11,0,0,1-4.1,1.66c-0.5,1.59-1.21,4.81.34,6.9,2.13,2.86,1.62,4.82,1.62,4.82a40.83,40.83,0,0,0,4.23,3.22l0.55,0.33,2.86-1.34V58.83h0Z" transform="translate(0.04)" style="fill:#339da8;opacity:0.5199999809265137;isolation:isolate"/><path d="M482.38,68.35c-5.33.42-8.3-.12-8.3-1.74s2.16-1.46,2.7-2.55a34.33,34.33,0,0,0,1.29-4.55c-2.41-.86-4.13-1.4-4.13-1.4l-4.46,4.83s0.14,3.67,0,7.61S474.79,83,474.79,83l2-8.81c0.4-.1,1.34-0.4,3.4-1.1,5.13-1.75,10.66,0,10.66,0l1.8-1.57h0s3.12-4.28,1.51-5c-0.62-.3-5.46,2.94-6.23,2.67A13.84,13.84,0,0,0,482.38,68.35Z" transform="translate(0.04)" style="fill:#339da8;opacity:0.5199999809265137;isolation:isolate"/><path d="M476.75,74.19s-2.63.08-3.91,1.29-2.68-3.3-2.68-3.3l0.88,4L474.8,83Z" transform="translate(0.04)" style="fill:url(#linear-gradient-3)"/><path d="M447.94,46.16l22.47,18.27s3.08,20.93-2.64,28.86-17.85,15.64-22.25,17.18-9,2.64-9,2.64,2.86-1.1,2.2-3.53-25.56-28.64-25.78-33.49,4.35-11.66,4.35-11.66L442,48.13Z" transform="translate(0.04)" style="fill:#d5d5d5"/><path d="M467.77,93.31c5.73-7.93,2.64-28.86,2.64-28.86l-3-2.44-13.49,1.26S462,79.94,458.68,94s-22.2,19.19-22.2,19.19,4.63-1.1,9-2.64S462,101.24,467.77,93.31Z" transform="translate(0.04)" style="fill:#aeaeaf;opacity:0.6399999856948853;isolation:isolate"/><path d="M424.29,47.34s-7.89-5.14-8.41-9.14,23.32-18,28.46-19.4S449,17.56,449,17.56L446.66,6.5S450,4.74,458.79,5.26,469.13,9.6,469.13,9.6l-5.68,9.83s12.72,7.93,17.27,14.46,6.72,11.56,5.89,12.87-9.1,3.21-13.75,4a53.1,53.1,0,0,1-7.76.84Z" transform="translate(0.04)" style="fill:#e8af7c"/><path d="M470.41,64.43l0.34,2.89a18.56,18.56,0,0,1-6.62,1,42.88,42.88,0,0,1-8.52-1l-1-3.57Z" transform="translate(0.04)" style="fill:#989898"/><path d="M465.11,51.61H466a58.89,58.89,0,0,0,6.82-.8c4.65-.81,12.93-2.71,13.75-4s-1.32-6.38-5.89-12.93-17.27-14.45-17.27-14.45l5.69-9.82s-0.82-2-4.63-3.32l-3.3,12.1s8.56,6.47,12,12.22-2,11.93-2,11.93Z" transform="translate(0.04)" style="fill:#cb9162"/><path d="M424.92,45.68s-8.55-4.57-5.83-6,7.16-5.62,30.71-4.89,32.57,9.61,32.57,10.85S468,48.85,468,48.85l-36.54-2.14Z" transform="translate(0.04)" style="fill:#75461c"/><path d="M482.38,45.68c0-1.25-9-10.13-32.57-10.85s-28,3.5-30.71,4.89c-1.48.75,0.37,2.44,2.36,3.83,4.89-1,15.94-3.16,20.9-3.09,6.48,0.09,22,1.88,28.89,5.22,1.69,0.82,3.09,1.48,4.24,2C479,47.06,482.38,46.28,482.38,45.68Z" transform="translate(0.04)" style="fill:#502f15"/><path d="M446.09,46.88A17,17,0,0,1,463.4,45c9.89,4.38,4.57,6.66,9.7,7.61s3-4.58,3-4.58,6.66,10.86-1.9,15-8.19,4.76-11.89,4-9.79-1.9-13.22-5.14a32.31,32.31,0,0,1-5.33-6.53Z" transform="translate(0.04)" style="fill:#d5d5d5"/><path d="M434.41,68.35s0.78,5.46,2.92,5.71,7.9-2.69,8.92-5.11,2-5.19,2-5.19l7.33,3.57-0.88-2.24s-3.73-1.27-5.59-3.18a26.58,26.58,0,0,1-3.23-4.19Z" transform="translate(0.04)" style="fill:#99999a;opacity:0.6399999856948853;isolation:isolate"/><path d="M437,45.55s-2.09-2.91-8-2.12-6.47,7.83-11.41,8.21-4.19-1-4.19-2.47-3.89,13.32,0,14.27,7.46,2.09,13.36,0a40.9,40.9,0,0,0,9.13-4.38Z" transform="translate(0.04)" style="fill:#d5d5d5"/><path d="M437,61.15s-6.67,5.28-2.09,10.08,11.75-4.82,11.6-7.18-0.57-6.33-.57-6.33Z" transform="translate(0.04)" style="fill:#49c3d8"/><polygon points="446.25 61.39 446.52 63.24 443.07 65.13 436.8 65.13 434.45 64.06 435.57 62.46 446.25 61.39" style="fill:#339da8;opacity:0.5199999809265137;isolation:isolate"/><path d="M438.37,63.08s-3.43,2.74-1.08,5.19,5.63-2.53,6-3.7a21.77,21.77,0,0,1,1.52-4Z" transform="translate(0.04)" style="fill:#2e7c83"/><path d="M449.14,61.91c3.42,3.23,9.51,4.38,13.22,5.14s3.33,0.19,11.89-4a7.29,7.29,0,0,0,4.36-7.33c0,0.69-.38,2.36-3,4.27-3.47,2.52-8.86-1.73-14.37-4.61A16.87,16.87,0,0,0,450.17,54l-3.88,4.85A33,33,0,0,0,449.14,61.91Z" transform="translate(0.04)" style="fill:#aeaeaf;opacity:0.6399999856948853;isolation:isolate"/><path d="M452.86,53.5a2.73,2.73,0,0,1,1.66,1.88c0.22,1.34.17,3.26-1.4,3.4a15.77,15.77,0,0,1-2.75,0,5.29,5.29,0,0,1-.92,1.77c-0.57.59-.86,0.84-0.86,0.84L447.29,60l1-4.06Z" transform="translate(0.04)" style="fill:#989898"/><path d="M431.76,53.5a4.3,4.3,0,0,0-3.92-1.86c-2.49.33-3.68,3.65-7,4.36s-7.73.5-8.25-.62a3.39,3.39,0,0,1-.4-1.78c-0.71,4-1.1,9.28,1.14,9.84,3.85,1,7.46,2.09,13.36,0a42.8,42.8,0,0,0,8.93-4.24Z" transform="translate(0.04)" style="fill:#c3bcb7"/><ellipse cx="435.75" cy="39.03" rx="4.17" ry="3.49" style="fill:#bfe5eb"/><path d="M441.73,38.78s-1.44-10.14-8.44-10.21S423.08,32,422.8,33.67s-2,8.25-1.26,8.81,7.35-5.38,11.75-4.62,6.22,2.73,6.22,2.73Z" transform="translate(0.04)" style="fill:#d5d5d5"/><path d="M447.29,39.9s10.21-7.27,13.94-7.83,8.63-.7,8.63-0.7,5.66,5,4.89,9.23-0.28,6.15-1.4,6.15-9-7.13-16.22-7.13-10.84,3.81-10.84,3.81Z" transform="translate(0.04)" style="fill:#d5d5d5"/><ellipse cx="458.22" cy="40.46" rx="6" ry="2.97" style="fill:#bfe5eb"/><path d="M447.29,39.9s10.21-7.27,13.94-7.83,8.63-.7,8.63-0.7,5.66,5,4.89,9.23-0.28,6.15-1.4,6.15-9-7.13-16.22-7.13-10.84,3.81-10.84,3.81Z" transform="translate(0.04)" style="fill:#d5d5d5"/><path d="M474.73,40.6a4.68,4.68,0,0,0,0-1.25c-2.79-1-9.51-3.21-14-3.16-5.73.07-13.54,4.89-13.54,4.89l1.34,0.64a17.15,17.15,0,0,1,8.5-2.11c7.2,0,15.1,7.13,16.22,7.13S474,44.79,474.73,40.6Z" transform="translate(0.04)" style="fill:#aeaeaf;opacity:0.6399999856948853;isolation:isolate"/><path d="M433.29,60.55l-1.86,1a21.94,21.94,0,0,1-1.74-4.12c-0.31-1.45,2.4-5.2,2.4-5.2Z" transform="translate(0.04)" style="fill:#989898"/><path d="M440.44,39.06s-4.86-4.61-7.61-5.15-11.2,5.5-11.22,5.51c-0.26,1.54-.39,2.83-0.1,3.07,0.7,0.56,7.35-5.38,11.75-4.62a12.61,12.61,0,0,1,5.89,2.43Z" transform="translate(0.04)" style="fill:#aeaeaf;opacity:0.6399999856948853;isolation:isolate"/><path d="M450.66,51.64s0.76-12.75-6.28-14.08-12.94,14.65-13.51,17.12,1.52,8.75,7.61,9.32a11.14,11.14,0,0,0,9.89-4.38,6.91,6.91,0,0,0,.57-2.09s4.57,1.71,5-1.71S450.66,51.64,450.66,51.64Z" transform="translate(0.04)" style="fill:#49c3d8"/><path d="M450.66,51.64a11.61,11.61,0,0,0-4.18-.45c-1.91.25,1.66-1.37,1.66-7.9,0-4-.24-3.57-0.24-3.57a10.82,10.82,0,0,1,2.39,6C450.67,49.66,450.66,51.64,450.66,51.64Z" transform="translate(0.04)" style="fill:#339da8;opacity:0.5199999809265137;isolation:isolate"/><path d="M448.95,57.54s-3.25-1.2-3.92.19-0.68,5.21-.68,5.21a9.91,9.91,0,0,0,3.34-2.48C449.37,58.62,448.95,57.54,448.95,57.54Z" transform="translate(0.04)" style="fill:url(#linear-gradient-4)"/><path d="M437,44.06s-5,7.68-4.6,12.23,5,6.65,5,6.65-3.27-4.16-2.5-8.49S437,44.06,437,44.06Z" transform="translate(0.04)" style="fill:#fff;opacity:0.3700000047683716;isolation:isolate"/><path d="M418.71,67.34s-4.43,6.47-3,9.33S434.41,100,434.41,100,419,79.8,418.29,76.38s6-10.32,6-10.32h-5.44Z" transform="translate(0.04)" style="fill:#f9f9f9;opacity:0.7300000190734863;isolation:isolate"/><path d="M456.63,13.15c-6.23-.79-8,0.92-8.28,1.34L449,17.41c1.8-.1,4.37-0.22,6.64-0.22a18,18,0,0,1,7.85,2.22l1.7-2.94A18,18,0,0,0,456.63,13.15Z" transform="translate(0.04)" style="fill:#75461c"/><path d="M494.12,73.09s-3.36,9.08-4.56,13.41S484,107,483.92,110.75s-1,5.88.6,5.76S491.36,90,492,87.58s3.19-8.74,3.19-8.74Z" transform="translate(0.04)" style="fill:#8d572b"/><path d="M497.74,78s-0.7,4.29-2.52,3.72-2.9-.38-3.19-2.11a5,5,0,0,1,.86-3.32Z" transform="translate(0.04)" style="fill:#49c3d8"/><path d="M498.1,76.74s-0.7,4.29-2.52,3.72-2.9-.38-3.19-2.11a5,5,0,0,1,.86-3.32Z" transform="translate(0.04)" style="fill:#339da8;opacity:0.5199999809265137;isolation:isolate"/><path d="M456.13,18.49c-1.78-.17-7.13,0-7.13,0a106,106,0,0,0-11,5.12c-6.45,3.41-7.12,3.79-7.12,3.79S445,20.57,450,19.91a81.38,81.38,0,0,1,11-.5S457.37,18.61,456.13,18.49Z" transform="translate(0.04)" style="fill:#ecc09c"/><path d="M500.16,73.55l-1.35,4.29s-2.54,2-3.59,1A21.25,21.25,0,0,0,492.89,77l2.9-2.66Z" transform="translate(0.04)" style="fill:#49c3d8"/><path d="M500.16,72.43l-1.35,4.29s-2.16,1.24-3.59,1a10.35,10.35,0,0,1-2.33-.78l2.9-3.74Z" transform="translate(0.04)" style="fill:#339da8;opacity:0.5199999809265137;isolation:isolate"/><path d="M449,12.33l-1.12-5.41a26.47,26.47,0,0,1,8.88-.85c4.88,0.38-4.1-.31-6.09,2.18S449,12.33,449,12.33Z" transform="translate(0.04)" style="fill:#ecc09c"/><circle cx="494.16" cy="69.78" r="3.31" style="fill:#49c3d8"/><g style="opacity:0.5199999809265137"><path d="M495.78,66.94L495.85,67l-0.06-.07h0Z" transform="translate(0.04)" style="fill:#339da8"/><path d="M494.12,73.09a3.31,3.31,0,0,0,3.31-3.31,3.27,3.27,0,0,0-.44-1.62L495.86,67a1.65,1.65,0,0,1,.23,1.49c-0.26,1.16-.8,1.18-2,1.28-0.79.07-1.64,1.58-2.1,2.54A3.28,3.28,0,0,0,494.12,73.09Z" transform="translate(0.04)" style="fill:#339da8"/></g><path d="M496.34,67.34s6.76,3.44,5.41,5.21a20.73,20.73,0,0,1-4.32,3.65s-5.26,1.89-5.26,0,1.08-4.72,3.24-4.32S496.34,67.34,496.34,67.34Z" transform="translate(0.04)" style="fill:#49c3d8"/><path d="M496.66,70.55s2.06-8.71,3-10.56,1.17-7.25,2.28-9.48,3.42-10.18,4.35-13,2-5.47,2-5.47,1.54,1.08,2.31.46,5.86-5.4,6.86-18S513.14,0,511.06,0s-5.71,2.66-6.63,5.15-3,22.3-3.32,25.47S497.87,54,497.79,55.38a68.35,68.35,0,0,1-2,9.71,5.39,5.39,0,0,0-.57,1.57,1.56,1.56,0,0,1,1.28,1.45A20.41,20.41,0,0,1,496.66,70.55Z" transform="translate(0.04)" style="fill:#8d572b"/><path d="M508.24,32.1a5.64,5.64,0,0,1-1.49-1,9.57,9.57,0,0,1-1.34-1.61A12,12,0,0,1,504.24,27a15.09,15.09,0,0,1-.67-3.16,22.37,22.37,0,0,1-.07-3.57,23.63,23.63,0,0,1,.54-3.84,12.66,12.66,0,0,1,1.52-3.82,5,5,0,0,1,1.6-1.66,2.86,2.86,0,0,1,2.67-.23,3.88,3.88,0,0,1,1,.74L511,11.65l0.09,0.09h0l0.07,0.09,0.29,0.37A7.83,7.83,0,0,1,512.86,18a6.25,6.25,0,0,1-.54,1.83,2.51,2.51,0,0,1-.78.94c-0.32.2-.38,0.21-0.59,0.36a13.68,13.68,0,0,1-1.22.82,2.2,2.2,0,0,1-1.69.3,1.83,1.83,0,0,1-.44-0.2,2,2,0,0,1-.26-0.23,1.33,1.33,0,0,1-.25-0.32,1.59,1.59,0,0,1-.15-0.29,3.84,3.84,0,0,1-.24-1,7.19,7.19,0,0,1,0-1.37l0.06-.48H507L507,18.83a9.41,9.41,0,0,0,.36,1.23,3.21,3.21,0,0,0,.39.74A0.77,0.77,0,0,0,508,21l0.19,0.1h0.11A3.61,3.61,0,0,0,510,19.91c0.16-.16.53-0.42,0.62-0.5a1.32,1.32,0,0,1,.12-0.3A4.53,4.53,0,0,0,511,17.8a7.72,7.72,0,0,0-.41-3,6.31,6.31,0,0,0-.64-1.4L509.65,13l-0.07-.1h0l-0.11-.12a2.09,2.09,0,0,0-.46-0.42,1,1,0,0,0-1,0,2.79,2.79,0,0,0-.59.42,5.72,5.72,0,0,0-.54.64,11.24,11.24,0,0,0-1.51,3.27,22.44,22.44,0,0,0-.71,3.55,24.33,24.33,0,0,0-.15,3.43,14.27,14.27,0,0,0,.4,3,11.43,11.43,0,0,0,.92,2.41A9.17,9.17,0,0,0,507,30.73a5.39,5.39,0,0,0,1.34,1.11Z" transform="translate(0.04)" style="fill:#502f15"/><path d="M515.86,10.55s1-8.47-4.37-8.85c-3.87-.27-5.9,3.46-5.9,3.46l-1.6,7.4s2.54-8.62,6.44-8.26S515.86,10.55,515.86,10.55Z" transform="translate(0.04)" style="fill:#b98360;opacity:0.49000000953674316;isolation:isolate"/><path d="M493.58,76.33s6.49-3.23,6.23-5.14-1.23-1.41-1.23-1.41A8.65,8.65,0,0,1,501,71.6c0.71,0.94-3.07,3.67-4,3.88S493.58,76.33,493.58,76.33Z" transform="translate(0.04)" style="fill:#fff;opacity:0.3700000047683716;isolation:isolate"/><path d="M397,50.77l0.51,0.84-4.26-.84-1.5-1.88s0-.6,2.12.18A15.19,15.19,0,0,1,397,50.77Z" transform="translate(0.04)" style="fill:#339da8;opacity:0.5199999809265137;isolation:isolate"/><path d="M401.29,48.9L401,50.13s-4.63-3.61-5-4c-0.75-.72-0.75-2.86-0.75-2.86Z" transform="translate(0.04)" style="fill:#339da8;opacity:0.5199999809265137;isolation:isolate"/><path d="M405.14,49.85l-0.85,1.58s-1.2-5.58-1.63-6.82-1.1-2.18-1.38-2.06l-0.29.12s0.27-.85.87-0.48,1.35,0.91,2,3S405.14,49.85,405.14,49.85Z" transform="translate(0.04)" style="fill:#339da8;opacity:0.5199999809265137;isolation:isolate"/><path d="M403,56.29s-2.39.56-2.91-1.12a4.67,4.67,0,0,1,0-2.93s-0.11,2.8,1.34,3a13.23,13.23,0,0,0,3.94-.56Z" transform="translate(0.04)" style="fill:#339da8;opacity:0.5199999809265137;isolation:isolate"/><path d="M402.09,49.2s-2.83,2-3.66,2.77-2.09,2-2.09,2,4-3.26,5.2-3.43Z" transform="translate(0.04)" style="fill:#339da8;opacity:0.5199999809265137;isolation:isolate"/><path d="M450.95,45.43A18.11,18.11,0,0,1,461,45.08c5.39,1.43,7,3.8,7,3.8a18.31,18.31,0,0,0-10.93-3.21c-6.79.08-5.74,1.83-5.74,1.83Z" transform="translate(0.04)" style="fill:#f9f9f9;opacity:0.7300000190734863;isolation:isolate"/><path d="M434,45.09a7.62,7.62,0,0,0-5.43-.55,10.57,10.57,0,0,0-5,3.74s3.46-3.13,6-2.89,3.29,1.33,3.29,1.33Z" transform="translate(0.04)" style="fill:#f9f9f9;opacity:0.7300000190734863;isolation:isolate"/><path d="M416.59,564.93s-3.82,15-2.45,17.43,9.47,6.74,9.47,6.74-6.26.79-6.26,4.76,11.49-3.37,11.49-3.37l-1.07-4.61,14-5.09s15.62,0.31,22.45,5.06,6.06,4.61,6.06,4.61,0.87,6.42,5.11,6.42-4.11-7.66-4.11-7.66a58.25,58.25,0,0,1,.84-14.68c1.49-7.33,1.69-8.4,1.69-8.4Z" transform="translate(0.04)" style="fill:#8d572b"/><path d="M475.35,557.87l-2.16,11.34s-0.22,3.74-13.19,5-33.5-2.11-33.5-2.11-6.31-3.16-7.94-4.81a9.84,9.84,0,0,1-2-2.42l2-7.92,51.67-5.57s1.75,4.18,2.85,5A22,22,0,0,0,475.35,557.87Z" transform="translate(0.04)" style="fill:#e8af7c"/><path d="M474.79,560.36l-0.53,3.2-2.4-1s-0.66,6.25-2.38,7.16a18.25,18.25,0,0,0-4,3.67l4-19.74,3.35-.85Z" transform="translate(0.04)" style="fill:#cb9162"/><path d="M473.94,535.47s11.61,3.66,16.87,7l5.26,3.37-5.26,4.59s-5.53-1.75-10.66,0-3.37,1-3.37,1l-2,8.92s-5.44-8.5-5.31-12.44,0-7.61,0-7.61Z" transform="translate(0.04)" style="fill:#49c3d8"/><path d="M413.79,531.32s-4.07,2.55-5.93,1.43L406,531.62s2.71-4.14,2.71-6.56-1.86.23-2.71,1.19l-0.85,1s-1.19-5.85-2.71-7.33-2.2,1.69-2.2,3.16a7.94,7.94,0,0,0,1,3.23l-6.1-5.61a3.46,3.46,0,0,0-1,3.45,8.32,8.32,0,0,0,2.88,4s-4.24-2.84-5.25-1.88,2,5.07,2,5.07h2.52s-0.34,2.92.68,4.16,4.24,0,4.24,0,11.22,10.41,14.63,12.44l3.41,2V536.19Z" transform="translate(0.04)" style="fill:#49c3d8"/><path d="M473.19,569.22l-1.24,6.06a65,65,0,0,1-6.42,2c-1.31.17-2.73,3.11-4.67,4.08s-3.17,1.68-3.17,1.68l-5.25-1.43L435.58,583l-3.29,1.2-6.73,2.29s4.71-3.06,4.71-4.86-4.71-10-4.71-10L441,574.55Z" transform="translate(0.04)" style="fill:#502f15"/><path d="M419.29,536.19l-5.51-4.88a13.11,13.11,0,0,1-4.1,1.66c-0.5,1.59-1.21,4.81.34,6.9,2.13,2.86,1.62,4.82,1.62,4.82a40.83,40.83,0,0,0,4.23,3.22l0.55,0.33,2.86-1.34V536.19h0Z" transform="translate(0.04)" style="fill:#339da8;opacity:0.5199999809265137;isolation:isolate"/><path d="M482.38,545.71c-5.33.42-8.3-.12-8.3-1.74s2.16-1.46,2.7-2.55a34.33,34.33,0,0,0,1.29-4.55c-2.41-.86-4.13-1.4-4.13-1.4l-4.46,4.83s0.14,3.67,0,7.61,5.31,12.44,5.31,12.44l2-8.81c0.4-.1,1.34-0.4,3.4-1.1,5.13-1.75,10.66,0,10.66,0l1.8-1.57h0s3.12-4.28,1.51-5c-0.62-.3-5.46,2.94-6.23,2.67A13.84,13.84,0,0,0,482.38,545.71Z" transform="translate(0.04)" style="fill:#339da8;opacity:0.5199999809265137;isolation:isolate"/><path d="M476.75,551.55s-2.63.08-3.91,1.29-2.68-3.3-2.68-3.3l0.88,4,3.76,6.77Z" transform="translate(0.04)" style="fill:url(#linear-gradient-5)"/><path d="M447.94,523.52l22.47,18.27s3.08,20.93-2.64,28.86-17.85,15.64-22.25,17.18-9,2.64-9,2.64,2.86-1.1,2.2-3.53-25.56-28.64-25.78-33.49,4.35-11.66,4.35-11.66L442,525.49Z" transform="translate(0.04)" style="fill:#d5d5d5"/><path d="M467.77,570.67c5.73-7.93,2.64-28.86,2.64-28.86l-3-2.44-13.49,1.26s8.06,16.67,4.76,30.69-22.2,19.19-22.2,19.19,4.63-1.1,9-2.64S462,578.6,467.77,570.67Z" transform="translate(0.04)" style="fill:#aeaeaf;opacity:0.6399999856948853;isolation:isolate"/><path d="M424.29,524.7s-7.89-5.14-8.41-9.14,23.32-18,28.46-19.4,4.64-1.24,4.64-1.24l-2.32-11.06s3.34-1.76,12.13-1.24S469.13,487,469.13,487l-5.68,9.83s12.72,7.93,17.27,14.46,6.72,11.56,5.89,12.87-9.1,3.21-13.75,4a53.1,53.1,0,0,1-7.76.84Z" transform="translate(0.04)" style="fill:#e8af7c"/><path d="M470.41,541.79l0.34,2.89a18.56,18.56,0,0,1-6.62,1,42.88,42.88,0,0,1-8.52-1l-1-3.57Z" transform="translate(0.04)" style="fill:#989898"/><path d="M465.11,529H466a58.89,58.89,0,0,0,6.82-.8c4.65-.81,12.93-2.71,13.75-4s-1.32-6.38-5.89-12.93-17.27-14.45-17.27-14.45l5.69-9.82s-0.82-2-4.63-3.32l-3.3,12.1s8.56,6.47,12,12.22-2,11.93-2,11.93Z" transform="translate(0.04)" style="fill:#cb9162"/><path d="M424.92,523s-8.55-4.57-5.83-6,7.16-5.62,30.71-4.89,32.57,9.61,32.57,10.85S468,526.21,468,526.21l-36.54-2.14Z" transform="translate(0.04)" style="fill:#75461c"/><path d="M482.38,523c0-1.25-9-10.13-32.57-10.85s-28,3.5-30.71,4.89c-1.48.75,0.37,2.44,2.36,3.83,4.89-1,15.94-3.16,20.9-3.09,6.48,0.09,22,1.88,28.89,5.22,1.69,0.82,3.09,1.48,4.24,2C479,524.42,482.38,523.64,482.38,523Z" transform="translate(0.04)" style="fill:#502f15"/><path d="M446.09,524.24a17,17,0,0,1,17.31-1.9c9.89,4.38,4.57,6.66,9.7,7.61s3-4.58,3-4.58,6.66,10.86-1.9,15-8.19,4.76-11.89,4-9.79-1.9-13.22-5.14a32.31,32.31,0,0,1-5.33-6.53Z" transform="translate(0.04)" style="fill:#d5d5d5"/><path d="M434.41,545.71s0.78,5.46,2.92,5.71,7.9-2.69,8.92-5.11,2-5.19,2-5.19l7.33,3.57-0.88-2.24s-3.73-1.27-5.59-3.18a26.58,26.58,0,0,1-3.23-4.19Z" transform="translate(0.04)" style="fill:#99999a;opacity:0.6399999856948853;isolation:isolate"/><path d="M437,522.91s-2.09-2.91-8-2.12-6.47,7.83-11.41,8.21-4.19-1-4.19-2.47-3.89,13.32,0,14.27,7.46,2.09,13.36,0a40.9,40.9,0,0,0,9.13-4.38Z" transform="translate(0.04)" style="fill:#d5d5d5"/><path d="M437,538.51s-6.67,5.28-2.09,10.08,11.75-4.82,11.6-7.18-0.57-6.33-.57-6.33Z" transform="translate(0.04)" style="fill:#49c3d8"/><polygon points="446.25 538.75 446.52 540.6 443.07 542.49 436.8 542.49 434.45 541.42 435.57 539.82 446.25 538.75" style="fill:#339da8;opacity:0.5199999809265137;isolation:isolate"/><path d="M438.37,540.44s-3.43,2.74-1.08,5.19,5.63-2.53,6-3.7a21.77,21.77,0,0,1,1.52-4Z" transform="translate(0.04)" style="fill:#2e7c83"/><path d="M449.14,539.27c3.42,3.23,9.51,4.38,13.22,5.14s3.33,0.19,11.89-4a7.29,7.29,0,0,0,4.36-7.33c0,0.69-.38,2.36-3,4.27-3.47,2.52-8.86-1.73-14.37-4.61a16.87,16.87,0,0,0-11.07-1.43l-3.88,4.85A33,33,0,0,0,449.14,539.27Z" transform="translate(0.04)" style="fill:#aeaeaf;opacity:0.6399999856948853;isolation:isolate"/><path d="M452.86,530.86a2.73,2.73,0,0,1,1.66,1.88c0.22,1.34.17,3.26-1.4,3.4a15.77,15.77,0,0,1-2.75,0,5.29,5.29,0,0,1-.92,1.77c-0.57.59-.86,0.84-0.86,0.84l-1.3-1.39,1-4.06Z" transform="translate(0.04)" style="fill:#989898"/><path d="M431.76,530.86a4.3,4.3,0,0,0-3.92-1.86c-2.49.33-3.68,3.65-7,4.36s-7.73.5-8.25-.62a3.39,3.39,0,0,1-.4-1.78c-0.71,4-1.1,9.28,1.14,9.84,3.85,1,7.46,2.09,13.36,0a42.8,42.8,0,0,0,8.93-4.24Z" transform="translate(0.04)" style="fill:#c3bcb7"/><ellipse cx="435.75" cy="516.39" rx="4.17" ry="3.49" style="fill:#bfe5eb"/><path d="M441.73,516.14s-1.44-10.14-8.44-10.21-10.21,3.43-10.49,5.1-2,8.25-1.26,8.81,7.35-5.38,11.75-4.62,6.22,2.73,6.22,2.73Z" transform="translate(0.04)" style="fill:#d5d5d5"/><path d="M447.29,517.26s10.21-7.27,13.94-7.83,8.63-.7,8.63-0.7,5.66,5,4.89,9.23-0.28,6.15-1.4,6.15-9-7.13-16.22-7.13-10.84,3.81-10.84,3.81Z" transform="translate(0.04)" style="fill:#d5d5d5"/><ellipse cx="458.22" cy="517.82" rx="6" ry="2.97" style="fill:#bfe5eb"/><path d="M447.29,517.26s10.21-7.27,13.94-7.83,8.63-.7,8.63-0.7,5.66,5,4.89,9.23-0.28,6.15-1.4,6.15-9-7.13-16.22-7.13-10.84,3.81-10.84,3.81Z" transform="translate(0.04)" style="fill:#d5d5d5"/><path d="M474.73,518a4.68,4.68,0,0,0,0-1.25c-2.79-1-9.51-3.21-14-3.16-5.73.07-13.54,4.89-13.54,4.89l1.34,0.64A17.15,17.15,0,0,1,457,517c7.2,0,15.1,7.13,16.22,7.13S474,522.15,474.73,518Z" transform="translate(0.04)" style="fill:#aeaeaf;opacity:0.6399999856948853;isolation:isolate"/><path d="M433.29,537.91l-1.86,1a21.94,21.94,0,0,1-1.74-4.12c-0.31-1.45,2.4-5.2,2.4-5.2Z" transform="translate(0.04)" style="fill:#989898"/><path d="M440.44,516.42s-4.86-4.61-7.61-5.15-11.2,5.5-11.22,5.51c-0.26,1.54-.39,2.83-0.1,3.07,0.7,0.56,7.35-5.38,11.75-4.62a12.61,12.61,0,0,1,5.89,2.43Z" transform="translate(0.04)" style="fill:#aeaeaf;opacity:0.6399999856948853;isolation:isolate"/><path d="M450.66,529s0.76-12.75-6.28-14.08S431.44,529.57,430.87,532s1.52,8.75,7.61,9.32a11.14,11.14,0,0,0,9.89-4.38,6.91,6.91,0,0,0,.57-2.09s4.57,1.71,5-1.71S450.66,529,450.66,529Z" transform="translate(0.04)" style="fill:#49c3d8"/><path d="M450.66,529a11.61,11.61,0,0,0-4.18-.45c-1.91.25,1.66-1.37,1.66-7.9,0-4-.24-3.57-0.24-3.57a10.82,10.82,0,0,1,2.39,6C450.67,527,450.66,529,450.66,529Z" transform="translate(0.04)" style="fill:#339da8;opacity:0.5199999809265137;isolation:isolate"/><path d="M448.95,534.9s-3.25-1.2-3.92.19-0.68,5.21-.68,5.21a9.91,9.91,0,0,0,3.34-2.48C449.37,536,448.95,534.9,448.95,534.9Z" transform="translate(0.04)" style="fill:url(#linear-gradient-6)"/><path d="M437,521.42s-5,7.68-4.6,12.23,5,6.65,5,6.65-3.27-4.16-2.5-8.49S437,521.42,437,521.42Z" transform="translate(0.04)" style="fill:#fff;opacity:0.3700000047683716;isolation:isolate"/><path d="M418.71,544.7s-4.43,6.47-3,9.33,18.7,23.28,18.7,23.28S419,557.16,418.29,553.74s6-10.32,6-10.32h-5.44Z" transform="translate(0.04)" style="fill:#f9f9f9;opacity:0.7300000190734863;isolation:isolate"/><path d="M456.63,490.51c-6.23-.79-8,0.92-8.28,1.34l0.61,2.92c1.8-.1,4.37-0.22,6.64-0.22a18,18,0,0,1,7.85,2.22l1.7-2.94A18,18,0,0,0,456.63,490.51Z" transform="translate(0.04)" style="fill:#75461c"/><path d="M494.12,550.45s-3.36,9.08-4.56,13.41-5.52,20.52-5.64,24.25-1,5.88.6,5.76,6.84-26.53,7.5-28.93,3.19-8.74,3.19-8.74Z" transform="translate(0.04)" style="fill:#8d572b"/><path d="M497.74,555.39s-0.7,4.29-2.52,3.72-2.9-.38-3.19-2.11a5,5,0,0,1,.86-3.32Z" transform="translate(0.04)" style="fill:#49c3d8"/><path d="M498.1,554.1s-0.7,4.29-2.52,3.72-2.9-.38-3.19-2.11a5,5,0,0,1,.86-3.32Z" transform="translate(0.04)" style="fill:#339da8;opacity:0.5199999809265137;isolation:isolate"/><path d="M456.13,495.85c-1.78-.17-7.13,0-7.13,0A106,106,0,0,0,438,501c-6.45,3.41-7.12,3.79-7.12,3.79S445,497.93,450,497.27a81.38,81.38,0,0,1,11-.5S457.37,496,456.13,495.85Z" transform="translate(0.04)" style="fill:#ecc09c"/><path d="M500.16,550.91l-1.35,4.29s-2.54,2-3.59,1a21.25,21.25,0,0,0-2.33-1.87l2.9-2.66Z" transform="translate(0.04)" style="fill:#49c3d8"/><path d="M500.16,549.79l-1.35,4.29s-2.16,1.24-3.59,1a10.35,10.35,0,0,1-2.33-.78l2.9-3.74Z" transform="translate(0.04)" style="fill:#339da8;opacity:0.5199999809265137;isolation:isolate"/><path d="M449,489.69l-1.12-5.41a26.47,26.47,0,0,1,8.88-.85c4.88,0.38-4.1-.31-6.09,2.18S449,489.69,449,489.69Z" transform="translate(0.04)" style="fill:#ecc09c"/><circle cx="494.16" cy="547.14" r="3.31" style="fill:#49c3d8"/><g style="opacity:0.5199999809265137"><path d="M495.78,544.3l0.07,0.07-0.06-.07h0Z" transform="translate(0.04)" style="fill:#339da8"/><path d="M494.12,550.45a3.31,3.31,0,0,0,3.31-3.31,3.27,3.27,0,0,0-.44-1.62l-1.13-1.15a1.65,1.65,0,0,1,.23,1.49c-0.26,1.16-.8,1.18-2,1.28-0.79.07-1.64,1.58-2.1,2.54A3.28,3.28,0,0,0,494.12,550.45Z" transform="translate(0.04)" style="fill:#339da8"/></g><path d="M496.34,544.7s6.76,3.44,5.41,5.21a20.73,20.73,0,0,1-4.32,3.65s-5.26,1.89-5.26,0,1.08-4.72,3.24-4.32S496.34,544.7,496.34,544.7Z" transform="translate(0.04)" style="fill:#49c3d8"/><path d="M496.66,547.91s2.06-8.71,3-10.56,1.17-7.25,2.28-9.48,3.42-10.18,4.35-13,2-5.47,2-5.47,1.54,1.08,2.31.46,5.86-5.4,6.86-18-4.32-14.5-6.4-14.5-5.71,2.66-6.63,5.15-3,22.3-3.32,25.47-3.24,23.38-3.32,24.76a68.35,68.35,0,0,1-2,9.71,5.39,5.39,0,0,0-.57,1.57,1.56,1.56,0,0,1,1.28,1.45A20.41,20.41,0,0,1,496.66,547.91Z" transform="translate(0.04)" style="fill:#8d572b"/><path d="M508.24,509.46a5.64,5.64,0,0,1-1.49-1,9.57,9.57,0,0,1-1.34-1.61,12,12,0,0,1-1.17-2.46,15.09,15.09,0,0,1-.67-3.16,22.37,22.37,0,0,1-.07-3.57,23.63,23.63,0,0,1,.54-3.84,12.66,12.66,0,0,1,1.52-3.82,5,5,0,0,1,1.6-1.66,2.86,2.86,0,0,1,2.67-.23,3.88,3.88,0,0,1,1,.74L511,489l0.09,0.09h0l0.07,0.09,0.29,0.37a7.83,7.83,0,0,1,1.36,5.82,6.25,6.25,0,0,1-.54,1.83,2.51,2.51,0,0,1-.78.94c-0.32.2-.38,0.21-0.59,0.36a13.68,13.68,0,0,1-1.22.82,2.2,2.2,0,0,1-1.69.3,1.83,1.83,0,0,1-.44-0.2,2,2,0,0,1-.26-0.23,1.33,1.33,0,0,1-.25-0.32,1.59,1.59,0,0,1-.15-0.29,3.84,3.84,0,0,1-.24-1,7.19,7.19,0,0,1,0-1.37l0.06-.48H507l0.09,0.45a9.41,9.41,0,0,0,.36,1.23,3.21,3.21,0,0,0,.39.74,0.77,0.77,0,0,0,.23.24l0.19,0.1h0.11a3.61,3.61,0,0,0,1.65-1.23c0.16-.16.53-0.42,0.62-0.5a1.32,1.32,0,0,1,.12-0.3,4.53,4.53,0,0,0,.25-1.31,7.72,7.72,0,0,0-.41-3,6.31,6.31,0,0,0-.64-1.4l-0.27-.38-0.07-.1h0l-0.11-.12a2.09,2.09,0,0,0-.46-0.42,1,1,0,0,0-1,0,2.79,2.79,0,0,0-.59.42,5.72,5.72,0,0,0-.54.64,11.24,11.24,0,0,0-1.51,3.27,22.44,22.44,0,0,0-.71,3.55,24.33,24.33,0,0,0-.15,3.43,14.27,14.27,0,0,0,.4,3,11.43,11.43,0,0,0,.92,2.41,9.17,9.17,0,0,0,1.15,1.63,5.39,5.39,0,0,0,1.34,1.11Z" transform="translate(0.04)" style="fill:#502f15"/><path d="M515.86,487.91s1-8.47-4.37-8.85c-3.87-.27-5.9,3.46-5.9,3.46l-1.6,7.4s2.54-8.62,6.44-8.26S515.86,487.91,515.86,487.91Z" transform="translate(0.04)" style="fill:#b98360;opacity:0.49000000953674316;isolation:isolate"/><path d="M493.58,553.69s6.49-3.23,6.23-5.14-1.23-1.41-1.23-1.41A8.65,8.65,0,0,1,501,549c0.71,0.94-3.07,3.67-4,3.88S493.58,553.69,493.58,553.69Z" transform="translate(0.04)" style="fill:#fff;opacity:0.3700000047683716;isolation:isolate"/><path d="M397,528.13l0.51,0.84-4.26-.84-1.5-1.88s0-.6,2.12.18A15.19,15.19,0,0,1,397,528.13Z" transform="translate(0.04)" style="fill:#339da8;opacity:0.5199999809265137;isolation:isolate"/><path d="M401.29,526.26L401,527.49s-4.63-3.61-5-4c-0.75-.72-0.75-2.86-0.75-2.86Z" transform="translate(0.04)" style="fill:#339da8;opacity:0.5199999809265137;isolation:isolate"/><path d="M405.14,527.21l-0.85,1.58s-1.2-5.58-1.63-6.82-1.1-2.18-1.38-2.06L401,520s0.27-.85.87-0.48,1.35,0.91,2,3S405.14,527.21,405.14,527.21Z" transform="translate(0.04)" style="fill:#339da8;opacity:0.5199999809265137;isolation:isolate"/><path d="M403,533.65s-2.39.56-2.91-1.12a4.67,4.67,0,0,1,0-2.93s-0.11,2.8,1.34,3a13.23,13.23,0,0,0,3.94-.56Z" transform="translate(0.04)" style="fill:#339da8;opacity:0.5199999809265137;isolation:isolate"/><path d="M402.09,526.56s-2.83,2-3.66,2.77-2.09,2-2.09,2,4-3.26,5.2-3.43Z" transform="translate(0.04)" style="fill:#339da8;opacity:0.5199999809265137;isolation:isolate"/><path d="M450.95,522.79a18.11,18.11,0,0,1,10.09-.35c5.39,1.43,7,3.8,7,3.8A18.31,18.31,0,0,0,457.11,523c-6.79.08-5.74,1.83-5.74,1.83Z" transform="translate(0.04)" style="fill:#f9f9f9;opacity:0.7300000190734863;isolation:isolate"/><path d="M434,522.45a7.62,7.62,0,0,0-5.43-.55,10.57,10.57,0,0,0-5,3.74s3.46-3.13,6-2.89,3.29,1.33,3.29,1.33Z" transform="translate(0.04)" style="fill:#f9f9f9;opacity:0.7300000190734863;isolation:isolate"/><path d="M160.85,372.77a15.71,15.71,0,0,1,1.23-1.15,1.52,1.52,0,0,0,.57-0.16l1.72-2.45a4.56,4.56,0,0,1,2-1.88c1.15-.41,1.34-1.48,3.27-1.15a4.69,4.69,0,0,1,2.68,1.15,8,8,0,0,1,4.34.74c2,1.07,3.35,3.6,4.69,3.93s3.11-.49,4.83-1.07,11,3.52,12.68,4.25,10.31,2.37,12.27,10.88S211,400.62,210,402.4s-4,6.79-4.25,7.94-1.23,6.14-1.34,6.79a41.28,41.28,0,0,0,0,4.5c0.08,0.33.74,0.82,0.33,1.23s-3.43,2-6,.25c0,0-1.39-.82-1.34-1.8s0.74-5,.9-6a33.3,33.3,0,0,0,.67-5,1.53,1.53,0,0,0-.41-1.15s-4.17,1.64-5,1.8a2.68,2.68,0,0,0-1.34.57,24.34,24.34,0,0,1,.82,4.19c0.08,1.34.49,3.43,0.08,4.34s-2.86,1.15-3.27,1.15a7.38,7.38,0,0,1-1.8-.49,29.54,29.54,0,0,0,0-5.48,19.11,19.11,0,0,0-.57-2,37.72,37.72,0,0,0-.67,6.14c0.15,1.64,1,5.4,1.34,5.73a2.45,2.45,0,0,1-1.39,3.68c-2.45.74-4.91,0.67-5.81-.49a12.82,12.82,0,0,1-1.64-2.45,16,16,0,0,0,1-6.22c-0.08-3.43-.82-6.47-0.57-8.26s-1.39.82-4.25-.82-1.23-.67-1.23-0.67l-0.9.67s3.84,7.77,4.42,10a31.83,31.83,0,0,1,.74,3.84,6.75,6.75,0,0,1-4.09,3.35,7.11,7.11,0,0,1-4.69-.57,15.84,15.84,0,0,0,0-6.79c-0.82-3-5.24-9.9-5.24-9.9l-4.09-6.14-1.39-16.61Z" transform="translate(0.04)" style="fill:#61db78"/><path d="M164,409.4a13.63,13.63,0,0,0,6.47-8.26c1.72-6,2.13-7,2.13-10.23s-1.34-18.9-1.34-18.9l-8.56-.58-1.8,1.34,0.74,33.06Z" transform="translate(0.04)" style="fill:#414042;opacity:0.23000000417232513;isolation:isolate"/><path d="M165.61,372.91a3.28,3.28,0,0,0,1.56-2.29,1.22,1.22,0,0,1,1.35-1.07h0a0.3,0.3,0,0,1,.25.08l1.07,4.83a1.16,1.16,0,0,0-.82,1.23c0.25,0.82,2.21,12.19,2.21,15.55s-1.48,9.33-4.25,11.21-5.81,3.43-6.63,4.58-1.72,2-2.86,2-4.58-.41-5.89-0.25-3.52.16-3.52-.49a23.12,23.12,0,0,0-.67-3c-0.25-1.15.74-2.13,1-3a7.43,7.43,0,0,0,.25-1.88,7.18,7.18,0,0,1-2.37-2,13.22,13.22,0,0,0-1.39-2.86c-1-1.34-3.35-4.09-3.84-5.73a32.72,32.72,0,0,1-1.72-7.94c-0.16-3.19.16-6.79,0.57-6.87s-0.57,5.73,3.11,11.4,7.77,5.16,7.77,5.16a35.54,35.54,0,0,0,.08-4.17c-0.08-1.72-.41-3.84,0-4.25s1.23,2,2.68,2.86,1.07,0.74,1.07.74a10.16,10.16,0,0,0,.67-4.58,14.85,14.85,0,0,1,.49-4.69s-1.39-2.86-2-4.34a21.16,21.16,0,0,0-1.39-2.68,33.63,33.63,0,0,0,4.17,2.21,20,20,0,0,1,2,.82,8.48,8.48,0,0,1,3.19-.57Z" transform="translate(0.04)" style="fill:#61db78"/><path d="M168.79,375.11s-0.67-2.54-1.23-4,0.49-4.42,2.37-4.42-0.16,1.23.67,1.23,0.9-1.88,1.88-1.64-0.25,1.48.49,3.11a3.47,3.47,0,0,1-.57,4,7.3,7.3,0,0,1-2.54,1.23Z" transform="translate(0.04)" style="fill:#30893d"/><path d="M155.29,376.18a21.8,21.8,0,0,0-.82-3.11c-0.67-1-1.34-2-2-2.86,0,0-.49-1.48-3.11-1.34s-1.23,1.39-1.23,1.39l0.41,1a11.23,11.23,0,0,0,1.88,3.55,4.82,4.82,0,0,0,3.43,1.39h1.48Z" transform="translate(0.04)" style="fill:#30893d"/><path d="M161.42,392.38s0.16-.49,1.56-0.49,0.9,0.25.9,0.25,0.25,1.07-1.23,1S161.42,392.38,161.42,392.38Z" transform="translate(0.04)"/><path d="M155.29,405.72s0.49-1.39,1.23-1.39,2,0.49,1.48,1S155.29,405.72,155.29,405.72Z" transform="translate(0.04)" style="fill:#30893d"/><path d="M149.07,406.21s-0.74-2.29-1-1.8-1,1,0,1.39Z" transform="translate(0.04)" style="fill:#30893d"/><ellipse cx="191.82" cy="392.14" rx="16.69" ry="14.16" style="fill:#fff"/><path d="M148.66,400.4a4.58,4.58,0,0,0,2.87.54c1.8-.16-2.37,1.15-3.19,2.13l-0.67.74a8.17,8.17,0,0,0,.82-2C148.57,401.22,148.66,400.4,148.66,400.4Z" transform="translate(0.04)" style="fill:#414042;opacity:0.23000000417232513;isolation:isolate"/><path d="M150.79,391.48a3.71,3.71,0,0,1,2.37,1.07,33.7,33.7,0,0,1-1.64-3.19,12.32,12.32,0,0,0-.67-1.72v2.29C150.86,390.5,150.79,391.48,150.79,391.48Z" transform="translate(0.04)" style="fill:#414042;opacity:0.23000000417232513;isolation:isolate"/><path d="M187.52,413.17a2.29,2.29,0,0,1,1.07-2,36.22,36.22,0,0,1,7.12-1.8,27.42,27.42,0,0,0,2.94-.33s-5.57,1.88-6.3,2.37-3.43,2.21-3.6,2.78a2.27,2.27,0,0,1-.67,1Z" transform="translate(0.04)" style="fill:#414042;opacity:0.23000000417232513;isolation:isolate"/><path d="M196.2,393.72v1a0.36,0.36,0,0,1-.09.25,0.34,0.34,0,0,1-.27.11h-1v2.55h-1.55v-2.55h-4.4a0.48,0.48,0,0,1-.32-0.11,0.48,0.48,0,0,1-.17-0.27l-0.19-.91,4.94-6.6h1.69v6.51h1.31Zm-2.86,0v-3.41a9.75,9.75,0,0,1,.07-1.07l-3.24,4.48h3.17Z" transform="translate(0.04)"/><path d="M176.2,453.94a15.9,15.9,0,0,1,1.24-1.16,1.53,1.53,0,0,0,.58-0.16l1.76-2.49a4.62,4.62,0,0,1,2.07-1.91c1.16-.41,1.36-1.49,3.31-1.16a4.75,4.75,0,0,1,2.71,1.16,8.14,8.14,0,0,1,4.39.75c2.07,1.08,3.39,3.64,4.75,4s3.15-.5,4.89-1.08,11.18,3.56,12.83,4.3,10.43,2.4,12.42,11S227,482.11,226,483.91s-4.07,6.88-4.3,8-1.24,6.21-1.36,6.88a41.78,41.78,0,0,0,0,4.55c0.08,0.33.75,0.83,0.33,1.24s-3.48,2.07-6,.25c0,0-1.4-.83-1.36-1.82s0.75-5,.91-6.11a33.7,33.7,0,0,0,.68-5,1.55,1.55,0,0,0-.41-1.16s-4.22,1.66-5,1.82a2.71,2.71,0,0,0-1.36.58,24.64,24.64,0,0,1,.75,4.3c0.08,1.36.5,3.48,0.08,4.39S206,503,205.56,503a7.47,7.47,0,0,1-1.82-.5,29.9,29.9,0,0,0,0-5.55,19.34,19.34,0,0,0-.58-2.07,38.17,38.17,0,0,0-.68,6.21c0.15,1.66,1,5.46,1.36,5.8a2.48,2.48,0,0,1-1.4,3.73c-2.48.75-5,.68-5.88-0.5a13,13,0,0,1-1.66-2.48,16.19,16.19,0,0,0,1-6.29c-0.08-3.48-.83-6.54-0.58-8.36s-1.4.83-4.3-.83-1.24-.68-1.24-0.68l-0.91.68s3.89,7.87,4.47,10.11a32.21,32.21,0,0,1,.75,3.89,6.83,6.83,0,0,1-4.14,3.39,7.19,7.19,0,0,1-4.75-.58,16,16,0,0,0,0-6.88c-0.83-3.06-5.3-10-5.3-10l-4.14-6.21L174.36,469Z" transform="translate(0.04)" style="fill:#61db78"/><path d="M179.35,491a13.8,13.8,0,0,0,6.54-8.34c1.74-6.11,2.15-7,2.15-10.35s-1.36-19.13-1.36-19.13l-8.69-.58L176.17,454l0.75,33.45Z" transform="translate(0.04)" style="fill:#414042;opacity:0.23000000417232513;isolation:isolate"/><path d="M181,454.11a3.32,3.32,0,0,0,1.57-2.32,1.24,1.24,0,0,1,1.37-1.08h0a0.31,0.31,0,0,1,.25.08l1.08,4.89a1.17,1.17,0,0,0-.83,1.24c0.25,0.83,2.23,12.34,2.23,15.73s-1.49,9.44-4.3,11.35-5.88,3.48-6.71,4.64-1.74,2.07-2.9,2.07-4.64-.41-6-0.25-3.56.16-3.56-.5a23.4,23.4,0,0,0-.68-3.06c-0.25-1.16.75-2.15,1-3.06a7.52,7.52,0,0,0,.25-1.91,7.26,7.26,0,0,1-2.4-2.07A13.38,13.38,0,0,0,160,477c-1-1.36-3.39-4.14-3.89-5.8a33.12,33.12,0,0,1-1.74-8c-0.16-3.23.16-6.88,0.58-7s-0.58,5.8,3.15,11.54,7.87,5.22,7.87,5.22a36,36,0,0,0,.08-4.22c-0.08-1.74-.41-3.89,0-4.3s1.24,2.07,2.71,2.9,1.08,0.75,1.08.75a10.28,10.28,0,0,0,.68-4.64,15,15,0,0,1,.5-4.75s-1.4-2.9-2.07-4.39a21.41,21.41,0,0,0-1.4-2.71,34,34,0,0,0,4.22,2.23,20.23,20.23,0,0,1,2,.83A8.58,8.58,0,0,1,177,454Z" transform="translate(0.04)" style="fill:#61db78"/><path d="M184.23,456.34s-0.68-2.57-1.24-4.07,0.5-4.47,2.4-4.47-0.16,1.24.68,1.24,0.91-1.91,1.91-1.66-0.25,1.49.5,3.15a3.52,3.52,0,0,1-.58,4.07,7.39,7.39,0,0,1-2.57,1.24Z" transform="translate(0.04)" style="fill:#30893d"/><path d="M170.57,457.42a22.07,22.07,0,0,0-.83-3.15c-0.68-1-1.36-2-2.07-2.9,0,0-.5-1.49-3.15-1.36s-1.24,1.4-1.24,1.4l0.41,1A11.36,11.36,0,0,0,165.6,456a4.88,4.88,0,0,0,3.48,1.4h1.49v0Z" transform="translate(0.04)" style="fill:#30893d"/><path d="M176.78,473.82s0.16-.5,1.57-0.5,0.91,0.25.91,0.25,0.25,1.08-1.24,1S176.78,473.82,176.78,473.82Z" transform="translate(0.04)"/><path d="M170.57,487.32s0.5-1.4,1.24-1.4,2.07,0.5,1.49,1S170.57,487.32,170.57,487.32Z" transform="translate(0.04)" style="fill:#30893d"/><path d="M164.28,487.82s-0.75-2.32-1-1.82-1,1,0,1.4Z" transform="translate(0.04)" style="fill:#30893d"/><ellipse cx="207.55" cy="473.57" rx="16.89" ry="14.33" style="fill:#fff"/><path d="M163.86,481.93a4.64,4.64,0,0,0,2.9.58c1.82-.16-2.4,1.16-3.23,2.15l-0.68.75a8.27,8.27,0,0,0,.83-2C163.78,482.76,163.86,481.93,163.86,481.93Z" transform="translate(0.04)" style="fill:#414042;opacity:0.23000000417232513;isolation:isolate"/><path d="M166,472.91a3.75,3.75,0,0,1,2.4,1.08,34.1,34.1,0,0,1-1.66-3.23,12.47,12.47,0,0,0-.68-1.74v2.32C166.09,471.91,166,472.91,166,472.91Z" transform="translate(0.04)" style="fill:#414042;opacity:0.23000000417232513;isolation:isolate"/><path d="M203.19,494.85a2.32,2.32,0,0,1,1.08-2,36.65,36.65,0,0,1,7.21-1.82,27.74,27.74,0,0,0,3-.33s-5.63,1.91-6.37,2.4-3.48,2.23-3.64,2.82a2.29,2.29,0,0,1-.68,1Z" transform="translate(0.04)" style="fill:#414042;opacity:0.23000000417232513;isolation:isolate"/><path d="M207.2,477.81v1.36h-5.84v-1.36h2.14V470.9L202,472.16a0.6,0.6,0,0,1-.5.13,0.58,0.58,0,0,1-.2-0.07,0.42,0.42,0,0,1-.13-0.12l-0.57-.78,3.22-2.71h1.48v9.22h1.9Z" transform="translate(0.04)"/><path d="M216.21,475.18v1a0.37,0.37,0,0,1-.1.25,0.35,0.35,0,0,1-.27.11h-1v2.58h-1.57V476.6h-4.45a0.49,0.49,0,0,1-.32-0.12,0.48,0.48,0,0,1-.18-0.28l-0.2-1,5-6.68h1.71v6.59h1.36Zm-2.9,0v-3.45a9.86,9.86,0,0,1,.07-1.08l-3.28,4.53h3.21Z" transform="translate(0.04)"/><path d="M163.18,535a16.48,16.48,0,0,1,1.29-1.2,1.59,1.59,0,0,0,.6-0.17l1.79-2.6a4.79,4.79,0,0,1,2.15-2c1.2-.43,1.41-1.55,3.43-1.2a4.93,4.93,0,0,1,2.82,1.2,8.45,8.45,0,0,1,4.55.77c2.15,1.12,3.52,3.78,4.93,4.12s3.27-.51,5.07-1.12,11.59,3.69,13.31,4.46,10.82,2.49,12.88,11.42-0.17,15.48-1.2,17.35-4.22,7.13-4.46,8.33-1.29,6.44-1.41,7.13a43.32,43.32,0,0,0,0,4.72c0.08,0.34.77,0.86,0.34,1.29s-3.6,2.15-6.27.26c0,0-1.46-.86-1.41-1.89s0.77-5.24.94-6.33a34.94,34.94,0,0,0,.7-5.24,1.6,1.6,0,0,0-.43-1.2s-4.38,1.72-5.24,1.89a2.82,2.82,0,0,0-1.41.6,25.55,25.55,0,0,1,.77,4.46c0.08,1.41.51,3.6,0.08,4.55s-3,1.2-3.43,1.2a7.74,7.74,0,0,1-1.89-.51,31,31,0,0,0,0-5.75,20.05,20.05,0,0,0-.6-2.15,39.58,39.58,0,0,0-.7,6.44c0.15,1.72,1,5.67,1.41,6a2.57,2.57,0,0,1-1.46,3.86c-2.58.77-5.15,0.7-6.09-.51a13.46,13.46,0,0,1-1.72-2.58,16.79,16.79,0,0,0,1-6.52c-0.08-3.6-.86-6.78-0.6-8.67s-1.46.86-4.46-.86-1.29-.7-1.29-0.7l-0.94.7s4,8.16,4.64,10.48a33.4,33.4,0,0,1,.77,4,7.08,7.08,0,0,1-4.29,3.52,7.46,7.46,0,0,1-4.93-.6,16.62,16.62,0,0,0,0-7.13c-0.86-3.17-5.5-10.39-5.5-10.39l-4.29-6.44-1.46-17.43Z" transform="translate(0.04)" style="fill:#61db78"/><path d="M166.45,573.51a14.31,14.31,0,0,0,6.75-8.66c1.8-6.33,2.23-7.3,2.23-10.73S174,534.28,174,534.28l-9-.6-1.89,1.41,0.77,34.69Z" transform="translate(0.04)" style="fill:#414042;opacity:0.23000000417232513;isolation:isolate"/><path d="M168.17,535.21a3.44,3.44,0,0,0,1.63-2.41,1.28,1.28,0,0,1,1.42-1.12h0a0.32,0.32,0,0,1,.26.08l1.12,5.07s-1.12.43-.86,1.29,2.32,12.79,2.32,16.31-1.55,9.79-4.46,11.77-6.09,3.6-7,4.81-1.8,2.15-3,2.15-4.81-.43-6.18-0.26-3.69.17-3.69-.51a24.27,24.27,0,0,0-.7-3.17c-0.26-1.2.77-2.23,1-3.17a7.8,7.8,0,0,0,.26-2,7.53,7.53,0,0,1-2.49-2.15,13.87,13.87,0,0,0-1.44-3c-1-1.41-3.52-4.29-4-6a34.34,34.34,0,0,1-1.8-8.33c-0.17-3.35.17-7.13,0.6-7.21s-0.6,6,3.27,12,8.16,5.41,8.16,5.41a37.3,37.3,0,0,0,.08-4.38c-0.08-1.8-.43-4,0-4.46s1.29,2.15,2.82,3,1.12,0.77,1.12.77a10.66,10.66,0,0,0,.7-4.81,15.58,15.58,0,0,1,.51-4.93s-1.46-3-2.15-4.55a22.2,22.2,0,0,0-1.46-2.82,35.3,35.3,0,0,0,4.38,2.32,21,21,0,0,1,2.06.86,8.9,8.9,0,0,1,3.35-.6Z" transform="translate(0.04)" style="fill:#61db78"/><path d="M171.52,537.53s-0.7-2.66-1.29-4.22,0.51-4.64,2.49-4.64-0.17,1.29.7,1.29,0.94-2,2-1.72-0.26,1.55.51,3.27a3.65,3.65,0,0,1-.6,4.22,7.66,7.66,0,0,1-2.66,1.29Z" transform="translate(0.04)" style="fill:#30893d"/><path d="M157.35,538.65a22.88,22.88,0,0,0-.86-3.27c-0.7-1-1.41-2.06-2.15-3,0,0-.51-1.55-3.27-1.41s-1.29,1.46-1.29,1.46l0.43,1a11.78,11.78,0,0,0,2,3.69,5.06,5.06,0,0,0,3.6,1.46h1.55v0Z" transform="translate(0.04)" style="fill:#30893d"/><path d="M163.79,555.65s0.17-.51,1.63-0.51,0.94,0.26.94,0.26,0.26,1.12-1.29,1S163.79,555.65,163.79,555.65Z" transform="translate(0.04)"/><path d="M157.35,569.64s0.51-1.46,1.29-1.46,2.15,0.51,1.55,1S157.35,569.64,157.35,569.64Z" transform="translate(0.04)" style="fill:#30893d"/><path d="M150.82,570.16s-0.77-2.41-1-1.89-1,1,0,1.46Z" transform="translate(0.04)" style="fill:#30893d"/><ellipse cx="195.68" cy="555.39" rx="17.52" ry="14.86" style="fill:#fff"/><path d="M150.39,564.06a4.81,4.81,0,0,0,3,.6c1.89-.17-2.49,1.2-3.35,2.23l-0.7.77a8.57,8.57,0,0,0,.86-2.06C150.3,564.92,150.39,564.06,150.39,564.06Z" transform="translate(0.04)" style="fill:#414042;opacity:0.23000000417232513;isolation:isolate"/><path d="M152.63,554.7a3.89,3.89,0,0,1,2.49,1.12,35.36,35.36,0,0,1-1.72-3.35,12.93,12.93,0,0,0-.7-1.8v2.41C152.71,553.67,152.63,554.7,152.63,554.7Z" transform="translate(0.04)" style="fill:#414042;opacity:0.23000000417232513;isolation:isolate"/><path d="M191.18,577.46a2.41,2.41,0,0,1,1.12-2.06,38,38,0,0,1,7.47-1.89,28.77,28.77,0,0,0,3.09-.34s-5.84,2-6.61,2.49-3.6,2.32-3.78,2.92a2.38,2.38,0,0,1-.7,1Z" transform="translate(0.04)" style="fill:#414042;opacity:0.23000000417232513;isolation:isolate"/><path d="M196.87,556.94l0.24-.31,0.22-.3a3,3,0,0,1-.83.37,3.59,3.59,0,0,1-1,.13,3.26,3.26,0,0,1-1.11-.2,2.82,2.82,0,0,1-1-.59,3,3,0,0,1-.7-1,3.34,3.34,0,0,1-.26-1.41,3.52,3.52,0,0,1,.27-1.41,3.46,3.46,0,0,1,.77-1.13,3.58,3.58,0,0,1,1.18-.77,4,4,0,0,1,1.52-.28,4.07,4.07,0,0,1,1.51.27,3.29,3.29,0,0,1,1.15.74,3.24,3.24,0,0,1,.7,1.14,4.07,4.07,0,0,1,.25,1.46,5.13,5.13,0,0,1-.08,1,5.26,5.26,0,0,1-.25.87,5.92,5.92,0,0,1-.39.82,9,9,0,0,1-.51.8l-2.51,3.58a1,1,0,0,1-.39.31,1.32,1.32,0,0,1-.58.13h-1.68Zm-2.48-3.41a1.91,1.91,0,0,0,.47,1.41,1.8,1.8,0,0,0,1.34.48,2.15,2.15,0,0,0,.81-0.14,1.72,1.72,0,0,0,.6-0.39,1.65,1.65,0,0,0,.37-0.59,2.11,2.11,0,0,0,.13-0.7,2.2,2.2,0,0,0-.13-0.8,1.63,1.63,0,0,0-.39-0.59,1.69,1.69,0,0,0-.59-0.37,2.11,2.11,0,0,0-.75-0.13,2,2,0,0,0-.77.14,1.67,1.67,0,0,0-1,1,2.11,2.11,0,0,0-.13.7h0Z" transform="translate(0.04)"/></svg>