<?xml version="1.0" encoding="UTF-8" standalone="no"?>
<svg width="250px" height="250px" viewBox="0 0 250 250" version="1.1" xmlns="http://www.w3.org/2000/svg" xmlns:xlink="http://www.w3.org/1999/xlink" xmlns:sketch="http://www.bohemiancoding.com/sketch/ns">
    <!-- Generator: Sketch 3.4.3 (16618) - http://www.bohemiancoding.com/sketch -->
    <title>v</title>
    <desc>Created with Sketch.</desc>
    <defs></defs>
    <g id="Page-1" stroke="none" stroke-width="1" fill="none" fill-rule="evenodd" sketch:type="MSPage">
        <g id="v" sketch:type="MSArtboardGroup">
            <circle id="Oval-1" fill="#7ED321" sketch:type="MSShapeGroup" cx="125" cy="125" r="125"></circle>
            <path d="M194.999994,31.0777202 C176.020822,17.7940036 152.916973,10 127.992737,10 C63.3794325,10 11,62.3794325 11,126.992737 C11,173.285338 37.8868578,213.298177 76.8964924,232.267173 C46.6742781,211.114337 26.9110122,176.041225 26.9110122,136.352156 C26.9110122,71.7388515 79.2904448,19.359419 143.903749,19.359419 C162.224455,19.359419 179.561593,23.5705746 195,31.0777231 Z" id="Oval-1" opacity="0.505188899" fill="#9FF83E" sketch:type="MSShapeGroup"></path>
            <path d="M189.473934,72.5243689 L185.769535,69.3418352 C179.620548,64.0577347 170.380424,64.6467376 164.951612,70.6668096 L102.981627,139.379297 L84.2757088,123.268602 C78.13321,117.978578 68.891676,118.555733 63.4563756,124.569317 L60.1810344,128.193603 C57.5248798,131.131001 56.1457442,135.005782 56.3460277,138.96378 C56.5482859,142.919521 58.3130378,146.633229 61.2549492,149.288255 L95.5437737,180.687919 C98.5124835,183.475809 102.491074,184.929699 106.557676,184.7139 C110.624278,184.498666 114.42628,182.630387 117.082717,179.543482 L191.059277,93.5879916 C193.643781,90.5848668 194.928699,86.6784914 194.630812,82.7286743 C194.333208,78.7760363 192.478751,75.106052 189.473934,72.5243689 L189.473934,72.5243689 Z" id="Shape" fill="#FFFFFF" sketch:type="MSShapeGroup"></path>
        </g>
    </g>
</svg>