<?xml version="1.0" encoding="UTF-8" standalone="no"?>
<svg width="307px" height="200px" viewBox="0 0 307 200" version="1.1" xmlns="http://www.w3.org/2000/svg" xmlns:xlink="http://www.w3.org/1999/xlink" xmlns:sketch="http://www.bohemiancoding.com/sketch/ns">
    <!-- Generator: Sketch 3.4.3 (16618) - http://www.bohemiancoding.com/sketch -->
    <title>Artboard 1</title>
    <desc>Created with Sketch.</desc>
    <defs>
        <path id="path-1" d="M0,0.703658537 L210.11941,0.703658537 L210.11941,200 L0,200 L0,0.703658537 Z"></path>
        <path id="path-3" d="M0,0.703658537 L210.11941,0.703658537 L210.11941,200 L0,200 L0,0.703658537 Z"></path>
        <path id="path-5" d="M2.01486705,7.03902439 L8.28022543,18.3182927 L11.5427977,3.63902439 C11.5427977,3.63902439 7.15204624,3.76341463 5.01765318,5.78658537 L5.01765318,5.78658537 C2.88326012,7.80853659 0.548843931,0.292682927 0.548843931,0.292682927 L0.548843931,0.292682927 L2.01486705,7.03902439 Z"></path>
        <path id="path-7" d="M1.33795954,1.80121951 C0.225635838,4.12317073 0.209780347,10.4926829 0.209780347,10.4926829 L0.209780347,10.4926829 C0.209780347,10.4926829 3.00034682,9.41219512 5.78603468,6.35 L5.78603468,6.35 C8.5729422,3.28780488 7.87164162,1.48292683 7.87164162,1.48292683 L7.87164162,1.48292683 C7.87164162,1.48292683 5.69821965,0.679268293 3.82117341,0.679268293 L3.82117341,0.679268293 C2.73324277,0.679268293 1.74654335,0.948780488 1.33795954,1.80121951"></path>
    </defs>
    <g id="Page-1" stroke="none" stroke-width="1" fill="none" fill-rule="evenodd" sketch:type="MSPage">
        <g id="Artboard-1" sketch:type="MSArtboardGroup">
            <g id="Group" sketch:type="MSLayerGroup" transform="translate(0.000000, 106.000000)">
                <rect id="Rectangle-path" fill="#B79855" sketch:type="MSShapeGroup" x="43.1982" y="16.266087" width="15.0586" height="77.1617391"></rect>
                <rect id="Rectangle-path" fill="#E0C175" sketch:type="MSShapeGroup" x="35.6792" y="16.266087" width="15.0586" height="77.1617391"></rect>
                <path d="M9.27,16.266087 L9.27,0 L87.035,0 L101.455,8.13304348 L87.035,16.266087 L9.27,16.266087 L9.27,16.266087 Z" id="Shape" fill="#B79855" sketch:type="MSShapeGroup"></path>
                <path d="M0,16.266087 L0,0 L77.765,0 L92.185,8.13304348 L77.765,16.266087 L0,16.266087 L0,16.266087 Z" id="Shape" fill="#E0C175" sketch:type="MSShapeGroup"></path>
                <rect id="Rectangle-path" fill="#CCAB6A" sketch:type="MSShapeGroup" x="35.6792" y="16.266087" width="15.0586" height="3.96434783"></rect>
                <rect id="Rectangle-path" fill="#967A41" sketch:type="MSShapeGroup" x="50.7172" y="16.266087" width="7.519" height="3.96434783"></rect>
                <path d="M92.185,8.13304348 L101.455,8.13304348 L87.035,16.266087 L77.765,16.266087 L92.185,8.13304348 L92.185,8.13304348 Z" id="Shape" fill="#967A41" sketch:type="MSShapeGroup"></path>
                <path d="M22.8454,3.49434783 L25.5234,3.49434783 L29.0254,8.62347826 L29.0254,3.49434783 L31.7446,3.49434783 L31.7446,12.7717391 L29.0254,12.7717391 L25.5234,7.68347826 L25.5234,12.7717391 L22.8454,12.7717391 L22.8454,3.49434783 L22.8454,3.49434783 Z" id="Shape" fill="#B79855" sketch:type="MSShapeGroup"></path>
                <path d="M33.3102,8.17391304 C33.2321227,6.87203993 33.6934839,5.59501814 34.5874,4.63869565 C35.5451276,3.75514645 36.8248502,3.29755082 38.1306,3.37173913 C39.446036,3.29027168 40.7387953,3.73984554 41.715,4.61826087 C42.5959574,5.55655363 43.0502026,6.81232991 42.9716,8.09217391 C43.0044032,9.00917831 42.8136006,9.92048947 42.4154,10.7486957 C42.059252,11.4305854 41.5072464,11.9923865 40.8292,12.3630435 C40.0277819,12.7714198 39.1339483,12.9684565 38.2336,12.9352174 C37.3354453,12.9690489 36.4411711,12.8014076 35.6174,12.4447826 C34.915493,12.0970488 34.334413,11.5490944 33.9488,10.8713043 C33.4963553,10.0450928 33.2758126,9.11353945 33.3102,8.17391304 L33.3102,8.17391304 Z M36.1942,8.17391304 C36.1267088,8.89621548 36.3161968,9.6191702 36.7298,10.2173913 C37.528249,10.982988 38.794751,10.982988 39.5932,10.2173913 C39.9981093,9.57783565 40.1791221,8.82367935 40.1082,8.07173913 C40.1726016,7.38164449 39.9822814,6.69182099 39.5726,6.13043478 C39.2105793,5.71966143 38.680131,5.4941497 38.1306,5.5173913 C37.5935718,5.49767781 37.0771591,5.72367967 36.7298,6.13043478 C36.325031,6.73200068 36.1430295,7.45416774 36.2148,8.17391304 L36.1942,8.17391304 Z" id="Shape" fill="#B79855" sketch:type="MSShapeGroup"></path>
                <path d="M44.599,3.49434783 L48.8838,3.49434783 C49.5872216,3.4687073 50.2884356,3.58695761 50.9438,3.84173913 C51.4515489,4.05714223 51.8974755,4.3941709 52.2416,4.8226087 C52.5892654,5.26417276 52.841692,5.7719325 52.9832,6.31434783 C53.13826,6.90124893 53.2144529,7.50590359 53.2098,8.1126087 C53.2432884,8.8974671 53.1243987,9.68139586 52.8596,10.4217391 C52.6493351,10.9418274 52.3257449,11.4093635 51.912,11.7908696 C51.54712,12.1384263 51.1013012,12.3911367 50.6142,12.5265217 C50.0507306,12.6831551 49.4689426,12.7656011 48.8838,12.7717391 L44.599,12.7717391 L44.599,3.49434783 L44.599,3.49434783 Z M47.483,5.53782609 L47.483,10.6669565 L48.1834,10.6669565 C48.6191042,10.6928826 49.0552074,10.6231075 49.4606,10.4626087 C49.7351184,10.3069695 49.9463682,10.0612837 50.058,9.76782609 C50.2327758,9.25511803 50.309623,8.71457186 50.2846,8.17391304 C50.3624221,7.45656999 50.1877493,6.73460372 49.7902,6.13043478 C49.3596684,5.72560069 48.7741008,5.52452988 48.1834,5.57869565 L47.5654,5.57869565 L47.483,5.53782609 Z" id="Shape" fill="#B79855" sketch:type="MSShapeGroup"></path>
                <path d="M54.693,3.49434783 L62.4386,3.49434783 L62.4386,5.53782609 L57.5976,5.53782609 L57.5976,6.94782609 L61.9854,6.94782609 L61.9854,8.84826087 L57.4946,8.84826087 L57.4946,10.6669565 L62.4798,10.6669565 L62.4798,12.7104348 L54.6106,12.7104348 L54.6106,3.49434783 L54.693,3.49434783 Z" id="Shape" fill="#B79855" sketch:type="MSShapeGroup"></path>
            </g>
            <g id="Page-1" sketch:type="MSLayerGroup" transform="translate(96.000000, 0.000000)">
                <g id="Group-19">
                    <g id="Group-3">
                        <mask id="mask-2" sketch:name="Clip 2" fill="white">
                            <use xlink:href="#path-1"></use>
                        </mask>
                        <g id="Clip-2"></g>
                        <path d="M41.7495821,146.673537 C41.7495821,146.673537 35.3720156,171.643049 37.6722815,175.729634 C39.9713277,179.817439 53.4667902,186.971098 53.4667902,186.971098 C53.4667902,186.971098 43.0375358,188.285732 43.0375358,194.908902 C43.0375358,201.533293 62.2007266,189.295488 62.2007266,189.295488 L60.4114954,181.606463 L83.6532064,173.175976 C83.6532064,173.175976 109.70012,173.686951 121.081923,181.606463 C132.462507,189.525976 131.18553,189.295488 131.18553,189.295488 C131.18553,189.295488 132.635698,200.000366 139.703588,200.000366 C146.770258,200.000366 132.855235,187.225976 132.855235,187.225976 C132.855235,187.225976 131.773403,174.972317 134.251738,162.746707 C136.728854,150.521098 137.066698,148.747927 137.066698,148.747927 L41.7495821,146.673537 Z" id="Fill-1" fill="#8E572A" sketch:type="MSShapeGroup" mask="url(#mask-2)"></path>
                    </g>
                    <path d="M139.703222,134.907317 L136.101586,153.818293 C136.101586,153.818293 135.734471,160.046341 114.116118,162.243902 C92.4977653,164.442683 58.2584416,158.720732 58.2584416,158.720732 C58.2584416,158.720732 47.7425919,153.45122 45.020326,150.703659 C42.2992798,147.956098 41.7492162,146.673171 41.7492162,146.673171 L45.020326,133.465854 L131.172968,124.173171 C131.172968,124.173171 134.085499,131.14878 135.917418,132.5 C137.750557,133.85 139.703222,134.907317 139.703222,134.907317" id="Fill-4" fill="#E8AF7B" sketch:type="MSShapeGroup"></path>
                    <path d="M138.782506,139.049878 L137.899477,144.379146 L133.892916,142.790122 C133.892916,142.790122 132.798887,153.204756 129.931483,154.721829 C127.065298,156.240122 123.320962,160.840122 123.320962,160.840122 L129.931483,127.936463 L135.519934,126.518171 L138.782506,139.049878 Z" id="Fill-6" fill="#CB9161" sketch:type="MSShapeGroup"></path>
                    <path d="M137.362708,97.5602439 C137.362708,97.5602439 156.717384,103.660244 165.494008,109.27122 L174.270632,114.880976 L165.494008,122.532195 C165.494008,122.532195 156.267332,119.606585 147.715124,122.532195 C139.162916,125.456585 142.088864,124.173659 142.088864,124.173659 L138.782384,139.049268 C138.782384,139.049268 129.710603,124.879756 129.936239,118.305366 C130.160655,111.730976 129.93258,105.613902 129.93258,105.613902 L137.362708,97.5602439 Z" id="Fill-8" fill="#48C4D8" sketch:type="MSShapeGroup"></path>
                    <g id="Group-12">
                        <mask id="mask-4" sketch:name="Clip 11" fill="white">
                            <use xlink:href="#path-3"></use>
                        </mask>
                        <g id="Clip-11"></g>
                        <path d="M37.0661139,90.6336585 C37.0661139,90.6336585 30.2872815,94.8921951 27.1796052,93.0153659 L24.0731486,91.1385366 C24.0731486,91.1385366 28.5919636,84.234878 28.5919636,80.2019512 C28.5919636,76.1690244 25.4855069,80.582439 24.0731486,82.1885366 L22.6607902,83.7946341 C22.6607902,83.7946341 20.6837324,74.0409756 18.1407555,71.575122 C15.5989983,69.1080488 14.4695994,74.3970732 14.4695994,76.8360976 C14.4695994,79.2763415 16.1636977,82.2141463 16.1636977,82.2141463 L5.99544913,72.8653659 C5.99544913,72.8653659 3.45247225,74.8641463 4.30013121,78.6226829 C5.14779017,82.382439 9.10190578,85.325122 9.10190578,85.325122 C9.10190578,85.325122 2.04011387,80.582439 0.346015607,82.1885366 C-1.34930231,83.7946341 3.73543179,90.6336585 3.73543179,90.6336585 L7.97250694,90.6336585 C7.97250694,90.6336585 7.40780751,95.5092683 9.10190578,97.5604878 C10.7972237,99.6104878 16.1636977,97.5604878 16.1636977,97.5604878 C16.1636977,97.5604878 34.8622006,114.914146 40.554322,118.30561 L46.247663,121.697073 L46.247663,98.7641463 L37.0661139,90.6336585 Z" id="Fill-10" fill="#48C4D8" sketch:type="MSShapeGroup" mask="url(#mask-4)"></path>
                    </g>
                    <path d="M136.101098,153.817683 L134.026468,163.917683 C134.026468,163.917683 125.503532,166.968902 123.320353,167.294512 C121.138393,167.618902 118.772266,172.475 115.534087,174.094512 C112.295908,175.712805 110.250549,176.896951 110.250549,176.896951 L101.503197,174.512805 L73.3950694,176.896951 L67.9749306,178.862805 L56.7529017,182.685976 C56.7529017,182.685976 64.5989306,177.581098 64.5989306,174.592073 C64.5989306,171.604268 56.7529017,157.948171 56.7529017,157.948171 L82.5314913,162.746951 L136.101098,153.817683 Z" id="Fill-13" fill="#502E14" sketch:type="MSShapeGroup"></path>
                    <path d="M46.2480289,98.7636585 L37.0664798,90.6331707 C37.0664798,90.6331707 33.4087399,92.9246341 30.2352023,93.4002439 C29.4033988,96.0478049 28.210578,101.414878 30.802341,104.902683 C34.3490925,109.677073 33.5063121,112.936829 33.5063121,112.939268 C36.4029884,115.353902 38.978896,117.366098 40.5546879,118.305122 C40.8815549,118.500244 41.1852486,118.680732 41.475526,118.853902 L46.2480289,116.616098 L46.2480289,98.7636585 Z" id="Fill-15" fill="#339DA7" sketch:type="MSShapeGroup"></path>
                    <path d="M151.424943,114.630122 C142.53855,115.331341 137.587977,114.431341 137.587977,111.730122 C137.587977,109.030122 141.188394,109.291098 142.088498,107.472805 C142.67881,106.281341 143.647214,102.419146 144.246064,99.8910976 C140.226087,98.4630488 137.362342,97.5606098 137.362342,97.5606098 L129.932214,105.614268 C129.932214,105.614268 130.161509,111.730122 129.935873,118.304512 C129.711457,124.878902 138.782018,139.049634 138.782018,139.049634 L142.04459,124.370366 C142.708082,124.198415 144.274116,123.708171 147.714758,122.531341 C156.266966,119.606951 165.493642,122.531341 165.493642,122.531341 L168.493989,119.916707 L168.493989,119.916707 C168.493989,119.916707 173.687272,112.789878 171.007694,111.505732 C169.975868,111.011829 161.91274,116.399634 160.628446,115.95939 C157.911058,115.028902 154.715567,114.370366 151.424943,114.630122" id="Fill-17" fill="#339DA7" sketch:type="MSShapeGroup"></path>
                </g>
                <g id="Group-22" transform="translate(130.502890, 120.731707)">
                    <mask id="mask-6" sketch:name="Clip 21" fill="white">
                        <use xlink:href="#path-5"></use>
                    </mask>
                    <g id="Clip-21"></g>
                    <path d="M2.01486705,7.03902439 L8.28022543,18.3182927 L11.5427977,3.63902439 C11.5427977,3.63902439 7.15204624,3.76341463 5.01765318,5.78658537 L5.01765318,5.78658537 C2.88326012,7.80853659 0.548843931,0.292682927 0.548843931,0.292682927 L0.548843931,0.292682927 L2.01486705,7.03902439 Z" id="Fill-20" sketch:type="MSShapeGroup" mask="url(#mask-6)"></path>
                </g>
                <g id="Group-75" transform="translate(32.930636, 8.536585)" sketch:type="MSShapeGroup">
                    <path d="M61.0732792,69.0993902 L98.5422445,99.5847561 C98.5422445,99.5847561 103.685522,134.483537 94.1344179,147.704268 C84.5833139,160.92378 64.379759,173.779878 57.0325682,176.35061 C49.6853775,178.922561 41.9710711,180.759146 41.9710711,180.759146 C41.9710711,180.759146 46.7472329,178.922561 45.6446665,174.882317 C44.5433197,170.840854 3.03364335,127.132317 2.66530809,119.051829 C2.29819249,110.971341 10.0124988,99.5847561 10.0124988,99.5847561 L51.2892214,72.4054878 L61.0732792,69.0993902 Z" id="Fill-23" fill="#D6D6D5"></path>
                    <path d="M94.134052,147.70378 C103.685156,134.483049 98.5418786,99.5854878 98.5418786,99.5854878 L93.5400809,95.5159756 L71.0496763,97.6123171 C71.0496763,97.6123171 84.4853757,125.398902 78.9847399,148.773293 C73.4853237,172.147683 41.9719249,180.758659 41.9719249,180.758659 C41.9719249,180.758659 49.6862312,178.922073 57.0322023,176.351341 C64.3793931,173.77939 84.582948,160.924512 94.134052,147.70378" id="Fill-25" fill="#AFAFAF"></path>
                    <path d="M21.659211,71.0662195 C21.659211,71.0662195 8.50037283,62.4893902 7.63807803,55.8320732 C6.77578324,49.1735366 46.5181821,25.9015854 55.0935636,23.4881707 C63.6701647,21.0747561 62.8347023,21.419878 62.8347023,21.419878 L58.9647428,2.9747561 C58.9647428,2.9747561 64.5312399,0.0442682927 79.1865925,0.905243902 C93.8407254,1.76743902 96.4263902,8.1454878 96.4263902,8.1454878 L86.9448064,24.5223171 C86.9448064,24.5223171 108.149697,37.7345122 115.735939,48.6247561 C123.322182,59.5162195 126.942113,67.9003659 125.562685,70.0869512 C124.183257,72.2723171 110.391419,75.4418293 102.633205,76.7881707 C94.8749913,78.1345122 89.7024422,78.1820732 89.7024422,78.1820732 L21.659211,71.0662195 Z" id="Fill-27" fill="#E8AF7B"></path>
                    <path d="M98.5421225,99.5852439 L99.1141399,104.402317 C99.1141399,104.402317 95.0929434,106.09378 88.0714,106.09378 C81.0510763,106.09378 73.8612208,104.402317 73.8612208,104.402317 L72.2134694,98.445 L98.5421225,99.5852439 Z" id="Fill-29" fill="#989898"></path>
                    <path d="M89.7026861,78.1817073 L91.2589636,78.1231707 C93.3433509,78.0134146 97.3950387,77.6963415 102.633449,76.7878049 C110.391663,75.4426829 124.183501,72.2731707 125.562929,70.0865854 C126.942357,67.9 123.321206,59.5158537 115.736183,48.6256098 C108.14994,37.7341463 86.9438306,24.5219512 86.9438306,24.5219512 L96.4266341,8.14634146 C96.4266341,8.14634146 95.0594029,4.78780488 88.7123277,2.61585366 L83.2080329,22.7878049 C83.2080329,22.7878049 97.4718769,33.5731707 103.220102,43.1536585 C108.969547,52.7341463 99.9245994,63.0378049 99.9245994,63.0378049 L89.7026861,78.1817073 Z" id="Fill-31" fill="#CB9161"></path>
                    <path d="M22.6998191,68.299878 C22.6998191,68.299878 8.44207341,60.6767073 12.9828422,58.3620732 C17.5223913,56.0462195 24.9281254,48.997439 64.186322,50.2071951 C103.445738,51.4181707 118.493819,66.2230488 118.493819,68.299878 C118.493819,70.3767073 94.5300734,73.6523171 94.5300734,73.6523171 L33.6108364,70.0864634 L22.6998191,68.299878 Z" id="Fill-33" fill="#75451B"></path>
                    <path d="M118.494307,68.2997561 C118.494307,66.2229268 103.445006,51.4180488 64.1868098,50.2070732 C24.9286133,48.9973171 17.5228792,56.0460976 12.9821104,58.3619512 C10.518411,59.6180488 13.591937,62.4363415 16.9167116,64.7521951 C25.0725324,63.0692683 43.4880757,59.4802439 51.7622029,59.5973171 C62.5573532,59.7497561 88.4066827,62.7241463 99.9250873,68.2997561 C102.737608,69.6607317 105.069584,70.7668293 106.999076,71.6656098 C112.824139,70.6034146 118.494307,69.3095122 118.494307,68.2997561" id="Fill-35" fill="#502E14"></path>
                    <path d="M57.9987775,70.309878 C57.9987775,70.309878 70.3685,59.8440244 86.8606503,67.1391463 C103.35402,74.4330488 94.4725058,78.2379268 103.035691,79.8232927 C111.600095,81.409878 108.110668,72.1891463 108.110668,72.1891463 C108.110668,72.1891463 119.211951,90.2891463 104.939569,97.2659756 C90.6671879,104.242805 91.2904306,105.194024 85.1116676,103.925732 C78.931685,102.657439 68.7829509,100.75378 63.0737543,95.3635366 C57.3645578,89.9720732 54.1922399,84.4781707 54.1922399,84.4781707 L57.9987775,70.309878 Z" id="Fill-37" fill="#D6D6D5"></path>
                    <path d="M38.5271364,106.093659 C38.5271364,106.093659 39.8199688,115.199756 43.3996509,115.611951 C46.9793329,116.024146 56.5645873,111.135122 58.2635642,107.08878 C59.962541,103.042439 61.6407838,98.444878 61.6407838,98.444878 L73.8617087,104.402195 L72.3920266,100.668049 C72.3920266,100.668049 66.176674,98.5546341 63.0738763,95.3631707 C59.969859,92.1717073 57.6817896,88.3863415 57.6817896,88.3863415 L38.5271364,106.093659 Z" id="Fill-39" fill="#9A9A9A"></path>
                    <path d="M42.7748225,68.089878 C42.7748225,68.089878 39.2853948,63.2386585 29.4537705,64.5545122 C19.6221462,65.8703659 18.6708168,77.6032927 10.423522,78.237439 C2.17744682,78.8728049 3.44588613,76.6520732 3.44588613,74.1154878 C3.44588613,71.5789024 -3.03779017,96.3142683 3.3763659,97.8996341 C9.78930231,99.4862195 15.8156087,101.388659 25.6484526,97.8996341 C35.4800769,94.4118293 40.8721636,90.6057317 40.8721636,90.6057317 L42.7748225,68.089878 Z" id="Fill-41" fill="#D6D6D5"></path>
                    <path d="M42.7748225,94.0945122 C42.7748225,94.0945122 31.6735393,102.97378 39.2853948,110.901829 C46.8984699,118.831098 58.8681462,102.87378 58.6327532,98.9371951 C58.3985798,94.9993902 57.6814237,88.3859756 57.6814237,88.3859756 L42.7748225,94.0945122 Z" id="Fill-43" fill="#48C4D8"></path>
                    <path d="M58.1891653,94.49 L58.636778,97.5778049 L52.8970902,100.733902 L42.4422231,100.733902 L38.5271364,98.9363415 L40.3932058,96.2778049 L58.1891653,94.49 Z" id="Fill-45" fill="#339DA7"></path>
                    <path d="M45.1276555,97.3134146 C45.1276555,97.3134146 39.4087017,101.887805 43.3298867,105.973171 C47.2522913,110.057317 52.7187769,101.756098 53.2981121,99.8085366 C54.7507191,94.9207317 56.2411353,92.4646341 55.8264532,93.2170732 L45.1276555,97.3134146 Z" id="Fill-47" fill="#2D7C84"></path>
                    <path d="M63.0733884,95.3630488 C68.782585,100.754512 78.9313191,102.656951 85.1113017,103.925244 C91.2912844,105.193537 90.666822,104.242317 104.939203,97.2654878 C110.806955,94.3971951 112.381527,89.6508537 112.207117,85.0532927 C112.170527,86.2093902 111.566799,88.987439 107.169949,92.1715854 C101.376597,96.3654878 92.4060474,89.285 83.2086428,84.4789024 C74.0112382,79.6728049 64.7467526,82.0971951 64.7467526,82.0971951 L58.264296,90.1776829 C59.5754231,91.7837805 61.1817064,93.5764634 63.0733884,95.3630488" id="Fill-49" fill="#AFAFAF"></path>
                    <path d="M69.2856919,81.3407317 C69.2856919,81.3407317 71.690848,82.2419512 72.0555243,84.4785366 C72.4189809,86.715122 72.3470214,89.9212195 69.7235474,90.1395122 C67.1000734,90.3578049 65.1315532,90.1395122 65.1315532,90.1395122 C65.1315532,90.1395122 64.548559,92.0919512 63.6008884,93.0834146 C62.6544376,94.074878 62.1726746,94.4895122 62.1726746,94.4895122 L59.9699809,92.1712195 L61.6409058,85.4029268 L69.2856919,81.3407317 Z" id="Fill-51" fill="#989898"></path>
                    <path d="M34.0960145,81.3407317 C34.0960145,81.3407317 31.7225694,77.6882927 27.5684306,78.2382927 C23.4142919,78.7882927 21.4360145,84.3260976 15.8963497,85.5126829 C10.3579046,86.6992683 3.01315318,86.3407317 2.14841908,84.4785366 C1.32027457,82.6968293 1.45931503,81.5956098 1.47273121,81.5029268 C0.283569364,88.174878 -0.365286127,96.974878 3.37660983,97.9004878 C9.78954624,99.4858537 15.8158526,101.388293 25.6474769,97.9004878 C34.0691821,94.9126829 39.2197775,91.6992683 40.5284653,90.8370732 L34.0960145,81.3407317 Z" id="Fill-53" fill="#C3BCB7"></path>
                    <path d="M47.6277006,57.2228049 C47.6277006,60.435 44.517585,63.0386585 40.6817757,63.0386585 C36.8447468,63.0386585 33.7346312,60.435 33.7346312,57.2228049 C33.7346312,54.0106098 36.8447468,51.4069512 40.6817757,51.4069512 C44.517585,51.4069512 47.6277006,54.0106098 47.6277006,57.2228049" id="Fill-55" fill="#C0E5EA"></path>
                    <path d="M50.7223266,56.7978049 C50.7223266,56.7978049 48.396448,39.8953659 36.6194769,39.7782927 C24.8412861,39.662439 19.5943382,45.4904878 19.1284306,48.2880488 C18.6625231,51.0856098 15.8646387,62.0429268 17.0294075,62.9758537 C18.195396,63.9087805 29.2771647,54.0002439 36.6194769,55.2819512 C43.9605694,56.564878 46.9914075,59.8282927 46.9914075,59.8282927 L50.7223266,56.7978049 Z" id="Fill-57" fill="#D6D6D5"></path>
                    <path d="M59.9703468,58.6629268 C59.9703468,58.6629268 76.9893873,46.5397561 83.2083988,45.6068293 C89.4274104,44.675122 97.5881098,44.4409756 97.5881098,44.4409756 C97.5881098,44.4409756 107.031884,52.834878 105.748809,59.8287805 C104.466954,66.8226829 105.282902,70.0860976 103.418052,70.0860976 C101.551983,70.0860976 88.3785087,58.1970732 76.3710231,58.1970732 C64.3623179,58.1970732 58.264052,64.5543902 58.264052,64.5543902 L59.9703468,58.6629268 Z" id="Fill-59" fill="#D6D6D5"></path>
                    <path d="M88.1511653,59.5969512 C88.1511653,62.3347561 83.6738185,64.5542683 78.1512289,64.5542683 C72.6286393,64.5542683 68.1525121,62.3347561 68.1525121,59.5969512 C68.1525121,56.8591463 72.6286393,54.6396341 78.1512289,54.6396341 C83.6738185,54.6396341 88.1511653,56.8591463 88.1511653,59.5969512" id="Fill-61" fill="#C0E5EA"></path>
                    <path d="M59.9703468,58.6629268 C59.9703468,58.6629268 76.9893873,46.5397561 83.2083988,45.6068293 C89.4274104,44.675122 97.5881098,44.4409756 97.5881098,44.4409756 C97.5881098,44.4409756 107.031884,52.834878 105.748809,59.8287805 C104.466954,66.8226829 105.282902,70.0860976 103.418052,70.0860976 C101.551983,70.0860976 88.3785087,58.1970732 76.3710231,58.1970732 C64.3623179,58.1970732 58.264052,64.5543902 58.264052,64.5543902 L59.9703468,58.6629268 Z" id="Fill-63" fill="#D6D6D5"></path>
                    <path d="M105.749297,59.8285366 C105.873702,59.1468293 105.872482,58.4504878 105.811499,57.7517073 C101.156083,56.0870732 89.9621064,52.3943902 82.5490543,52.4846341 C72.9894127,52.6017073 59.9708347,60.6443902 59.9708347,60.6443902 L62.1967017,61.72 C65.2080254,60.0236585 69.9305225,58.1968293 76.3702913,58.1968293 C88.3789965,58.1968293 101.552471,70.0870732 103.41732,70.0870732 C105.28339,70.0870732 104.467442,66.822439 105.749297,59.8285366" id="Fill-65" fill="#AFAFAF"></path>
                    <path d="M36.6188671,93.0829268 L33.5136301,94.6731707 C33.5136301,94.6731707 31.164578,90.3256098 30.6437861,87.9158537 C30.1229942,85.5060976 34.6393699,79.2536585 34.6393699,79.2536585 L36.6188671,93.0829268 Z" id="Fill-67" fill="#989898"></path>
                    <path d="M48.5818353,57.2640244 C48.5818353,57.2640244 40.4735809,49.575 35.8950029,48.6810976 C31.3225231,47.7884146 17.2184538,57.8432927 17.1916214,57.8628049 C16.7513266,60.4323171 16.5415462,62.5859756 17.0294075,62.9762195 C18.195396,63.9079268 29.2771647,54.0006098 36.6182572,55.2823171 C42.1981705,56.2567073 45.2838931,58.372561 46.4450029,59.3335366 L48.5818353,57.2640244 Z" id="Fill-69" fill="#AFAFAF"></path>
                    <path d="M65.6107549,78.2380488 C65.6107549,78.2380488 66.8791942,56.9904878 55.1436913,54.7709756 C43.4094081,52.5502439 33.5765642,79.1892683 32.6252347,83.312439 C31.6739052,87.4343902 35.1633329,97.9002439 45.3120671,98.8514634 C55.4620208,99.8026829 61.1699977,92.5087805 61.8042173,91.557561 C62.4396566,90.6063415 62.7567665,88.0685366 62.7567665,88.0685366 C62.7567665,88.0685366 70.368622,90.9234146 71.0028416,85.214878 C71.6370613,79.5063415 65.6107549,78.2380488 65.6107549,78.2380488" id="Fill-71" fill="#48C4D8"></path>
                    <path d="M65.6107549,78.2380488 C65.6107549,78.2380488 61.8151942,77.0685366 58.636778,77.4917073 C55.4571422,77.9160976 61.3980728,75.2026829 61.3956335,64.3282927 C61.3944139,57.6709756 60.9992462,58.3843902 60.9992462,58.3843902 C60.9992462,58.3843902 64.3459746,61.9368293 64.9862925,68.4343902 C65.6266104,74.9331707 65.6107549,78.2380488 65.6107549,78.2380488" id="Fill-73" fill="#339DA7"></path>
                </g>
                <g id="Group-78" transform="translate(87.815029, 95.121951)">
                    <mask id="mask-8" sketch:name="Clip 77" fill="white">
                        <use xlink:href="#path-7"></use>
                    </mask>
                    <g id="Clip-77"></g>
                    <path d="M1.33795954,1.80121951 C0.225635838,4.12317073 0.209780347,10.4926829 0.209780347,10.4926829 L0.209780347,10.4926829 C0.209780347,10.4926829 3.00034682,9.41219512 5.78603468,6.35 L5.78603468,6.35 C8.5729422,3.28780488 7.87164162,1.48292683 7.87164162,1.48292683 L7.87164162,1.48292683 C7.87164162,1.48292683 5.69821965,0.679268293 3.82117341,0.679268293 L3.82117341,0.679268293 C2.73324277,0.679268293 1.74654335,0.948780488 1.33795954,1.80121951" id="Fill-76" sketch:type="MSShapeGroup" mask="url(#mask-8)"></path>
                </g>
                <g id="Group-130" sketch:type="MSShapeGroup">
                    <path d="M75.7054584,74.1404878 C75.7054584,74.1404878 67.4032792,86.9368293 68.0289613,94.5295122 C68.655863,102.123415 76.3299208,105.613659 76.3299208,105.613659 C76.3299208,105.613659 70.8829497,98.6795122 72.1623659,91.462439 C73.4430017,84.2453659 75.7054584,74.1404878 75.7054584,74.1404878" id="Fill-79" fill="#FEFEFE"></path>
                    <path d="M45.2765751,112.939268 C45.2765751,112.939268 37.8952341,123.723415 40.2759971,128.48561 C42.6567601,133.247805 71.4576503,167.294146 71.4576503,167.294146 C71.4576503,167.294146 45.7522399,133.723415 44.5618584,128.01 C43.3714769,122.295366 54.5898468,110.805122 54.5898468,110.805122 L45.5144075,110.805122 L45.2765751,112.939268 Z" id="Fill-81" fill="#F8F9F9"></path>
                    <path d="M108.491931,22.6123171 C98.0968272,21.2964634 95.2379601,24.1379268 94.6939948,24.8513415 L95.7148445,29.7159756 C98.7115324,29.5489024 102.993735,29.355 106.791735,29.355 C113.485191,29.355 119.874954,33.0586585 119.874954,33.0586585 L122.711868,28.1586585 C119.860318,26.0489024 115.146359,23.455 108.491931,22.6123171" id="Fill-83" fill="#75451B"></path>
                    <path d="M171.00745,122.531707 C171.00745,122.531707 165.409242,137.67561 163.409011,144.879268 C161.40756,152.081707 154.203069,179.093902 154.003046,185.297561 C153.803023,191.5 152.402861,195.10122 155.004381,194.90122 C157.605901,194.70122 166.414236,150.669512 167.513144,146.673171 C168.612051,142.678049 172.833271,132.110976 172.833271,132.110976 L171.00745,122.531707 Z" id="Fill-85" fill="#8E572A"></path>
                    <path d="M177.033757,130.768659 C177.033757,130.768659 175.875086,137.924756 172.833271,136.975976 C169.791456,136.027195 167.993687,136.334512 167.513144,133.465 C167.031381,130.596707 168.951115,127.936951 168.951115,127.936951 L177.033757,130.768659 Z" id="Fill-87" fill="#48C4D8"></path>
                    <path d="M177.632118,128.613293 C177.632118,128.613293 176.473448,135.76939 173.431633,134.82061 C170.389818,133.871829 168.592049,134.179146 168.111506,131.309634 C167.629743,128.441341 169.549477,125.781585 169.549477,125.781585 L177.632118,128.613293 Z" id="Fill-89" fill="#339DA7"></path>
                    <path d="M107.659884,31.5141463 C104.699786,31.2373171 95.765826,31.5141463 95.765826,31.5141463 C95.765826,31.5141463 88.2112942,34.3604878 77.4588318,40.0519512 C66.7063694,45.7434146 65.596485,46.375122 65.596485,46.375122 C65.596485,46.375122 89.1601844,34.9921951 97.5404214,33.8860976 C105.920658,32.7787805 115.841317,33.0592683 115.841317,33.0592683 C115.841317,33.0592683 109.732075,31.7080488 107.659884,31.5141463" id="Fill-91" fill="#ECC09C"></path>
                    <path d="M181.071053,123.295976 L178.818353,130.445976 C178.818353,130.445976 174.586157,133.776463 172.833515,132.11061 C171.079654,130.445976 168.950139,128.998415 168.950139,128.998415 L173.777527,124.569146 L181.071053,123.295976 Z" id="Fill-93" fill="#48C4D8"></path>
                    <path d="M181.071053,121.485488 L178.818353,128.635488 C178.818353,128.635488 175.217937,130.702561 172.833515,130.300122 C171.007694,129.992805 168.950139,128.998902 168.950139,128.998902 L173.777527,122.758659 L181.071053,121.485488 Z" id="Fill-95" fill="#339DA7"></path>
                    <path d="M95.7654601,21.237561 L93.9030497,12.2253659 C93.9030497,12.2253659 100.575772,10.1704878 108.703541,10.8034146 C116.83131,11.435122 101.862506,10.2790244 98.5413908,14.4387805 C95.2202751,18.5997561 95.7654601,21.237561 95.7654601,21.237561" id="Fill-97" fill="#ECC09C"></path>
                    <path d="M176.521136,117.01878 C176.521136,113.973659 174.052558,111.505366 171.007084,111.505366 C167.96283,111.505366 165.494252,113.973659 165.494252,117.01878 C165.494252,120.063902 167.96283,122.532195 171.007084,122.532195 C174.052558,122.532195 176.521136,120.063902 176.521136,117.01878" id="Fill-99" fill="#48C4D8"></path>
                    <g id="Group-105" transform="translate(167.092486, 112.195122)" fill="#339DA7">
                        <path d="M6.68491908,0.0823170732 L6.80322543,0.201829268 C6.76175723,0.15304878 6.72882659,0.117682927 6.70077457,0.0908536585 C6.6946763,0.087195122 6.68979769,0.0847560976 6.68491908,0.0823170732" id="Fill-101"></path>
                        <path d="M3.91496474,10.3365854 C6.96043873,10.3365854 9.42901676,7.86829268 9.42901676,4.82317073 C9.42901676,3.83536585 9.14727688,2.92073171 8.69234624,2.11829268 L6.80310347,0.202439024 C7.06166994,0.509756098 7.49708613,1.26707317 7.17875665,2.68536585 C6.74212081,4.62804878 5.84933468,4.65243902 3.91496474,4.82317073 C2.5953,4.9402439 1.18416127,7.46341463 0.420658382,9.05487805 C1.37442717,9.84390244 2.58066416,10.3365854 3.91496474,10.3365854" id="Fill-103"></path>
                    </g>
                    <path d="M174.706902,112.939268 C174.706902,112.939268 185.972839,118.679512 183.722579,121.618537 C181.472318,124.557561 176.521746,127.707561 176.521746,127.707561 C176.521746,127.707561 167.743902,130.857561 167.743902,127.707561 C167.743902,124.557561 169.54411,119.831951 173.145746,120.506341 C176.746162,121.181951 174.706902,112.939268 174.706902,112.939268" id="Fill-106" fill="#48C4D8"></path>
                    <path d="M175.229768,118.305 C175.229768,118.305 178.672849,103.790366 180.21449,100.707439 C181.757351,97.6257317 182.168375,88.6269512 184.019808,84.900122 C185.871242,81.1720732 189.727785,67.9318293 191.270646,63.1757317 C192.813508,58.4196341 194.613716,54.0489024 194.613716,54.0489024 C194.613716,54.0489024 197.184745,55.8489024 198.470259,54.8208537 C199.755773,53.7928049 208.240901,45.8232927 209.911825,24.8696341 C211.58275,3.91719512 202.712213,0.703780488 199.24108,0.703780488 C195.769947,0.703780488 189.727785,5.13670732 188.186143,9.28304878 C186.643282,13.4293902 183.172149,46.4659756 182.657455,51.7354878 C182.143982,57.0062195 177.258051,90.7184146 177.129987,93.0147561 C177.000704,95.3123171 174.539444,107.78061 173.777161,109.194024 C173.016097,110.608659 172.833149,111.818415 172.833149,111.818415 C172.833149,111.818415 174.696779,112.039146 174.972421,114.233049 C175.248062,116.426951 175.229768,118.305 175.229768,118.305" id="Fill-108" fill="#8E572A"></path>
                    <path d="M194.560051,54.1590244 C194.560051,54.1590244 193.516028,53.7187805 192.112207,52.3943902 C191.421883,51.722439 190.66082,50.8273171 189.925369,49.6980488 C189.224068,48.5517073 188.556918,47.1785366 188.033687,45.6029268 C187.561681,44.02 187.128704,42.2602439 186.983565,40.3687805 C186.781103,38.474878 186.799398,36.4834146 186.918924,34.422439 C187.062843,32.365122 187.331166,30.2370732 187.853178,28.1065854 C188.381288,25.9821951 189.102103,23.8297561 190.375421,21.8565854 C191.01208,20.8760976 191.797536,19.9236585 192.923276,19.217561 C193.491635,18.8760976 194.161224,18.6139024 194.891797,18.5431707 C195.61871,18.467561 196.377334,18.6102439 197.021311,18.8980488 C197.671386,19.1882927 198.192178,19.6078049 198.654427,20.0443902 L198.978854,20.3846341 C199.023982,20.4346341 198.99349,20.3907317 199.0996,20.52 L199.160583,20.5968293 L199.281328,20.7529268 L199.760652,21.374878 C200.429022,22.3663415 201.003479,23.3980488 201.353519,24.4456098 C201.719415,25.5029268 201.937733,26.5821951 202.031646,27.6443902 C202.148733,28.7041463 202.117022,29.7529268 201.965785,30.7639024 C201.815768,31.7760976 201.587692,32.7492683 201.127883,33.7004878 C200.840045,34.1785366 200.644901,34.6492683 199.976531,35.122439 C199.48501,35.4395122 199.325236,35.5065854 198.983733,35.7602439 C198.365369,36.215122 197.736028,36.7260976 197.010334,37.1517073 C196.312692,37.5663415 195.346727,37.9358537 194.418571,37.6639024 C194.178299,37.5870732 194.047797,37.5419512 193.759958,37.374878 C193.627016,37.27 193.524565,37.222439 193.339178,37.024878 C193.163548,36.8553659 193.034265,36.6870732 192.952548,36.5395122 C192.848877,36.3870732 192.772039,36.2346341 192.709837,36.0846341 C192.451271,35.4834146 192.342721,34.9321951 192.269542,34.4407317 C192.13782,33.4578049 192.1366,32.7004878 192.160993,32.1821951 C192.185386,31.665122 192.219536,31.3907317 192.219536,31.3907317 L192.463467,31.3907317 C192.463467,31.3907317 192.493958,31.6578049 192.587872,32.1541463 C192.689103,32.6456098 192.808629,33.3785366 193.105005,34.2419512 C193.250143,34.67 193.451386,35.1321951 193.722149,35.5407317 C193.785571,35.6480488 193.857531,35.7456098 193.938028,35.8273171 C194.016086,35.9334146 194.090484,35.9870732 194.142929,36.0260976 C194.158785,36.0687805 194.346612,36.1565854 194.477114,36.2285366 C194.469797,36.2065854 194.652745,36.272439 194.728363,36.272439 C195.114993,36.3090244 195.565045,36.1297561 196.083398,35.7321951 C196.595652,35.3419512 197.120103,34.8017073 197.76408,34.2370732 C198.04582,33.9687805 198.593444,33.5968293 198.791028,33.4309756 C198.828837,33.415122 199.022762,33.0736585 199.139849,32.7895122 C199.405733,32.1431707 199.55819,31.322439 199.622831,30.4931707 C199.735039,28.8260976 199.602097,26.9858537 198.954461,25.2809756 C198.684918,24.3919512 198.259259,23.5980488 197.800669,22.8370732 L197.34086,22.2004878 L197.224993,22.0407317 L197.168889,21.9590244 C197.229872,22.0382927 197.156692,21.9492683 197.156692,21.9492683 L196.949351,21.7041463 C196.662733,21.4004878 196.359039,21.1273171 196.04071,20.9626829 C195.411369,20.6297561 194.729583,20.6468293 193.983155,21.0407317 C193.248924,21.4456098 192.561039,22.1492683 191.987802,22.9541463 C190.831571,24.5797561 190.050993,26.5578049 189.475317,28.5370732 C188.897201,30.524878 188.55082,32.5626829 188.327623,34.5431707 C188.120282,36.524878 188.045883,38.4712195 188.130039,40.2846341 C188.165409,42.1139024 188.487398,43.8139024 188.852074,45.3602439 C189.269195,46.8968293 189.832675,48.2480488 190.443721,49.3895122 C191.088918,50.5126829 191.774363,51.4163415 192.403704,52.1041463 C193.695317,53.465122 194.66738,53.9395122 194.66738,53.9395122 L194.560051,54.1590244 Z" id="Fill-110" fill="#502E14"></path>
                    <path d="M207.24542,18.2718293 C207.24542,18.2718293 208.935859,4.14743902 199.96531,3.51573171 C193.514564,3.06085366 190.126368,9.28402439 190.126368,9.28402439 L187.457766,21.6169512 C187.457766,21.6169512 191.69972,7.25353659 198.194373,7.84378049 C204.687807,8.43402439 207.24542,18.2718293 207.24542,18.2718293" id="Fill-112" fill="#B9835F"></path>
                    <path d="M170.108078,127.936585 C170.108078,127.936585 180.921523,122.553659 180.489766,119.365854 C180.058009,116.176829 178.443188,117.018293 178.443188,117.018293 C178.443188,117.018293 181.350841,118.476829 182.536344,120.047561 C183.723066,121.618293 177.41502,126.167073 175.881916,126.518293 C174.350032,126.869512 170.108078,127.936585 170.108078,127.936585" id="Fill-114" fill="#FEFEFE"></path>
                    <path d="M9.10227168,85.3246341 L9.95115029,86.7185366 L2.84910983,85.3246341 L0.346381503,82.1880488 C0.346381503,82.1880488 0.346381503,81.1917073 3.87971676,82.4819512 C6.49587283,83.4380488 9.10227168,85.3246341 9.10227168,85.3246341" id="Fill-116" fill="#339DA7"></path>
                    <path d="M16.1638197,82.2139024 L15.6100971,84.27 C15.6100971,84.27 7.88359422,78.2517073 7.24205665,77.6358537 C5.9955711,76.4370732 5.9955711,72.865122 5.9955711,72.865122 L16.1638197,82.2139024 Z" id="Fill-118" fill="#339DA7"></path>
                    <path d="M22.6605462,83.794878 L21.1884249,86.3778049 C21.1884249,86.3778049 19.1857543,77.0814634 18.4710376,75.0070732 C17.7563208,72.9339024 16.6427775,71.3802439 16.1634538,71.5741463 L15.6841301,71.7692683 C15.6841301,71.7692683 16.1329624,70.3570732 17.136737,70.9656098 C18.1417312,71.5741463 19.3894364,72.4814634 20.5078584,76.0217073 C21.6262803,79.5607317 22.6605462,83.794878 22.6605462,83.794878" id="Fill-120" fill="#339DA7"></path>
                    <path d="M19.1724601,94.5293902 C19.1724601,94.5293902 15.1805353,95.4586585 14.3231191,92.6696341 C13.4644832,89.8818293 14.3231191,87.7903659 14.3231191,87.7903659 C14.3231191,87.7903659 14.1426104,92.455 16.5575237,92.7415854 C18.9712173,93.0281707 23.1241364,91.8123171 23.1241364,91.8123171 L19.1724601,94.5293902 Z" id="Fill-122" fill="#339DA7"></path>
                    <path d="M17.5599566,82.7052439 C17.5599566,82.7052439 12.8472168,86.0308537 11.4616908,87.3247561 C10.0761647,88.6186585 7.97226301,90.6332927 7.97226301,90.6332927 C7.97226301,90.6332927 14.6035173,85.2003659 16.6354595,84.9223171 L17.5599566,82.7052439 Z" id="Fill-124" fill="#339DA7"></path>
                    <path d="M99.022422,76.4382927 C99.022422,76.4382927 106.847717,73.4663415 115.841439,75.8480488 C124.836382,78.2297561 127.461075,82.1882927 127.461075,82.1882927 C127.461075,82.1882927 120.55052,76.7017073 109.233358,76.8358537 C97.9161965,76.9712195 99.6688382,79.8797561 99.6688382,79.8797561 L99.022422,76.4382927 Z" id="Fill-126" fill="#F8F9F9"></path>
                    <path d="M70.7820844,75.8484146 C70.7820844,75.8484146 66.6511191,73.5081707 61.7346971,74.9240244 C56.8170555,76.339878 53.4666682,81.1581707 53.4666682,81.1581707 C53.4666682,81.1581707 59.2331884,75.9471951 63.5324659,76.339878 C67.8317434,76.7337805 69.0123676,78.5557317 69.0123676,78.5557317 L70.7820844,75.8484146 Z" id="Fill-128" fill="#F8F9F9"></path>
                </g>
            </g>
        </g>
    </g>
</svg>