<svg id="Layer_1" data-name="Layer 1" xmlns="http://www.w3.org/2000/svg" xmlns:xlink="http://www.w3.org/1999/xlink" viewBox="0 0 518.29 598.01"><defs><linearGradient id="linear-gradient" x1="470.87" y1="315.16" x2="477.46" y2="315.16" gradientUnits="userSpaceOnUse"><stop offset="0" stop-color="#257b82"/><stop offset="1" stop-color="#339da8"/></linearGradient><linearGradient id="linear-gradient-2" x1="448.15" y1="293.32" x2="445.96" y2="303.37" xlink:href="#linear-gradient"/></defs><title>many_penguins</title><path d="M417.3,325.14s-3.82,15-2.45,17.43,9.47,6.74,9.47,6.74-6.26.79-6.26,4.76,11.49-3.37,11.49-3.37l-1.07-4.61L442.44,341s15.62,0.31,22.45,5.06,6.06,4.61,6.06,4.61,0.87,6.42,5.11,6.42-4.11-7.66-4.11-7.66a58.25,58.25,0,0,1,.84-14.68c1.49-7.33,1.69-8.4,1.69-8.4Z" style="fill:#8d572b"/><path d="M476.06,318.08l-2.16,11.34s-0.22,3.74-13.19,5.05-33.5-2.11-33.5-2.11-6.31-3.16-7.94-4.81a9.84,9.84,0,0,1-2-2.42l2-7.92,51.67-5.57s1.75,4.18,2.85,5A22,22,0,0,0,476.06,318.08Z" style="fill:#e8af7c"/><path d="M475.5,320.57l-0.53,3.2-2.4-1s-0.66,6.25-2.38,7.16a18.25,18.25,0,0,0-4,3.67l4-19.74,3.35-.85Z" style="fill:#cb9162"/><path d="M474.65,295.68s11.61,3.66,16.87,7l5.26,3.37-5.26,4.59s-5.53-1.75-10.66,0-3.37,1-3.37,1l-2,8.92s-5.44-8.5-5.31-12.44,0-7.61,0-7.61Z" style="fill:#49c3d8"/><path d="M414.5,291.53s-4.07,2.55-5.93,1.43l-1.86-1.13s2.71-4.14,2.71-6.56-1.86.23-2.71,1.19l-0.85,1s-1.19-5.85-2.71-7.33-2.2,1.69-2.2,3.16a7.94,7.94,0,0,0,1,3.23l-6.1-5.61a3.46,3.46,0,0,0-1,3.45,8.32,8.32,0,0,0,2.88,4s-4.24-2.84-5.25-1.88,2,5.07,2,5.07H397s-0.34,2.92.68,4.16,4.24,0,4.24,0,11.22,10.41,14.63,12.44l3.41,2V296.4Z" style="fill:#49c3d8"/><path d="M473.9,329.43l-1.24,6.06s-5.11,1.83-6.42,2-2.73,3.11-4.67,4.08-3.17,1.68-3.17,1.68l-5.25-1.43-16.86,1.43L433,344.45l-6.73,2.29s4.71-3.06,4.71-4.86-4.71-10-4.71-10l15.46,2.88Z" style="fill:#502f15"/><path d="M420,296.4l-5.51-4.88a13.11,13.11,0,0,1-4.1,1.66c-0.5,1.59-1.21,4.81.34,6.9,2.13,2.86,1.62,4.82,1.62,4.82a40.83,40.83,0,0,0,4.23,3.22l0.55,0.33,2.86-1.34V296.4Z" style="fill:#339da8;opacity:0.52"/><path d="M483.09,305.92c-5.33.42-8.3-.12-8.3-1.74s2.16-1.46,2.7-2.55a34.33,34.33,0,0,0,1.29-4.55c-2.41-.86-4.13-1.4-4.13-1.4l-4.46,4.83s0.14,3.67,0,7.61,5.31,12.44,5.31,12.44l2-8.81c0.4-.1,1.34-0.4,3.4-1.1,5.13-1.75,10.66,0,10.66,0l1.8-1.57h0s3.12-4.28,1.51-5c-0.62-.3-5.46,2.94-6.23,2.67A13.84,13.84,0,0,0,483.09,305.92Z" style="fill:#339da8;opacity:0.52"/><path d="M477.46,311.76s-2.63.08-3.91,1.29-2.68-3.3-2.68-3.3l0.88,4,3.76,6.77Z" style="fill:url(#linear-gradient)"/><path d="M448.65,283.73L471.12,302s3.08,20.93-2.64,28.86-17.85,15.64-22.25,17.18-9,2.64-9,2.64,2.86-1.1,2.2-3.53-25.56-28.64-25.78-33.49S418,302,418,302l24.76-16.3Z" style="fill:#d5d5d5"/><path d="M468.48,330.88c5.73-7.93,2.64-28.86,2.64-28.86l-3-2.44-13.49,1.26s8.06,16.67,4.76,30.69-22.2,19.19-22.2,19.19,4.63-1.1,9-2.64S462.75,338.81,468.48,330.88Z" style="fill:#aeaeaf;opacity:0.64"/><path d="M425,284.91s-7.89-5.14-8.41-9.14,23.32-18,28.46-19.4,4.64-1.24,4.64-1.24l-2.32-11.06s3.34-1.76,12.13-1.24,10.34,4.34,10.34,4.34L464.16,257s12.72,7.93,17.27,14.46,6.72,11.56,5.89,12.87-9.1,3.21-13.75,4a53.1,53.1,0,0,1-7.76.84Z" style="fill:#e8af7c"/><path d="M471.12,302l0.34,2.89a18.56,18.56,0,0,1-6.62,1,42.88,42.88,0,0,1-8.52-1l-1-3.57Z" style="fill:#989898"/><path d="M465.82,289.18l0.93,0a58.89,58.89,0,0,0,6.82-.8c4.65-.81,12.93-2.71,13.75-4S486,278,481.43,271.45,464.16,257,464.16,257l5.69-9.82s-0.82-2-4.63-3.32l-3.3,12.1s8.56,6.47,12,12.22-2,11.93-2,11.93Z" style="fill:#cb9162"/><path d="M425.63,283.25s-8.55-4.57-5.83-6,7.16-5.62,30.71-4.89,32.57,9.61,32.57,10.85-14.37,3.21-14.37,3.21l-36.54-2.14Z" style="fill:#75461c"/><path d="M483.09,283.25c0-1.25-9-10.13-32.57-10.85s-28,3.5-30.71,4.89c-1.48.75,0.37,2.44,2.36,3.83,4.89-1,15.94-3.16,20.9-3.09,6.48,0.09,22,1.88,28.89,5.22,1.69,0.82,3.09,1.48,4.24,2C479.69,284.63,483.09,283.85,483.09,283.25Z" style="fill:#502f15"/><path d="M446.8,284.45a17,17,0,0,1,17.31-1.9c9.89,4.38,4.57,6.66,9.7,7.61s3-4.58,3-4.58,6.66,10.86-1.9,15-8.19,4.76-11.89,4-9.79-1.9-13.22-5.14a32.31,32.31,0,0,1-5.33-6.53Z" style="fill:#d5d5d5"/><path d="M435.12,305.92s0.78,5.46,2.92,5.71,7.9-2.69,8.92-5.11,2-5.19,2-5.19l7.33,3.57-0.88-2.24s-3.73-1.27-5.59-3.18a26.58,26.58,0,0,1-3.23-4.19Z" style="fill:#99999a;opacity:0.64"/><path d="M437.67,283.12s-2.09-2.91-8-2.12-6.47,7.83-11.41,8.21-4.19-1-4.19-2.47-3.89,13.32,0,14.27,7.46,2.09,13.36,0a40.9,40.9,0,0,0,9.13-4.38Z" style="fill:#d5d5d5"/><path d="M437.67,298.72S431,304,435.58,308.8s11.75-4.82,11.6-7.18-0.57-6.33-.57-6.33Z" style="fill:#49c3d8"/><polygon points="446.92 298.96 447.19 300.81 443.74 302.7 437.47 302.7 435.12 301.63 436.24 300.03 446.92 298.96" style="fill:#339da8;opacity:0.52"/><path d="M439.08,300.65s-3.43,2.74-1.08,5.19,5.63-2.53,6-3.7a21.77,21.77,0,0,1,1.52-4Z" style="fill:#2e7c83"/><path d="M449.85,299.48c3.42,3.23,9.51,4.38,13.22,5.14s3.33,0.19,11.89-4a7.29,7.29,0,0,0,4.36-7.33c0,0.69-.38,2.36-3,4.27-3.47,2.52-8.86-1.73-14.37-4.61a16.87,16.87,0,0,0-11.07-1.43L447,296.37A33,33,0,0,0,449.85,299.48Z" style="fill:#aeaeaf;opacity:0.64"/><path d="M453.57,291.07a2.73,2.73,0,0,1,1.66,1.88c0.22,1.34.17,3.26-1.4,3.4a15.77,15.77,0,0,1-2.75,0,5.29,5.29,0,0,1-.92,1.77c-0.57.59-.86,0.84-0.86,0.84L448,297.57l1-4.06Z" style="fill:#989898"/><path d="M432.47,291.07a4.3,4.3,0,0,0-3.92-1.86c-2.49.33-3.68,3.65-7,4.36s-7.73.5-8.25-.62a3.39,3.39,0,0,1-.4-1.78c-0.71,4-1.1,9.28,1.14,9.84,3.85,1,7.46,2.09,13.36,0a42.8,42.8,0,0,0,8.93-4.24Z" style="fill:#c3bcb7"/><ellipse cx="436.42" cy="276.6" rx="4.17" ry="3.49" style="fill:#bfe5eb"/><path d="M442.44,276.35S441,266.21,434,266.14s-10.21,3.43-10.49,5.1-2,8.25-1.26,8.81,7.35-5.38,11.75-4.62,6.22,2.73,6.22,2.73Z" style="fill:#d5d5d5"/><path d="M448,277.47s10.21-7.27,13.94-7.83,8.63-.7,8.63-0.7,5.66,5,4.89,9.23-0.28,6.15-1.4,6.15-9-7.13-16.22-7.13S447,281,447,281Z" style="fill:#d5d5d5"/><ellipse cx="458.89" cy="278.03" rx="6" ry="2.97" style="fill:#bfe5eb"/><path d="M448,277.47s10.21-7.27,13.94-7.83,8.63-.7,8.63-0.7,5.66,5,4.89,9.23-0.28,6.15-1.4,6.15-9-7.13-16.22-7.13S447,281,447,281Z" style="fill:#d5d5d5"/><path d="M475.44,278.17a4.68,4.68,0,0,0,0-1.25c-2.79-1-9.51-3.21-14-3.16-5.73.07-13.54,4.89-13.54,4.89l1.34,0.64a17.15,17.15,0,0,1,8.5-2.11c7.2,0,15.1,7.13,16.22,7.13S474.67,282.36,475.44,278.17Z" style="fill:#aeaeaf;opacity:0.64"/><path d="M434,298.12l-1.86,1A21.94,21.94,0,0,1,430.4,295c-0.31-1.45,2.4-5.2,2.4-5.2Z" style="fill:#989898"/><path d="M441.15,276.63s-4.86-4.61-7.61-5.15-11.2,5.5-11.22,5.51c-0.26,1.54-.39,2.83-0.1,3.07,0.7,0.56,7.35-5.38,11.75-4.62a12.61,12.61,0,0,1,5.89,2.43Z" style="fill:#aeaeaf;opacity:0.64"/><path d="M451.37,289.21s0.76-12.75-6.28-14.08-12.94,14.65-13.51,17.12,1.52,8.75,7.61,9.32a11.14,11.14,0,0,0,9.89-4.38,6.91,6.91,0,0,0,.57-2.09s4.57,1.71,4.95-1.71S451.37,289.21,451.37,289.21Z" style="fill:#49c3d8"/><path d="M451.37,289.21a11.61,11.61,0,0,0-4.18-.45c-1.91.25,1.66-1.37,1.66-7.9,0-4-.24-3.57-0.24-3.57a10.82,10.82,0,0,1,2.39,6C451.38,287.23,451.37,289.21,451.37,289.21Z" style="fill:#339da8;opacity:0.52"/><path d="M449.66,295.11s-3.25-1.2-3.92.19-0.68,5.21-.68,5.21a9.91,9.91,0,0,0,3.34-2.48C450.08,296.19,449.66,295.11,449.66,295.11Z" style="fill:url(#linear-gradient-2)"/><path d="M437.67,281.63s-5,7.68-4.6,12.23,5,6.65,5,6.65-3.27-4.16-2.5-8.49S437.67,281.63,437.67,281.63Z" style="fill:#fff;opacity:0.37"/><path d="M419.42,304.91s-4.43,6.47-3,9.33,18.7,23.28,18.7,23.28S419.71,317.37,419,313.95s6-10.32,6-10.32h-5.44Z" style="fill:#f9f9f9;opacity:0.73"/><path d="M457.34,250.72c-6.23-.79-7.95.92-8.28,1.34l0.61,2.92c1.8-.1,4.37-0.22,6.64-0.22a18,18,0,0,1,7.85,2.22l1.7-2.94A18.05,18.05,0,0,0,457.34,250.72Z" style="fill:#75461c"/><path d="M494.83,310.66s-3.36,9.08-4.56,13.41-5.52,20.52-5.64,24.25-1,5.88.6,5.76,6.84-26.53,7.5-28.93,3.19-8.74,3.19-8.74Z" style="fill:#8d572b"/><path d="M498.45,315.6s-0.7,4.29-2.52,3.72-2.9-.38-3.19-2.11a5,5,0,0,1,.86-3.32Z" style="fill:#49c3d8"/><path d="M498.81,314.31s-0.7,4.29-2.52,3.72-2.9-.38-3.19-2.11a5,5,0,0,1,.86-3.32Z" style="fill:#339da8;opacity:0.52"/><path d="M456.84,256.06c-1.78-.17-7.13,0-7.13,0a106,106,0,0,0-11,5.12c-6.45,3.41-7.12,3.79-7.12,3.79s14.13-6.83,19.16-7.49a81.38,81.38,0,0,1,11-.5S458.08,256.18,456.84,256.06Z" style="fill:#ecc09c"/><path d="M500.87,311.12l-1.35,4.29s-2.54,2-3.59,1a21.25,21.25,0,0,0-2.33-1.87l2.9-2.66Z" style="fill:#49c3d8"/><path d="M500.87,310l-1.35,4.29s-2.16,1.24-3.59,1a10.35,10.35,0,0,1-2.33-.78l2.9-3.74Z" style="fill:#339da8;opacity:0.52"/><path d="M449.7,249.9l-1.12-5.41a26.47,26.47,0,0,1,8.88-.85c4.88,0.38-4.1-.31-6.09,2.18S449.7,249.9,449.7,249.9Z" style="fill:#ecc09c"/><circle cx="494.83" cy="307.35" r="3.31" style="fill:#49c3d8"/><g style="opacity:0.52"><path d="M496.49,304.51l0.07,0.07-0.06-.07h0Z" style="fill:#339da8"/><path d="M494.83,310.66a3.31,3.31,0,0,0,3.31-3.31,3.27,3.27,0,0,0-.44-1.62l-1.13-1.15a1.65,1.65,0,0,1,.23,1.49c-0.26,1.16-.8,1.18-2,1.28-0.79.07-1.64,1.58-2.1,2.54A3.28,3.28,0,0,0,494.83,310.66Z" style="fill:#339da8"/></g><path d="M497.05,304.91s6.76,3.44,5.41,5.21a20.73,20.73,0,0,1-4.32,3.65s-5.26,1.89-5.26,0,1.08-4.72,3.24-4.32S497.05,304.91,497.05,304.91Z" style="fill:#49c3d8"/><path d="M497.37,308.12s2.06-8.71,3-10.56,1.17-7.25,2.28-9.48,3.42-10.18,4.35-13,2-5.47,2-5.47,1.54,1.08,2.31.46,5.86-5.4,6.86-18-4.32-14.5-6.4-14.5-5.71,2.66-6.63,5.15-3,22.3-3.32,25.47-3.24,23.38-3.32,24.76a68.35,68.35,0,0,1-2,9.71,5.39,5.39,0,0,0-.57,1.57,1.56,1.56,0,0,1,1.28,1.45A20.41,20.41,0,0,1,497.37,308.12Z" style="fill:#8d572b"/><path d="M508.95,269.67a5.64,5.64,0,0,1-1.49-1.05,9.57,9.57,0,0,1-1.34-1.61,12,12,0,0,1-1.17-2.46,15.09,15.09,0,0,1-.67-3.16,22.37,22.37,0,0,1-.07-3.57,23.63,23.63,0,0,1,.54-3.84,12.66,12.66,0,0,1,1.52-3.82,5,5,0,0,1,1.6-1.66,2.86,2.86,0,0,1,2.67-.23,3.88,3.88,0,0,1,1,.74l0.22,0.21a0.6,0.6,0,0,1,.09.09l0,0,0.07,0.09,0.29,0.37a7.83,7.83,0,0,1,1.36,5.82,6.25,6.25,0,0,1-.54,1.83,2.51,2.51,0,0,1-.78.94c-0.32.2-.38,0.21-0.59,0.36a13.68,13.68,0,0,1-1.22.82,2.2,2.2,0,0,1-1.69.3,1.83,1.83,0,0,1-.44-0.2,2,2,0,0,1-.26-0.23,1.33,1.33,0,0,1-.25-0.32,1.59,1.59,0,0,1-.15-0.29,3.84,3.84,0,0,1-.24-1,7.19,7.19,0,0,1,0-1.37l0.06-.48h0.2l0.09,0.45a9.41,9.41,0,0,0,.36,1.23,3.21,3.21,0,0,0,.39.74,0.77,0.77,0,0,0,.23.24,0.89,0.89,0,0,0,.19.1s0.08,0,.11,0a3.61,3.61,0,0,0,1.65-1.23c0.16-.16.53-0.42,0.62-0.5a1.32,1.32,0,0,1,.12-0.3,4.53,4.53,0,0,0,.25-1.31,7.72,7.72,0,0,0-.41-3,6.31,6.31,0,0,0-.64-1.4l-0.27-.38-0.07-.1,0,0c0.05,0.07,0,0,0,0l-0.11-.12a2.09,2.09,0,0,0-.46-0.42,1,1,0,0,0-1,0,2.79,2.79,0,0,0-.59.42,5.72,5.72,0,0,0-.54.64,11.24,11.24,0,0,0-1.51,3.27,22.44,22.44,0,0,0-.71,3.55,24.33,24.33,0,0,0-.15,3.43,14.27,14.27,0,0,0,.4,3,11.43,11.43,0,0,0,.92,2.41,9.17,9.17,0,0,0,1.15,1.63,5.39,5.39,0,0,0,1.34,1.11Z" style="fill:#502f15"/><path d="M516.57,248.12s1-8.47-4.37-8.85c-3.87-.27-5.9,3.46-5.9,3.46l-1.6,7.4s2.54-8.62,6.44-8.26S516.57,248.12,516.57,248.12Z" style="fill:#b98360;opacity:0.49"/><path d="M494.29,313.9s6.49-3.23,6.23-5.14-1.23-1.41-1.23-1.41a8.65,8.65,0,0,1,2.46,1.82c0.71,0.94-3.07,3.67-4,3.88S494.29,313.9,494.29,313.9Z" style="fill:#fff;opacity:0.37"/><path d="M397.72,288.34l0.51,0.84-4.26-.84-1.5-1.88s0-.6,2.12.18A15.19,15.19,0,0,1,397.72,288.34Z" style="fill:#339da8;opacity:0.52"/><path d="M402,286.47l-0.33,1.23s-4.63-3.61-5-4c-0.75-.72-0.75-2.86-0.75-2.86Z" style="fill:#339da8;opacity:0.52"/><path d="M405.85,287.42L405,289s-1.2-5.58-1.63-6.82-1.1-2.18-1.38-2.06l-0.29.12s0.27-.85.87-0.48,1.35,0.91,2,3S405.85,287.42,405.85,287.42Z" style="fill:#339da8;opacity:0.52"/><path d="M403.76,293.86s-2.39.56-2.91-1.12a4.67,4.67,0,0,1,0-2.93s-0.11,2.8,1.34,3a13.23,13.23,0,0,0,3.94-.56Z" style="fill:#339da8;opacity:0.52"/><path d="M402.8,286.77s-2.83,2-3.66,2.77-2.09,2-2.09,2,4-3.26,5.2-3.43Z" style="fill:#339da8;opacity:0.52"/><path d="M451.66,283a18.11,18.11,0,0,1,10.09-.35c5.39,1.43,7,3.8,7,3.8a18.31,18.31,0,0,0-10.93-3.21c-6.79.08-5.74,1.83-5.74,1.83Z" style="fill:#f9f9f9;opacity:0.73"/><path d="M434.72,282.66a7.62,7.62,0,0,0-5.43-.55,10.57,10.57,0,0,0-5,3.74s3.46-3.13,6-2.89,3.29,1.33,3.29,1.33Z" style="fill:#f9f9f9;opacity:0.73"/><path d="M18,178.44s-3.59,4.72-2.68,5.36,1.47-.81,1.47-0.81-1.1,1.66.16,1.7,1.23-1.58,1.23-1.58-1.12,1.56,0,1.6,3-5.77,3-5.77Z"/><path d="M38.83,179.3s4.23,5.57,3.16,6.34-1.74-1-1.74-1,1.3,2-.19,2-1.46-1.86-1.46-1.86,1.32,1.84,0,1.9-3.49-6.8-3.49-6.8Z"/><path d="M35.45,119.76l-0.44-.7a41.51,41.51,0,0,0-.35-7.76c-0.58-3.36-.64-5.85-6-9.61s-10.07,1.62-10.36,2.2a34.19,34.19,0,0,0-1.62,7.41v3.24s-1,2.2-1.51,3.36a10,10,0,0,0-.58,1.85S10.75,116.4,9,115.25s-6-3.88-8.16-3.42,1.62,3.24,3.13,4.92,5.21,5.73,5.85,6.65,1.62,3.24,2.32,3.88a3.49,3.49,0,0,0,1,.75,65.89,65.89,0,0,0-4.34,19.23c-0.52,10,3.59,26,6.08,28.83s3,4.17,4.17,4.23,4.57-2.84,4.57-2.84a17.11,17.11,0,0,0,4.58.57,13.76,13.76,0,0,0,3.3-.35A12.83,12.83,0,0,0,34,181c1.39,1.22,1.8,1.51,4.34,1.9s6.31-2,7.7-4.69,4.71-22.5-1.13-40.76C41,125.22,39.7,126.28,39.7,126.28s5.63-10.53,7-12.75,3-5.19,1.59-5.48-6.1,3.42-9.45,7.56Z" style="fill:#b4b2b0"/><path d="M16.71,113.73l2.16,2h2l8.65-.24,5.49-.41a29.75,29.75,0,0,0-.37-3.82c-0.58-3.36-.64-5.85-6-9.61s-10.07,1.62-10.36,2.2a34.19,34.19,0,0,0-1.62,7.41v2.43h0Z" style="fill:#fff"/><path d="M35,115.13a16.74,16.74,0,0,0-1.6-8.6c-2.12-4.1-4.85-6.48-9.79-6.13s-5.38,3.53-5.38,3.53a1.59,1.59,0,0,1,1,1.5c-0.09,1.06.18,4.41-.26,5.2a2.64,2.64,0,0,0-.09,2.29c0.26,0.53,1.41,3.09,3.62,2.73s3.22-.71,3.32-2.65a30.67,30.67,0,0,1-1.48-5c0-1,.53-3.92,3-4.27s3.53,0.71,4.23,2.78a13.37,13.37,0,0,1,.44,6c-0.26,1.41-.44,1.5-2.56,2s-4,1.09-4,1.09a30.46,30.46,0,0,1,5.91,0A5.56,5.56,0,0,0,35,115.13Z"/><path d="M16.71,114.55l2.16,1.23a8.12,8.12,0,0,1-1.59-2.31,6,6,0,0,1-.57-2.16v3.24h0Z"/><path d="M21.06,110.66a8.12,8.12,0,0,0-1,1.94,7.57,7.57,0,0,0,.47,1.94,7,7,0,0,1,2.25-1.41,5,5,0,0,0,1.68-.74,5.36,5.36,0,0,1-2.2-.84A4,4,0,0,0,21.06,110.66Z" style="fill:#586167"/><path d="M27.24,110.66s0.71-2.5,2.22-2.59,0.84,2.42-.71,2.14A2.54,2.54,0,0,0,27.24,110.66Z"/><path d="M18.25,110.29s-0.17-2.73-.46-2.23a2.59,2.59,0,0,0,0,1.52Z"/><path d="M39.69,126.3s-2.92-2.2-1.64-4.56a61.11,61.11,0,0,1,6.65-9.14,21.14,21.14,0,0,1,3.89-2.78s-3.09,6.27-4.45,8.24S39.69,126.3,39.69,126.3Z" style="fill:#d8d6d3"/><path d="M13.18,128L14,124s-4-5.25-6.65-7.07a41.08,41.08,0,0,0-6.6-3.38s4.35,4.66,5.85,6.38,4.06,5.39,4.78,6.38A8.89,8.89,0,0,0,13.18,128Z" style="fill:#d8d6d3"/><path d="M43.16,149.45c0,13.85-2.22,25.86-16.49,25.86-8.24,0-14.92-11.23-14.92-25.08s4.52-28.87,12.76-28.87S43.16,135.61,43.16,149.45Z" style="fill:#fff"/><path d="M26,154.35v2.22h-9.6v-2.22h3.52V144.24q0-.6,0-1.24l-2.5,2.09a1,1,0,0,1-.82.22,1,1,0,0,1-.33-0.13A0.7,0.7,0,0,1,16,145L15.1,143.7l5.29-4.5h2.44v15.16H26Z" style="fill:#231f20"/><path d="M40.77,147.9a14.21,14.21,0,0,1-.49,3.94,8.09,8.09,0,0,1-1.34,2.77,5.43,5.43,0,0,1-2,1.63,6,6,0,0,1-2.53.53,5.94,5.94,0,0,1-2.51-.53,5.41,5.41,0,0,1-2-1.63,8.06,8.06,0,0,1-1.33-2.77,16.45,16.45,0,0,1,0-7.89,8.06,8.06,0,0,1,1.33-2.76,5.41,5.41,0,0,1,2-1.63,5.93,5.93,0,0,1,2.51-.53,6,6,0,0,1,2.53.53,5.43,5.43,0,0,1,2,1.63,8.09,8.09,0,0,1,1.34,2.76A14.2,14.2,0,0,1,40.77,147.9Zm-3.06,0a14.67,14.67,0,0,0-.28-3.12,6.29,6.29,0,0,0-.74-2,2.7,2.7,0,0,0-1.06-1,2.81,2.81,0,0,0-1.25-.29,2.74,2.74,0,0,0-1.23.29,2.67,2.67,0,0,0-1.05,1,6.29,6.29,0,0,0-.73,2,18.16,18.16,0,0,0,0,6.24,6.29,6.29,0,0,0,.73,2,2.67,2.67,0,0,0,1.05,1,2.74,2.74,0,0,0,1.23.29,2.8,2.8,0,0,0,1.25-.29,2.69,2.69,0,0,0,1.06-1,6.29,6.29,0,0,0,.74-2A14.66,14.66,0,0,0,37.71,147.9Z" style="fill:#231f20"/><path d="M17.77,281.63s-3.59,4.72-2.68,5.36,1.47-.81,1.47-0.81-1.1,1.66.16,1.7S18,286.3,18,286.3s-1.12,1.56,0,1.6,3-5.77,3-5.77Z"/><path d="M38.64,282.49s4.23,5.57,3.16,6.34-1.74-1-1.74-1,1.3,2-.19,2S38.41,288,38.41,288s1.32,1.84,0,1.9-3.49-6.8-3.49-6.8Z"/><path d="M35.26,223l-0.44-.7a41.51,41.51,0,0,0-.35-7.76c-0.58-3.36-.64-5.85-6-9.61s-10.07,1.62-10.36,2.2a34.19,34.19,0,0,0-1.62,7.41v3.24s-1,2.2-1.51,3.36a10,10,0,0,0-.58,1.85s-3.88-3.36-5.62-4.51S2.8,214.56.66,215s1.62,3.24,3.13,4.92,5.21,5.73,5.85,6.65,1.62,3.24,2.32,3.88a3.49,3.49,0,0,0,1,.75,65.89,65.89,0,0,0-4.34,19.23c-0.52,10,3.59,26,6.08,28.83s3,4.17,4.17,4.23,4.57-2.84,4.57-2.84a17.11,17.11,0,0,0,4.58.57,13.76,13.76,0,0,0,3.3-.35,12.83,12.83,0,0,0,2.43,3.24c1.39,1.22,1.8,1.51,4.34,1.9s6.31-2,7.7-4.69,4.71-22.5-1.13-40.76c-3.89-12.18-5.19-11.12-5.19-11.12s5.63-10.53,7-12.75,3-5.19,1.59-5.48-6.1,3.42-9.45,7.56Z" style="fill:#b4b2b0"/><path d="M16.52,216.92l2.16,2h2l8.65-.24,5.49-.41a29.75,29.75,0,0,0-.37-3.82c-0.58-3.36-.64-5.85-6-9.61s-10.07,1.62-10.36,2.2a34.19,34.19,0,0,0-1.62,7.41v2.43h0Z" style="fill:#fff"/><path d="M34.83,218.32a16.74,16.74,0,0,0-1.6-8.6c-2.12-4.1-4.85-6.48-9.79-6.13s-5.38,3.53-5.38,3.53a1.59,1.59,0,0,1,1,1.5c-0.09,1.06.18,4.41-.26,5.2a2.64,2.64,0,0,0-.09,2.29c0.26,0.53,1.41,3.09,3.62,2.73s3.22-.71,3.32-2.65a30.67,30.67,0,0,1-1.48-5c0-1,.53-3.92,3-4.27s3.53,0.71,4.23,2.78a13.37,13.37,0,0,1,.44,6c-0.26,1.41-.44,1.5-2.56,2s-4,1.09-4,1.09a30.46,30.46,0,0,1,5.91,0A5.56,5.56,0,0,0,34.83,218.32Z"/><path d="M16.52,217.74L18.68,219a8.12,8.12,0,0,1-1.59-2.31,6,6,0,0,1-.57-2.16v3.24h0Z"/><path d="M20.87,213.85a8.12,8.12,0,0,0-1,1.94,7.57,7.57,0,0,0,.47,1.94,7,7,0,0,1,2.25-1.41,5,5,0,0,0,1.68-.74,5.36,5.36,0,0,1-2.2-.84A4,4,0,0,0,20.87,213.85Z" style="fill:#586167"/><path d="M27.05,213.85s0.71-2.5,2.22-2.59,0.84,2.42-.71,2.14A2.54,2.54,0,0,0,27.05,213.85Z"/><path d="M18.06,213.48s-0.17-2.73-.46-2.23a2.59,2.59,0,0,0,0,1.52Z"/><path d="M39.5,229.49s-2.92-2.2-1.64-4.56a61.11,61.11,0,0,1,6.65-9.14A21.14,21.14,0,0,1,48.4,213s-3.09,6.27-4.45,8.24S39.5,229.49,39.5,229.49Z" style="fill:#d8d6d3"/><path d="M13,231.23l0.86-4s-4-5.25-6.65-7.07a41.08,41.08,0,0,0-6.6-3.38s4.35,4.66,5.85,6.38,4.06,5.39,4.78,6.38A8.89,8.89,0,0,0,13,231.23Z" style="fill:#d8d6d3"/><path d="M43,252.64c0,13.85-2.22,25.86-16.49,25.86-8.24,0-14.92-11.23-14.92-25.08s4.52-28.87,12.76-28.87S43,238.8,43,252.64Z" style="fill:#fff"/><path d="M32.07,257a1.06,1.06,0,0,1,.76.27,1,1,0,0,1,.28.71v1.78H21.21v-1a1.76,1.76,0,0,1,.13-0.63,1.61,1.61,0,0,1,.4-0.59L27,252.27q0.66-.67,1.18-1.28a8.32,8.32,0,0,0,.87-1.21,5.7,5.7,0,0,0,.53-1.22,4.49,4.49,0,0,0,.19-1.3,3.08,3.08,0,0,0-.18-1.1,2.19,2.19,0,0,0-.51-0.8,2.12,2.12,0,0,0-.79-0.49,3.13,3.13,0,0,0-1-.16,3.07,3.07,0,0,0-1,.15,2.64,2.64,0,0,0-1.39,1,2.74,2.74,0,0,0-.36.79,1.31,1.31,0,0,1-.53.73,1.48,1.48,0,0,1-.94.08l-1.56-.28a6.44,6.44,0,0,1,.7-2.19,5.24,5.24,0,0,1,1.29-1.57,5.33,5.33,0,0,1,1.78-.95,7.08,7.08,0,0,1,2.15-.32,6.53,6.53,0,0,1,2.2.35,4.94,4.94,0,0,1,1.7,1,4.53,4.53,0,0,1,1.1,1.56,5,5,0,0,1,.4,2,5.4,5.4,0,0,1-.28,1.78,7.37,7.37,0,0,1-.76,1.56,10.54,10.54,0,0,1-1.11,1.44q-0.64.7-1.33,1.42l-3.91,4a8.91,8.91,0,0,1,1.12-.26,6.67,6.67,0,0,1,1.06-.09h4.45Z" style="fill:#231f20"/><path d="M18.13,384.94s-3.59,4.72-2.68,5.36,1.47-.81,1.47-0.81-1.1,1.66.16,1.7,1.23-1.58,1.23-1.58-1.12,1.56,0,1.6,3-5.77,3-5.77Z"/><path d="M39,385.79s4.23,5.57,3.16,6.34-1.74-1-1.74-1,1.3,2-.19,2-1.46-1.86-1.46-1.86,1.32,1.84,0,1.9-3.49-6.8-3.49-6.8Z"/><path d="M35.62,326.26l-0.44-.7a41.51,41.51,0,0,0-.35-7.76c-0.58-3.36-.64-5.85-6-9.61s-10.07,1.62-10.36,2.2a34.19,34.19,0,0,0-1.62,7.41V321s-1,2.2-1.51,3.36a10,10,0,0,0-.58,1.85s-3.88-3.36-5.62-4.51-6-3.88-8.16-3.42,1.62,3.24,3.13,4.92S9.35,329,10,329.9s1.62,3.24,2.32,3.88a3.49,3.49,0,0,0,1,.75A65.89,65.89,0,0,0,9,353.77c-0.52,10,3.59,26,6.08,28.83s3,4.17,4.17,4.23S23.83,384,23.83,384a17.11,17.11,0,0,0,4.58.57,13.76,13.76,0,0,0,3.3-.35,12.83,12.83,0,0,0,2.43,3.24c1.39,1.22,1.8,1.51,4.34,1.9s6.31-2,7.7-4.69,4.71-22.5-1.13-40.76c-3.89-12.18-5.19-11.12-5.19-11.12s5.63-10.53,7-12.75,3-5.19,1.59-5.48S42.32,318,39,322.11Z" style="fill:#b4b2b0"/><path d="M16.88,320.23l2.16,2h2L29.7,322l5.49-.41a29.75,29.75,0,0,0-.37-3.82c-0.58-3.36-.64-5.85-6-9.61s-10.07,1.62-10.36,2.2a34.19,34.19,0,0,0-1.62,7.41v2.43h0Z" style="fill:#fff"/><path d="M35.18,321.63a16.74,16.74,0,0,0-1.6-8.6c-2.12-4.1-4.85-6.48-9.79-6.13s-5.38,3.53-5.38,3.53a1.59,1.59,0,0,1,1,1.5c-0.09,1.06.18,4.41-.26,5.2a2.64,2.64,0,0,0-.09,2.29c0.26,0.53,1.41,3.09,3.62,2.73s3.22-.71,3.32-2.65a30.67,30.67,0,0,1-1.48-5c0-1,.53-3.92,3-4.27S31,311,31.74,313a13.37,13.37,0,0,1,.44,6c-0.26,1.41-.44,1.5-2.56,2s-4,1.09-4,1.09a30.46,30.46,0,0,1,5.91,0A5.56,5.56,0,0,0,35.18,321.63Z"/><path d="M16.88,321L19,322.27A8.12,8.12,0,0,1,17.45,320a6,6,0,0,1-.57-2.16V321h0Z"/><path d="M21.23,317.16a8.12,8.12,0,0,0-1,1.94,7.57,7.57,0,0,0,.47,1.94A7,7,0,0,1,23,319.63a5,5,0,0,0,1.68-.74,5.36,5.36,0,0,1-2.2-.84A4,4,0,0,0,21.23,317.16Z" style="fill:#586167"/><path d="M27.41,317.16s0.71-2.5,2.22-2.59,0.84,2.42-.71,2.14A2.54,2.54,0,0,0,27.41,317.16Z"/><path d="M18.42,316.79s-0.17-2.73-.46-2.23a2.59,2.59,0,0,0,0,1.52Z"/><path d="M39.85,332.8s-2.92-2.2-1.64-4.56a61.11,61.11,0,0,1,6.65-9.14,21.14,21.14,0,0,1,3.89-2.78s-3.09,6.27-4.45,8.24S39.85,332.8,39.85,332.8Z" style="fill:#d8d6d3"/><path d="M13.35,334.54l0.86-4s-4-5.25-6.65-7.07A41.08,41.08,0,0,0,1,320.05s4.35,4.66,5.85,6.38,4.06,5.39,4.78,6.38A8.89,8.89,0,0,0,13.35,334.54Z" style="fill:#d8d6d3"/><path d="M43.32,356c0,13.85-2.22,25.86-16.49,25.86-8.24,0-14.92-11.23-14.92-25.08s4.52-28.87,12.76-28.87S43.32,342.11,43.32,356Z" style="fill:#fff"/><path d="M33.76,345.72V347a3,3,0,0,1-.12.93,4.85,4.85,0,0,1-.24.59l-6.58,13.54a2,2,0,0,1-.58.71,1.56,1.56,0,0,1-1,.29H23.1l6.71-13.26q0.23-.41.45-0.75a5.52,5.52,0,0,1,.5-0.65h-8.3a0.7,0.7,0,0,1-.68-0.68v-2h12Z" style="fill:#231f20"/><path d="M18.2,488.68s-3.59,4.72-2.68,5.36,1.47-.81,1.47-0.81-1.1,1.66.16,1.7,1.23-1.58,1.23-1.58-1.12,1.56,0,1.6,3-5.77,3-5.77Z"/><path d="M39.07,489.54s4.23,5.57,3.16,6.34-1.74-1-1.74-1,1.3,2-.19,2-1.46-1.86-1.46-1.86,1.32,1.84,0,1.9-3.49-6.8-3.49-6.8Z"/><path d="M35.69,430l-0.44-.7a41.51,41.51,0,0,0-.35-7.76c-0.58-3.36-.64-5.85-6-9.61s-10.07,1.62-10.36,2.2A34.19,34.19,0,0,0,17,421.55v3.24s-1,2.2-1.51,3.36a10,10,0,0,0-.58,1.85s-3.88-3.36-5.62-4.51-6-3.88-8.16-3.42,1.62,3.24,3.13,4.92,5.21,5.73,5.85,6.65,1.62,3.24,2.32,3.88a3.49,3.49,0,0,0,1,.75,65.89,65.89,0,0,0-4.34,19.23c-0.52,10,3.59,26,6.08,28.83s3,4.17,4.17,4.23,4.57-2.84,4.57-2.84a17.11,17.11,0,0,0,4.58.57,13.76,13.76,0,0,0,3.3-.35,12.83,12.83,0,0,0,2.43,3.24c1.39,1.22,1.8,1.51,4.34,1.9s6.31-2,7.7-4.69,4.71-22.5-1.13-40.76c-3.89-12.18-5.19-11.12-5.19-11.12s5.63-10.53,7-12.75,3-5.19,1.59-5.48-6.1,3.42-9.45,7.56Z" style="fill:#b4b2b0"/><path d="M17,424l2.16,2h2l8.65-.24,5.49-.41a29.75,29.75,0,0,0-.37-3.82c-0.58-3.36-.64-5.85-6-9.61s-10.07,1.62-10.36,2.2a34.19,34.19,0,0,0-1.62,7.41V424h0Z" style="fill:#fff"/><path d="M35.26,425.37a16.74,16.74,0,0,0-1.6-8.6c-2.12-4.1-4.85-6.48-9.79-6.13s-5.38,3.53-5.38,3.53a1.59,1.59,0,0,1,1,1.5c-0.09,1.06.18,4.41-.26,5.2a2.64,2.64,0,0,0-.09,2.29c0.26,0.53,1.41,3.09,3.62,2.73s3.22-.71,3.32-2.65a30.67,30.67,0,0,1-1.48-5c0-1,.53-3.92,3-4.27s3.53,0.71,4.23,2.78a13.37,13.37,0,0,1,.44,6c-0.26,1.41-.44,1.5-2.56,2s-4,1.09-4,1.09a30.46,30.46,0,0,1,5.91,0A5.56,5.56,0,0,0,35.26,425.37Z"/><path d="M17,424.79L19.11,426a8.12,8.12,0,0,1-1.59-2.31,6,6,0,0,1-.57-2.16v3.24h0Z"/><path d="M21.3,420.9a8.12,8.12,0,0,0-1,1.94,7.57,7.57,0,0,0,.47,1.94,7,7,0,0,1,2.25-1.41,5,5,0,0,0,1.68-.74,5.36,5.36,0,0,1-2.2-.84A4,4,0,0,0,21.3,420.9Z" style="fill:#586167"/><path d="M27.48,420.9s0.71-2.5,2.22-2.59,0.84,2.42-.71,2.14A2.54,2.54,0,0,0,27.48,420.9Z"/><path d="M18.49,420.53s-0.17-2.73-.46-2.23a2.59,2.59,0,0,0,0,1.52Z"/><path d="M39.93,436.54S37,434.34,38.29,432a61.11,61.11,0,0,1,6.65-9.14,21.14,21.14,0,0,1,3.89-2.78s-3.09,6.27-4.45,8.24S39.93,436.54,39.93,436.54Z" style="fill:#d8d6d3"/><path d="M13.42,438.28l0.86-4s-4-5.25-6.65-7.07A41.08,41.08,0,0,0,1,423.79s4.35,4.66,5.85,6.38,4.06,5.39,4.78,6.38A8.89,8.89,0,0,0,13.42,438.28Z" style="fill:#d8d6d3"/><path d="M43.4,459.69c0,13.85-2.22,25.86-16.49,25.86-8.24,0-14.92-11.23-14.92-25.08S16.5,431.6,24.74,431.6,43.4,445.85,43.4,459.69Z" style="fill:#fff"/><path d="M34,460.27V462a0.6,0.6,0,0,1-.16.41,0.56,0.56,0,0,1-.44.17H31.86v4.24H29.28v-4.24H22a0.81,0.81,0,0,1-.53-0.19,0.8,0.8,0,0,1-.29-0.46l-0.31-1.5,8.22-11h2.81v10.82H34Zm-4.76,0V454.6a16.26,16.26,0,0,1,.11-1.78L24,460.27h5.28Z" style="fill:#231f20"/><path d="M17.77,78.07s-3.59,4.72-2.68,5.36,1.47-.81,1.47-0.81-1.1,1.66.16,1.7S18,82.74,18,82.74s-1.12,1.56,0,1.6,3-5.77,3-5.77Z"/><path d="M38.64,78.93s4.23,5.57,3.16,6.34-1.74-1-1.74-1,1.3,2-.19,2-1.46-1.86-1.46-1.86,1.32,1.84,0,1.9-3.49-6.8-3.49-6.8Z"/><path d="M35.26,19.39l-0.44-.7a41.51,41.51,0,0,0-.35-7.76c-0.58-3.36-.64-5.85-6-9.61S18.43,2.95,18.14,3.53a34.19,34.19,0,0,0-1.62,7.41v3.24s-1,2.2-1.51,3.36a10,10,0,0,0-.58,1.85S10.56,16,8.82,14.88,2.8,11,.66,11.46s1.62,3.24,3.13,4.92S9,22.12,9.63,23s1.62,3.24,2.32,3.88a3.49,3.49,0,0,0,1,.75A65.89,65.89,0,0,0,8.65,46.9c-0.52,10,3.59,26,6.08,28.83s3,4.17,4.17,4.23,4.57-2.84,4.57-2.84a17.11,17.11,0,0,0,4.58.57,13.76,13.76,0,0,0,3.3-.35,12.83,12.83,0,0,0,2.43,3.24c1.39,1.22,1.8,1.51,4.34,1.9s6.31-2,7.7-4.69S50.53,55.3,44.69,37c-3.89-12.18-5.19-11.12-5.19-11.12s5.63-10.53,7-12.75,3-5.19,1.59-5.48S42,11.1,38.62,15.24Z" style="fill:#b4b2b0"/><path d="M16.52,13.36l2.16,2h2l8.65-.24,5.49-.41a29.75,29.75,0,0,0-.37-3.82c-0.58-3.36-.64-5.85-6-9.61S18.42,2.95,18.13,3.53a34.19,34.19,0,0,0-1.62,7.41v2.43h0Z" style="fill:#fff"/><path d="M34.83,14.76a16.74,16.74,0,0,0-1.6-8.6C31.11,2.06,28.38-.32,23.44,0s-5.38,3.53-5.38,3.53a1.59,1.59,0,0,1,1,1.5c-0.09,1.06.18,4.41-.26,5.2a2.64,2.64,0,0,0-.09,2.29c0.26,0.53,1.41,3.09,3.62,2.73s3.22-.71,3.32-2.65a30.67,30.67,0,0,1-1.48-5c0-1,.53-3.92,3-4.27s3.53,0.71,4.23,2.78a13.37,13.37,0,0,1,.44,6c-0.26,1.41-.44,1.5-2.56,2s-4,1.09-4,1.09a30.46,30.46,0,0,1,5.91,0A5.56,5.56,0,0,0,34.83,14.76Z"/><path d="M16.52,14.18l2.16,1.23a8.12,8.12,0,0,1-1.59-2.31,6,6,0,0,1-.57-2.16v3.24h0Z"/><path d="M20.87,10.29a8.12,8.12,0,0,0-1,1.94,7.57,7.57,0,0,0,.47,1.94,7,7,0,0,1,2.25-1.41A5,5,0,0,0,24.3,12a5.36,5.36,0,0,1-2.2-.84A4,4,0,0,0,20.87,10.29Z" style="fill:#586167"/><path d="M27.05,10.29s0.71-2.5,2.22-2.59,0.84,2.42-.71,2.14A2.54,2.54,0,0,0,27.05,10.29Z"/><path d="M18.06,9.92S17.89,7.2,17.6,7.69a2.59,2.59,0,0,0,0,1.52Z"/><path d="M39.5,25.93s-2.92-2.2-1.64-4.56a61.11,61.11,0,0,1,6.65-9.14A21.14,21.14,0,0,1,48.4,9.45S45.32,15.72,44,17.69,39.5,25.93,39.5,25.93Z" style="fill:#d8d6d3"/><path d="M13,27.67l0.86-4s-4-5.25-6.65-7.07A41.08,41.08,0,0,0,.6,13.18S5,17.85,6.45,19.56s4.06,5.39,4.78,6.38A8.89,8.89,0,0,0,13,27.67Z" style="fill:#d8d6d3"/><path d="M43,49.08c0,13.85-2.22,25.86-16.49,25.86-8.24,0-14.92-11.23-14.92-25.08S16.07,21,24.31,21,43,35.24,43,49.08Z" style="fill:#fff"/><path d="M30.19,47.15a4.44,4.44,0,0,1,2.34,1.58,4.37,4.37,0,0,1,.76,2.6,4.87,4.87,0,0,1-.44,2.09A4.57,4.57,0,0,1,31.62,55a5.67,5.67,0,0,1-1.9,1,8.55,8.55,0,0,1-4.91,0,5.67,5.67,0,0,1-1.9-1,4.58,4.58,0,0,1-1.23-1.6,4.87,4.87,0,0,1-.44-2.09,4.37,4.37,0,0,1,.76-2.6,4.44,4.44,0,0,1,2.34-1.58,4,4,0,0,1-1.89-1.5,4.54,4.54,0,0,1-.23-4.18A4.51,4.51,0,0,1,23.34,40a5.22,5.22,0,0,1,1.72-1,7,7,0,0,1,4.4,0,5.22,5.22,0,0,1,1.72,1,4.51,4.51,0,0,1,1.12,1.48,4.25,4.25,0,0,1,.4,1.84,4.21,4.21,0,0,1-.63,2.34A4,4,0,0,1,30.19,47.15Zm-2.93,6.92a3.6,3.6,0,0,0,1.28-.21,2.64,2.64,0,0,0,.93-0.58A2.41,2.41,0,0,0,30,52.4a3.17,3.17,0,0,0,.19-1.12,2.8,2.8,0,0,0-.79-2.16,3.1,3.1,0,0,0-2.18-.73,3.1,3.1,0,0,0-2.18.73,2.8,2.8,0,0,0-.79,2.16,3.17,3.17,0,0,0,.19,1.12,2.4,2.4,0,0,0,.57.89,2.64,2.64,0,0,0,.93.58A3.6,3.6,0,0,0,27.26,54.08Zm0-13.19a2.9,2.9,0,0,0-1.14.2,2.3,2.3,0,0,0-.8.55,2.15,2.15,0,0,0-.47.79,2.9,2.9,0,0,0-.15.94,4,4,0,0,0,.13,1,2.3,2.3,0,0,0,.43.86,2.13,2.13,0,0,0,.79.61,3.33,3.33,0,0,0,2.42,0,2.13,2.13,0,0,0,.79-0.61,2.3,2.3,0,0,0,.43-0.86,4,4,0,0,0,.13-1,2.8,2.8,0,0,0-.16-0.94,2.27,2.27,0,0,0-.47-0.79,2.24,2.24,0,0,0-.79-0.55A2.9,2.9,0,0,0,27.26,40.89Z" style="fill:#231f20"/><path d="M17.76,589.74s-3.59,4.72-2.68,5.36,1.47-.81,1.47-0.81-1.1,1.66.16,1.7S18,594.4,18,594.4,16.83,596,18,596s3-5.77,3-5.77Z"/><path d="M38.63,590.59s4.23,5.57,3.16,6.34S40,596,40,596s1.3,2-.19,2-1.46-1.86-1.46-1.86,1.32,1.84,0,1.9-3.49-6.8-3.49-6.8Z"/><path d="M35.25,531.06l-0.44-.7a41.51,41.51,0,0,0-.35-7.76c-0.58-3.36-.64-5.85-6-9.61s-10.07,1.62-10.36,2.2a34.19,34.19,0,0,0-1.62,7.41v3.24s-1,2.2-1.51,3.36a10,10,0,0,0-.58,1.85s-3.88-3.36-5.62-4.51-6-3.88-8.16-3.42,1.62,3.24,3.13,4.92S9,533.78,9.62,534.7s1.62,3.24,2.32,3.88a3.49,3.49,0,0,0,1,.75,65.89,65.89,0,0,0-4.34,19.23c-0.52,10,3.59,26,6.08,28.83s3,4.17,4.17,4.23,4.57-2.84,4.57-2.84a17.11,17.11,0,0,0,4.58.57,13.76,13.76,0,0,0,3.3-.35,12.83,12.83,0,0,0,2.43,3.24c1.39,1.22,1.8,1.51,4.34,1.9s6.31-2,7.7-4.69,4.71-22.5-1.13-40.76c-3.89-12.18-5.19-11.12-5.19-11.12s5.63-10.53,7-12.75,3-5.19,1.59-5.48-6.1,3.42-9.45,7.56Z" style="fill:#b4b2b0"/><path d="M16.51,525l2.16,2h2l8.65-.24,5.49-.41a29.75,29.75,0,0,0-.37-3.82c-0.58-3.36-.64-5.85-6-9.61s-10.07,1.62-10.36,2.2a34.19,34.19,0,0,0-1.62,7.41V525h0Z" style="fill:#fff"/><path d="M34.81,526.43a16.74,16.74,0,0,0-1.6-8.6c-2.12-4.1-4.85-6.48-9.79-6.13s-5.38,3.53-5.38,3.53a1.59,1.59,0,0,1,1,1.5c-0.09,1.06.18,4.41-.26,5.2a2.64,2.64,0,0,0-.09,2.29c0.26,0.53,1.41,3.09,3.62,2.73s3.22-.71,3.32-2.65a30.67,30.67,0,0,1-1.48-5c0-1,.53-3.92,3-4.27s3.53,0.71,4.23,2.78a13.37,13.37,0,0,1,.44,6c-0.26,1.41-.44,1.5-2.56,2s-4,1.09-4,1.09a30.46,30.46,0,0,1,5.91,0A5.56,5.56,0,0,0,34.81,526.43Z"/><path d="M16.51,525.84l2.16,1.23a8.12,8.12,0,0,1-1.59-2.31,6,6,0,0,1-.57-2.16v3.24h0Z"/><path d="M20.86,522a8.12,8.12,0,0,0-1,1.94,7.57,7.57,0,0,0,.47,1.94,7,7,0,0,1,2.25-1.41,5,5,0,0,0,1.68-.74,5.36,5.36,0,0,1-2.2-.84A4,4,0,0,0,20.86,522Z" style="fill:#586167"/><path d="M27,522s0.71-2.5,2.22-2.59,0.84,2.42-.71,2.14A2.54,2.54,0,0,0,27,522Z"/><path d="M18,521.59s-0.17-2.73-.46-2.23a2.59,2.59,0,0,0,0,1.52Z"/><path d="M39.48,537.59s-2.92-2.2-1.64-4.56a61.11,61.11,0,0,1,6.65-9.14,21.14,21.14,0,0,1,3.89-2.78s-3.09,6.27-4.45,8.24S39.48,537.59,39.48,537.59Z" style="fill:#d8d6d3"/><path d="M13,539.33l0.86-4s-4-5.25-6.65-7.07a41.08,41.08,0,0,0-6.6-3.38s4.35,4.66,5.85,6.38,4.06,5.39,4.78,6.38A8.89,8.89,0,0,0,13,539.33Z" style="fill:#d8d6d3"/><path d="M43,560.75c0,13.85-2.22,25.86-16.49,25.86-8.24,0-14.92-11.23-14.92-25.08s4.52-28.87,12.76-28.87S43,546.9,43,560.75Z" style="fill:#fff"/><path d="M33.61,559.19a14.21,14.21,0,0,1-.49,3.94,8.09,8.09,0,0,1-1.34,2.77,5.44,5.44,0,0,1-2,1.63,6,6,0,0,1-2.53.53,5.94,5.94,0,0,1-2.51-.53,5.42,5.42,0,0,1-2-1.63,8.06,8.06,0,0,1-1.33-2.77,16.45,16.45,0,0,1,0-7.89,8.05,8.05,0,0,1,1.33-2.76,5.4,5.4,0,0,1,2-1.63,5.92,5.92,0,0,1,2.51-.53,6,6,0,0,1,2.53.53,5.43,5.43,0,0,1,2,1.63,8.08,8.08,0,0,1,1.34,2.76A14.2,14.2,0,0,1,33.61,559.19Zm-3.06,0a14.66,14.66,0,0,0-.28-3.12,6.29,6.29,0,0,0-.74-2,2.7,2.7,0,0,0-1.06-1,2.8,2.8,0,0,0-1.25-.29,2.74,2.74,0,0,0-1.23.29,2.68,2.68,0,0,0-1.05,1,6.3,6.3,0,0,0-.73,2,18.16,18.16,0,0,0,0,6.24,6.3,6.3,0,0,0,.73,2,2.67,2.67,0,0,0,1.05,1,2.74,2.74,0,0,0,1.23.29,2.8,2.8,0,0,0,1.25-.29,2.69,2.69,0,0,0,1.06-1,6.29,6.29,0,0,0,.74-2A14.65,14.65,0,0,0,30.55,559.19Z" style="fill:#231f20"/><polygon points="341.91 190.67 297.59 163.53 296.33 165.81 73.85 47.65 70.01 54.55 292.49 172.7 291.36 174.66 338.8 196.26 386.22 217.83 341.91 190.67" style="fill:#dfc075"/><polygon points="328.36 235.46 285.8 216.36 284.87 218.79 72.82 140.54 69.96 147.9 282 226.14 281.15 228.24 326.05 241.42 370.92 254.58 328.36 235.46" style="fill:#dfc075"/><polygon points="327.33 282.04 284.09 272.07 283.65 274.64 71.3 241.55 69.96 249.33 282.31 282.42 281.89 284.64 326.25 288.34 370.56 292.01 327.33 282.04" style="fill:#dfc075"/><polygon points="328.15 321.62 283.73 322.51 283.94 325.1 69.64 344.8 70.23 352.67 284.53 332.97 284.67 335.23 328.64 328 372.57 320.75 328.15 321.62" style="fill:#dfc075"/><polygon points="329.75 354.55 284.56 366.64 285.32 369.01 70.61 441.78 72.9 448.98 287.62 376.21 288.24 378.29 331.61 360.38 374.95 342.47 329.75 354.55" style="fill:#dfc075"/><polygon points="332.33 394.13 286.13 417.95 287.43 420.2 71.03 549.17 74.94 556.03 291.33 427.06 292.42 429.05 335.5 399.68 378.52 370.32 332.33 394.13" style="fill:#dfc075"/><path d="M228.9,59a23.42,23.42,0,0,1,1.83-1.71,2.26,2.26,0,0,0,.85-0.24l2.56-3.66a6.8,6.8,0,0,1,3.05-2.81c1.71-.61,2-2.2,4.88-1.71a7,7,0,0,1,4,1.71,12,12,0,0,1,6.47,1.1c3.05,1.59,5,5.37,7,5.86s4.64-.73,7.2-1.59,16.47,5.25,18.91,6.34,15.37,3.54,18.3,16.23-0.24,22-1.71,24.65-6,10.13-6.34,11.84-1.83,9.15-2,10.13a61.55,61.55,0,0,0,0,6.71c0.12,0.49,1.1,1.22.49,1.83s-5.12,3.05-8.91.37c0,0-2.07-1.22-2-2.68s1.1-7.44,1.34-9a49.65,49.65,0,0,0,1-7.44,2.28,2.28,0,0,0-.61-1.71s-6.22,2.44-7.44,2.68a4,4,0,0,0-2,.85A36.3,36.3,0,0,1,277,123c0.12,2,.73,5.12.12,6.47s-4.27,1.71-4.88,1.71a11,11,0,0,1-2.68-.73s0.49-6.22,0-8.17a28.49,28.49,0,0,0-.85-3.05s-1.22,6.71-1,9.15,1.46,8.05,2,8.54,1.59,4.39-2.07,5.49-7.32,1-8.66-.73a19.12,19.12,0,0,1-2.44-3.66,23.86,23.86,0,0,0,1.46-9.27c-0.12-5.12-1.22-9.64-.85-12.32s-2.07,1.22-6.34-1.22-1.83-1-1.83-1l-1.34,1s5.73,11.59,6.59,14.89a47.46,47.46,0,0,1,1.1,5.73s-2.07,4.15-6.1,5a10.6,10.6,0,0,1-7-.85,23.62,23.62,0,0,0,0-10.13c-1.22-4.51-7.81-14.76-7.81-14.76l-6.1-9.15-2.07-24.77Z" style="fill:#61db78"/><path d="M233.53,113.62a20.33,20.33,0,0,0,9.64-12.32c2.56-9,3.17-10.37,3.17-15.25s-2-28.18-2-28.18L231.58,57l-2.68,2,1.1,49.29Z" style="fill:#414042;opacity:0.23000000417232513;isolation:isolate"/><path d="M236,59.2a4.89,4.89,0,0,0,2.32-3.42,1.82,1.82,0,0,1,2.07-1.59,0.45,0.45,0,0,1,.37.12l1.59,7.2s-1.59.61-1.22,1.83,3.29,18.18,3.29,23.18-2.2,13.91-6.34,16.72-8.66,5.12-9.88,6.83-2.56,3.05-4.27,3.05-6.83-.61-8.78-0.37-5.25.24-5.25-.73a34.48,34.48,0,0,0-1-4.51c-0.37-1.71,1.1-3.17,1.46-4.51a11.08,11.08,0,0,0,.37-2.81,10.7,10.7,0,0,1-3.54-3.05,19.71,19.71,0,0,0-2.07-4.27c-1.46-2-5-6.1-5.73-8.54a48.79,48.79,0,0,1-2.56-11.84c-0.24-4.76.24-10.13,0.85-10.25s-0.85,8.54,4.64,17,11.59,7.69,11.59,7.69a53,53,0,0,0,.12-6.22c-0.12-2.56-.61-5.73,0-6.34s1.83,3.05,4,4.27,1.59,1.1,1.59,1.1,1.1-2.07,1-6.83a22.14,22.14,0,0,1,.73-7s-2.07-4.27-3.05-6.47a31.55,31.55,0,0,0-2.07-4,50.15,50.15,0,0,0,6.22,3.29,29.8,29.8,0,0,1,2.93,1.22,12.64,12.64,0,0,1,4.76-.85Z" style="fill:#61db78"/><path d="M240.73,62.49s-1-3.78-1.83-6,0.73-6.59,3.54-6.59-0.24,1.83,1,1.83,1.34-2.81,2.81-2.44-0.37,2.2.73,4.64a5.18,5.18,0,0,1-.85,6,10.89,10.89,0,0,1-3.78,1.83Z" style="fill:#30893d"/><path d="M220.6,64.08a32.51,32.51,0,0,0-1.22-4.64c-1-1.46-2-2.93-3.05-4.27,0,0-.73-2.2-4.64-2s-1.83,2.07-1.83,2.07l0.61,1.46A16.74,16.74,0,0,0,213.28,62a7.19,7.19,0,0,0,5.12,2.07h2.2Z" style="fill:#30893d"/><path d="M229.75,88.24s0.24-.73,2.32-0.73,1.34,0.37,1.34.37,0.37,1.59-1.83,1.46S229.75,88.24,229.75,88.24Z"/><path d="M220.6,108.13s0.73-2.07,1.83-2.07,3.05,0.73,2.2,1.46S220.6,108.13,220.6,108.13Z" style="fill:#30893d"/><path d="M211.33,108.86s-1.1-3.42-1.46-2.68-1.46,1.46,0,2.07Z" style="fill:#30893d"/><ellipse cx="275.02" cy="87.87" rx="24.89" ry="21.11" style="fill:#fff"/><path d="M210.72,100.2A6.83,6.83,0,0,0,215,101c2.68-.24-3.54,1.71-4.76,3.17l-1,1.1a12.18,12.18,0,0,0,1.22-2.93C210.59,101.42,210.72,100.2,210.72,100.2Z" style="fill:#414042;opacity:0.23000000417232513;isolation:isolate"/><path d="M213.89,86.9a5.53,5.53,0,0,1,3.54,1.59c0.37,0.37-2-3.17-2.44-4.76a18.37,18.37,0,0,0-1-2.56v3.42C214,85.43,213.89,86.9,213.89,86.9Z" style="fill:#414042;opacity:0.23000000417232513;isolation:isolate"/><path d="M268.67,119.23s0-2.2,1.59-2.93a54,54,0,0,1,10.62-2.68,40.88,40.88,0,0,0,4.39-.49s-8.3,2.81-9.39,3.54-5.12,3.29-5.37,4.15a3.38,3.38,0,0,1-1,1.46Z" style="fill:#414042;opacity:0.23000000417232513;isolation:isolate"/><path d="M281.61,90.24v1.54a0.54,0.54,0,0,1-.14.37,0.51,0.51,0,0,1-.4.16h-1.42v3.8h-2.31v-3.8h-6.56a0.72,0.72,0,0,1-.47-0.17,0.71,0.71,0,0,1-.26-0.41l-0.28-1.35,7.37-9.84h2.52v9.71h2Zm-4.27,0V85.15a14.53,14.53,0,0,1,.1-1.59l-4.83,6.68h4.73Z"/><path d="M138.72,131.62a23.42,23.42,0,0,1,1.83-1.71,2.26,2.26,0,0,0,.85-0.24L144,126a6.8,6.8,0,0,1,3.05-2.81c1.71-.61,2-2.2,4.88-1.71a7,7,0,0,1,4,1.71,12,12,0,0,1,6.47,1.1c3.05,1.59,5,5.37,7,5.86s4.64-.73,7.2-1.59,16.47,5.25,18.91,6.34,15.37,3.54,18.3,16.23-0.24,22-1.71,24.65-6,10.13-6.34,11.84-1.83,9.15-2,10.13a61.55,61.55,0,0,0,0,6.71c0.12,0.49,1.1,1.22.49,1.83s-5.12,3.05-8.91.37c0,0-2.07-1.22-2-2.68s1.1-7.44,1.34-9a49.65,49.65,0,0,0,1-7.44,2.28,2.28,0,0,0-.61-1.71s-6.22,2.44-7.44,2.68a4,4,0,0,0-2,.85,36.3,36.3,0,0,1,1.1,6.34c0.12,2,.73,5.12.12,6.47s-4.27,1.71-4.88,1.71a11,11,0,0,1-2.68-.73s0.49-6.22,0-8.17a28.49,28.49,0,0,0-.85-3.05s-1.22,6.71-1,9.15,1.46,8.05,2,8.54,1.59,4.39-2.07,5.49-7.32,1-8.66-.73a19.12,19.12,0,0,1-2.44-3.66,23.86,23.86,0,0,0,1.46-9.27c-0.12-5.12-1.22-9.64-.85-12.32s-2.07,1.22-6.34-1.22-1.83-1-1.83-1l-1.34,1s5.73,11.59,6.59,14.89a47.46,47.46,0,0,1,1.1,5.73s-2.07,4.15-6.1,5a10.6,10.6,0,0,1-7-.85,23.62,23.62,0,0,0,0-10.13c-1.22-4.51-7.81-14.76-7.81-14.76l-6.1-9.15L136,153.83Z" style="fill:#61db78"/><path d="M143.36,186.29A20.33,20.33,0,0,0,153,174c2.56-9,3.17-10.37,3.17-15.25s-2-28.18-2-28.18l-12.81-.85-2.68,2,1.1,49.29Z" style="fill:#414042;opacity:0.23000000417232513;isolation:isolate"/><path d="M145.8,131.87a4.89,4.89,0,0,0,2.32-3.42,1.82,1.82,0,0,1,2.07-1.59,0.45,0.45,0,0,1,.37.12l1.59,7.2s-1.59.61-1.22,1.83,3.29,18.18,3.29,23.18-2.2,13.91-6.34,16.72-8.66,5.12-9.88,6.83-2.56,3.05-4.27,3.05-6.83-.61-8.78-0.37-5.25.24-5.25-.73a34.48,34.48,0,0,0-1-4.51c-0.37-1.71,1.1-3.17,1.46-4.51a11.08,11.08,0,0,0,.37-2.81,10.7,10.7,0,0,1-3.54-3.05,19.71,19.71,0,0,0-2.07-4.27c-1.46-2-5-6.1-5.73-8.54a48.79,48.79,0,0,1-2.56-11.84c-0.24-4.76.24-10.13,0.85-10.25s-0.85,8.54,4.64,17,11.59,7.69,11.59,7.69a53,53,0,0,0,.12-6.22c-0.12-2.56-.61-5.73,0-6.34s1.83,3.05,4,4.27,1.59,1.1,1.59,1.1,1.1-2.07,1-6.83a22.14,22.14,0,0,1,.73-7s-2.07-4.27-3.05-6.47a31.55,31.55,0,0,0-2.07-4,50.15,50.15,0,0,0,6.22,3.29,29.8,29.8,0,0,1,2.93,1.22,12.64,12.64,0,0,1,4.76-.85Z" style="fill:#61db78"/><path d="M150.55,135.16s-1-3.78-1.83-6,0.73-6.59,3.54-6.59-0.24,1.83,1,1.83,1.34-2.81,2.81-2.44-0.37,2.2.73,4.64a5.18,5.18,0,0,1-.85,6,10.89,10.89,0,0,1-3.78,1.83Z" style="fill:#30893d"/><path d="M130.42,136.75a32.51,32.51,0,0,0-1.22-4.64c-1-1.46-2-2.93-3.05-4.27,0,0-.73-2.2-4.64-2s-1.83,2.07-1.83,2.07l0.61,1.46a16.74,16.74,0,0,0,2.81,5.25,7.19,7.19,0,0,0,5.12,2.07h2.2Z" style="fill:#30893d"/><path d="M139.57,160.91s0.24-.73,2.32-0.73,1.34,0.37,1.34.37,0.37,1.59-1.83,1.46S139.57,160.91,139.57,160.91Z"/><path d="M130.42,180.8s0.73-2.07,1.83-2.07,3.05,0.73,2.2,1.46S130.42,180.8,130.42,180.8Z" style="fill:#30893d"/><path d="M121.15,181.53s-1.1-3.42-1.46-2.68-1.46,1.46,0,2.07Z" style="fill:#30893d"/><ellipse cx="184.84" cy="160.54" rx="24.89" ry="21.11" style="fill:#fff"/><path d="M120.54,172.86a6.83,6.83,0,0,0,4.27.85c2.68-.24-3.54,1.71-4.76,3.17l-1,1.1a12.18,12.18,0,0,0,1.22-2.93C120.42,174.08,120.54,172.86,120.54,172.86Z" style="fill:#414042;opacity:0.23000000417232513;isolation:isolate"/><path d="M123.71,159.57a5.53,5.53,0,0,1,3.54,1.59c0.37,0.37-2-3.17-2.44-4.76a18.37,18.37,0,0,0-1-2.56v3.42C123.83,158.1,123.71,159.57,123.71,159.57Z" style="fill:#414042;opacity:0.23000000417232513;isolation:isolate"/><path d="M178.49,191.9s0-2.2,1.59-2.93a54,54,0,0,1,10.62-2.68,40.88,40.88,0,0,0,4.39-.49s-8.3,2.81-9.39,3.54-5.12,3.29-5.37,4.15a3.38,3.38,0,0,1-1,1.46Z" style="fill:#414042;opacity:0.23000000417232513;isolation:isolate"/><path d="M184.39,166.78v2h-8.61v-2h3.15v-9.07q0-.54,0-1.11l-2.24,1.87a0.89,0.89,0,0,1-.74.19,0.86,0.86,0,0,1-.3-0.11,0.62,0.62,0,0,1-.19-0.18l-0.84-1.15,4.75-4h2.18v13.59h2.8Z"/><path d="M197.67,162.91v1.54a0.54,0.54,0,0,1-.14.37,0.51,0.51,0,0,1-.4.16h-1.42v3.8H193.4V165h-6.56a0.72,0.72,0,0,1-.47-0.17,0.71,0.71,0,0,1-.26-0.41L185.82,163l7.37-9.84h2.52v9.71h2Zm-4.27,0v-5.09a14.53,14.53,0,0,1,.1-1.59l-4.83,6.68h4.73Z"/><path d="M211.49,227.15a23.42,23.42,0,0,1,1.83-1.71,2.26,2.26,0,0,0,.85-0.24l2.56-3.66a6.8,6.8,0,0,1,3.05-2.81c1.71-.61,2-2.2,4.88-1.71a7,7,0,0,1,4,1.71,12,12,0,0,1,6.47,1.1c3.05,1.59,5,5.37,7,5.86s4.64-.73,7.2-1.59,16.47,5.25,18.91,6.34,15.37,3.54,18.3,16.23-0.24,22-1.71,24.65-6,10.13-6.34,11.84-1.83,9.15-2,10.13a61.55,61.55,0,0,0,0,6.71c0.12,0.49,1.1,1.22.49,1.83s-5.12,3.05-8.91.37c0,0-2.07-1.22-2-2.68s1.1-7.44,1.34-9a49.65,49.65,0,0,0,1-7.44,2.28,2.28,0,0,0-.61-1.71s-6.22,2.44-7.44,2.68a4,4,0,0,0-2,.85,36.3,36.3,0,0,1,1.1,6.34c0.12,2,.73,5.12.12,6.47s-4.27,1.71-4.88,1.71a11,11,0,0,1-2.68-.73s0.49-6.22,0-8.17a28.49,28.49,0,0,0-.85-3.05s-1.22,6.71-1,9.15,1.46,8.05,2,8.54,1.59,4.39-2.07,5.49-7.32,1-8.66-.73a19.12,19.12,0,0,1-2.44-3.66,23.86,23.86,0,0,0,1.46-9.27c-0.12-5.12-1.22-9.64-.85-12.32s-2.07,1.22-6.34-1.22-1.83-1-1.83-1l-1.34,1s5.73,11.59,6.59,14.89a47.46,47.46,0,0,1,1.1,5.73s-2.07,4.15-6.1,5a10.6,10.6,0,0,1-7-.85,23.62,23.62,0,0,0,0-10.13c-1.22-4.51-7.81-14.76-7.81-14.76l-6.1-9.15-2.07-24.77Z" style="fill:#61db78"/><path d="M216.13,281.82a20.33,20.33,0,0,0,9.64-12.32c2.56-9,3.17-10.37,3.17-15.25s-2-28.18-2-28.18l-12.81-.85-2.68,2,1.1,49.29Z" style="fill:#414042;opacity:0.23000000417232513;isolation:isolate"/><path d="M218.57,227.4a4.89,4.89,0,0,0,2.32-3.42A1.82,1.82,0,0,1,223,222.4a0.45,0.45,0,0,1,.37.12l1.59,7.2s-1.59.61-1.22,1.83S227,249.73,227,254.73s-2.2,13.91-6.34,16.72-8.66,5.12-9.88,6.83-2.56,3.05-4.27,3.05-6.83-.61-8.78-0.37-5.25.24-5.25-.73a34.48,34.48,0,0,0-1-4.51c-0.37-1.71,1.1-3.17,1.46-4.51a11.08,11.08,0,0,0,.37-2.81,10.7,10.7,0,0,1-3.54-3.05,19.71,19.71,0,0,0-2.07-4.27c-1.46-2-5-6.1-5.73-8.54a48.79,48.79,0,0,1-2.56-11.84c-0.24-4.76.24-10.13,0.85-10.25s-0.85,8.54,4.64,17,11.59,7.69,11.59,7.69a53,53,0,0,0,.12-6.22c-0.12-2.56-.61-5.73,0-6.34s1.83,3.05,4,4.27,1.59,1.1,1.59,1.1,1.1-2.07,1-6.83a22.14,22.14,0,0,1,.73-7s-2.07-4.27-3.05-6.47a31.55,31.55,0,0,0-2.07-4,50.15,50.15,0,0,0,6.22,3.29,29.8,29.8,0,0,1,2.93,1.22,12.64,12.64,0,0,1,4.76-.85Z" style="fill:#61db78"/><path d="M223.33,230.69s-1-3.78-1.83-6,0.73-6.59,3.54-6.59-0.24,1.83,1,1.83,1.34-2.81,2.81-2.44-0.37,2.2.73,4.64a5.18,5.18,0,0,1-.85,6,10.89,10.89,0,0,1-3.78,1.83Z" style="fill:#30893d"/><path d="M203.2,232.28a32.51,32.51,0,0,0-1.22-4.64c-1-1.46-2-2.93-3.05-4.27,0,0-.73-2.2-4.64-2s-1.83,2.07-1.83,2.07l0.61,1.46a16.74,16.74,0,0,0,2.81,5.25,7.19,7.19,0,0,0,5.12,2.07h2.2Z" style="fill:#30893d"/><path d="M212.35,256.44s0.24-.73,2.32-0.73,1.34,0.37,1.34.37,0.37,1.59-1.83,1.46S212.35,256.44,212.35,256.44Z"/><path d="M203.2,276.33s0.73-2.07,1.83-2.07,3.05,0.73,2.2,1.46S203.2,276.33,203.2,276.33Z" style="fill:#30893d"/><path d="M193.92,277.06s-1.1-3.42-1.46-2.68-1.46,1.46,0,2.07Z" style="fill:#30893d"/><ellipse cx="257.62" cy="256.07" rx="24.89" ry="21.11" style="fill:#fff"/><path d="M193.31,268.39a6.83,6.83,0,0,0,4.27.85c2.68-.24-3.54,1.71-4.76,3.17l-1,1.1a12.18,12.18,0,0,0,1.22-2.93C193.19,269.61,193.31,268.39,193.31,268.39Z" style="fill:#414042;opacity:0.23000000417232513;isolation:isolate"/><path d="M196.49,255.1a5.53,5.53,0,0,1,3.54,1.59c0.37,0.37-2-3.17-2.44-4.76a18.37,18.37,0,0,0-1-2.56v3.42C196.61,253.63,196.49,255.1,196.49,255.1Z" style="fill:#414042;opacity:0.23000000417232513;isolation:isolate"/><path d="M251.27,287.43s0-2.2,1.59-2.93a54,54,0,0,1,10.62-2.68,40.88,40.88,0,0,0,4.39-.49s-8.3,2.81-9.39,3.54-5.12,3.29-5.37,4.15a3.38,3.38,0,0,1-1,1.46Z" style="fill:#414042;opacity:0.23000000417232513;isolation:isolate"/><path d="M256.64,254.39a9.84,9.84,0,0,1,1-.16,9,9,0,0,1,.91,0,5.92,5.92,0,0,1,2.16.37,4.44,4.44,0,0,1,1.57,1,4.25,4.25,0,0,1,1,1.51,5.31,5.31,0,0,1,.32,1.87,5.7,5.7,0,0,1-.44,2.26,5.1,5.1,0,0,1-1.21,1.75,5.45,5.45,0,0,1-1.83,1.12,6.5,6.5,0,0,1-2.31.4,6.18,6.18,0,0,1-1.39-.15,6.87,6.87,0,0,1-2.3-1,6.72,6.72,0,0,1-.88-0.69l0.82-1.13a0.79,0.79,0,0,1,.68-0.37,1,1,0,0,1,.55.17l0.64,0.38a5.25,5.25,0,0,0,.85.38,3.56,3.56,0,0,0,1.18.17,3.28,3.28,0,0,0,1.29-.24,2.52,2.52,0,0,0,.93-0.66,2.83,2.83,0,0,0,.56-1,4.14,4.14,0,0,0,.19-1.27,2.64,2.64,0,0,0-.74-2,3,3,0,0,0-2.18-.72,6.82,6.82,0,0,0-2.27.41L254,256.3l1.29-7.55H263v1.13a1.25,1.25,0,0,1-.36.93,1.67,1.67,0,0,1-1.21.36h-4.27Z"/><path d="M119.77,295.64a23.42,23.42,0,0,1,1.83-1.71,2.26,2.26,0,0,0,.85-0.24L125,290a6.8,6.8,0,0,1,3.05-2.81c1.71-.61,2-2.2,4.88-1.71a7,7,0,0,1,4,1.71,12,12,0,0,1,6.47,1.1c3.05,1.59,5,5.37,7,5.86s4.64-.73,7.2-1.59,16.47,5.25,18.91,6.34,15.37,3.54,18.3,16.23-0.24,22-1.71,24.65-6,10.13-6.34,11.84-1.83,9.15-2,10.13a61.55,61.55,0,0,0,0,6.71c0.12,0.49,1.1,1.22.49,1.83s-5.12,3.05-8.91.37c0,0-2.07-1.22-2-2.68s1.1-7.44,1.34-9a49.65,49.65,0,0,0,1-7.44,2.28,2.28,0,0,0-.61-1.71s-6.22,2.44-7.44,2.68a4,4,0,0,0-2,.85,36.3,36.3,0,0,1,1.1,6.34c0.12,2,.73,5.12.12,6.47s-4.27,1.71-4.88,1.71a11,11,0,0,1-2.68-.73s0.49-6.22,0-8.17a28.49,28.49,0,0,0-.85-3.05s-1.22,6.71-1,9.15,1.46,8.05,2,8.54,1.59,4.39-2.07,5.49-7.32,1-8.66-.73a19.12,19.12,0,0,1-2.44-3.66,23.86,23.86,0,0,0,1.46-9.27c-0.12-5.12-1.22-9.64-.85-12.32s-2.07,1.22-6.34-1.22-1.83-1-1.83-1l-1.34,1s5.73,11.59,6.59,14.89a47.46,47.46,0,0,1,1.1,5.73s-2.07,4.15-6.1,5a10.6,10.6,0,0,1-7-.85,23.62,23.62,0,0,0,0-10.13c-1.22-4.51-7.81-14.76-7.81-14.76l-6.1-9.15-2.07-24.77Z" style="fill:#61db78"/><path d="M124.41,350.31A20.33,20.33,0,0,0,134,338c2.56-9,3.17-10.37,3.17-15.25s-2-28.18-2-28.18l-12.81-.85-2.68,2,1.1,49.29Z" style="fill:#414042;opacity:0.23000000417232513;isolation:isolate"/><path d="M126.85,295.89a4.89,4.89,0,0,0,2.32-3.42,1.82,1.82,0,0,1,2.07-1.59,0.45,0.45,0,0,1,.37.12l1.59,7.2s-1.59.61-1.22,1.83,3.29,18.18,3.29,23.18-2.2,13.91-6.34,16.72-8.66,5.12-9.88,6.83-2.56,3.05-4.27,3.05-6.83-.61-8.78-0.37-5.25.24-5.25-.73a34.48,34.48,0,0,0-1-4.51c-0.37-1.71,1.1-3.17,1.46-4.51a11.08,11.08,0,0,0,.37-2.81,10.7,10.7,0,0,1-3.54-3.05A19.71,19.71,0,0,0,96,329.56c-1.46-2-5-6.1-5.73-8.54a48.79,48.79,0,0,1-2.56-11.84c-0.24-4.76.24-10.13,0.85-10.25s-0.85,8.54,4.64,17,11.59,7.69,11.59,7.69a53,53,0,0,0,.12-6.22c-0.12-2.56-.61-5.73,0-6.34s1.83,3.05,4,4.27,1.59,1.1,1.59,1.1,1.1-2.07,1-6.83a22.14,22.14,0,0,1,.73-7s-2.07-4.27-3.05-6.47a31.55,31.55,0,0,0-2.07-4,50.15,50.15,0,0,0,6.22,3.29,29.8,29.8,0,0,1,2.93,1.22,12.64,12.64,0,0,1,4.76-.85Z" style="fill:#61db78"/><path d="M131.61,299.18s-1-3.78-1.83-6,0.73-6.59,3.54-6.59-0.24,1.83,1,1.83,1.34-2.81,2.81-2.44-0.37,2.2.73,4.64a5.18,5.18,0,0,1-.85,6,10.89,10.89,0,0,1-3.78,1.83Z" style="fill:#30893d"/><path d="M111.48,300.77a32.51,32.51,0,0,0-1.22-4.64c-1-1.46-2-2.93-3.05-4.27,0,0-.73-2.2-4.64-2s-1.83,2.07-1.83,2.07l0.61,1.46a16.74,16.74,0,0,0,2.81,5.25,7.19,7.19,0,0,0,5.12,2.07h2.2Z" style="fill:#30893d"/><path d="M120.63,324.93s0.24-.73,2.32-0.73,1.34,0.37,1.34.37,0.37,1.59-1.83,1.46S120.63,324.93,120.63,324.93Z"/><path d="M111.48,344.81s0.73-2.07,1.83-2.07,3.05,0.73,2.2,1.46S111.48,344.81,111.48,344.81Z" style="fill:#30893d"/><path d="M102.2,345.55s-1.1-3.42-1.46-2.68-1.46,1.46,0,2.07Z" style="fill:#30893d"/><ellipse cx="165.89" cy="324.56" rx="24.89" ry="21.11" style="fill:#fff"/><path d="M101.59,336.88a6.83,6.83,0,0,0,4.27.85c2.68-.24-3.54,1.71-4.76,3.17l-1,1.1a12.18,12.18,0,0,0,1.22-2.93C101.47,338.1,101.59,336.88,101.59,336.88Z" style="fill:#414042;opacity:0.23000000417232513;isolation:isolate"/><path d="M104.77,323.58a5.53,5.53,0,0,1,3.54,1.59c0.37,0.37-2-3.17-2.44-4.76a18.37,18.37,0,0,0-1-2.56v3.42C104.89,322.12,104.77,323.58,104.77,323.58Z" style="fill:#414042;opacity:0.23000000417232513;isolation:isolate"/><path d="M159.55,355.92s0-2.2,1.59-2.93a54,54,0,0,1,10.62-2.68,40.88,40.88,0,0,0,4.39-.49s-8.3,2.81-9.39,3.54-5.12,3.29-5.37,4.15a3.38,3.38,0,0,1-1,1.46Z" style="fill:#414042;opacity:0.23000000417232513;isolation:isolate"/><path d="M167.63,326.76l0.34-.44,0.31-.43a4.31,4.31,0,0,1-1.18.52,5.1,5.1,0,0,1-1.36.18,4.63,4.63,0,0,1-1.58-.28,4,4,0,0,1-1.38-.84,4.25,4.25,0,0,1-1-1.4,4.75,4.75,0,0,1-.37-2,5,5,0,0,1,.39-2,4.92,4.92,0,0,1,1.09-1.6,5.09,5.09,0,0,1,1.68-1.09,5.69,5.69,0,0,1,2.16-.4,5.79,5.79,0,0,1,2.15.38,4.68,4.68,0,0,1,1.63,1.05,4.6,4.6,0,0,1,1,1.62,5.79,5.79,0,0,1,.36,2.08,7.29,7.29,0,0,1-.12,1.37,7.47,7.47,0,0,1-.35,1.24,8.41,8.41,0,0,1-.55,1.17,12.74,12.74,0,0,1-.72,1.13l-3.56,5.08a1.4,1.4,0,0,1-.55.44,1.87,1.87,0,0,1-.83.18H162.8Zm-3.53-4.85a2.72,2.72,0,0,0,.67,2,2.56,2.56,0,0,0,1.91.68,3.05,3.05,0,0,0,1.15-.2,2.44,2.44,0,0,0,.85-0.56,2.35,2.35,0,0,0,.52-0.84,3,3,0,0,0,.18-1,3.13,3.13,0,0,0-.19-1.14,2.32,2.32,0,0,0-.55-0.84,2.4,2.4,0,0,0-.84-0.53,3,3,0,0,0-1.07-.18,2.84,2.84,0,0,0-1.09.2,2.37,2.37,0,0,0-1.36,1.4A3,3,0,0,0,164.1,321.9Z"/><path d="M146.91,468.8a23.42,23.42,0,0,1,1.83-1.71,2.26,2.26,0,0,0,.85-0.24l2.56-3.66a6.8,6.8,0,0,1,3.05-2.81c1.71-.61,2-2.2,4.88-1.71a7,7,0,0,1,4,1.71,12,12,0,0,1,6.47,1.1c3.05,1.59,5,5.37,7,5.86s4.64-.73,7.2-1.59,16.47,5.25,18.91,6.34,15.37,3.54,18.3,16.23-0.24,22-1.71,24.65-6,10.13-6.34,11.84-1.83,9.15-2,10.13a61.55,61.55,0,0,0,0,6.71c0.12,0.49,1.1,1.22.49,1.83s-5.12,3.05-8.91.37c0,0-2.07-1.22-2-2.68s1.1-7.44,1.34-9a49.65,49.65,0,0,0,1-7.44,2.28,2.28,0,0,0-.61-1.71s-6.22,2.44-7.44,2.68a4,4,0,0,0-2,.85,36.3,36.3,0,0,1,1.1,6.34c0.12,2,.73,5.12.12,6.47s-4.27,1.71-4.88,1.71a11,11,0,0,1-2.68-.73s0.49-6.22,0-8.17a28.49,28.49,0,0,0-.85-3.05s-1.22,6.71-1,9.15,1.46,8.05,2,8.54,1.59,4.39-2.07,5.49-7.32,1-8.66-.73a19.12,19.12,0,0,1-2.44-3.66,23.86,23.86,0,0,0,1.46-9.27c-0.12-5.12-1.22-9.64-.85-12.32s-2.07,1.22-6.34-1.22-1.83-1-1.83-1l-1.34,1s5.73,11.59,6.59,14.89a47.46,47.46,0,0,1,1.1,5.73s-2.07,4.15-6.1,5a10.6,10.6,0,0,1-7-.85,23.62,23.62,0,0,0,0-10.13c-1.22-4.51-7.81-14.76-7.81-14.76l-6.1-9.15L144.22,491Z" style="fill:#61db78"/><path d="M151.54,523.46a20.33,20.33,0,0,0,9.64-12.32c2.56-9,3.17-10.37,3.17-15.25s-2-28.18-2-28.18l-12.81-.85-2.68,2,1.1,49.29Z" style="fill:#414042;opacity:0.23000000417232513;isolation:isolate"/><path d="M154,469a4.89,4.89,0,0,0,2.32-3.42,1.82,1.82,0,0,1,2.07-1.59,0.45,0.45,0,0,1,.37.12l1.59,7.2s-1.59.61-1.22,1.83,3.29,18.18,3.29,23.18-2.2,13.91-6.34,16.72-8.66,5.12-9.88,6.83S143.61,523,141.9,523s-6.83-.61-8.78-0.37-5.25.24-5.25-.73a34.48,34.48,0,0,0-1-4.51c-0.37-1.71,1.1-3.17,1.46-4.51a11.08,11.08,0,0,0,.37-2.81,10.7,10.7,0,0,1-3.54-3.05,19.71,19.71,0,0,0-2.07-4.27c-1.46-2-5-6.1-5.73-8.54a48.79,48.79,0,0,1-2.56-11.84c-0.24-4.76.24-10.13,0.85-10.25s-0.85,8.54,4.64,17,11.59,7.69,11.59,7.69a53,53,0,0,0,.12-6.22c-0.12-2.56-.61-5.73,0-6.34s1.83,3.05,4,4.27,1.59,1.1,1.59,1.1,1.1-2.07,1-6.83a22.14,22.14,0,0,1,.73-7s-2.07-4.27-3.05-6.47a31.55,31.55,0,0,0-2.07-4,50.15,50.15,0,0,0,6.22,3.29,29.8,29.8,0,0,1,2.93,1.22,12.64,12.64,0,0,1,4.76-.85Z" style="fill:#61db78"/><path d="M158.74,472.33s-1-3.78-1.83-6,0.73-6.59,3.54-6.59-0.24,1.83,1,1.83,1.34-2.81,2.81-2.44-0.37,2.2.73,4.64a5.18,5.18,0,0,1-.85,6,10.89,10.89,0,0,1-3.78,1.83Z" style="fill:#30893d"/><path d="M138.61,473.92a32.51,32.51,0,0,0-1.22-4.64c-1-1.46-2-2.93-3.05-4.27,0,0-.73-2.2-4.64-2s-1.83,2.07-1.83,2.07l0.61,1.46a16.74,16.74,0,0,0,2.81,5.25,7.19,7.19,0,0,0,5.12,2.07h2.2Z" style="fill:#30893d"/><path d="M147.76,498.08s0.24-.73,2.32-0.73,1.34,0.37,1.34.37,0.37,1.59-1.83,1.46S147.76,498.08,147.76,498.08Z"/><path d="M138.61,518s0.73-2.07,1.83-2.07,3.05,0.73,2.2,1.46S138.61,518,138.61,518Z" style="fill:#30893d"/><path d="M129.34,518.7s-1.1-3.42-1.46-2.68-1.46,1.46,0,2.07Z" style="fill:#30893d"/><ellipse cx="193.03" cy="497.71" rx="24.89" ry="21.11" style="fill:#fff"/><path d="M128.73,510a6.83,6.83,0,0,0,4.27.85c2.68-.24-3.54,1.71-4.76,3.17l-1,1.1a12.18,12.18,0,0,0,1.22-2.93C128.61,511.26,128.73,510,128.73,510Z" style="fill:#414042;opacity:0.23000000417232513;isolation:isolate"/><path d="M131.9,496.74a5.53,5.53,0,0,1,3.54,1.59c0.37,0.37-2-3.17-2.44-4.76a18.37,18.37,0,0,0-1-2.56v3.42C132,495.27,131.9,496.74,131.9,496.74Z" style="fill:#414042;opacity:0.23000000417232513;isolation:isolate"/><path d="M186.68,529.07s0-2.2,1.59-2.93a54,54,0,0,1,10.62-2.68,40.88,40.88,0,0,0,4.39-.49s-8.3,2.81-9.39,3.54-5.12,3.29-5.37,4.15a3.38,3.38,0,0,1-1,1.46Z" style="fill:#414042;opacity:0.23000000417232513;isolation:isolate"/><path d="M192,503.47a1,1,0,0,1,.68.24,0.84,0.84,0,0,1,.25.64v1.59H182.26v-0.88a1.59,1.59,0,0,1,.11-0.57,1.45,1.45,0,0,1,.36-0.53l4.72-4.73q0.59-.6,1.06-1.15a7.33,7.33,0,0,0,.78-1.09,5.1,5.1,0,0,0,.48-1.09,4,4,0,0,0,.17-1.17,2.77,2.77,0,0,0-.16-1,2,2,0,0,0-.46-0.72,1.9,1.9,0,0,0-.71-0.44,2.8,2.8,0,0,0-.93-0.15,2.76,2.76,0,0,0-.88.13,2.36,2.36,0,0,0-1.24.94,2.46,2.46,0,0,0-.32.71,1.17,1.17,0,0,1-.47.66,1.32,1.32,0,0,1-.84.08l-1.4-.25a5.77,5.77,0,0,1,.62-2,4.69,4.69,0,0,1,1.16-1.41,4.79,4.79,0,0,1,1.59-.85,6.37,6.37,0,0,1,1.93-.29,5.86,5.86,0,0,1,2,.32,4.44,4.44,0,0,1,1.53.9,4.05,4.05,0,0,1,1,1.4,4.52,4.52,0,0,1,.36,1.82,4.86,4.86,0,0,1-.25,1.59,6.65,6.65,0,0,1-.68,1.4,9.46,9.46,0,0,1-1,1.29q-0.57.62-1.19,1.27L186,503.78a7.89,7.89,0,0,1,1-.23,6,6,0,0,1,1-.08h4Z"/><path d="M205.87,498.16a12.77,12.77,0,0,1-.44,3.54,7.25,7.25,0,0,1-1.21,2.48,4.88,4.88,0,0,1-1.82,1.46,5.39,5.39,0,0,1-2.27.48,5.32,5.32,0,0,1-2.25-.48,4.84,4.84,0,0,1-1.8-1.46,7.21,7.21,0,0,1-1.19-2.48,14.74,14.74,0,0,1,0-7.07,7.22,7.22,0,0,1,1.19-2.48,4.84,4.84,0,0,1,1.8-1.46,5.32,5.32,0,0,1,2.25-.48,5.39,5.39,0,0,1,2.27.48,4.87,4.87,0,0,1,1.82,1.46,7.27,7.27,0,0,1,1.21,2.48A12.75,12.75,0,0,1,205.87,498.16Zm-2.74,0a13.15,13.15,0,0,0-.25-2.8,5.62,5.62,0,0,0-.66-1.76,2.42,2.42,0,0,0-1-.92,2.51,2.51,0,0,0-1.12-.26,2.46,2.46,0,0,0-1.1.26,2.39,2.39,0,0,0-.94.92,5.66,5.66,0,0,0-.65,1.76,16.28,16.28,0,0,0,0,5.59,5.66,5.66,0,0,0,.65,1.76,2.39,2.39,0,0,0,.94.92,2.46,2.46,0,0,0,1.1.26,2.51,2.51,0,0,0,1.12-.26,2.42,2.42,0,0,0,1-.92,5.62,5.62,0,0,0,.66-1.76A13.15,13.15,0,0,0,203.12,498.16Z"/><path d="M244.58,338.69a23.42,23.42,0,0,1,1.83-1.71,2.26,2.26,0,0,0,.85-0.24l2.56-3.66a6.8,6.8,0,0,1,3.05-2.81c1.71-.61,2-2.2,4.88-1.71a7,7,0,0,1,4,1.71,12,12,0,0,1,6.47,1.1c3.05,1.59,5,5.37,7,5.86s4.64-.73,7.2-1.59,16.47,5.25,18.91,6.34,15.37,3.54,18.3,16.23-0.24,22-1.71,24.65-6,10.13-6.34,11.84-1.83,9.15-2,10.13a61.55,61.55,0,0,0,0,6.71c0.12,0.49,1.1,1.22.49,1.83s-5.12,3.05-8.91.37c0,0-2.07-1.22-2-2.68s1.1-7.44,1.34-9a49.65,49.65,0,0,0,1-7.44,2.28,2.28,0,0,0-.61-1.71s-6.22,2.44-7.44,2.68a4,4,0,0,0-2,.85,36.3,36.3,0,0,1,1.1,6.34c0.12,2,.73,5.12.12,6.47s-4.27,1.71-4.88,1.71a11,11,0,0,1-2.68-.73s0.49-6.22,0-8.17a28.49,28.49,0,0,0-.85-3.05s-1.22,6.71-1,9.15,1.46,8.05,2,8.54,1.59,4.39-2.07,5.49-7.32,1-8.66-.73a19.12,19.12,0,0,1-2.44-3.66,23.86,23.86,0,0,0,1.46-9.27c-0.12-5.12-1.22-9.64-.85-12.32s-2.07,1.22-6.34-1.22-1.83-1-1.83-1l-1.34,1s5.73,11.59,6.59,14.89a47.46,47.46,0,0,1,1.1,5.73s-2.07,4.15-6.1,5a10.6,10.6,0,0,1-7-.85,23.62,23.62,0,0,0,0-10.13c-1.22-4.51-7.81-14.76-7.81-14.76l-6.1-9.15-2.07-24.77Z" style="fill:#61db78"/><path d="M249.22,393.35A20.33,20.33,0,0,0,258.85,381c2.56-9,3.17-10.37,3.17-15.25s-2-28.18-2-28.18l-12.81-.85-2.68,2,1.1,49.29Z" style="fill:#414042;opacity:0.23000000417232513;isolation:isolate"/><path d="M251.66,338.94a4.89,4.89,0,0,0,2.32-3.42,1.82,1.82,0,0,1,2.07-1.59,0.45,0.45,0,0,1,.37.12l1.59,7.2s-1.59.61-1.22,1.83,3.29,18.18,3.29,23.18-2.2,13.91-6.34,16.72-8.66,5.12-9.88,6.83-2.56,3.05-4.27,3.05-6.83-.61-8.78-0.37-5.25.24-5.25-.73a34.48,34.48,0,0,0-1-4.51c-0.37-1.71,1.1-3.17,1.46-4.51a11.08,11.08,0,0,0,.37-2.81,10.7,10.7,0,0,1-3.54-3.05,19.71,19.71,0,0,0-2.07-4.27c-1.46-2-5-6.1-5.73-8.54a48.79,48.79,0,0,1-2.56-11.84c-0.24-4.76.24-10.13,0.85-10.25s-0.85,8.54,4.64,17,11.59,7.69,11.59,7.69a53,53,0,0,0,.12-6.22c-0.12-2.56-.61-5.73,0-6.34s1.83,3.05,4,4.27,1.59,1.1,1.59,1.1,1.1-2.07,1-6.83a22.14,22.14,0,0,1,.73-7s-2.07-4.27-3.05-6.47a31.55,31.55,0,0,0-2.07-4,50.15,50.15,0,0,0,6.22,3.29,29.8,29.8,0,0,1,2.93,1.22,12.64,12.64,0,0,1,4.76-.85Z" style="fill:#61db78"/><path d="M256.41,342.23s-1-3.78-1.83-6,0.73-6.59,3.54-6.59-0.24,1.83,1,1.83,1.34-2.81,2.81-2.44-0.37,2.2.73,4.64a5.18,5.18,0,0,1-.85,6A10.89,10.89,0,0,1,258,341.5Z" style="fill:#30893d"/><path d="M236.28,343.82a32.51,32.51,0,0,0-1.22-4.64c-1-1.46-2-2.93-3.05-4.27,0,0-.73-2.2-4.64-2s-1.83,2.07-1.83,2.07l0.61,1.46a16.74,16.74,0,0,0,2.81,5.25,7.19,7.19,0,0,0,5.12,2.07h2.2Z" style="fill:#30893d"/><path d="M245.43,368s0.24-.73,2.32-0.73,1.34,0.37,1.34.37,0.37,1.59-1.83,1.46S245.43,368,245.43,368Z"/><path d="M236.28,387.86s0.73-2.07,1.83-2.07,3.05,0.73,2.2,1.46S236.28,387.86,236.28,387.86Z" style="fill:#30893d"/><path d="M227,388.59s-1.1-3.42-1.46-2.68-1.46,1.46,0,2.07Z" style="fill:#30893d"/><ellipse cx="290.7" cy="367.61" rx="24.89" ry="21.11" style="fill:#fff"/><path d="M226.4,379.93a6.83,6.83,0,0,0,4.27.85c2.68-.24-3.54,1.71-4.76,3.17l-1,1.1a12.18,12.18,0,0,0,1.22-2.93C226.28,381.15,226.4,379.93,226.4,379.93Z" style="fill:#414042;opacity:0.23000000417232513;isolation:isolate"/><path d="M229.57,366.63a5.53,5.53,0,0,1,3.54,1.59c0.37,0.37-2-3.17-2.44-4.76a18.37,18.37,0,0,0-1-2.56v3.42C229.69,365.17,229.57,366.63,229.57,366.63Z" style="fill:#414042;opacity:0.23000000417232513;isolation:isolate"/><path d="M284.35,399s0-2.2,1.59-2.93a54,54,0,0,1,10.62-2.68,40.88,40.88,0,0,0,4.39-.49s-8.3,2.81-9.39,3.54-5.12,3.29-5.37,4.15a3.38,3.38,0,0,1-1,1.46Z" style="fill:#414042;opacity:0.23000000417232513;isolation:isolate"/><path d="M296.49,373.85v2h-8.61v-2H291v-9.07q0-.54,0-1.11l-2.24,1.87a0.89,0.89,0,0,1-.74.19,0.86,0.86,0,0,1-.3-0.11,0.62,0.62,0,0,1-.19-0.18l-0.84-1.15,4.75-4h2.18v13.59h2.8Z"/><circle cx="421.15" cy="395.41" r="7.76" style="fill:#4f4f4f"/><circle cx="421.15" cy="387.66" r="5.4" style="fill:#ed2d64"/><circle cx="421.15" cy="403.67" r="5.4" style="fill:#ed2d64"/><circle cx="423.67" cy="403.67" r="1.67" style="fill:#fff"/><path d="M384.09,397.23l-0.93-.76c0.58-.71,1-1.11,1-1.13l0.86,0.85S384.62,396.58,384.09,397.23Z" style="fill:#4f4f4f"/><path d="M416,435.37l-0.23-1.18a15.92,15.92,0,0,0,2.6-.75l0.43,1.12A17.15,17.15,0,0,1,416,435.37Zm5.4-2.07-0.62-1a13.48,13.48,0,0,0,2.16-1.59l0.81,0.89a14.67,14.67,0,0,1-2.35,1.73h0Zm4.27-4-1-.66a7.22,7.22,0,0,0,1-2.37l1.18,0.26a8.42,8.42,0,0,1-1.17,2.76h0Zm0-5.52a5.89,5.89,0,0,0-1.17-2.24l0.93-.76a7.08,7.08,0,0,1,1.4,2.7Zm-3.12-4c-0.26-.18-0.53-0.35-0.82-0.52a11.32,11.32,0,0,0-1.53-.74l0.44-1.12a12.52,12.52,0,0,1,1.69.82c0.31,0.18.61,0.37,0.89,0.56Zm-29.13-1h-0.88l0-1.2h0.86c0.59,0,1.23,0,1.9,0l0.05,1.2c-0.68,0-1.34,0-2,0h0Zm-3.75-.23a17.79,17.79,0,0,1-2.84-.6l0.35-1.15a16.6,16.6,0,0,0,2.65.56Zm8.54,0-0.1-1.2,2.78-.27,0.13,1.2-2.8.27h0Zm5.6-.58-0.13-1.2,2.8-.29,0.12,1.2c-1,.09-1.9.17-2.79,0.29h0Zm13.8-.24a22,22,0,0,0-2.71-.34l0.07-1.21a23.17,23.17,0,0,1,2.86.36Zm-8.24-.29-0.08-1.2c1-.07,2-0.11,2.84-0.12v1.2c-0.84,0-1.75,0-2.76.12h0Zm-25.23-.66a10.39,10.39,0,0,1-2.06-1.6l-0.25-.25,0.87-.83,0.23,0.23a9.19,9.19,0,0,0,1.83,1.41Zm-4.09-4.2a10.5,10.5,0,0,1-1.11-2.75l1.18-.28a9.3,9.3,0,0,0,1,2.45Zm-0.2-5.65-1.2,0a13,13,0,0,1,.45-2.9l1.16,0.31A11.82,11.82,0,0,0,379.82,407Zm1.34-5.16-1.08-.51a21.8,21.8,0,0,1,1.37-2.53l1,0.65A20.62,20.62,0,0,0,381.17,401.84Z" style="fill:#4f4f4f"/><path d="M412.74,435.69a11.56,11.56,0,0,1-1.17,0l0.08-1.2c0.46,0,.93,0,1.39,0v1.2h-0.3Z" style="fill:#4f4f4f"/><circle cx="423.67" cy="387.66" r="1.67" style="fill:#fff"/><path d="M408.71,398.29s7,7.27,7,14.1-1.5,10.6-7,10.6-6.9-4.27-6.9-10.24S408.71,398.29,408.71,398.29Z" style="fill:#ccc"/><path d="M408.85,393.06s-7-7.29-7-14.12,1.5-10.6,7-10.6,6.9,4.27,6.9,10.24S408.85,393.06,408.85,393.06Z" style="fill:#ccc"/><circle cx="403.3" cy="395.77" r="12.44" style="fill:#4f4f4f"/><circle cx="403.3" cy="395.77" r="10.09" style="fill:#fff"/><path d="M406.11,398.51v1.11h-4.8v-1.11h1.76v-5.06q0-.3,0-0.62l-1.25,1a0.5,0.5,0,0,1-.41.11,0.48,0.48,0,0,1-.17-0.06,0.35,0.35,0,0,1-.11-0.1l-0.47-.64,2.65-2.25h1.22v7.58h1.56Z"/></svg>